<?xml version="1.0" standalone="no"?>
<!DOCTYPE svg PUBLIC "-//W3C//DTD SVG 1.1//EN" "http://www.w3.org/Graphics/SVG/1.1/DTD/svg11.dtd" >
<svg xmlns="http://www.w3.org/2000/svg" xmlns:xlink="http://www.w3.org/1999/xlink" version="1.1">
<metadata>
Created by FontForge 20170731 at Thu Jun 25 05:24:44 2020
 By Aleksey,,,
Copyright 2018 The Rowdies Project Authors (https://github.com/magictype/rowdies)
</metadata>
<defs>
<font id="Rowdies-Regular" horiz-adv-x="0" >
  <font-face 
    font-family="Rowdies"
    font-weight="400"
    font-stretch="normal"
    units-per-em="1000"
    panose-1="0 0 0 0 0 0 0 0 0 0"
    ascent="800"
    descent="-200"
    x-height="472"
    cap-height="708"
    bbox="-590 -680 4315 1228"
    underline-thickness="50"
    underline-position="-175"
    unicode-range="U+000D-FB02"
  />
<missing-glyph horiz-adv-x="599" 
d="M0 0v708h599v-708h-599zM179 160h240v388h-240v-388z" />
    <glyph glyph-name="f_f" unicode="ff" horiz-adv-x="800" 
d="M73 0v324l-53 100l53 48q-5 17 -7.5 45.5t-2.5 46.5q0 57 26.5 100t73.5 67.5t106 24.5q28 0 59.5 -2.5t54.5 -8.5l127 -101l-57 -99l-155 70q-34 0 -50 -24.5t-16 -54.5q0 -22 7 -39t14 -25h200v-120h-200v-190l10 -101l-10 -61h-180zM423 0v324l-53 100l53 48
q-5 17 -7.5 45.5t-2.5 46.5q0 57 26.5 100t73.5 67.5t106 24.5q28 0 59.5 -2.5t54.5 -8.5l107 -61l-77 -139l-115 70q-34 0 -50 -24.5t-16 -54.5q0 -22 7 -39t14 -25h160v-120h-160v-190l10 -101l-10 -61h-180z" />
    <glyph glyph-name="f_f_i" unicode="ffi" horiz-adv-x="1041" 
d="M73 0v324l-53 100l53 48q-5 17 -7.5 45.5t-2.5 46.5q0 57 26.5 100t73.5 67.5t106 24.5q28 0 59.5 -2.5t54.5 -8.5l127 -101l-57 -99l-155 70q-34 0 -50 -24.5t-16 -54.5q0 -22 7 -39t14 -25h200v-120h-200v-190l10 -101l-10 -61h-180zM437 0v324l-53 100l53 48
q-5 17 -7.5 45.5t-2.5 46.5q0 57 26.5 100t73.5 67.5t106 24.5q28 0 59.5 -2.5t54.5 -8.5l70 -56l67 67l127 -127l-127 -128l-222 114q-34 0 -50 -24.5t-16 -54.5q0 -22 7 -39t14 -25h357v-472h-180v331l-6 21h-171v-190l10 -101l-10 -61h-180z" />
    <glyph glyph-name="f_f_l" unicode="ffl" horiz-adv-x="1038" 
d="M73 0v324l-53 100l53 48q-5 17 -7.5 45.5t-2.5 46.5q0 57 26.5 100t73.5 67.5t106 24.5q28 0 59.5 -2.5t54.5 -8.5l127 -101l-57 -99l-155 70q-34 0 -50 -24.5t-16 -54.5q0 -22 7 -39t14 -25h200v-120h-200v-190l10 -101l-10 -61h-180zM437 0v324l-53 100l53 48
q-5 17 -7.5 45.5t-2.5 46.5q0 57 26.5 100t73.5 67.5t106 24.5q28 0 59.5 -2.5t54.5 -8.5l51 -37h180v-708h-180v548l-6 30l-130 37q-34 0 -50 -24.5t-16 -54.5q0 -22 7 -39t14 -25h130v-120h-130v-190l10 -101l-10 -61h-180z" />
    <glyph glyph-name="f_i" unicode="fi" horiz-adv-x="677" 
d="M73 0v324l-53 100l53 48q-5 17 -7.5 45.5t-2.5 46.5q0 57 26.5 100t73.5 67.5t106 24.5q28 0 59.5 -2.5t54.5 -8.5l70 -56l67 67l127 -127l-127 -128l-222 114q-34 0 -50 -24.5t-16 -54.5q0 -22 7 -39t14 -25h357v-472h-180v331l-6 21h-171v-190l10 -101l-10 -61h-180z
" />
    <glyph glyph-name="f_l" unicode="fl" horiz-adv-x="674" 
d="M73 0v324l-53 100l53 48q-5 17 -7.5 45.5t-2.5 46.5q0 57 26.5 100t73.5 67.5t106 24.5q28 0 59.5 -2.5t54.5 -8.5l51 -37h180v-708h-180v548l-6 30l-130 37q-34 0 -50 -24.5t-16 -54.5q0 -22 7 -39t14 -25h130v-120h-130v-190l10 -101l-10 -61h-180z" />
    <glyph glyph-name=".notdef" horiz-adv-x="599" 
d="M0 0v708h599v-708h-599zM179 160h240v388h-240v-388z" />
    <glyph glyph-name=".null" 
 />
    <glyph glyph-name="nonmarkingreturn" horiz-adv-x="333" 
 />
    <glyph glyph-name="NULL" 
 />
    <glyph glyph-name="NULL" 
 />
    <glyph glyph-name="CR" unicode="&#xd;" horiz-adv-x="160" 
 />
    <glyph glyph-name="space" unicode=" " horiz-adv-x="240" 
 />
    <glyph glyph-name="exclam" unicode="!" horiz-adv-x="380" 
d="M168 261l-78 378l100 80l99 -81l-81 -377h-40zM190 -29l-110 110l110 110l110 -110z" />
    <glyph glyph-name="quotedbl" unicode="&#x22;" horiz-adv-x="420" 
d="M100 480l-70 230l80 100l80 -100l-70 -230h-20zM300 480l-70 230l80 100l80 -100l-70 -230h-20z" />
    <glyph glyph-name="numbersign" unicode="#" horiz-adv-x="952" 
d="M140 0v60l42 114h-132v130h180l18 50l12 50h-150v130h180l40 174h186v-60l-39 -114h103l49 174h185v-60l-43 -114h131v-130h-180l-19 -50l-11 -50h150v-130h-180l-39 -174h-184v60l35 114h-107l-42 -174h-185zM398 304h115l31 100h-112z" />
    <glyph glyph-name="dollar" unicode="$" horiz-adv-x="710" 
d="M290 -60l3 53q-51 6 -100 18.5t-87.5 29t-55.5 33.5l49 149q49 -26 98 -42.5t104 -24.5l6 110q-9 1 -17 3q-126 26 -183 69.5t-57 127.5q0 85 65 131.5t178 55.5l-3 57h130l-3 -57q91 -6 136.5 -22.5t64.5 -27.5l-40 -151q-23 8 -64 19.5t-105 18.5l-6 -108q9 -2 17 -3
q70 -11 124 -33t85 -61t31 -102q0 -85 -62 -133t-181 -57l3 -53h-130zM230 455q0 -26 20.5 -38.5t55.5 -19.5l-5 99h-7q-26 0 -45 -10.5t-19 -30.5zM474 192q0 20 -18 32t-52 21l5 -96q28 1 46.5 10.5t18.5 32.5z" />
    <glyph glyph-name="percent" unicode="%" horiz-adv-x="920" 
d="M240 387q-66 0 -108 22.5t-62 59.5t-20 83t20 83t62 59.5t108 22.5q65 0 107 -22.5t62.5 -59.5t20.5 -83t-20.5 -83t-62.5 -59.5t-107 -22.5zM110 0v60l339 357l185 290h186v-60l-318 -329l-206 -318h-186zM240 497q24 0 35.5 9.5t15 22.5t3.5 23t-3.5 23t-15 22.5
t-35.5 9.5t-35.5 -9.5t-15 -22.5t-3.5 -23t3.5 -23t15 -22.5t35.5 -9.5zM680 -10q-66 0 -108 22.5t-62 60t-20 82.5q0 46 20 83t62 59.5t108 22.5q65 0 107 -22.5t62.5 -59.5t20.5 -83q0 -45 -20.5 -82.5t-62.5 -60t-107 -22.5zM680 100q24 0 35.5 9.5t15 22.5t3.5 23
t-3.5 23t-15 22.5t-35.5 9.5t-35.5 -9.5t-15 -22.5t-3.5 -23t3.5 -23t15 -22.5t35.5 -9.5z" />
    <glyph glyph-name="ampersand" unicode="&#x26;" horiz-adv-x="809" 
d="M268 -10q-100 0 -159 53.5t-59 153.5q0 51 17 87.5t43 59.5t53.5 36t48.5 18q-10 12 -24 31.5t-24.5 48t-10.5 67.5q0 30 14 62t42 59.5t68 41.5q26 9 58 11.5t62.5 1t55 -5t35.5 -6.5l79 -80l-61 -103l-99 31q-29 -1 -46.5 -12.5t-17.5 -40.5q0 -23 16.5 -44.5
t36.5 -41.5l147 -147l10 11l-30 130l10 60l198 -20v-154l-100 -110l74 -69l74 -59v-60h-192l-81 84q-13 -12 -41.5 -34.5t-76.5 -41t-120 -18.5zM308 150q35 0 63 12.5t35 19.5l-105 100q-29 -10 -45 -30.5t-16 -46.5q0 -27 18.5 -41t49.5 -14z" />
    <glyph glyph-name="quotesingle" unicode="'" horiz-adv-x="220" 
d="M100 480l-70 230l80 100l80 -100l-70 -230h-20z" />
    <glyph glyph-name="parenleft" unicode="(" horiz-adv-x="335" 
d="M272 -80l33 80q-17 17 -38.5 41.5t-41.5 65t-33 104.5t-13 158q0 95 13.5 154.5t34 94.5t41.5 55t37 36l-33 80q-15 0 -43.5 -10t-62.5 -35.5t-65 -72.5t-51 -121t-20 -181t20 -184t51 -128.5t65 -81.5t62.5 -42.5t43.5 -12.5z" />
    <glyph glyph-name="parenright" unicode=")" horiz-adv-x="335" 
d="M63 -80l-33 80q17 17 38.5 41.5t41.5 65t33 104.5t13 158q0 95 -13.5 154.5t-34 94.5t-41.5 55t-37 36l33 80q15 0 43.5 -10t62.5 -35.5t65 -72.5t51 -121t20 -181t-20 -184t-51 -128.5t-65 -81.5t-62.5 -42.5t-43.5 -12.5z" />
    <glyph glyph-name="asterisk" unicode="*" horiz-adv-x="353" 
d="M137 468l-81 59l21 31l75 41l-88 -8l-34 12l31 95l35 -11l64 -56l-35 78v37h100v-37l-31 -78l62 57l36 10l31 -95l-35 -13l-82 8l72 -40l21 -30l-81 -59l-23 29l-17 82l-18 -83z" />
    <glyph glyph-name="plus" unicode="+" horiz-adv-x="520" 
d="M210 90v160h-160v100h160v160h100v-160h160v-100h-160v-160h-100z" />
    <glyph glyph-name="comma" unicode="," horiz-adv-x="330" 
d="M112 -226l-37 14l55 212l-80 80l105 104l125 -114z" />
    <glyph glyph-name="hyphen" unicode="-" horiz-adv-x="420" 
d="M50 180v120h320v-120h-320z" />
    <glyph glyph-name="period" unicode="." horiz-adv-x="320" 
d="M160 -30l-110 110l110 110l110 -110z" />
    <glyph glyph-name="slash" unicode="/" horiz-adv-x="436" 
d="M0 -107l305 815h131l-306 -815h-130z" />
    <glyph glyph-name="zero" unicode="0" horiz-adv-x="676" 
d="M338 -10q-85 0 -152.5 35t-106.5 114.5t-39 214.5q0 134 39 213.5t106.5 115t152.5 35.5q86 0 153 -36t106 -115.5t39 -212.5t-39 -213t-106 -115.5t-153 -35.5zM338 164q54 0 81.5 42t27.5 148t-27.5 148t-81.5 42q-53 0 -81 -43t-28 -147t28 -147t81 -43z" />
    <glyph glyph-name="one" unicode="1" horiz-adv-x="404" 
d="M150 0v509h-120v159l304 40l10 -60l-10 -100v-548h-184z" />
    <glyph glyph-name="two" unicode="2" horiz-adv-x="610" 
d="M40 0v139l19 12t49 33t65 47t66 54q45 39 75 69.5t45 60.5t15 69q0 64 -85 64q-42 0 -84.5 -10.5t-78 -24.5t-55.5 -24v170q29 16 93 36t156 20q130 0 190 -54.5t60 -164.5q0 -57 -21 -102t-54 -80.5t-70.5 -61.5t-71.5 -43.5t-56 -28.5l5 -20l268 20v-180h-530z" />
    <glyph glyph-name="three" unicode="3" horiz-adv-x="629" 
d="M280 -10q-32 0 -60.5 2t-53.5 6l-126 57l50 159l200 -55q58 0 84 19.5t26 49.5q0 27 -19 38t-64 11h-124v161h112q34 0 54.5 14t20.5 39q0 32 -19 44.5t-54 12.5q-50 0 -96 -10t-82 -23.5t-59 -23.5v170q20 10 57 23t88.5 23t112.5 10q113 0 171.5 -49.5t58.5 -139.5
q0 -52 -21.5 -85.5t-46.5 -53.5q42 -19 70.5 -56.5t28.5 -103.5q0 -239 -309 -239z" />
    <glyph glyph-name="four" unicode="4" horiz-adv-x="696" 
d="M372 0v100h-362v132l286 476h260l20 -61l-20 -100v-285h130v-152l-130 -10v-100h-184zM224 262h148v248h-18z" />
    <glyph glyph-name="five" unicode="5" horiz-adv-x="655" 
d="M317 -10q-38 0 -70.5 2t-60.5 6l-146 46l50 179l207 -65q53 0 82.5 17.5t29.5 61.5q0 33 -22.5 51t-78.5 18h-228v402h485v-169l-250 10h-42v-96h67q139 0 202 -58t63 -162q0 -77 -35.5 -131.5t-100 -83t-152.5 -28.5z" />
    <glyph glyph-name="six" unicode="6" horiz-adv-x="687" 
d="M362 -10q-97 0 -169.5 36t-112.5 112t-40 195q0 111 28.5 185.5t77 118t109 62.5t124.5 19q51 0 99.5 -8t70.5 -18l91 -81l-90 -145l-161 83q-66 0 -110.5 -37.5t-44.5 -106.5l148 30q71 0 131.5 -19.5t97 -67t36.5 -131.5q0 -103 -71.5 -165t-213.5 -62zM361 162
q46 0 71.5 16.5t25.5 44.5q0 29 -23 53t-72 24q-43 0 -73 -18.5t-41 -31.5q8 -37 35.5 -62.5t76.5 -25.5z" />
    <glyph glyph-name="seven" unicode="7" horiz-adv-x="584" 
d="M130 0l167 444l53 105h-30l-290 -20v179h524v-121l-165 -427l-50 -160h-209z" />
    <glyph glyph-name="eight" unicode="8" horiz-adv-x="676" 
d="M340 -10q-55 0 -108 10.5t-96.5 35t-69.5 66.5t-26 105q0 64 27 103t71 60q-36 26 -52 64.5t-16 86.5q0 58 31.5 102t91.5 69.5t145 25.5q128 0 198 -51t70 -146q0 -53 -15 -89.5t-44 -59.5q42 -21 65.5 -60.5t23.5 -104.5q0 -63 -25 -105t-67.5 -66.5t-95.5 -35
t-108 -10.5zM340 426q37 0 57 19.5t20 44.5q0 26 -20 42t-57 16q-36 0 -58.5 -14.5t-22.5 -43.5q0 -28 22.5 -46t58.5 -18zM340 160q54 0 80.5 17.5t26.5 41.5q0 30 -24.5 49.5t-66 28t-92.5 6.5q-12 -13 -20.5 -32t-8.5 -40q0 -31 25.5 -51t79.5 -20z" />
    <glyph glyph-name="nine" unicode="9" horiz-adv-x="687" 
d="M309 -10q-40 0 -69 3.5t-50 7.5l-132 74l69 139l191 -54q68 0 99 37.5t31 94.5l-154 -30q-71 0 -128.5 22t-91.5 72t-34 134q0 105 77 166.5t219 61.5q94 0 164 -36t108.5 -115.5t38.5 -212.5q0 -127 -45 -207.5t-121.5 -118.5t-171.5 -38zM324 408q45 0 76.5 3.5
t47.5 6.5q0 58 -31.5 93t-90.5 35q-52 0 -74.5 -22t-22.5 -50q0 -39 23 -52.5t72 -13.5z" />
    <glyph glyph-name="colon" unicode=":" horiz-adv-x="320" 
d="M160 270l-110 110l110 110l110 -110zM160 -30l-110 110l110 110l110 -110z" />
    <glyph glyph-name="semicolon" unicode=";" horiz-adv-x="330" 
d="M122 -226l-37 14l55 212l-80 80l105 104l125 -114zM160 270l-110 110l110 110l110 -110z" />
    <glyph glyph-name="less" unicode="&#x3c;" horiz-adv-x="440" 
d="M370 110v100l-324 90l324 90v100l-420 -130v-120z" />
    <glyph glyph-name="equal" unicode="=" horiz-adv-x="520" 
d="M50 150v100h420v-100h-420zM50 350v100h420v-100h-420z" />
    <glyph glyph-name="greater" unicode="&#x3e;" horiz-adv-x="520" 
d="M50 110v100l324 90l-324 90v100l420 -130v-120z" />
    <glyph glyph-name="question" unicode="?" horiz-adv-x="534" 
d="M227 231l-70 80l82 76q30 29 48 56.5t18 58.5q0 24 -17.5 39t-61.5 15l-128 -43l-48 134q28 23 81.5 47t129.5 24q117 0 170 -49t53 -126q0 -70 -35.5 -124.5t-81.5 -87.5zM227 -30l-110 110l110 110l110 -110z" />
    <glyph glyph-name="at" unicode="@" horiz-adv-x="971" 
d="M490 -182q-136 0 -239.5 53t-162 154t-58.5 243q0 102 35 183.5t99 138.5t151.5 87.5t192.5 30.5q104 0 184.5 -31.5t136 -87.5t84 -130.5t28.5 -160.5q0 -139 -59 -206t-164 -67q-37 0 -73 19t-55 73q-19 -27 -56 -48.5t-91 -21.5q-42 0 -76 19.5t-54 62t-20 112.5v25
q0 97 40 145.5t110 48.5q50 0 73 -13.5t33 -22.5l10 41h102v-249q0 -55 19.5 -78t48.5 -23q40 0 63.5 39t23.5 134q0 90 -30.5 162.5t-98 115t-179.5 42.5q-106 0 -185.5 -40t-123.5 -116t-44 -184q0 -110 43.5 -190.5t123 -124t186.5 -43.5q53 0 84.5 6t48.5 13t23 10v-78
q-24 -21 -72.5 -32t-101.5 -11zM488 154q32 0 40.5 29.5t8.5 72.5q0 38 -8 68t-37 30q-48 0 -48 -68v-54q0 -37 12 -57.5t32 -20.5z" />
    <glyph glyph-name="A" unicode="A" horiz-adv-x="769" 
d="M10 0l48 169v127l74 30l130 381h259l161 -448l77 -142v-117h-177l-50 160h-291l-43 -160h-188zM307 314h170l-76 229h-21z" />
    <glyph glyph-name="B" unicode="B" horiz-adv-x="769" 
d="M80 0v548l-20 100l20 60h340q113 0 181 -42t68 -136q0 -47 -16 -85t-46 -59q68 -22 100 -67t32 -107q0 -109 -63.5 -160.5t-185.5 -51.5h-410zM260 433h158q34 0 49 16t15 42q0 33 -22 45t-52 12h-148v-115zM260 160h200q36 0 53.5 9t23 23t5.5 29q0 26 -18.5 44.5
t-53.5 18.5h-210v-124z" />
    <glyph glyph-name="C" unicode="C" horiz-adv-x="694" 
d="M399 -10q-68 0 -132 15.5t-115.5 55.5t-81.5 111t-30 182q0 103 30 173t80 112t109.5 60.5t119.5 18.5q51 0 99.5 -8t70.5 -18l111 -91l-90 -145l-171 88q-71 0 -120 -46.5t-49 -143.5q0 -69 24.5 -112t67.5 -63t98 -20q58 0 99 9.5t72 23t59 26.5v-168q-35 -22 -93 -41
t-158 -19z" />
    <glyph glyph-name="D" unicode="D" horiz-adv-x="789" 
d="M80 0v547l-20 100l20 61h298q72 0 138.5 -13.5t119 -50.5t83 -106t30.5 -179t-31 -180.5t-84 -109.5t-119.5 -54t-136.5 -15h-298zM262 160h116q88 0 135 46.5t47 152.5t-47.5 147.5t-134.5 41.5h-116v-388z" />
    <glyph glyph-name="E" unicode="E" horiz-adv-x="688" 
d="M80 0l-20 60l20 100v548h495l50 -30l-66 -140l-90 10h-209v-110h269v-155h-118l-151 10v-133h299l119 -96l-59 -64h-539z" />
    <glyph glyph-name="F" unicode="F" horiz-adv-x="631" 
d="M80 0v546l-20 102l20 60h495l50 -30l-66 -140l-90 10h-219l10 -110h269v-155h-121l-148 10v-134l11 -100l-11 -59h-180z" />
    <glyph glyph-name="G" unicode="G" horiz-adv-x="771" 
d="M419 -10q-77 0 -145.5 15.5t-121 55.5t-82.5 111t-30 182q0 107 32 177.5t85.5 111.5t119 58t132.5 17q49 0 85 -5t69 -13l136 -79l-70 -155l-221 78q-48 0 -88.5 -19t-65 -60.5t-24.5 -111.5q0 -113 50.5 -158.5t138.5 -45.5q45 0 70.5 4.5t39.5 7.5v76h-127v148h318
l11 -60l-22 -83v-210q-11 -4 -49.5 -14t-100 -19t-140.5 -9z" />
    <glyph glyph-name="H" unicode="H" horiz-adv-x="749" 
d="M70 0v547l-10 100l10 61h180v-271h249v271h180v-376l10 -69v-263h-190v264h-249v-60l10 -204h-190z" />
    <glyph glyph-name="I" unicode="I" horiz-adv-x="311" 
d="M70 0v548l-10 100l10 60h181v-708h-181z" />
    <glyph glyph-name="J" unicode="J" horiz-adv-x="620" 
d="M241 -10q-29 0 -54.5 3t-46.5 7l-130 60l60 152l185 -64q62 0 89 37.5t27 113.5v249l-22 100l11 60h189l1 -441q0 -134 -80 -205.5t-229 -71.5z" />
    <glyph glyph-name="K" unicode="K" horiz-adv-x="749" 
d="M80 0v544l-20 101l20 63h180v-120l-10 -179h60l161 299h199v-60l-198 -281l168 -208l99 -99v-60h-225l-182 265l-72 -10v-135l10 -60l-10 -60h-180z" />
    <glyph glyph-name="L" unicode="L" horiz-adv-x="618" 
d="M80 0l-20 60l20 100v548h180v-411l-10 -137h20l179 10l71 10l88 -116l-49 -64h-479z" />
    <glyph glyph-name="M" unicode="M" horiz-adv-x="919" 
d="M80 0v547l-20 100l21 60h191l196 -380h20l162 380h199l10 -60l-10 -96v-551h-181l3 85v279h-11l-40 -96l-90 -168h-120l-138 264h-10v-81l10 -283h-192z" />
    <glyph glyph-name="N" unicode="N" horiz-adv-x="750" 
d="M80 0v547l-20 100l20 60h161l202 -272l48 -83h10v355h189v-60l-10 -100v-547h-157l-251 352h-10v-60l10 -292h-192z" />
    <glyph glyph-name="O" unicode="O" horiz-adv-x="758" 
d="M379 -10q-64 0 -124.5 15.5t-109 55.5t-77 111t-28.5 182t28.5 182t77 111t109 55.5t124.5 15.5t124.5 -16t109 -56t77 -111t28.5 -181t-28.5 -181t-77 -111t-109 -56t-124.5 -16zM379 160q74 0 112 44t38 150t-38 150t-112 44q-73 0 -111 -45t-38 -149t38 -149t111 -45z
" />
    <glyph glyph-name="P" unicode="P" horiz-adv-x="709" 
d="M80 0v547l-20 101l20 60h320q73 0 131.5 -22.5t93 -76t34.5 -147.5t-37 -148.5t-102.5 -77.5t-149.5 -23h-110v-52l10 -100l-10 -61h-180zM260 370h98q52 0 83 19.5t31 72.5q0 37 -15 55.5t-41.5 24.5t-61.5 6h-104z" />
    <glyph glyph-name="Q" unicode="Q" horiz-adv-x="757" 
d="M120 0l-20 126q-28 35 -44 90t-16 137q0 111 28.5 182t77 111t109 55.5t124.5 15.5t124.5 -16t109 -56t77 -111t28.5 -181q0 -86 -18 -143t-50 -92q-16 -19 -36 -32t-43 -22l1 -5l78 -20l137 -61l-90 -152l-25 12.5t-64 31.5t-80.5 39.5t-75 36.5t-47.5 23q-35 17 -65 24
t-79 7h-141zM299 159h79q80 0 115.5 49.5t35.5 144.5q0 106 -38 150t-112 44q-73 0 -111 -45t-38 -149q0 -47 10.5 -87t26.5 -68t32 -39z" />
    <glyph glyph-name="R" unicode="R" horiz-adv-x="718" 
d="M80 0v547l-20 101l20 60h320q73 0 131.5 -22.5t93 -76t34.5 -147.5q0 -85 -31 -137.5t-86 -78.5l10 -11l99 -124l57 -51v-60h-225l-140 213h-83v-52l10 -100l-10 -61h-180zM260 370h98q52 0 83 19.5t31 72.5q0 37 -15 55.5t-41.5 24.5t-61.5 6h-104z" />
    <glyph glyph-name="S" unicode="S" horiz-adv-x="658" 
d="M310 -10q-55 0 -104 10.5t-85 25.5t-53 28v179q48 -27 121 -50.5t162 -23.5q36 0 53.5 9.5t17.5 33.5q0 26 -39.5 43.5t-124.5 43.5q-66 21 -112.5 46.5t-71 64t-24.5 98.5q0 62 32 112t100 79t174 29q32 0 68.5 -2.5t58.5 -6.5l113 -83l-39 -122l-237 65
q-41 0 -60.5 -17t-19.5 -41q0 -29 33 -46t95 -34q98 -27 152 -60t76 -74.5t22 -93.5q0 -96 -77 -154.5t-231 -58.5z" />
    <glyph glyph-name="T" unicode="T" horiz-adv-x="625" 
d="M220 0v548l-200 -10v170h585v-170l-205 10v-388l11 -100l-11 -60h-180z" />
    <glyph glyph-name="U" unicode="U" horiz-adv-x="738" 
d="M369 -10q-154 0 -231.5 70.5t-77.5 226.5v260l1 101l-1 60h182v-401q0 -70 28 -113.5t99 -43.5t100.5 40.5t29.5 116.5v401h179v-421q0 -153 -75.5 -225t-233.5 -72z" />
    <glyph glyph-name="V" unicode="V" horiz-adv-x="718" 
d="M230 0l-180 549l-30 99v60h190l141 -526h20l139 526h188v-60l-30 -99l-179 -549h-259z" />
    <glyph glyph-name="W" unicode="W" horiz-adv-x="1159" 
d="M210 0l-160 549l-30 99v60h190l125 -516h20l95 516h263l78 -389l16 -127h20l124 516h188v-60l-30 -99l-158 -549h-259l-103 522h-21l-17 -121l-82 -401h-259z" />
    <glyph glyph-name="X" unicode="X" horiz-adv-x="739" 
d="M20 0l181 359l-171 289v60h210l120 -266h20l119 266h220l-183 -352l173 -296v-60h-206l-123 254h-20l-128 -254h-212z" />
    <glyph glyph-name="Y" unicode="Y" horiz-adv-x="719" 
d="M268 0v300l-248 348v60h210l120 -226h20l119 226h210v-60l-255 -354l6 -101v-193h-182z" />
    <glyph glyph-name="Z" unicode="Z" horiz-adv-x="658" 
d="M51 0l-31 60l362 489h-331v159h575v-118l-311 -431h31l282 20v-179h-577z" />
    <glyph glyph-name="bracketleft" unicode="[" horiz-adv-x="280" 
d="M250 -140v100h-81v749h81v100h-220v-949h220z" />
    <glyph glyph-name="backslash" unicode="\" horiz-adv-x="436" 
d="M436 -107l-305 815h-131l306 -815h130z" />
    <glyph glyph-name="bracketright" unicode="]" horiz-adv-x="280" 
d="M30 -140v100h81v749h-81v100h220v-949h-220z" />
    <glyph glyph-name="asciicircum" unicode="^" horiz-adv-x="422" 
d="M50 470l113 240h101l108 -240h-81l-77 148l-84 -148h-80z" />
    <glyph glyph-name="underscore" unicode="_" horiz-adv-x="570" 
d="M10 -160v100h550v-100h-550z" />
    <glyph glyph-name="grave" unicode="`" horiz-adv-x="249" 
d="M168 510l-138 131v61h123l66 -192h-51z" />
    <glyph glyph-name="a" unicode="a" horiz-adv-x="591" 
d="M190 -10q-43 0 -79.5 12.5t-58.5 43.5t-22 86q0 50 25 83t68 49t97 16q52 0 78 -11.5t45 -23.5l7 6q0 30 -5 50t-23 30.5t-56 10.5q-37 0 -78.5 -6.5t-76 -16t-51.5 -18.5v150q31 11 88.5 20.5t141.5 9.5q90 0 142.5 -22.5t75.5 -65t23 -101.5v-133l20 -101l-20 -59h-171
v49l-10 5q-8 -8 -28 -23t-53 -27.5t-79 -12.5zM275 121q27 0 46.5 5t28.5 9v19q0 13 -18.5 25t-57.5 12q-54 0 -54 -38q0 -16 12 -24t43 -8z" />
    <glyph glyph-name="b" unicode="b" horiz-adv-x="587" 
d="M372 -10q-48 0 -76.5 8.5t-41.5 17l-13 8.5v-25h-180v548l-21 100l21 60h180v-161l-10 -113l10 -5q20 19 49.5 36.5t81.5 17.5q89 0 139.5 -57t50.5 -180q0 -92 -25.5 -148.5t-68.5 -81.5t-96 -25zM287 127q39 0 62 27.5t23 82.5q0 54 -19 78.5t-56 24.5l-56 -21v-179
l10.5 -6.5t35.5 -6.5z" />
    <glyph glyph-name="c" unicode="c" horiz-adv-x="535" 
d="M270 -10q-69 0 -124.5 23t-88 77t-32.5 146q0 93 35 146.5t91 76.5t119 23q55 0 94.5 -4t52.5 -7l78 -88l-80 -109l-115 68q-86 0 -86 -106q0 -55 26 -80.5t80 -25.5t97 15t67 28v-144q-31 -16 -81.5 -27.5t-132.5 -11.5z" />
    <glyph glyph-name="d" unicode="d" horiz-adv-x="586" 
d="M215 -10q-47 0 -90.5 24t-71.5 76t-28 136q0 93 27.5 149t71.5 81.5t91 25.5q71 0 100.5 -12l29.5 -12l-10 189l10 60h181v-547l20 -100l-20 -61h-171v49l-10 5l-15 -15.5t-44 -31.5t-71 -16zM290 131l55 14v146q0 23 -15 36.5t-40 13.5q-37 0 -56 -24.5t-19 -80.5
q0 -55 22 -80t53 -25z" />
    <glyph glyph-name="e" unicode="e" horiz-adv-x="558" 
d="M290 -10q-77 0 -137 23t-94 77t-34 146q0 66 22.5 113t60.5 76.5t85 43t97 13.5q86 0 132.5 -17t61.5 -27l50 -159l-20 -62h-310q7 -37 37 -62t99 -25q54 0 93 12t61 21v-134q-30 -16 -86.5 -27.5t-117.5 -11.5zM205 281l138 20l-9 43q-7 4 -20.5 6t-23.5 2
q-28 0 -46.5 -12t-28 -28.5t-10.5 -30.5z" />
    <glyph glyph-name="f" unicode="f" horiz-adv-x="450" 
d="M73 0v324l-53 100l53 48q-5 17 -7.5 45.5t-2.5 46.5q0 57 26.5 100t73.5 67.5t106 24.5q28 0 59.5 -2.5t54.5 -8.5l107 -61l-77 -139l-115 70q-34 0 -50 -24.5t-16 -54.5q0 -22 7 -39t14 -25h160v-120h-160v-190l10 -101l-10 -61h-180z" />
    <glyph glyph-name="g" unicode="g" horiz-adv-x="576" 
d="M256 -243q-25 0 -57 1.5t-52 3.5l-122 59l50 130l157 -51q133 0 133 111v19l-10 5q-14 -14 -44.5 -28.5t-95.5 -14.5q-47 0 -91 23.5t-71.5 75.5t-27.5 135q0 93 28 149.5t71.5 82.5t90.5 26q52 0 85.5 -15t44.5 -29v33h181l10 -60l-11 -60l1 -352q0 -86 -33.5 -140
t-94 -79t-142.5 -25zM290 133q18 0 33 5t22 9v187q-4 3 -15 6t-30 3q-39 0 -62 -25t-23 -81q0 -55 22 -79.5t53 -24.5z" />
    <glyph glyph-name="h" unicode="h" horiz-adv-x="607" 
d="M60 0v548l-20 100l20 60h180v-162l-10 -111l10 -5q12 18 44.5 35.5t85.5 17.5q90 0 135 -51t45 -143v-130l21 -98l-21 -61h-180v263q0 38 -16.5 58.5t-51.5 20.5l-62 -29v-313h-180z" />
    <glyph glyph-name="i" unicode="i" horiz-adv-x="292" 
d="M150 501l-127 128l127 127l127 -127zM60 0v331l-21 80l20 61h181v-472h-180z" />
    <glyph glyph-name="j" unicode="j" horiz-adv-x="387" 
d="M230 502l-127 128l127 127l127 -127zM99 -243q-18 0 -40.5 2.5t-40.5 6.5l-48 49l50 119l88 -34q23 0 31 14.5t7 38t-5 48.5v332l-21 90l20 50h180v-515q0 -105 -57.5 -153t-163.5 -48z" />
    <glyph glyph-name="k" unicode="k" horiz-adv-x="618" 
d="M61 0v548l-21 100l21 60h180v-160l-11 -259h40l77 183h204v-60l-111 -162l74 -90l94 -101v-59h-194l-113 165l-60 -10v-155h-180z" />
    <glyph glyph-name="l" unicode="l" horiz-adv-x="301" 
d="M61 0l-1 548l-20 100l21 60h180v-708h-180z" />
    <glyph glyph-name="m" unicode="m" horiz-adv-x="916" 
d="M40 411l31 61h149v-43l9 -6q11 10 30.5 23.5t47.5 24.5t63 11q104 0 149 -69q18 25 54.5 47.5t101.5 22.5q90 0 135 -51t45 -143v-128l21 -100l-21 -61h-180v263q0 38 -16.5 58.5t-51.5 20.5q-23 0 -40 -17t-17 -43v-282h-180v262q0 38 -16.5 58.5t-51.5 20.5l-62 -19
v-322h-180v301z" />
    <glyph glyph-name="n" unicode="n" horiz-adv-x="607" 
d="M60 0v301l-20 110l31 61h149v-43l9 -6q11 10 30.5 23.5t47.5 24.5t63 11q90 0 135 -51t45 -143v-127l21 -100l-21 -61h-180v262q0 38 -16.5 58.5t-51.5 20.5l-62 -19v-322h-180z" />
    <glyph glyph-name="o" unicode="o" horiz-adv-x="560" 
d="M281 -10q-122 0 -189 58t-67 188q0 131 67 188.5t189 57.5q125 0 189.5 -57.5t64.5 -188.5q0 -130 -64.5 -188t-189.5 -58zM281 120q41 0 57 30.5t16 85.5q0 56 -16 86t-57 30q-42 0 -58.5 -30t-16.5 -86q0 -55 16.5 -85.5t58.5 -30.5z" />
    <glyph glyph-name="p" unicode="p" horiz-adv-x="586" 
d="M60 -243v545l-20 110l31 61h149v-43l10 -5l18 15t49.5 29.5t73.5 14.5q89 0 139.5 -57t50.5 -180q0 -92 -25.5 -148.5t-68.5 -81.5t-96 -25q-72 0 -101.5 11.5l-29.5 11.5v-258h-180zM286 129q38 0 61.5 27t23.5 82q0 54 -19 79t-56 25l-56 -21v-179l10.5 -6.5t35.5 -6.5
z" />
    <glyph glyph-name="q" unicode="q" horiz-adv-x="586" 
d="M335 -245l10 213l10 70l-10 5l-15 -13t-44 -26.5t-71 -13.5q-47 0 -90.5 24t-71.5 76t-28 136q0 93 28 149t71.5 81.5t90.5 25.5q48 0 76.5 -11t41 -22l12.5 -11v35h181v-568l20 -92l-20 -58h-191zM290 131l55 14v146q0 23 -15 36.5t-40 13.5q-37 0 -56 -25t-19 -81
q0 -55 22 -79.5t53 -24.5z" />
    <glyph glyph-name="r" unicode="r" horiz-adv-x="466" 
d="M61 0v313l-21 100l21 60h136l20 -23l14 8.5t39.5 16.5t59.5 8q20 0 40 -3t31 -8l65 -55l-65 -128l-132 55l-30 -10v-334h-178z" />
    <glyph glyph-name="s" unicode="s" horiz-adv-x="500" 
d="M255 -10q-73 0 -129 15t-87 31v139q41 -18 84.5 -28t78.5 -13.5t50 -3.5q17 0 24 5.5t7 13.5q0 11 -18 18.5t-68 19.5q-41 10 -79.5 25.5t-63 43.5t-24.5 75q0 58 27 91t77 46.5t117 13.5q38 0 71 -4t47 -6l93 -60l-45 -107l-175 38q-32 0 -32 -21q0 -22 46 -33
q36 -8 74 -17.5t69.5 -24.5t51 -40t19.5 -66q0 -76 -54.5 -113.5t-160.5 -37.5z" />
    <glyph glyph-name="t" unicode="t" horiz-adv-x="432" 
d="M233 -10q-68 0 -109 40t-41 101v218h-73v95l63 49l71 124h118v-145h140v-130h-140v-214l140 1v-109l-23.5 -7.5t-61.5 -15t-84 -7.5z" />
    <glyph glyph-name="u" unicode="u" horiz-adv-x="587" 
d="M190 -10q-60 0 -92.5 23t-45 66.5t-12.5 104.5v289h180v-263q0 -37 14.5 -58t43.5 -21q27 0 49.5 23t22.5 67v252h180v-312l21 -100l-21 -61h-169v49l-10 5q-13 -13 -37.5 -28t-56 -25.5t-67.5 -10.5z" />
    <glyph glyph-name="v" unicode="v" horiz-adv-x="530" 
d="M156 0l-126 342l-20 130h190l55 -312h20l56 312h189l-20 -130l-134 -342h-210z" />
    <glyph glyph-name="w" unicode="w" horiz-adv-x="920" 
d="M167 0l-137 342l-20 130h190l65 -312h20l76 312h199l75 -312h20l66 312h189l-20 -130l-138 -342h-210l-72 322h-20l-73 -322h-210z" />
    <glyph glyph-name="x" unicode="x" horiz-adv-x="530" 
d="M10 0l72 159l49 79l-111 173v61h180l55 -176h20l55 176h190l-71 -159l-48 -75l108 -178v-60h-179l-55 156h-20l-55 -156h-190z" />
    <glyph glyph-name="y" unicode="y" horiz-adv-x="520" 
d="M101 -243l-141 50l40 149l140 -40q43 0 62.5 22.5t29.5 62.5h-103l-110 342l-19 130h190l55 -330h20l55 330h190l-6.5 -31.5t-18 -83.5t-27 -114.5t-32.5 -126t-35 -116.5q-27 -83 -64.5 -137t-91.5 -80.5t-134 -26.5z" />
    <glyph glyph-name="z" unicode="z" horiz-adv-x="528" 
d="M20 0v90l238 253h-237v130h469v-94l-158 -192l-60 -57h30l206 20v-150h-488z" />
    <glyph glyph-name="braceleft" unicode="{" horiz-adv-x="351" 
d="M321 -140v100h-40q-18 0 -29 13t-11 57v199q0 45 -13.5 68.5t-26.5 32l-13 8.5v2l13 9.5t26.5 35.5t13.5 74v180q0 45 11.5 57.5t28.5 12.5h40v100h-79q-63 0 -101.5 -32.5t-38.5 -98.5v-206q0 -38 -11.5 -57.5t-28.5 -26t-32 -6.5v-91q15 0 32 -5t28.5 -22t11.5 -53
v-221q0 -65 38.5 -97.5t101.5 -32.5h79z" />
    <glyph glyph-name="bar" unicode="|" horiz-adv-x="290" 
d="M80 -120v828h130v-828h-130z" />
    <glyph glyph-name="braceright" unicode="}" horiz-adv-x="351" 
d="M30 -140v100h40q18 0 29 13t11 57v199q0 45 13.5 68.5t26.5 32l13 8.5v2l-13 9.5t-26.5 35.5t-13.5 74v180q0 45 -11.5 57.5t-28.5 12.5h-40v100h79q63 0 101.5 -32.5t38.5 -98.5v-206q0 -38 11.5 -57.5t28.5 -26t32 -6.5v-91q-15 0 -32 -5t-28.5 -22t-11.5 -53v-221
q0 -65 -38.5 -97.5t-101.5 -32.5h-79z" />
    <glyph glyph-name="asciitilde" unicode="~" horiz-adv-x="421" 
d="M288 210q-33 0 -56 10.5t-41 24.5t-35 24.5t-38 10.5l-19 -60h-71q0 62 25 106t75 44q31 0 54 -10.5t41.5 -24.5t36.5 -24.5t39 -10.5l19 60h71q0 -68 -24 -109t-77 -41z" />
    <glyph glyph-name="uni00A0" unicode="&#xa0;" horiz-adv-x="240" 
 />
    <glyph glyph-name="exclamdown" unicode="&#xa1;" horiz-adv-x="320" 
d="M160 370l-110 110l110 110l110 -110zM159 -141l-99 81l81 377h40l78 -378z" />
    <glyph glyph-name="cent" unicode="&#xa2;" horiz-adv-x="535" 
d="M259 -10q-66 0 -119 23t-84 77t-31 146q0 93 31 146.5t84 76.5t119 23h21v48h90v-55q47 -7 76.5 -18.5t48.5 -23.5l-40 -129q-11 6 -34 14.5t-51 14.5v-198q39 6 71 15t43 13v-134q-10 -9 -40 -17.5t-74 -14.5v-57h-90v50h-21zM194 236q0 -49 18.5 -74t67.5 -31v210
q-48 -4 -67 -31t-19 -74z" />
    <glyph glyph-name="sterling" unicode="&#xa3;" horiz-adv-x="768" 
d="M90 0l-10 60l50 100v162l-90 -4v90l90 -4v36h2q9 136 79 207t184 71q51 0 94.5 -8t65.5 -18l81 -71l-90 -135l-151 68q-85 0 -85 -110v-43l148 7l1 -90l-149 7v-165h259l71 24l88 -120l-49 -64h-589z" />
    <glyph glyph-name="currency" unicode="&#xa4;" horiz-adv-x="569" 
d="M119 120l-69 68l57 47q-39 45 -39 117q0 73 39 119l-57 48l69 69l58 -69q45 18 107 18t108 -18l58 69l69 -69l-57 -48q39 -46 39 -119q0 -72 -39 -116l57 -48l-69 -68l-58 69q-45 -17 -108 -17q-62 0 -107 17zM284 275q39 0 57 16.5t18 61.5q0 47 -18.5 64.5t-56.5 17.5
t-56.5 -18.5t-18.5 -64.5q0 -43 18 -60t57 -17z" />
    <glyph glyph-name="yen" unicode="&#xa5;" horiz-adv-x="759" 
d="M61 248v90l204 -6l-36 51l-168 -5v90l110 -3l-131 183v60h210l120 -226h20l119 226h210v-60l-132 -184l113 4l1 -90l-173 5l-37 -52l209 7l1 -90l-235 7l4 -62v-193h-182v255z" />
    <glyph glyph-name="brokenbar" unicode="&#xa6;" horiz-adv-x="290" 
d="M80 378v330h130v-330h-130zM80 -80v330h130v-330h-130z" />
    <glyph glyph-name="section" unicode="&#xa7;" horiz-adv-x="524" 
d="M246 -95q-86 0 -134.5 12l-48.5 12l31 127q27 -13 74 -24t90 -11q26 0 39 9.5t13 25.5q0 19 -30 43.5t-87 59.5q-76 47 -109.5 88t-33.5 98q0 35 14.5 58t35 35.5t36.5 15.5v3q-37 19 -55.5 50.5t-18.5 63.5q0 67 51 107t145 40q28 0 52.5 -2.5t44.5 -5.5l104 -48
l-42 -109l-159 48q-29 0 -42 -7.5t-13 -20.5t9.5 -24.5t32.5 -26t63 -38.5q61 -37 97.5 -69.5t52.5 -69t16 -85.5q0 -40 -16.5 -71.5t-36.5 -45.5q12 -20 22 -38t10 -58q0 -70 -53 -106t-154 -36zM337 209q3 9 5 19.5t2 20.5q0 26 -11.5 56t-37.5 49q-23 19 -47.5 22
t-40.5 -5.5t-16 -27.5q0 -25 14 -46.5t55 -47.5q29 -19 45.5 -25t31.5 -15z" />
    <glyph glyph-name="dieresis" unicode="&#xa8;" horiz-adv-x="530" 
d="M140 495l-110 110l110 110l110 -110zM390 495l-110 110l110 110l110 -110z" />
    <glyph glyph-name="copyright" unicode="&#xa9;" horiz-adv-x="836" 
d="M418 -10q-116 0 -198.5 48t-126 130.5t-43.5 184.5q0 76 25 142.5t72 116.5t115.5 78.5t155.5 28.5t155.5 -28.5t115.5 -78.5t72 -116.5t25 -142.5q0 -102 -43.5 -184.5t-126 -130.5t-198.5 -48zM418 72q89 0 150 36.5t93 100t32 144.5t-32 145t-93 101.5t-150 37.5
q-87 0 -148.5 -37.5t-94 -101.5t-32.5 -145t32.5 -144.5t94 -100t148.5 -36.5zM417 196q-46 0 -83 15.5t-58.5 51.5t-21.5 97q0 62 23 98t60.5 51t79.5 15q37 0 63 -2.5t35 -4.5l52 -59l-53 -72l-77 45q-57 0 -57 -71q0 -37 17.5 -53.5t53.5 -16.5t64.5 9.5t44.5 18.5v-96
q-21 -10 -54.5 -18t-88.5 -8z" />
    <glyph glyph-name="ordfeminine" unicode="&#xaa;" horiz-adv-x="331" 
d="M110 475q-32 0 -56 15t-24 56q0 38 27.5 56t67.5 18q26 0 39 -5.5t23 -11.5l3 3q0 23 -6.5 34t-35.5 11q-28 0 -59 -6.5t-44 -13.5v75q16 5 44.5 10t70.5 5q68 0 94.5 -25.5t26.5 -69.5v-66l10 -51l-10 -29h-86v24l-5 3q-6 -6 -25.5 -19t-54.5 -13zM153 541
q14 0 23.5 2.5t13.5 4.5v9q0 7 -9 13t-29 6q-27 0 -27 -19q0 -8 6 -12t22 -4z" />
    <glyph glyph-name="guillemotleft" unicode="&#xab;" horiz-adv-x="560" 
d="M310 130l-130 170l130 170h-140l-130 -170l130 -170h140zM520 130l-130 170l130 170h-140l-130 -170l130 -170h140z" />
    <glyph glyph-name="logicalnot" unicode="&#xac;" horiz-adv-x="606" 
d="M455 180v80h-405v120h506v-200h-101z" />
    <glyph glyph-name="uni00AD" unicode="&#xad;" horiz-adv-x="376" 
d="M50 180v120h320v-120h-320z" />
    <glyph glyph-name="registered" unicode="&#xae;" horiz-adv-x="387" 
d="M194 401q-77 0 -120.5 46.5t-43.5 114.5q0 45 19.5 82t56 59t88.5 22q51 0 88 -22t56 -59t19 -82q0 -68 -43 -114.5t-120 -46.5zM194 437q59 0 90.5 35.5t31.5 89.5t-31.5 90t-90.5 36q-58 0 -90 -36t-32 -90t32 -89.5t90 -35.5zM133 486v119l-4 22l4 13h70
q24 0 40 -11.5t16 -41.5q0 -35 -25 -48l2 -2l22 -27l12 -11v-13h-49l-30 46h-18v-11l2 -22l-2 -13h-40zM173 567h21q11 0 18 4t7 16t-7.5 15t-18.5 3h-23z" />
    <glyph glyph-name="macron" unicode="&#xaf;" horiz-adv-x="400" 
d="M30 560v80h340v-80h-340z" />
    <glyph glyph-name="degree" unicode="&#xb0;" horiz-adv-x="340" 
d="M170 450q-38 0 -70 19t-51 51t-19 70q0 39 19 70.5t51 50.5t70 19q39 0 70.5 -19t50.5 -50.5t19 -70.5q0 -38 -19 -70t-50.5 -51t-70.5 -19zM170 520q29 0 49.5 21t20.5 49q0 29 -20.5 49.5t-49.5 20.5q-28 0 -49 -20.5t-21 -49.5q0 -28 21 -49t49 -21z" />
    <glyph glyph-name="plusminus" unicode="&#xb1;" horiz-adv-x="520" 
d="M50 0v100h420v-100h-420zM210 90v160h-160v100h160v160h100v-160h160v-100h-160v-160h-100z" />
    <glyph glyph-name="uni00B2" unicode="&#xb2;" horiz-adv-x="345" 
d="M40 445v60l16.5 13t39.5 32.5t44 37.5q33 29 50 49.5t17 49.5q0 32 -42 32q-31 0 -62.5 -10.5t-46.5 -18.5v85q14 8 46 18t78 10q65 0 95 -27t30 -83q0 -35 -15.5 -61.5t-38.5 -46t-45.5 -31.5t-36.5 -19l2 -10l134 10v-90h-265z" />
    <glyph glyph-name="uni00B3" unicode="&#xb3;" horiz-adv-x="355" 
d="M160 440q-31 0 -57 4l-63 29l25 79l100 -27q29 0 42 9.5t13 24.5q0 14 -9.5 19.5t-31.5 5.5h-62v80h56q16 0 26.5 7t10.5 20q0 28 -36 28q-38 0 -70 -10.5t-49 -17.5v85q15 7 49 17.5t80 10.5q57 0 86 -25t29 -70q0 -26 -11 -43t-23 -26q21 -10 35.5 -28.5t14.5 -51.5
q0 -120 -155 -120z" />
    <glyph glyph-name="acute" unicode="&#xb4;" horiz-adv-x="248" 
d="M30 510l66 192h122v-61l-138 -131h-50z" />
    <glyph glyph-name="uni00B5" unicode="&#xb5;" horiz-adv-x="590" 
d="M200 -4q-45 0 -75 14q18 -40 30.5 -73.5t12.5 -66.5q0 -60 -60 -60q-27 0 -42.5 19.5t-15.5 51.5v598h180v-263q0 -37 14.5 -58t43.5 -21q27 0 49.5 23t22.5 67v252h180v-312l21 -100l-21 -61h-169v49l-10 5q-13 -13 -37.5 -28t-56 -25.5t-67.5 -10.5z" />
    <glyph glyph-name="paragraph" unicode="&#xb6;" horiz-adv-x="605" 
d="M166 -80v509q-51 0 -83.5 38t-32.5 95v8q0 74 38 105.5t118 31.5h349v-787h-150v667h-89v-667h-150z" />
    <glyph glyph-name="periodcentered" unicode="&#xb7;" horiz-adv-x="320" 
d="M160 220l-110 110l110 110l110 -110z" />
    <glyph glyph-name="cedilla" unicode="&#xb8;" horiz-adv-x="270" 
d="M124 -220q-49 0 -76.5 12.5l-27.5 12.5v80l26.5 -12.5t69.5 -12.5q11 0 25 4.5t14 17.5l-75 48l30 70h79l-10 -42l73 -55q0 -42 -18 -69t-47.5 -40.5t-62.5 -13.5z" />
    <glyph glyph-name="uni00B9" unicode="&#xb9;" horiz-adv-x="202" 
d="M90 445v254.5h-60v79.5l152 20l5 -30l-5 -50v-274h-92z" />
    <glyph glyph-name="ordmasculine" unicode="&#xba;" horiz-adv-x="305" 
d="M153 475q-61 0 -94.5 29t-33.5 94t33.5 94t94.5 29q63 0 95 -29t32 -94t-32 -94t-95 -29zM153 540q20 0 28.5 15t8.5 43t-8.5 43t-28.5 15q-21 0 -29 -15t-8 -43t8 -43t29 -15z" />
    <glyph glyph-name="guillemotright" unicode="&#xbb;" horiz-adv-x="560" 
d="M40 130l130 170l-130 170h140l130 -170l-130 -170h-140zM250 130l130 170l-130 170h140l130 -170l-130 -170h-140z" />
    <glyph glyph-name="onequarter" unicode="&#xbc;" horiz-adv-x="858" 
d="M90 285v254.5h-60v79.5l152 20l5 -30l-5 -50v-274h-92zM62 -80l484 788h94l-484 -788h-94zM691 0v50h-181v66l143 238h130l10 -30l-10 -50v-143h65v-76l-65 -5v-50h-92zM617 131h74v124h-9z" />
    <glyph glyph-name="onehalf" unicode="&#xbd;" horiz-adv-x="805" 
d="M90 285v254.5h-60v79.5l152 20l5 -30l-5 -50v-274h-92zM62 -80l484 788h94l-484 -788h-94zM520 0v60l16 13t39.5 32t44.5 38q33 29 50 49.5t17 49.5q0 32 -42 32q-32 0 -63 -11t-46 -18v85q14 7 46 17.5t78 10.5q65 0 95 -27.5t30 -82.5q0 -35 -15.5 -62t-38.5 -46
t-46 -31t-36 -19l2 -10l134 10v-90h-265z" />
    <glyph glyph-name="threequarters" unicode="&#xbe;" horiz-adv-x="971" 
d="M140 285q-16 0 -30.25 1t-26.75 3l-63 28.5l25 79.5l100 -27.5q29 0 42 9.75t13 24.75q0 13.5 -9.5 19t-32 5.5h-62v80.5h56q17 0 27.25 7t10.25 19.5q0 16 -9.5 22.25t-27 6.25q-25 0 -48 -5t-41 -11.75t-29.5 -11.75v85q10 5 28.5 11.5t44.25 11.5t56.25 5
q56.5 0 85.75 -24.75t29.25 -69.75q0 -26 -10.75 -42.75t-23.25 -26.75q21 -9.5 35.25 -28.25t14.25 -51.75q0 -119.5 -154.5 -119.5zM175 -80l484 788h94l-484 -788h-94zM804 0v50h-181v66l143 238h130l10 -30l-10 -50v-143h65v-76l-65 -5v-50h-92zM730 131h74v124h-9z" />
    <glyph glyph-name="questiondown" unicode="&#xbf;" horiz-adv-x="526" 
d="M289 412l-110 110l110 110l110 -110zM243 -130q-100 0 -146.5 45.5t-46.5 110.5q0 50 22 103.5t73 104.5q23 23 52.5 48.5t55.5 47.5t37 32l79 -94l-15 -14t-33 -31t-28 -27q-38 -40 -59.5 -66.5t-21.5 -57.5q0 -19 14 -30.5t42 -11.5q54 0 93 16t55 27l60 -123
q-16 -16 -44.5 -34.5t-74 -32t-114.5 -13.5z" />
    <glyph glyph-name="Agrave" unicode="&#xc0;" horiz-adv-x="769" 
d="M10 0l48 169v127l74 30l130 381h259l161 -448l77 -142v-117h-177l-50 160h-291l-43 -160h-188zM307 314h170l-76 229h-21zM392 752l-138 131v61h123l66 -192h-51z" />
    <glyph glyph-name="Aacute" unicode="&#xc1;" horiz-adv-x="769" 
d="M10 0l48 169v127l74 30l130 381h259l161 -448l77 -142v-117h-177l-50 160h-291l-43 -160h-188zM307 314h170l-76 229h-21zM328 759l66 192h122v-61l-138 -131h-50z" />
    <glyph glyph-name="Acircumflex" unicode="&#xc2;" horiz-adv-x="769" 
d="M10 0l48 169v127l74 30l130 381h259l161 -448l77 -142v-117h-177l-50 160h-291l-43 -160h-188zM307 314h170l-76 229h-21zM227 782l109 140h101l108 -140h-81l-77 58l-80 -58h-80z" />
    <glyph glyph-name="Atilde" unicode="&#xc3;" horiz-adv-x="769" 
d="M10 0l48 169v127l74 30l130 381h259l161 -448l77 -142v-117h-177l-50 160h-291l-43 -160h-188zM307 314h170l-76 229h-21zM470 762q-33 0 -56 10.5t-41 24.5t-35 24.5t-38 10.5l-19 -60h-71q0 62 25 106t75 44q31 0 54 -10.5t41.5 -24.5t36.5 -24.5t39 -10.5l19 60h71
q0 -68 -24 -109t-77 -41z" />
    <glyph glyph-name="Adieresis" unicode="&#xc4;" horiz-adv-x="769" 
d="M10 0l48 169v127l74 30l130 381h259l161 -448l77 -142v-117h-177l-50 160h-291l-43 -160h-188zM307 314h170l-76 229h-21zM269 749l-110 110l110 110l110 -110zM519 749l-110 110l110 110l110 -110z" />
    <glyph glyph-name="Aring" unicode="&#xc5;" horiz-adv-x="769" 
d="M10 0l48 169v127l74 30l130 381h259l161 -448l77 -142v-117h-177l-50 160h-291l-43 -160h-188zM307 314h170l-76 229h-21zM392 762q-45 0 -77 32t-32 77t32 77t77 32t77 -32t32 -77t-32 -77t-77 -32zM392 838q14 0 23.5 10t9.5 23q0 14 -9.5 23.5t-23.5 9.5
q-13 0 -23 -9.5t-10 -23.5q0 -13 10 -23t23 -10z" />
    <glyph glyph-name="AE" unicode="&#xc6;" horiz-adv-x="1088" 
d="M10 0l48 169v127l64 40l99 391l109 -20h150v1h495l50 -30l-66 -140l-90 10h-209v-110h269v-155h-118l-151 10v-133h299l119 -96l-59 -64h-539l-20 60l20 100h-239l-43 -160h-188zM307 324l173 -17v240h-116z" />
    <glyph glyph-name="Ccedilla" unicode="&#xc7;" horiz-adv-x="694" 
d="M399 -10q-68 0 -132 15.5t-115.5 55.5t-81.5 111t-30 182q0 103 30 173t80 112t109.5 60.5t119.5 18.5q51 0 99.5 -8t70.5 -18l111 -91l-90 -145l-171 88q-71 0 -120 -46.5t-49 -143.5q0 -69 24.5 -112t67.5 -63t98 -20q58 0 99 9.5t72 23t59 26.5v-168q-35 -22 -93 -41
t-158 -19zM364 -220q-49 0 -76.5 12.5l-27.5 12.5v80l26.5 -12.5t69.5 -12.5q11 0 25 4.5t14 17.5l-75 48l30 70h79l-10 -42l73 -55q0 -42 -18 -69t-47.5 -40.5t-62.5 -13.5z" />
    <glyph glyph-name="Egrave" unicode="&#xc8;" horiz-adv-x="688" 
d="M80 0l-20 60l20 100v548h495l50 -30l-66 -140l-90 10h-209v-110h269v-155h-118l-151 10v-133h299l119 -96l-59 -64h-539zM344 752l-138 131v61h123l66 -192h-51z" />
    <glyph glyph-name="Eacute" unicode="&#xc9;" horiz-adv-x="688" 
d="M80 0l-20 60l20 100v548h495l50 -30l-66 -140l-90 10h-209v-110h269v-155h-118l-151 10v-133h299l119 -96l-59 -64h-539zM280 759l66 192h122v-61l-138 -131h-50z" />
    <glyph glyph-name="Ecircumflex" unicode="&#xca;" horiz-adv-x="688" 
d="M80 0l-20 60l20 100v548h495l50 -30l-66 -140l-90 10h-209v-110h269v-155h-118l-151 10v-133h299l119 -96l-59 -64h-539zM179 782l109 140h101l108 -140h-81l-77 58l-80 -58h-80z" />
    <glyph glyph-name="Edieresis" unicode="&#xcb;" horiz-adv-x="688" 
d="M80 0l-20 60l20 100v548h495l50 -30l-66 -140l-90 10h-209v-110h269v-155h-118l-151 10v-133h299l119 -96l-59 -64h-539zM221 749l-110 110l110 110l110 -110zM471 749l-110 110l110 110l110 -110z" />
    <glyph glyph-name="Igrave" unicode="&#xcc;" horiz-adv-x="311" 
d="M70 0v548l-10 100l10 60h181v-708h-181zM147 752l-138 131v61h123l66 -192h-51z" />
    <glyph glyph-name="Iacute" unicode="&#xcd;" horiz-adv-x="311" 
d="M70 0v548l-10 100l10 60h181v-708h-181zM83 759l66 192h122v-61l-138 -131h-50z" />
    <glyph glyph-name="Icircumflex" unicode="&#xce;" horiz-adv-x="311" 
d="M70 0v548l-10 100l10 60h181v-708h-181zM-18 782l109 140h101l108 -140h-81l-77 58l-80 -58h-80z" />
    <glyph glyph-name="Idieresis" unicode="&#xcf;" horiz-adv-x="311" 
d="M70 0v548l-10 100l10 60h181v-708h-181zM24 749l-110 110l110 110l110 -110zM274 749l-110 110l110 110l110 -110z" />
    <glyph glyph-name="Eth" unicode="&#xd0;" horiz-adv-x="789" 
d="M80 0v547l-20 100l20 61h298q72 0 138.5 -13.5t119 -50.5t83 -106t30.5 -179t-31 -180.5t-84 -109.5t-119.5 -54t-136.5 -15h-298zM262 160h116q88 0 135 46.5t47 152.5t-47.5 147.5t-134.5 41.5h-116v-388zM6 320v80h390v-80h-390z" />
    <glyph glyph-name="Ntilde" unicode="&#xd1;" horiz-adv-x="750" 
d="M80 0v547l-20 100l20 60h161l202 -272l48 -83h10v355h189v-60l-10 -100v-547h-157l-251 352h-10v-60l10 -292h-192zM463 762q-33 0 -56 10.5t-41 24.5t-35 24.5t-38 10.5l-19 -60h-71q0 62 25 106t75 44q31 0 54 -10.5t41.5 -24.5t36.5 -24.5t39 -10.5l19 60h71
q0 -68 -24 -109t-77 -41z" />
    <glyph glyph-name="Ograve" unicode="&#xd2;" horiz-adv-x="758" 
d="M379 -10q-64 0 -124.5 15.5t-109 55.5t-77 111t-28.5 182t28.5 182t77 111t109 55.5t124.5 15.5t124.5 -16t109 -56t77 -111t28.5 -181t-28.5 -181t-77 -111t-109 -56t-124.5 -16zM379 160q74 0 112 44t38 150t-38 150t-112 44q-73 0 -111 -45t-38 -149t38 -149t111 -45z
M379 752l-138 131v61h123l66 -192h-51z" />
    <glyph glyph-name="Oacute" unicode="&#xd3;" horiz-adv-x="758" 
d="M379 -10q-64 0 -124.5 15.5t-109 55.5t-77 111t-28.5 182t28.5 182t77 111t109 55.5t124.5 15.5t124.5 -16t109 -56t77 -111t28.5 -181t-28.5 -181t-77 -111t-109 -56t-124.5 -16zM379 160q74 0 112 44t38 150t-38 150t-112 44q-73 0 -111 -45t-38 -149t38 -149t111 -45z
M315 759l66 192h122v-61l-138 -131h-50z" />
    <glyph glyph-name="Ocircumflex" unicode="&#xd4;" horiz-adv-x="758" 
d="M379 -10q-64 0 -124.5 15.5t-109 55.5t-77 111t-28.5 182t28.5 182t77 111t109 55.5t124.5 15.5t124.5 -16t109 -56t77 -111t28.5 -181t-28.5 -181t-77 -111t-109 -56t-124.5 -16zM379 160q74 0 112 44t38 150t-38 150t-112 44q-73 0 -111 -45t-38 -149t38 -149t111 -45z
M214 782l109 140h101l108 -140h-81l-77 58l-80 -58h-80z" />
    <glyph glyph-name="Otilde" unicode="&#xd5;" horiz-adv-x="758" 
d="M379 -10q-64 0 -124.5 15.5t-109 55.5t-77 111t-28.5 182t28.5 182t77 111t109 55.5t124.5 15.5t124.5 -16t109 -56t77 -111t28.5 -181t-28.5 -181t-77 -111t-109 -56t-124.5 -16zM379 160q74 0 112 44t38 150t-38 150t-112 44q-73 0 -111 -45t-38 -149t38 -149t111 -45z
M457 762q-33 0 -56 10.5t-41 24.5t-35 24.5t-38 10.5l-19 -60h-71q0 62 25 106t75 44q31 0 54 -10.5t41.5 -24.5t36.5 -24.5t39 -10.5l19 60h71q0 -68 -24 -109t-77 -41z" />
    <glyph glyph-name="Odieresis" unicode="&#xd6;" horiz-adv-x="758" 
d="M379 -10q-64 0 -124.5 15.5t-109 55.5t-77 111t-28.5 182t28.5 182t77 111t109 55.5t124.5 15.5t124.5 -16t109 -56t77 -111t28.5 -181t-28.5 -181t-77 -111t-109 -56t-124.5 -16zM379 160q74 0 112 44t38 150t-38 150t-112 44q-73 0 -111 -45t-38 -149t38 -149t111 -45z
M256 749l-110 110l110 110l110 -110zM506 749l-110 110l110 110l110 -110z" />
    <glyph glyph-name="multiply" unicode="&#xd7;" horiz-adv-x="498" 
d="M377 90l-128 129l-128 -128l-71 70l128 128l-127 128l70 70l128 -127l128 128l70 -71l-128 -128l129 -128z" />
    <glyph glyph-name="Oslash" unicode="&#xd8;" horiz-adv-x="758" 
d="M379 -10q-64 0 -124.5 15.5t-109 55.5t-77 111t-28.5 182t28.5 182t77 111t109 55.5t124.5 15.5t124.5 -16t109 -56t77 -111t28.5 -181t-28.5 -181t-77 -111t-109 -56t-124.5 -16zM379 160q74 0 112 44t38 150t-38 150t-112 44q-73 0 -111 -45t-38 -149t38 -149t111 -45z
M99 -30l484 788h93l-484 -788h-93z" />
    <glyph glyph-name="Ugrave" unicode="&#xd9;" horiz-adv-x="738" 
d="M369 -10q-154 0 -231.5 70.5t-77.5 226.5v260l1 101l-1 60h182v-401q0 -70 28 -113.5t99 -43.5t100.5 40.5t29.5 116.5v401h179v-421q0 -153 -75.5 -225t-233.5 -72zM368 752l-138 131v61h123l66 -192h-51z" />
    <glyph glyph-name="Uacute" unicode="&#xda;" horiz-adv-x="738" 
d="M369 -10q-154 0 -231.5 70.5t-77.5 226.5v260l1 101l-1 60h182v-401q0 -70 28 -113.5t99 -43.5t100.5 40.5t29.5 116.5v401h179v-421q0 -153 -75.5 -225t-233.5 -72zM304 759l66 192h122v-61l-138 -131h-50z" />
    <glyph glyph-name="Ucircumflex" unicode="&#xdb;" horiz-adv-x="738" 
d="M369 -10q-154 0 -231.5 70.5t-77.5 226.5v260l1 101l-1 60h182v-401q0 -70 28 -113.5t99 -43.5t100.5 40.5t29.5 116.5v401h179v-421q0 -153 -75.5 -225t-233.5 -72zM203 782l109 140h101l108 -140h-81l-77 58l-80 -58h-80z" />
    <glyph glyph-name="Udieresis" unicode="&#xdc;" horiz-adv-x="738" 
d="M369 -10q-154 0 -231.5 70.5t-77.5 226.5v260l1 101l-1 60h182v-401q0 -70 28 -113.5t99 -43.5t100.5 40.5t29.5 116.5v401h179v-421q0 -153 -75.5 -225t-233.5 -72zM245 749l-110 110l110 110l110 -110zM495 749l-110 110l110 110l110 -110z" />
    <glyph glyph-name="Yacute" unicode="&#xdd;" horiz-adv-x="719" 
d="M268 0v300l-248 348v60h210l120 -226h20l119 226h210v-60l-255 -354l6 -101v-193h-182zM297 749l66 192h122v-61l-138 -131h-50z" />
    <glyph glyph-name="Thorn" unicode="&#xde;" horiz-adv-x="659" 
d="M60 0v708h180v-100h110q73 0 131.5 -22.5t93 -76t34.5 -147.5t-37 -148.5t-102.5 -77.5t-149.5 -23h-80v-113h-180zM240 270h68q52 0 83 19.5t31 72.5q0 37 -15 55.5t-41.5 24.5t-61.5 6h-64v-178z" />
    <glyph glyph-name="germandbls" unicode="&#xdf;" horiz-adv-x="717" 
d="M40 342v130h67v6q0 78 33 131.5t88.5 81t121.5 27.5q110 0 161 -46t51 -114q0 -37 -7 -59.5t-15.5 -37.5t-15.5 -30t-7 -38q0 -24 15 -42t50 -39q57 -34 83.5 -74t26.5 -90q0 -39 -23.5 -75t-68 -59.5t-108.5 -23.5q-29 0 -53 3t-44 7l-83 41l50 131l102 -48q24 0 35 13
t11 27q0 25 -24.5 42.5t-65.5 43.5q-37 24 -54 47.5t-17 61.5q0 30 9 52.5t21.5 41.5t21.5 37t9 39q0 59 -68 59q-35 0 -54 -24t-19 -83v-481h-162v342h-67z" />
    <glyph glyph-name="agrave" unicode="&#xe0;" horiz-adv-x="591" 
d="M190 -10q-43 0 -79.5 12.5t-58.5 43.5t-22 86q0 50 25 83t68 49t97 16q52 0 78 -11.5t45 -23.5l7 6q0 30 -5 50t-23 30.5t-56 10.5q-37 0 -78.5 -6.5t-76 -16t-51.5 -18.5v150q31 11 88.5 20.5t141.5 9.5q90 0 142.5 -22.5t75.5 -65t23 -101.5v-133l20 -101l-20 -59h-171
v49l-10 5q-8 -8 -28 -23t-53 -27.5t-79 -12.5zM275 121q27 0 46.5 5t28.5 9v19q0 13 -18.5 25t-57.5 12q-54 0 -54 -38q0 -16 12 -24t43 -8zM298 515l-138 131v61h123l66 -192h-51z" />
    <glyph glyph-name="aacute" unicode="&#xe1;" horiz-adv-x="591" 
d="M190 -10q-43 0 -79.5 12.5t-58.5 43.5t-22 86q0 50 25 83t68 49t97 16q52 0 78 -11.5t45 -23.5l7 6q0 30 -5 50t-23 30.5t-56 10.5q-37 0 -78.5 -6.5t-76 -16t-51.5 -18.5v150q31 11 88.5 20.5t141.5 9.5q90 0 142.5 -22.5t75.5 -65t23 -101.5v-133l20 -101l-20 -59h-171
v49l-10 5q-8 -8 -28 -23t-53 -27.5t-79 -12.5zM275 121q27 0 46.5 5t28.5 9v19q0 13 -18.5 25t-57.5 12q-54 0 -54 -38q0 -16 12 -24t43 -8zM234 522l66 192h122v-61l-138 -131h-50z" />
    <glyph glyph-name="acircumflex" unicode="&#xe2;" horiz-adv-x="591" 
d="M190 -10q-43 0 -79.5 12.5t-58.5 43.5t-22 86q0 50 25 83t68 49t97 16q52 0 78 -11.5t45 -23.5l7 6q0 30 -5 50t-23 30.5t-56 10.5q-37 0 -78.5 -6.5t-76 -16t-51.5 -18.5v150q31 11 88.5 20.5t141.5 9.5q90 0 142.5 -22.5t75.5 -65t23 -101.5v-133l20 -101l-20 -59h-171
v49l-10 5q-8 -8 -28 -23t-53 -27.5t-79 -12.5zM275 121q27 0 46.5 5t28.5 9v19q0 13 -18.5 25t-57.5 12q-54 0 -54 -38q0 -16 12 -24t43 -8zM133 545l109 140h101l108 -140h-81l-77 58l-80 -58h-80z" />
    <glyph glyph-name="atilde" unicode="&#xe3;" horiz-adv-x="591" 
d="M190 -10q-43 0 -79.5 12.5t-58.5 43.5t-22 86q0 50 25 83t68 49t97 16q52 0 78 -11.5t45 -23.5l7 6q0 30 -5 50t-23 30.5t-56 10.5q-37 0 -78.5 -6.5t-76 -16t-51.5 -18.5v150q31 11 88.5 20.5t141.5 9.5q90 0 142.5 -22.5t75.5 -65t23 -101.5v-133l20 -101l-20 -59h-171
v49l-10 5q-8 -8 -28 -23t-53 -27.5t-79 -12.5zM275 121q27 0 46.5 5t28.5 9v19q0 13 -18.5 25t-57.5 12q-54 0 -54 -38q0 -16 12 -24t43 -8zM376 525q-33 0 -56 10.5t-41 24.5t-35 24.5t-38 10.5l-19 -60h-71q0 62 25 106t75 44q31 0 54 -10.5t41.5 -24.5t36.5 -24.5
t39 -10.5l19 60h71q0 -68 -24 -109t-77 -41z" />
    <glyph glyph-name="adieresis" unicode="&#xe4;" horiz-adv-x="591" 
d="M190 -10q-43 0 -79.5 12.5t-58.5 43.5t-22 86q0 50 25 83t68 49t97 16q52 0 78 -11.5t45 -23.5l7 6q0 30 -5 50t-23 30.5t-56 10.5q-37 0 -78.5 -6.5t-76 -16t-51.5 -18.5v150q31 11 88.5 20.5t141.5 9.5q90 0 142.5 -22.5t75.5 -65t23 -101.5v-133l20 -101l-20 -59h-171
v49l-10 5q-8 -8 -28 -23t-53 -27.5t-79 -12.5zM275 121q27 0 46.5 5t28.5 9v19q0 13 -18.5 25t-57.5 12q-54 0 -54 -38q0 -16 12 -24t43 -8zM175 512l-110 110l110 110l110 -110zM425 512l-110 110l110 110l110 -110z" />
    <glyph glyph-name="aring" unicode="&#xe5;" horiz-adv-x="591" 
d="M190 -10q-43 0 -79.5 12.5t-58.5 43.5t-22 86q0 50 25 83t68 49t97 16q52 0 78 -11.5t45 -23.5l7 6q0 30 -5 50t-23 30.5t-56 10.5q-37 0 -78.5 -6.5t-76 -16t-51.5 -18.5v150q31 11 88.5 20.5t141.5 9.5q90 0 142.5 -22.5t75.5 -65t23 -101.5v-133l20 -101l-20 -59h-171
v49l-10 5q-8 -8 -28 -23t-53 -27.5t-79 -12.5zM275 121q27 0 46.5 5t28.5 9v19q0 13 -18.5 25t-57.5 12q-54 0 -54 -38q0 -16 12 -24t43 -8zM298 525q-45 0 -77 32t-32 77t32 77t77 32t77 -32t32 -77t-32 -77t-77 -32zM298 601q14 0 23.5 10t9.5 23q0 14 -9.5 23.5
t-23.5 9.5q-13 0 -23 -9.5t-10 -23.5q0 -13 10 -23t23 -10z" />
    <glyph glyph-name="ae" unicode="&#xe6;" horiz-adv-x="904" 
d="M190 -10q-43 0 -79.5 12.5t-58.5 43.5t-22 86q0 50 25 83t66.5 49t88.5 16q65 0 96 -16t44 -27l5 2q0 18 2 34q-7 32 -32 50.5t-79 18.5q-37 0 -73.5 -6.5t-66 -16t-46.5 -18.5v150l25 7.5t70 15t105 7.5q63 0 107 -14.5t73 -39.5q37 29 84 42t96 13q86 0 132.5 -17
t61.5 -27l50 -159l-20 -62h-310q7 -37 37 -62t99 -25q54 0 93 12t61 21v-134q-30 -16 -86.5 -27.5t-117.5 -11.5q-60 0 -110.5 13.5t-86.5 45.5q-6 -4 -13 -9q-40 -27 -95.5 -38.5t-124.5 -11.5zM535 281l138 20l-9 43q-7 4 -20.5 6t-23.5 2q-28 0 -46.5 -12t-28 -28.5
t-10.5 -30.5zM275 121q27 0 46.5 5t28.5 9v9q0 19 -18.5 33t-57.5 14q-54 0 -54 -38q0 -16 12 -24t43 -8z" />
    <glyph glyph-name="ccedilla" unicode="&#xe7;" horiz-adv-x="535" 
d="M270 -10q-69 0 -124.5 23t-88 77t-32.5 146q0 93 35 146.5t91 76.5t119 23q55 0 94.5 -4t52.5 -7l78 -88l-80 -109l-115 68q-86 0 -86 -106q0 -55 26 -80.5t80 -25.5t97 15t67 28v-144q-31 -16 -81.5 -27.5t-132.5 -11.5zM272 -220q-49 0 -76.5 12.5l-27.5 12.5v80
l26.5 -12.5t69.5 -12.5q11 0 25 4.5t14 17.5l-75 48l30 70h79l-10 -42l73 -55q0 -42 -18 -69t-47.5 -40.5t-62.5 -13.5z" />
    <glyph glyph-name="egrave" unicode="&#xe8;" horiz-adv-x="558" 
d="M290 -10q-77 0 -137 23t-94 77t-34 146q0 66 22.5 113t60.5 76.5t85 43t97 13.5q86 0 132.5 -17t61.5 -27l50 -159l-20 -62h-310q7 -37 37 -62t99 -25q54 0 93 12t61 21v-134q-30 -16 -86.5 -27.5t-117.5 -11.5zM205 281l138 20l-9 43q-7 4 -20.5 6t-23.5 2
q-28 0 -46.5 -12t-28 -28.5t-10.5 -30.5zM288 510l-138 131v61h123l66 -192h-51z" />
    <glyph glyph-name="eacute" unicode="&#xe9;" horiz-adv-x="558" 
d="M290 -10q-77 0 -137 23t-94 77t-34 146q0 66 22.5 113t60.5 76.5t85 43t97 13.5q86 0 132.5 -17t61.5 -27l50 -159l-20 -62h-310q7 -37 37 -62t99 -25q54 0 93 12t61 21v-134q-30 -16 -86.5 -27.5t-117.5 -11.5zM205 281l138 20l-9 43q-7 4 -20.5 6t-23.5 2
q-28 0 -46.5 -12t-28 -28.5t-10.5 -30.5zM224 517l66 192h122v-61l-138 -131h-50z" />
    <glyph glyph-name="ecircumflex" unicode="&#xea;" horiz-adv-x="558" 
d="M290 -10q-77 0 -137 23t-94 77t-34 146q0 66 22.5 113t60.5 76.5t85 43t97 13.5q86 0 132.5 -17t61.5 -27l50 -159l-20 -62h-310q7 -37 37 -62t99 -25q54 0 93 12t61 21v-134q-30 -16 -86.5 -27.5t-117.5 -11.5zM205 281l138 20l-9 43q-7 4 -20.5 6t-23.5 2
q-28 0 -46.5 -12t-28 -28.5t-10.5 -30.5zM123 540l109 140h101l108 -140h-81l-77 58l-80 -58h-80z" />
    <glyph glyph-name="edieresis" unicode="&#xeb;" horiz-adv-x="558" 
d="M290 -10q-77 0 -137 23t-94 77t-34 146q0 66 22.5 113t60.5 76.5t85 43t97 13.5q86 0 132.5 -17t61.5 -27l50 -159l-20 -62h-310q7 -37 37 -62t99 -25q54 0 93 12t61 21v-134q-30 -16 -86.5 -27.5t-117.5 -11.5zM205 281l138 20l-9 43q-7 4 -20.5 6t-23.5 2
q-28 0 -46.5 -12t-28 -28.5t-10.5 -30.5zM165 507l-110 110l110 110l110 -110zM415 507l-110 110l110 110l110 -110z" />
    <glyph glyph-name="igrave" unicode="&#xec;" horiz-adv-x="271" 
d="M61 0v331l-21 80l20 61h181v-472h-180zM155 520l-138 131v61h123l66 -192h-51z" />
    <glyph glyph-name="iacute" unicode="&#xed;" horiz-adv-x="271" 
d="M61 0v331l-21 80l20 61h181v-472h-180zM91 527l66 192h122v-61l-138 -131h-50z" />
    <glyph glyph-name="icircumflex" unicode="&#xee;" horiz-adv-x="271" 
d="M61 0v331l-21 80l20 61h181v-472h-180zM-10 550l109 140h101l108 -140h-81l-77 58l-80 -58h-80z" />
    <glyph glyph-name="idieresis" unicode="&#xef;" horiz-adv-x="271" 
d="M61 0v331l-21 80l20 61h181v-472h-180zM32 517l-110 110l110 110l110 -110zM282 517l-110 110l110 110l110 -110z" />
    <glyph glyph-name="eth" unicode="&#xf0;" horiz-adv-x="601" 
d="M258 -10q-68 0 -120.5 28t-82.5 80t-30 125q0 115 59.5 173.5t162.5 58.5q41 0 69 -9.5t43.5 -21t19.5 -17.5q0 89 -41 141l-48 -48l-55 54l42 43q-60 29 -157 29h-75v111q18 6 38 10t50 6.5t79 2.5q97 0 175 -49l43 43l55 -54l-38 -38q49 -50 76.5 -122.5t27.5 -161.5
q0 -118 -36.5 -204t-102.5 -133t-154 -47zM275 91q41 0 67.5 44t26.5 117q0 42 -21.5 72.5t-62.5 30.5q-49 0 -68.5 -41t-19.5 -111q0 -58 23 -85t55 -27z" />
    <glyph glyph-name="ntilde" unicode="&#xf1;" horiz-adv-x="607" 
d="M60 0v301l-20 110l31 61h149v-43l9 -6q11 10 30.5 23.5t47.5 24.5t63 11q90 0 135 -51t45 -143v-127l21 -100l-21 -61h-180v262q0 38 -16.5 58.5t-51.5 20.5l-62 -19v-322h-180zM396 520q-33 0 -56 10.5t-41 24.5t-35 24.5t-38 10.5l-19 -60h-71q0 62 25 106t75 44
q31 0 54 -10.5t41.5 -24.5t36.5 -24.5t39 -10.5l19 60h71q0 -68 -24 -109t-77 -41z" />
    <glyph glyph-name="ograve" unicode="&#xf2;" horiz-adv-x="560" 
d="M281 -10q-122 0 -189 58t-67 188q0 131 67 188.5t189 57.5q125 0 189.5 -57.5t64.5 -188.5q0 -130 -64.5 -188t-189.5 -58zM281 120q41 0 57 30.5t16 85.5q0 56 -16 86t-57 30q-42 0 -58.5 -30t-16.5 -86q0 -55 16.5 -85.5t58.5 -30.5zM283 523l-138 131v61h123l66 -192
h-51z" />
    <glyph glyph-name="oacute" unicode="&#xf3;" horiz-adv-x="560" 
d="M281 -10q-122 0 -189 58t-67 188q0 131 67 188.5t189 57.5q125 0 189.5 -57.5t64.5 -188.5q0 -130 -64.5 -188t-189.5 -58zM281 120q41 0 57 30.5t16 85.5q0 56 -16 86t-57 30q-42 0 -58.5 -30t-16.5 -86q0 -55 16.5 -85.5t58.5 -30.5zM219 530l66 192h122v-61l-138 -131
h-50z" />
    <glyph glyph-name="ocircumflex" unicode="&#xf4;" horiz-adv-x="560" 
d="M281 -10q-122 0 -189 58t-67 188q0 131 67 188.5t189 57.5q125 0 189.5 -57.5t64.5 -188.5q0 -130 -64.5 -188t-189.5 -58zM281 120q41 0 57 30.5t16 85.5q0 56 -16 86t-57 30q-42 0 -58.5 -30t-16.5 -86q0 -55 16.5 -85.5t58.5 -30.5zM118 553l109 140h101l108 -140h-81
l-77 58l-80 -58h-80z" />
    <glyph glyph-name="otilde" unicode="&#xf5;" horiz-adv-x="560" 
d="M281 -10q-122 0 -189 58t-67 188q0 131 67 188.5t189 57.5q125 0 189.5 -57.5t64.5 -188.5q0 -130 -64.5 -188t-189.5 -58zM281 120q41 0 57 30.5t16 85.5q0 56 -16 86t-57 30q-42 0 -58.5 -30t-16.5 -86q0 -55 16.5 -85.5t58.5 -30.5zM361 533q-33 0 -56 10.5t-41 24.5
t-35 24.5t-38 10.5l-19 -60h-71q0 62 25 106t75 44q31 0 54 -10.5t41.5 -24.5t36.5 -24.5t39 -10.5l19 60h71q0 -68 -24 -109t-77 -41z" />
    <glyph glyph-name="odieresis" unicode="&#xf6;" horiz-adv-x="560" 
d="M281 -10q-122 0 -189 58t-67 188q0 131 67 188.5t189 57.5q125 0 189.5 -57.5t64.5 -188.5q0 -130 -64.5 -188t-189.5 -58zM281 120q41 0 57 30.5t16 85.5q0 56 -16 86t-57 30q-42 0 -58.5 -30t-16.5 -86q0 -55 16.5 -85.5t58.5 -30.5zM160 520l-110 110l110 110
l110 -110zM410 520l-110 110l110 110l110 -110z" />
    <glyph glyph-name="divide" unicode="&#xf7;" horiz-adv-x="538" 
d="M267.227 34.207l-90.9062 90.9062l90.9062 90.9062l90.9062 -90.9062zM267.227 381.207l-90.9062 90.9062l90.9062 90.9062l90.9062 -90.9062zM50 250v100h420v-100h-420z" />
    <glyph glyph-name="oslash" unicode="&#xf8;" horiz-adv-x="560" 
d="M281 -10q-122 0 -189 58t-67 188q0 131 67 188.5t189 57.5q125 0 189.5 -57.5t64.5 -188.5q0 -130 -64.5 -188t-189.5 -58zM281 120q41 0 57 30.5t16 85.5q0 56 -16 86t-57 30q-42 0 -58.5 -30t-16.5 -86q0 -55 16.5 -85.5t58.5 -30.5zM159 82l-50 70l161 101l145 133
l47 -70l-161 -103z" />
    <glyph glyph-name="ugrave" unicode="&#xf9;" horiz-adv-x="587" 
d="M190 -10q-60 0 -92.5 23t-45 66.5t-12.5 104.5v289h180v-263q0 -37 14.5 -58t43.5 -21q27 0 49.5 23t22.5 67v252h180v-312l21 -100l-21 -61h-169v49l-10 5q-13 -13 -37.5 -28t-56 -25.5t-67.5 -10.5zM289 525l-138 131v61h123l66 -192h-51z" />
    <glyph glyph-name="uacute" unicode="&#xfa;" horiz-adv-x="587" 
d="M190 -10q-60 0 -92.5 23t-45 66.5t-12.5 104.5v289h180v-263q0 -37 14.5 -58t43.5 -21q27 0 49.5 23t22.5 67v252h180v-312l21 -100l-21 -61h-169v49l-10 5q-13 -13 -37.5 -28t-56 -25.5t-67.5 -10.5zM225 532l66 192h122v-61l-138 -131h-50z" />
    <glyph glyph-name="ucircumflex" unicode="&#xfb;" horiz-adv-x="587" 
d="M190 -10q-60 0 -92.5 23t-45 66.5t-12.5 104.5v289h180v-263q0 -37 14.5 -58t43.5 -21q27 0 49.5 23t22.5 67v252h180v-312l21 -100l-21 -61h-169v49l-10 5q-13 -13 -37.5 -28t-56 -25.5t-67.5 -10.5zM124 555l109 140h101l108 -140h-81l-77 58l-80 -58h-80z" />
    <glyph glyph-name="udieresis" unicode="&#xfc;" horiz-adv-x="587" 
d="M190 -10q-60 0 -92.5 23t-45 66.5t-12.5 104.5v289h180v-263q0 -37 14.5 -58t43.5 -21q27 0 49.5 23t22.5 67v252h180v-312l21 -100l-21 -61h-169v49l-10 5q-13 -13 -37.5 -28t-56 -25.5t-67.5 -10.5zM166 522l-110 110l110 110l110 -110zM416 522l-110 110l110 110
l110 -110z" />
    <glyph glyph-name="yacute" unicode="&#xfd;" horiz-adv-x="520" 
d="M101 -243l-141 50l40 149l140 -40q43 0 62.5 22.5t29.5 62.5h-103l-110 342l-19 130h190l55 -330h20l55 330h190l-6.5 -31.5t-18 -83.5t-27 -114.5t-32.5 -126t-35 -116.5q-27 -83 -64.5 -137t-91.5 -80.5t-134 -26.5zM195 517l66 192h122v-61l-138 -131h-50z" />
    <glyph glyph-name="thorn" unicode="&#xfe;" horiz-adv-x="586" 
d="M60 -244v779l-20 110l31 61h149v-277l10 -5l18 15t49.5 29.5t73.5 14.5q89 0 139.5 -57t50.5 -180q0 -92 -25.5 -148.5t-68.5 -81.5t-96 -25q-72 0 -101.5 11.5l-29.5 11.5v-258h-180zM286 128q38 0 61.5 27t23.5 82q0 54 -19 79t-56 25l-56 -21v-179l10.5 -6.5
t35.5 -6.5z" />
    <glyph glyph-name="ydieresis" unicode="&#xff;" horiz-adv-x="520" 
d="M101 -243l-141 50l40 149l140 -40q43 0 62.5 22.5t29.5 62.5h-103l-110 342l-19 130h190l55 -330h20l55 330h190l-6.5 -31.5t-18 -83.5t-27 -114.5t-32.5 -126t-35 -116.5q-27 -83 -64.5 -137t-91.5 -80.5t-134 -26.5zM136 507l-110 110l110 110l110 -110zM386 507
l-110 110l110 110l110 -110z" />
    <glyph glyph-name="Amacron" unicode="&#x100;" horiz-adv-x="769" 
d="M10 0l48 169v127l74 30l130 381h259l161 -448l77 -142v-117h-177l-50 160h-291l-43 -160h-188zM307 314h170l-76 229h-21zM222 802v80h340v-80h-340z" />
    <glyph glyph-name="amacron" unicode="&#x101;" horiz-adv-x="591" 
d="M190 -10q-43 0 -79.5 12.5t-58.5 43.5t-22 86q0 50 25 83t68 49t97 16q52 0 78 -11.5t45 -23.5l7 6q0 30 -5 50t-23 30.5t-56 10.5q-37 0 -78.5 -6.5t-76 -16t-51.5 -18.5v150q31 11 88.5 20.5t141.5 9.5q90 0 142.5 -22.5t75.5 -65t23 -101.5v-133l20 -101l-20 -59h-171
v49l-10 5q-8 -8 -28 -23t-53 -27.5t-79 -12.5zM275 121q27 0 46.5 5t28.5 9v19q0 13 -18.5 25t-57.5 12q-54 0 -54 -38q0 -16 12 -24t43 -8zM128 565v80h340v-80h-340z" />
    <glyph glyph-name="Abreve" unicode="&#x102;" horiz-adv-x="769" 
d="M10 0l48 169v127l74 30l130 381h259l161 -448l77 -142v-117h-177l-50 160h-291l-43 -160h-188zM307 314h170l-76 229h-21zM392 772q-90 0 -127.5 39.5t-37.5 100.5h69q0 -9 6.5 -20.5t27 -20.5t62.5 -9t62 9t26 20.5t6 20.5h71q0 -62 -37.5 -101t-127.5 -39z" />
    <glyph glyph-name="abreve" unicode="&#x103;" horiz-adv-x="591" 
d="M190 -10q-43 0 -79.5 12.5t-58.5 43.5t-22 86q0 50 25 83t68 49t97 16q52 0 78 -11.5t45 -23.5l7 6q0 30 -5 50t-23 30.5t-56 10.5q-37 0 -78.5 -6.5t-76 -16t-51.5 -18.5v150q31 11 88.5 20.5t141.5 9.5q90 0 142.5 -22.5t75.5 -65t23 -101.5v-133l20 -101l-20 -59h-171
v49l-10 5q-8 -8 -28 -23t-53 -27.5t-79 -12.5zM275 121q27 0 46.5 5t28.5 9v19q0 13 -18.5 25t-57.5 12q-54 0 -54 -38q0 -16 12 -24t43 -8zM298 535q-90 0 -127.5 39.5t-37.5 100.5h69q0 -9 6.5 -20.5t27 -20.5t62.5 -9t62 9t26 20.5t6 20.5h71q0 -62 -37.5 -101
t-127.5 -39z" />
    <glyph glyph-name="Aogonek" unicode="&#x104;" horiz-adv-x="769" 
d="M10 0l48 169v127l74 30l130 381h259l161 -448l77 -142v-117h-177l-50 160h-291l-43 -160h-188zM307 314h170l-76 229h-21zM653 -180q-44 0 -79.5 25t-35.5 78l46 80h80l-23 -62q-4 -12 1 -21.5t21 -9.5q25 0 47.5 10t33.5 20l30 -70q-3 -5 -20 -17t-43 -22.5t-58 -10.5z
" />
    <glyph glyph-name="aogonek" unicode="&#x105;" horiz-adv-x="591" 
d="M190 -10q-43 0 -79.5 12.5t-58.5 43.5t-22 86q0 50 25 83t68 49t97 16q52 0 78 -11.5t45 -23.5l7 6q0 30 -5 50t-23 30.5t-56 10.5q-37 0 -78.5 -6.5t-76 -16t-51.5 -18.5v150q31 11 88.5 20.5t141.5 9.5q90 0 142.5 -22.5t75.5 -65t23 -101.5v-133l20 -101l-20 -59h-171
v49l-10 5q-8 -8 -28 -23t-53 -27.5t-79 -12.5zM275 121q27 0 46.5 5t28.5 9v19q0 13 -18.5 25t-57.5 12q-54 0 -54 -38q0 -16 12 -24t43 -8zM434 -181q-44 0 -79.5 25t-35.5 78l46 80h80l-23 -62q-4 -12 1 -21.5t21 -9.5q25 0 47.5 10t33.5 20l30 -70q-3 -5 -20 -17
t-43 -22.5t-58 -10.5z" />
    <glyph glyph-name="Cacute" unicode="&#x106;" horiz-adv-x="694" 
d="M399 -10q-68 0 -132 15.5t-115.5 55.5t-81.5 111t-30 182q0 103 30 173t80 112t109.5 60.5t119.5 18.5q51 0 99.5 -8t70.5 -18l111 -91l-90 -145l-171 88q-71 0 -120 -46.5t-49 -143.5q0 -69 24.5 -112t67.5 -63t98 -20q58 0 99 9.5t72 23t59 26.5v-168q-35 -22 -93 -41
t-158 -19zM301 759l66 192h122v-61l-138 -131h-50z" />
    <glyph glyph-name="cacute" unicode="&#x107;" horiz-adv-x="535" 
d="M270 -10q-69 0 -124.5 23t-88 77t-32.5 146q0 93 35 146.5t91 76.5t119 23q55 0 94.5 -4t52.5 -7l78 -88l-80 -109l-115 68q-86 0 -86 -106q0 -55 26 -80.5t80 -25.5t97 15t67 28v-144q-31 -16 -81.5 -27.5t-132.5 -11.5zM259 517l66 192h122v-61l-138 -131h-50z" />
    <glyph glyph-name="Ccircumflex" unicode="&#x108;" horiz-adv-x="694" 
d="M399 -10q-68 0 -132 15.5t-115.5 55.5t-81.5 111t-30 182q0 103 30 173t80 112t109.5 60.5t119.5 18.5q51 0 99.5 -8t70.5 -18l111 -91l-90 -145l-171 88q-71 0 -120 -46.5t-49 -143.5q0 -69 24.5 -112t67.5 -63t98 -20q58 0 99 9.5t72 23t59 26.5v-168q-35 -22 -93 -41
t-158 -19zM200 782l109 140h101l108 -140h-81l-77 58l-80 -58h-80z" />
    <glyph glyph-name="ccircumflex" unicode="&#x109;" horiz-adv-x="535" 
d="M270 -10q-69 0 -124.5 23t-88 77t-32.5 146q0 93 35 146.5t91 76.5t119 23q55 0 94.5 -4t52.5 -7l78 -88l-80 -109l-115 68q-86 0 -86 -106q0 -55 26 -80.5t80 -25.5t97 15t67 28v-144q-31 -16 -81.5 -27.5t-132.5 -11.5zM158 540l109 140h101l108 -140h-81l-77 58
l-80 -58h-80z" />
    <glyph glyph-name="Cdotaccent" unicode="&#x10a;" horiz-adv-x="694" 
d="M399 -10q-68 0 -132 15.5t-115.5 55.5t-81.5 111t-30 182q0 103 30 173t80 112t109.5 60.5t119.5 18.5q51 0 99.5 -8t70.5 -18l111 -91l-90 -145l-171 88q-71 0 -120 -46.5t-49 -143.5q0 -69 24.5 -112t67.5 -63t98 -20q58 0 99 9.5t72 23t59 26.5v-168q-35 -22 -93 -41
t-158 -19zM364 767l-110 110l110 110l110 -110z" />
    <glyph glyph-name="cdotaccent" unicode="&#x10b;" horiz-adv-x="535" 
d="M270 -10q-69 0 -124.5 23t-88 77t-32.5 146q0 93 35 146.5t91 76.5t119 23q55 0 94.5 -4t52.5 -7l78 -88l-80 -109l-115 68q-86 0 -86 -106q0 -55 26 -80.5t80 -25.5t97 15t67 28v-144q-31 -16 -81.5 -27.5t-132.5 -11.5zM322 525l-110 110l110 110l110 -110z" />
    <glyph glyph-name="Ccaron" unicode="&#x10c;" horiz-adv-x="694" 
d="M399 -10q-68 0 -132 15.5t-115.5 55.5t-81.5 111t-30 182q0 103 30 173t80 112t109.5 60.5t119.5 18.5q51 0 99.5 -8t70.5 -18l111 -91l-90 -145l-171 88q-71 0 -120 -46.5t-49 -143.5q0 -69 24.5 -112t67.5 -63t98 -20q58 0 99 9.5t72 23t59 26.5v-168q-35 -22 -93 -41
t-158 -19zM201 924l109 -140h101l108 140h-81l-77 -58l-80 58h-80z" />
    <glyph glyph-name="ccaron" unicode="&#x10d;" horiz-adv-x="535" 
d="M270 -10q-69 0 -124.5 23t-88 77t-32.5 146q0 93 35 146.5t91 76.5t119 23q55 0 94.5 -4t52.5 -7l78 -88l-80 -109l-115 68q-86 0 -86 -106q0 -55 26 -80.5t80 -25.5t97 15t67 28v-144q-31 -16 -81.5 -27.5t-132.5 -11.5zM159 682l109 -140h101l108 140h-81l-77 -58
l-80 58h-80z" />
    <glyph glyph-name="Dcaron" unicode="&#x10e;" horiz-adv-x="789" 
d="M80 0v547l-20 100l20 61h298q72 0 138.5 -13.5t119 -50.5t83 -106t30.5 -179t-31 -180.5t-84 -109.5t-119.5 -54t-136.5 -15h-298zM262 160h116q88 0 135 46.5t47 152.5t-47.5 147.5t-134.5 41.5h-116v-388zM179 924l109 -140h101l108 140h-81l-77 -58l-80 58h-80z" />
    <glyph glyph-name="dcaron" unicode="&#x10f;" horiz-adv-x="586" 
d="M215 -10q-47 0 -90.5 24t-71.5 76t-28 136q0 93 27.5 149t71.5 81.5t91 25.5q71 0 100.5 -12l29.5 -12l-10 189l10 60h181v-547l20 -100l-20 -61h-171v49l-10 5l-15 -15.5t-44 -31.5t-71 -16zM290 131l55 14v146q0 23 -15 36.5t-40 13.5q-37 0 -56 -24.5t-19 -80.5
q0 -55 22 -80t53 -25zM-1 707l109 -140h101l108 140h-81l-77 -58l-80 58h-80z" />
    <glyph glyph-name="Dcroat" unicode="&#x110;" horiz-adv-x="789" 
d="M80 0v547l-20 100l20 61h298q72 0 138.5 -13.5t119 -50.5t83 -106t30.5 -179t-31 -180.5t-84 -109.5t-119.5 -54t-136.5 -15h-298zM262 160h116q88 0 135 46.5t47 152.5t-47.5 147.5t-134.5 41.5h-116v-388zM6 320v80h390v-80h-390z" />
    <glyph glyph-name="dcroat" unicode="&#x111;" horiz-adv-x="586" 
d="M215 -10q-47 0 -90.5 24t-71.5 76t-28 136q0 93 27.5 149t71.5 81.5t91 25.5q71 0 100.5 -12l29.5 -12l-10 189l10 60h181v-547l20 -100l-20 -61h-171v49l-10 5l-15 -15.5t-44 -31.5t-71 -16zM290 131l55 14v146q0 23 -15 36.5t-40 13.5q-37 0 -56 -24.5t-19 -80.5
q0 -55 22 -80t53 -25zM206 544v80h390v-80h-390z" />
    <glyph glyph-name="Emacron" unicode="&#x112;" horiz-adv-x="688" 
d="M80 0l-20 60l20 100v548h495l50 -30l-66 -140l-90 10h-209v-110h269v-155h-118l-151 10v-133h299l119 -96l-59 -64h-539zM174 802v80h340v-80h-340z" />
    <glyph glyph-name="emacron" unicode="&#x113;" horiz-adv-x="558" 
d="M290 -10q-77 0 -137 23t-94 77t-34 146q0 66 22.5 113t60.5 76.5t85 43t97 13.5q86 0 132.5 -17t61.5 -27l50 -159l-20 -62h-310q7 -37 37 -62t99 -25q54 0 93 12t61 21v-134q-30 -16 -86.5 -27.5t-117.5 -11.5zM205 281l138 20l-9 43q-7 4 -20.5 6t-23.5 2
q-28 0 -46.5 -12t-28 -28.5t-10.5 -30.5zM118 560v80h340v-80h-340z" />
    <glyph glyph-name="Ebreve" unicode="&#x114;" horiz-adv-x="688" 
d="M80 0l-20 60l20 100v548h495l50 -30l-66 -140l-90 10h-209v-110h269v-155h-118l-151 10v-133h299l119 -96l-59 -64h-539zM344 772q-90 0 -127.5 39.5t-37.5 100.5h69q0 -9 6.5 -20.5t27 -20.5t62.5 -9t62 9t26 20.5t6 20.5h71q0 -62 -37.5 -101t-127.5 -39z" />
    <glyph glyph-name="ebreve" unicode="&#x115;" horiz-adv-x="558" 
d="M290 -10q-77 0 -137 23t-94 77t-34 146q0 66 22.5 113t60.5 76.5t85 43t97 13.5q86 0 132.5 -17t61.5 -27l50 -159l-20 -62h-310q7 -37 37 -62t99 -25q54 0 93 12t61 21v-134q-30 -16 -86.5 -27.5t-117.5 -11.5zM205 281l138 20l-9 43q-7 4 -20.5 6t-23.5 2
q-28 0 -46.5 -12t-28 -28.5t-10.5 -30.5zM288 530q-90 0 -127.5 39.5t-37.5 100.5h69q0 -9 6.5 -20.5t27 -20.5t62.5 -9t62 9t26 20.5t6 20.5h71q0 -62 -37.5 -101t-127.5 -39z" />
    <glyph glyph-name="Edotaccent" unicode="&#x116;" horiz-adv-x="688" 
d="M80 0l-20 60l20 100v548h495l50 -30l-66 -140l-90 10h-209v-110h269v-155h-118l-151 10v-133h299l119 -96l-59 -64h-539zM343 767l-110 110l110 110l110 -110z" />
    <glyph glyph-name="edotaccent" unicode="&#x117;" horiz-adv-x="558" 
d="M290 -10q-77 0 -137 23t-94 77t-34 146q0 66 22.5 113t60.5 76.5t85 43t97 13.5q86 0 132.5 -17t61.5 -27l50 -159l-20 -62h-310q7 -37 37 -62t99 -25q54 0 93 12t61 21v-134q-30 -16 -86.5 -27.5t-117.5 -11.5zM205 281l138 20l-9 43q-7 4 -20.5 6t-23.5 2
q-28 0 -46.5 -12t-28 -28.5t-10.5 -30.5zM287 525l-110 110l110 110l110 -110z" />
    <glyph glyph-name="Eogonek" unicode="&#x118;" horiz-adv-x="688" 
d="M80 0l-20 60l20 100v548h495l50 -30l-66 -140l-90 10h-209v-110h269v-155h-118l-151 10v-133h299l119 -96l-59 -64h-539zM611 -180q-44 0 -79.5 25t-35.5 78l46 80h80l-23 -62q-4 -12 1 -21.5t21 -9.5q25 0 47.5 10t33.5 20l30 -70q-3 -5 -20 -17t-43 -22.5t-58 -10.5z
" />
    <glyph glyph-name="eogonek" unicode="&#x119;" horiz-adv-x="558" 
d="M290 -10q-77 0 -137 23t-94 77t-34 146q0 66 22.5 113t60.5 76.5t85 43t97 13.5q86 0 132.5 -17t61.5 -27l50 -159l-20 -62h-310q7 -37 37 -62t99 -25q54 0 93 12t61 21v-134q-30 -16 -86.5 -27.5t-117.5 -11.5zM205 281l138 20l-9 43q-7 4 -20.5 6t-23.5 2
q-28 0 -46.5 -12t-28 -28.5t-10.5 -30.5zM384 -180q-44 0 -79.5 25t-35.5 78l46 80h80l-23 -62q-4 -12 1 -21.5t21 -9.5q25 0 47.5 10t33.5 20l30 -70q-3 -5 -20 -17t-43 -22.5t-58 -10.5z" />
    <glyph glyph-name="Ecaron" unicode="&#x11a;" horiz-adv-x="688" 
d="M80 0l-20 60l20 100v548h495l50 -30l-66 -140l-90 10h-209v-110h269v-155h-118l-151 10v-133h299l119 -96l-59 -64h-539zM180 924l109 -140h101l108 140h-81l-77 -58l-80 58h-80z" />
    <glyph glyph-name="ecaron" unicode="&#x11b;" horiz-adv-x="558" 
d="M290 -10q-77 0 -137 23t-94 77t-34 146q0 66 22.5 113t60.5 76.5t85 43t97 13.5q86 0 132.5 -17t61.5 -27l50 -159l-20 -62h-310q7 -37 37 -62t99 -25q54 0 93 12t61 21v-134q-30 -16 -86.5 -27.5t-117.5 -11.5zM205 281l138 20l-9 43q-7 4 -20.5 6t-23.5 2
q-28 0 -46.5 -12t-28 -28.5t-10.5 -30.5zM124 682l109 -140h101l108 140h-81l-77 -58l-80 58h-80z" />
    <glyph glyph-name="Gcircumflex" unicode="&#x11c;" horiz-adv-x="771" 
d="M419 -10q-77 0 -145.5 15.5t-121 55.5t-82.5 111t-30 182q0 107 32 177.5t85.5 111.5t119 58t132.5 17q49 0 85 -5t69 -13l136 -79l-70 -155l-221 78q-48 0 -88.5 -19t-65 -60.5t-24.5 -111.5q0 -113 50.5 -158.5t138.5 -45.5q45 0 70.5 4.5t39.5 7.5v76h-127v148h318
l11 -60l-22 -83v-210q-11 -4 -49.5 -14t-100 -19t-140.5 -9zM254 792l109 140h101l108 -140h-81l-77 58l-80 -58h-80z" />
    <glyph glyph-name="gcircumflex" unicode="&#x11d;" horiz-adv-x="576" 
d="M256 -243q-25 0 -57 1.5t-52 3.5l-122 59l50 130l157 -51q133 0 133 111v19l-10 5q-14 -14 -44.5 -28.5t-95.5 -14.5q-47 0 -91 23.5t-71.5 75.5t-27.5 135q0 93 28 149.5t71.5 82.5t90.5 26q52 0 85.5 -15t44.5 -29v33h181l10 -60l-11 -60l1 -352q0 -86 -33.5 -140
t-94 -79t-142.5 -25zM290 133q18 0 33 5t22 9v187q-4 3 -15 6t-30 3q-39 0 -62 -25t-23 -81q0 -55 22 -79.5t53 -24.5zM168 540l109 140h101l108 -140h-81l-77 58l-80 -58h-80z" />
    <glyph glyph-name="Gbreve" unicode="&#x11e;" horiz-adv-x="771" 
d="M419 -10q-77 0 -145.5 15.5t-121 55.5t-82.5 111t-30 182q0 107 32 177.5t85.5 111.5t119 58t132.5 17q49 0 85 -5t69 -13l136 -79l-70 -155l-221 78q-48 0 -88.5 -19t-65 -60.5t-24.5 -111.5q0 -113 50.5 -158.5t138.5 -45.5q45 0 70.5 4.5t39.5 7.5v76h-127v148h318
l11 -60l-22 -83v-210q-11 -4 -49.5 -14t-100 -19t-140.5 -9zM419 782q-90 0 -127.5 39.5t-37.5 100.5h69q0 -9 6.5 -20.5t27 -20.5t62.5 -9t62 9t26 20.5t6 20.5h71q0 -62 -37.5 -101t-127.5 -39z" />
    <glyph glyph-name="gbreve" unicode="&#x11f;" horiz-adv-x="576" 
d="M256 -243q-25 0 -57 1.5t-52 3.5l-122 59l50 130l157 -51q133 0 133 111v19l-10 5q-14 -14 -44.5 -28.5t-95.5 -14.5q-47 0 -91 23.5t-71.5 75.5t-27.5 135q0 93 28 149.5t71.5 82.5t90.5 26q52 0 85.5 -15t44.5 -29v33h181l10 -60l-11 -60l1 -352q0 -86 -33.5 -140
t-94 -79t-142.5 -25zM290 133q18 0 33 5t22 9v187q-4 3 -15 6t-30 3q-39 0 -62 -25t-23 -81q0 -55 22 -79.5t53 -24.5zM333 530q-90 0 -127.5 39.5t-37.5 100.5h69q0 -9 6.5 -20.5t27 -20.5t62.5 -9t62 9t26 20.5t6 20.5h71q0 -62 -37.5 -101t-127.5 -39z" />
    <glyph glyph-name="Gdotaccent" unicode="&#x120;" horiz-adv-x="771" 
d="M419 -10q-77 0 -145.5 15.5t-121 55.5t-82.5 111t-30 182q0 107 32 177.5t85.5 111.5t119 58t132.5 17q49 0 85 -5t69 -13l136 -79l-70 -155l-221 78q-48 0 -88.5 -19t-65 -60.5t-24.5 -111.5q0 -113 50.5 -158.5t138.5 -45.5q45 0 70.5 4.5t39.5 7.5v76h-127v148h318
l11 -60l-22 -83v-210q-11 -4 -49.5 -14t-100 -19t-140.5 -9zM418 777l-110 110l110 110l110 -110z" />
    <glyph glyph-name="gdotaccent" unicode="&#x121;" horiz-adv-x="576" 
d="M256 -243q-25 0 -57 1.5t-52 3.5l-122 59l50 130l157 -51q133 0 133 111v19l-10 5q-14 -14 -44.5 -28.5t-95.5 -14.5q-47 0 -91 23.5t-71.5 75.5t-27.5 135q0 93 28 149.5t71.5 82.5t90.5 26q52 0 85.5 -15t44.5 -29v33h181l10 -60l-11 -60l1 -352q0 -86 -33.5 -140
t-94 -79t-142.5 -25zM290 133q18 0 33 5t22 9v187q-4 3 -15 6t-30 3q-39 0 -62 -25t-23 -81q0 -55 22 -79.5t53 -24.5zM332 525l-110 110l110 110l110 -110z" />
    <glyph glyph-name="uni0122" unicode="&#x122;" horiz-adv-x="771" 
d="M419 -10q-77 0 -145.5 15.5t-121 55.5t-82.5 111t-30 182q0 107 32 177.5t85.5 111.5t119 58t132.5 17q49 0 85 -5t69 -13l136 -79l-70 -155l-221 78q-48 0 -88.5 -19t-65 -60.5t-24.5 -111.5q0 -113 50.5 -158.5t138.5 -45.5q45 0 70.5 4.5t39.5 7.5v76h-127v148h318
l11 -60l-22 -83v-210q-11 -4 -49.5 -14t-100 -19t-140.5 -9zM385 -446l-37 14l55 212l-80 80l105 104l125 -114z" />
    <glyph glyph-name="uni0123" unicode="&#x123;" horiz-adv-x="576" 
d="M256 -243q-25 0 -57 1.5t-52 3.5l-122 59l50 130l157 -51q133 0 133 111v19l-10 5q-14 -14 -44.5 -28.5t-95.5 -14.5q-47 0 -91 23.5t-71.5 75.5t-27.5 135q0 93 28 149.5t71.5 82.5t90.5 26q52 0 85.5 -15t44.5 -29v33h181l10 -60l-11 -60l1 -352q0 -86 -33.5 -140
t-94 -79t-142.5 -25zM290 133q18 0 33 5t22 9v187q-4 3 -15 6t-30 3q-39 0 -62 -25t-23 -81q0 -55 22 -79.5t53 -24.5zM387 936l37 -14l-55 -212l80 -80l-105 -104l-125 114z" />
    <glyph glyph-name="Hcircumflex" unicode="&#x124;" horiz-adv-x="749" 
d="M70 0v547l-10 100l10 61h180v-271h249v271h180v-376l10 -69v-263h-190v264h-249v-60l10 -204h-190zM213 782l109 140h101l108 -140h-81l-77 58l-80 -58h-80z" />
    <glyph glyph-name="hcircumflex" unicode="&#x125;" horiz-adv-x="607" 
d="M60 0v548l-20 100l20 60h180v-162l-10 -111l10 -5q12 18 44.5 35.5t85.5 17.5q90 0 135 -51t45 -143v-130l21 -98l-21 -61h-180v263q0 38 -16.5 58.5t-51.5 20.5l-62 -29v-313h-180zM-27 740l109 140h101l108 -140h-81l-77 58l-80 -58h-80z" />
    <glyph glyph-name="Hbar" unicode="&#x126;" horiz-adv-x="749" 
d="M70 0v547l-10 100l10 61h180v-271h249v271h180v-376l10 -69v-263h-190v264h-249v-60l10 -204h-190zM118 520v80h505v-80h-505z" />
    <glyph glyph-name="hbar" unicode="&#x127;" horiz-adv-x="607" 
d="M60 0v548l-20 100l20 60h180v-162l-10 -111l10 -5q12 18 44.5 35.5t85.5 17.5q90 0 135 -51t45 -143v-130l21 -98l-21 -61h-180v263q0 38 -16.5 58.5t-51.5 20.5l-62 -29v-313h-180zM-19 524v80h390v-80h-390z" />
    <glyph glyph-name="Itilde" unicode="&#x128;" horiz-adv-x="311" 
d="M70 0v548l-10 100l10 60h181v-708h-181zM225 762q-33 0 -56 10.5t-41 24.5t-35 24.5t-38 10.5l-19 -60h-71q0 62 25 106t75 44q31 0 54 -10.5t41.5 -24.5t36.5 -24.5t39 -10.5l19 60h71q0 -68 -24 -109t-77 -41z" />
    <glyph glyph-name="itilde" unicode="&#x129;" horiz-adv-x="271" 
d="M61 0v331l-21 80l20 61h181v-472h-180zM233 530q-33 0 -56 10.5t-41 24.5t-35 24.5t-38 10.5l-19 -60h-71q0 62 25 106t75 44q31 0 54 -10.5t41.5 -24.5t36.5 -24.5t39 -10.5l19 60h71q0 -68 -24 -109t-77 -41z" />
    <glyph glyph-name="Imacron" unicode="&#x12a;" horiz-adv-x="311" 
d="M70 0v548l-10 100l10 60h181v-708h-181zM-23 802v80h340v-80h-340z" />
    <glyph glyph-name="imacron" unicode="&#x12b;" horiz-adv-x="271" 
d="M61 0v331l-21 80l20 61h181v-472h-180zM-15 570v80h340v-80h-340z" />
    <glyph glyph-name="Ibreve" unicode="&#x12c;" horiz-adv-x="311" 
d="M70 0v548l-10 100l10 60h181v-708h-181zM147 772q-90 0 -127.5 39.5t-37.5 100.5h69q0 -9 6.5 -20.5t27 -20.5t62.5 -9t62 9t26 20.5t6 20.5h71q0 -62 -37.5 -101t-127.5 -39z" />
    <glyph glyph-name="ibreve" unicode="&#x12d;" horiz-adv-x="271" 
d="M61 0v331l-21 80l20 61h181v-472h-180zM155 540q-90 0 -127.5 39.5t-37.5 100.5h69q0 -9 6.5 -20.5t27 -20.5t62.5 -9t62 9t26 20.5t6 20.5h71q0 -62 -37.5 -101t-127.5 -39z" />
    <glyph glyph-name="Iogonek" unicode="&#x12e;" horiz-adv-x="311" 
d="M70 0v548l-10 100l10 60h181v-708h-181zM140 -180q-44 0 -79.5 25t-35.5 78l46 80h80l-23 -62q-4 -12 1 -21.5t21 -9.5q25 0 47.5 10t33.5 20l30 -70q-3 -5 -20 -17t-43 -22.5t-58 -10.5z" />
    <glyph glyph-name="iogonek" unicode="&#x12f;" horiz-adv-x="271" 
d="M61 0v331l-21 80l20 61h181v-472h-180zM154 535l-110 110l110 110l110 -110zM136 -180q-44 0 -79.5 25t-35.5 78l46 80h80l-23 -62q-4 -12 1 -21.5t21 -9.5q25 0 47.5 10t33.5 20l30 -70q-3 -5 -20 -17t-43 -22.5t-58 -10.5z" />
    <glyph glyph-name="Idotaccent" unicode="&#x130;" horiz-adv-x="311" 
d="M70 0v548l-10 100l10 60h181v-708h-181zM146 767l-110 110l110 110l110 -110z" />
    <glyph glyph-name="dotlessi" unicode="&#x131;" horiz-adv-x="271" 
d="M61 0v331l-21 80l20 61h181v-472h-180z" />
    <glyph glyph-name="IJ" unicode="&#x132;" horiz-adv-x="931" 
d="M70 0v548l-10 100l10 60h181v-708h-181zM552 -10q-29 0 -54.5 3t-46.5 7l-130 60l60 152l185 -64q62 0 89 37.5t27 113.5v249l-22 100l11 60h189l1 -441q0 -134 -80 -205.5t-229 -71.5z" />
    <glyph glyph-name="ij" unicode="&#x133;" horiz-adv-x="619" 
d="M150 501l-127 128l127 127l127 -127zM60 0v331l-21 80l20 61h181v-472h-180zM462 502l-127 128l127 127l127 -127zM331 -243q-18 0 -40.5 2.5t-40.5 6.5l-48 49l50 119l88 -34q23 0 31 14.5t7 38t-5 48.5v332l-21 90l20 50h180v-515q0 -105 -57.5 -153t-163.5 -48z" />
    <glyph glyph-name="Jcircumflex" unicode="&#x134;" horiz-adv-x="620" 
d="M241 -10q-29 0 -54.5 3t-46.5 7l-130 60l60 152l185 -64q62 0 89 37.5t27 113.5v249l-22 100l11 60h189l1 -441q0 -134 -80 -205.5t-229 -71.5zM199 782l109 140h101l108 -140h-81l-77 58l-80 -58h-80z" />
    <glyph glyph-name="jcircumflex" unicode="&#x135;" horiz-adv-x="350" 
d="M99 -243q-18 0 -40.5 2.5t-40.5 6.5l-48 49l50 119l88 -34q23 0 31 14.5t7 38t-5 48.5v332l-21 90l20 50h180v-515q0 -105 -57.5 -153t-163.5 -48zM102 540l109 140h101l108 -140h-81l-77 58l-80 -58h-80z" />
    <glyph glyph-name="uni0136" unicode="&#x136;" horiz-adv-x="749" 
d="M80 0v544l-20 101l20 63h180v-120l-10 -179h60l161 299h199v-60l-198 -281l168 -208l99 -99v-60h-225l-182 265l-72 -10v-135l10 -60l-10 -60h-180zM284 -436l-37 14l55 212l-80 80l105 104l125 -114z" />
    <glyph glyph-name="uni0137" unicode="&#x137;" horiz-adv-x="618" 
d="M61 0v548l-21 100l21 60h180v-160l-11 -259h40l77 183h204v-60l-111 -162l74 -90l94 -101v-59h-194l-113 165l-60 -10v-155h-180zM239 -436l-37 14l55 212l-80 80l105 104l125 -114z" />
    <glyph glyph-name="kgreenlandic" unicode="&#x138;" horiz-adv-x="618" 
d="M61 0v311l-21 100l21 60h180v-60l-11 -122h40l77 183h204v-60l-111 -162l74 -90l94 -101v-59h-194l-113 165l-60 -10v-155h-180z" />
    <glyph glyph-name="Lacute" unicode="&#x139;" horiz-adv-x="618" 
d="M80 0l-20 60l20 100v548h180v-411l-10 -137h20l179 10l71 10l88 -116l-49 -64h-479zM230 759l66 192h122v-61l-138 -131h-50z" />
    <glyph glyph-name="lacute" unicode="&#x13a;" horiz-adv-x="301" 
d="M61 0l-1 548l-20 100l21 60h180v-708h-180zM87 757l66 192h122v-61l-138 -131h-50z" />
    <glyph glyph-name="uni013B" unicode="&#x13b;" horiz-adv-x="618" 
d="M80 0l-20 60l20 100v548h180v-411l-10 -137h20l179 10l71 10l88 -116l-49 -64h-479zM200 -436l-37 14l55 212l-80 80l105 104l125 -114z" />
    <glyph glyph-name="uni013C" unicode="&#x13c;" horiz-adv-x="301" 
d="M61 0l-1 548l-20 100l21 60h180v-708h-180zM77 -436l-37 14l55 212l-80 80l105 104l125 -114z" />
    <glyph glyph-name="Lcaron" unicode="&#x13d;" horiz-adv-x="618" 
d="M80 0l-20 60l20 100v548h180v-411l-10 -137h20l179 10l71 10l88 -116l-49 -64h-479zM130 924l109 -140h101l108 140h-81l-77 -58l-80 58h-80z" />
    <glyph glyph-name="lcaron" unicode="&#x13e;" horiz-adv-x="301" 
d="M61 0l-1 548l-20 100l21 60h180v-708h-180zM-13 922l109 -140h101l108 140h-81l-77 -58l-80 58h-80z" />
    <glyph glyph-name="Ldot" unicode="&#x13f;" horiz-adv-x="600" 
d="M80 0l-20 60l20 100v548h180v-411l-10 -137h20l179 10l71 10l88 -116l-49 -64h-479zM440 300l-110 110l110 110l110 -110z" />
    <glyph glyph-name="ldot" unicode="&#x140;" horiz-adv-x="530" 
d="M61 0l-1 548l-20 100l21 60h180v-708h-180zM400 220l-110 110l110 110l110 -110z" />
    <glyph glyph-name="Lslash" unicode="&#x141;" horiz-adv-x="618" 
d="M80 0l-20 60l20 100v548h180v-411l-10 -137h20l179 10l71 10l88 -116l-49 -64h-479zM42 216l-50 70l161 101l145 133l47 -70l-161 -103z" />
    <glyph glyph-name="lslash" unicode="&#x142;" horiz-adv-x="301" 
d="M61 0l-1 548l-20 100l21 60h180v-708h-180zM29 210l-50 70l161 101l145 133l47 -70l-161 -103z" />
    <glyph glyph-name="Nacute" unicode="&#x143;" horiz-adv-x="750" 
d="M80 0v547l-20 100l20 60h161l202 -272l48 -83h10v355h189v-60l-10 -100v-547h-157l-251 352h-10v-60l10 -292h-192zM321 759l66 192h122v-61l-138 -131h-50z" />
    <glyph glyph-name="nacute" unicode="&#x144;" horiz-adv-x="607" 
d="M60 0v301l-20 110l31 61h149v-43l9 -6q11 10 30.5 23.5t47.5 24.5t63 11q90 0 135 -51t45 -143v-127l21 -100l-21 -61h-180v262q0 38 -16.5 58.5t-51.5 20.5l-62 -19v-322h-180zM254 517l66 192h122v-61l-138 -131h-50z" />
    <glyph glyph-name="uni0145" unicode="&#x145;" horiz-adv-x="750" 
d="M80 0v547l-20 100l20 60h161l202 -272l48 -83h10v355h189v-60l-10 -100v-547h-157l-251 352h-10v-60l10 -292h-192zM341 -436l-37 14l55 212l-80 80l105 104l125 -114z" />
    <glyph glyph-name="uni0146" unicode="&#x146;" horiz-adv-x="607" 
d="M60 0v301l-20 110l31 61h149v-43l9 -6q11 10 30.5 23.5t47.5 24.5t63 11q90 0 135 -51t45 -143v-127l21 -100l-21 -61h-180v262q0 38 -16.5 58.5t-51.5 20.5l-62 -19v-322h-180zM264 -436l-37 14l55 212l-80 80l105 104l125 -114z" />
    <glyph glyph-name="Ncaron" unicode="&#x147;" horiz-adv-x="750" 
d="M80 0v547l-20 100l20 60h161l202 -272l48 -83h10v355h189v-60l-10 -100v-547h-157l-251 352h-10v-60l10 -292h-192zM221 924l109 -140h101l108 140h-81l-77 -58l-80 58h-80z" />
    <glyph glyph-name="ncaron" unicode="&#x148;" horiz-adv-x="607" 
d="M60 0v301l-20 110l31 61h149v-43l9 -6q11 10 30.5 23.5t47.5 24.5t63 11q90 0 135 -51t45 -143v-127l21 -100l-21 -61h-180v262q0 38 -16.5 58.5t-51.5 20.5l-62 -19v-322h-180zM154 682l109 -140h101l108 140h-81l-77 -58l-80 58h-80z" />
    <glyph glyph-name="Eng" unicode="&#x14a;" horiz-adv-x="750" 
d="M80 0v547l-20 100l20 60h161l202 -272l48 -83h10v355h189v-60l-10 -100v-601q0 -66 -30.5 -108t-80.5 -62.5t-110 -20.5l-89 38l40 149l48 -24q26 0 34.5 13.5t8.5 47.5q0 24 -14.5 57.5t-31.5 58.5l-183 257h-10v-60l10 -292h-192z" />
    <glyph glyph-name="eng" unicode="&#x14b;" horiz-adv-x="590" 
d="M60 0v301l-20 110l31 61h149v-43l9 -6q11 10 30.5 23.5t47.5 24.5t63 11q90 0 135 -51t45 -143v-341q0 -66 -30.5 -108t-80.5 -62.5t-110 -20.5l-89 38l40 149l48 -24q26 0 34 13.5t8 47.5v282q0 38 -16.5 58.5t-51.5 20.5l-62 -19v-322h-180z" />
    <glyph glyph-name="Omacron" unicode="&#x14c;" horiz-adv-x="758" 
d="M379 -10q-64 0 -124.5 15.5t-109 55.5t-77 111t-28.5 182t28.5 182t77 111t109 55.5t124.5 15.5t124.5 -16t109 -56t77 -111t28.5 -181t-28.5 -181t-77 -111t-109 -56t-124.5 -16zM379 160q74 0 112 44t38 150t-38 150t-112 44q-73 0 -111 -45t-38 -149t38 -149t111 -45z
M209 802v80h340v-80h-340z" />
    <glyph glyph-name="omacron" unicode="&#x14d;" horiz-adv-x="560" 
d="M281 -10q-122 0 -189 58t-67 188q0 131 67 188.5t189 57.5q125 0 189.5 -57.5t64.5 -188.5q0 -130 -64.5 -188t-189.5 -58zM281 120q41 0 57 30.5t16 85.5q0 56 -16 86t-57 30q-42 0 -58.5 -30t-16.5 -86q0 -55 16.5 -85.5t58.5 -30.5zM113 573v80h340v-80h-340z" />
    <glyph glyph-name="Obreve" unicode="&#x14e;" horiz-adv-x="758" 
d="M379 -10q-64 0 -124.5 15.5t-109 55.5t-77 111t-28.5 182t28.5 182t77 111t109 55.5t124.5 15.5t124.5 -16t109 -56t77 -111t28.5 -181t-28.5 -181t-77 -111t-109 -56t-124.5 -16zM379 160q74 0 112 44t38 150t-38 150t-112 44q-73 0 -111 -45t-38 -149t38 -149t111 -45z
M379 772q-90 0 -127.5 39.5t-37.5 100.5h69q0 -9 6.5 -20.5t27 -20.5t62.5 -9t62 9t26 20.5t6 20.5h71q0 -62 -37.5 -101t-127.5 -39z" />
    <glyph glyph-name="obreve" unicode="&#x14f;" horiz-adv-x="560" 
d="M281 -10q-122 0 -189 58t-67 188q0 131 67 188.5t189 57.5q125 0 189.5 -57.5t64.5 -188.5q0 -130 -64.5 -188t-189.5 -58zM281 120q41 0 57 30.5t16 85.5q0 56 -16 86t-57 30q-42 0 -58.5 -30t-16.5 -86q0 -55 16.5 -85.5t58.5 -30.5zM283 543q-90 0 -127.5 39.5
t-37.5 100.5h69q0 -9 6.5 -20.5t27 -20.5t62.5 -9t62 9t26 20.5t6 20.5h71q0 -62 -37.5 -101t-127.5 -39z" />
    <glyph glyph-name="Ohungarumlaut" unicode="&#x150;" horiz-adv-x="758" 
d="M379 -10q-64 0 -124.5 15.5t-109 55.5t-77 111t-28.5 182t28.5 182t77 111t109 55.5t124.5 15.5t124.5 -16t109 -56t77 -111t28.5 -181t-28.5 -181t-77 -111t-109 -56t-124.5 -16zM379 160q74 0 112 44t38 150t-38 150t-112 44q-73 0 -111 -45t-38 -149t38 -149t111 -45z
M376 752l66 192h122v-61l-138 -131h-50zM196 754l66 192h122v-61l-138 -131h-50z" />
    <glyph glyph-name="ohungarumlaut" unicode="&#x151;" horiz-adv-x="560" 
d="M281 -10q-122 0 -189 58t-67 188q0 131 67 188.5t189 57.5q125 0 189.5 -57.5t64.5 -188.5q0 -130 -64.5 -188t-189.5 -58zM281 120q41 0 57 30.5t16 85.5q0 56 -16 86t-57 30q-42 0 -58.5 -30t-16.5 -86q0 -55 16.5 -85.5t58.5 -30.5zM280 523l66 192h122v-61l-138 -131
h-50zM100 525l66 192h122v-61l-138 -131h-50z" />
    <glyph glyph-name="OE" unicode="&#x152;" horiz-adv-x="1158" 
d="M368 -10q-56 0 -112 15.5t-103 55.5t-75 111t-28 182t28 182t75 111t103 55.5t112 15.5q51 0 97.5 -15t84.5 -45v50h495l50 -30l-66 -140l-90 10h-209v-110h269v-155h-118l-151 10v-133h299l119 -96l-59 -64h-539l-14 42q-37 -27 -80 -39.5t-88 -12.5zM389 160
q35 0 69.5 19t57.5 62t23 113q0 71 -23 113.5t-57.5 61.5t-69.5 19q-73 0 -111 -45t-38 -149t38 -149t111 -45z" />
    <glyph glyph-name="oe" unicode="&#x153;" horiz-adv-x="899" 
d="M281 -10q-122 0 -189 58t-67 188q0 131 67 188.5t189 57.5q125 0 189.5 -57.5t64.5 -188.5q0 -130 -64.5 -188t-189.5 -58zM281 120q41 0 57 30.5t16 85.5q0 56 -16 86t-57 30q-42 0 -58.5 -30t-16.5 -86q0 -55 16.5 -85.5t58.5 -30.5zM615 -10q-77 0 -137 23t-94 77
t-34 146q0 66 22.5 113t60.5 76.5t85 43t97 13.5q86 0 132.5 -17t61.5 -27l50 -159l-20 -62h-310q7 -37 37 -62t99 -25q54 0 93 12t61 21v-134q-30 -16 -86.5 -27.5t-117.5 -11.5zM530 281l138 20l-9 43q-7 4 -20.5 6t-23.5 2q-28 0 -46.5 -12t-28 -28.5t-10.5 -30.5z" />
    <glyph glyph-name="Racute" unicode="&#x154;" horiz-adv-x="718" 
d="M80 0v547l-20 101l20 60h320q73 0 131.5 -22.5t93 -76t34.5 -147.5q0 -85 -31 -137.5t-86 -78.5l10 -11l99 -124l57 -51v-60h-225l-140 213h-83v-52l10 -100l-10 -61h-180zM260 370h98q52 0 83 19.5t31 72.5q0 37 -15 55.5t-41.5 24.5t-61.5 6h-104zM289 759l66 192h122
v-61l-138 -131h-50z" />
    <glyph glyph-name="racute" unicode="&#x155;" horiz-adv-x="466" 
d="M61 0v313l-21 100l21 60h136l20 -23l14 8.5t39.5 16.5t59.5 8q20 0 40 -3t31 -8l65 -55l-65 -128l-132 55l-30 -10v-334h-178zM140 527l66 192h122v-61l-138 -131h-50z" />
    <glyph glyph-name="uni0156" unicode="&#x156;" horiz-adv-x="718" 
d="M80 0v547l-20 101l20 60h320q73 0 131.5 -22.5t93 -76t34.5 -147.5q0 -85 -31 -137.5t-86 -78.5l10 -11l99 -124l57 -51v-60h-225l-140 213h-83v-52l10 -100l-10 -61h-180zM260 370h98q52 0 83 19.5t31 72.5q0 37 -15 55.5t-41.5 24.5t-61.5 6h-104zM309 -436l-37 14
l55 212l-80 80l105 104l125 -114z" />
    <glyph glyph-name="uni0157" unicode="&#x157;" horiz-adv-x="466" 
d="M61 0v313l-21 100l21 60h136l20 -23l14 8.5t39.5 16.5t59.5 8q20 0 40 -3t31 -8l65 -55l-65 -128l-132 55l-30 -10v-334h-178zM240 -436l-37 14l55 212l-80 80l105 104l125 -114z" />
    <glyph glyph-name="Rcaron" unicode="&#x158;" horiz-adv-x="718" 
d="M80 0v547l-20 101l20 60h320q73 0 131.5 -22.5t93 -76t34.5 -147.5q0 -85 -31 -137.5t-86 -78.5l10 -11l99 -124l57 -51v-60h-225l-140 213h-83v-52l10 -100l-10 -61h-180zM260 370h98q52 0 83 19.5t31 72.5q0 37 -15 55.5t-41.5 24.5t-61.5 6h-104zM189 924l109 -140
h101l108 140h-81l-77 -58l-80 58h-80z" />
    <glyph glyph-name="rcaron" unicode="&#x159;" horiz-adv-x="466" 
d="M61 0v313l-21 100l21 60h136l20 -23l14 8.5t39.5 16.5t59.5 8q20 0 40 -3t31 -8l65 -55l-65 -128l-132 55l-30 -10v-334h-178zM40 692l109 -140h101l108 140h-81l-77 -58l-80 58h-80z" />
    <glyph glyph-name="Sacute" unicode="&#x15a;" horiz-adv-x="658" 
d="M310 -10q-55 0 -104 10.5t-85 25.5t-53 28v179q48 -27 121 -50.5t162 -23.5q36 0 53.5 9.5t17.5 33.5q0 26 -39.5 43.5t-124.5 43.5q-66 21 -112.5 46.5t-71 64t-24.5 98.5q0 62 32 112t100 79t174 29q32 0 68.5 -2.5t58.5 -6.5l113 -83l-39 -122l-237 65
q-41 0 -60.5 -17t-19.5 -41q0 -29 33 -46t95 -34q98 -27 152 -60t76 -74.5t22 -93.5q0 -96 -77 -154.5t-231 -58.5zM294 769l66 192h122v-61l-138 -131h-50z" />
    <glyph glyph-name="sacute" unicode="&#x15b;" horiz-adv-x="500" 
d="M255 -10q-73 0 -129 15t-87 31v139q41 -18 84.5 -28t78.5 -13.5t50 -3.5q17 0 24 5.5t7 13.5q0 11 -18 18.5t-68 19.5q-41 10 -79.5 25.5t-63 43.5t-24.5 75q0 58 27 91t77 46.5t117 13.5q38 0 71 -4t47 -6l93 -60l-45 -107l-175 38q-32 0 -32 -21q0 -22 46 -33
q36 -8 74 -17.5t69.5 -24.5t51 -40t19.5 -66q0 -76 -54.5 -113.5t-160.5 -37.5zM224 517l66 192h122v-61l-138 -131h-50z" />
    <glyph glyph-name="Scircumflex" unicode="&#x15c;" horiz-adv-x="658" 
d="M310 -10q-55 0 -104 10.5t-85 25.5t-53 28v179q48 -27 121 -50.5t162 -23.5q36 0 53.5 9.5t17.5 33.5q0 26 -39.5 43.5t-124.5 43.5q-66 21 -112.5 46.5t-71 64t-24.5 98.5q0 62 32 112t100 79t174 29q32 0 68.5 -2.5t58.5 -6.5l113 -83l-39 -122l-237 65
q-41 0 -60.5 -17t-19.5 -41q0 -29 33 -46t95 -34q98 -27 152 -60t76 -74.5t22 -93.5q0 -96 -77 -154.5t-231 -58.5zM193 792l109 140h101l108 -140h-81l-77 58l-80 -58h-80z" />
    <glyph glyph-name="scircumflex" unicode="&#x15d;" horiz-adv-x="500" 
d="M255 -10q-73 0 -129 15t-87 31v139q41 -18 84.5 -28t78.5 -13.5t50 -3.5q17 0 24 5.5t7 13.5q0 11 -18 18.5t-68 19.5q-41 10 -79.5 25.5t-63 43.5t-24.5 75q0 58 27 91t77 46.5t117 13.5q38 0 71 -4t47 -6l93 -60l-45 -107l-175 38q-32 0 -32 -21q0 -22 46 -33
q36 -8 74 -17.5t69.5 -24.5t51 -40t19.5 -66q0 -76 -54.5 -113.5t-160.5 -37.5zM123 540l109 140h101l108 -140h-81l-77 58l-80 -58h-80z" />
    <glyph glyph-name="Scedilla" unicode="&#x15e;" horiz-adv-x="658" 
d="M310 -10q-55 0 -104 10.5t-85 25.5t-53 28v179q48 -27 121 -50.5t162 -23.5q36 0 53.5 9.5t17.5 33.5q0 26 -39.5 43.5t-124.5 43.5q-66 21 -112.5 46.5t-71 64t-24.5 98.5q0 62 32 112t100 79t174 29q32 0 68.5 -2.5t58.5 -6.5l113 -83l-39 -122l-237 65
q-41 0 -60.5 -17t-19.5 -41q0 -29 33 -46t95 -34q98 -27 152 -60t76 -74.5t22 -93.5q0 -96 -77 -154.5t-231 -58.5zM347 -220q-49 0 -76.5 12.5l-27.5 12.5v80l26.5 -12.5t69.5 -12.5q11 0 25 4.5t14 17.5l-75 48l30 70h79l-10 -42l73 -55q0 -42 -18 -69t-47.5 -40.5
t-62.5 -13.5z" />
    <glyph glyph-name="scedilla" unicode="&#x15f;" horiz-adv-x="500" 
d="M255 -10q-73 0 -129 15t-87 31v139q41 -18 84.5 -28t78.5 -13.5t50 -3.5q17 0 24 5.5t7 13.5q0 11 -18 18.5t-68 19.5q-41 10 -79.5 25.5t-63 43.5t-24.5 75q0 58 27 91t77 46.5t117 13.5q38 0 71 -4t47 -6l93 -60l-45 -107l-175 38q-32 0 -32 -21q0 -22 46 -33
q36 -8 74 -17.5t69.5 -24.5t51 -40t19.5 -66q0 -76 -54.5 -113.5t-160.5 -37.5zM247 -220q-49 0 -76.5 12.5l-27.5 12.5v80l26.5 -12.5t69.5 -12.5q11 0 25 4.5t14 17.5l-75 48l30 70h79l-10 -42l73 -55q0 -42 -18 -69t-47.5 -40.5t-62.5 -13.5z" />
    <glyph glyph-name="Scaron" unicode="&#x160;" horiz-adv-x="658" 
d="M310 -10q-55 0 -104 10.5t-85 25.5t-53 28v179q48 -27 121 -50.5t162 -23.5q36 0 53.5 9.5t17.5 33.5q0 26 -39.5 43.5t-124.5 43.5q-66 21 -112.5 46.5t-71 64t-24.5 98.5q0 62 32 112t100 79t174 29q32 0 68.5 -2.5t58.5 -6.5l113 -83l-39 -122l-237 65
q-41 0 -60.5 -17t-19.5 -41q0 -29 33 -46t95 -34q98 -27 152 -60t76 -74.5t22 -93.5q0 -96 -77 -154.5t-231 -58.5zM194 934l109 -140h101l108 140h-81l-77 -58l-80 58h-80z" />
    <glyph glyph-name="scaron" unicode="&#x161;" horiz-adv-x="500" 
d="M255 -10q-73 0 -129 15t-87 31v139q41 -18 84.5 -28t78.5 -13.5t50 -3.5q17 0 24 5.5t7 13.5q0 11 -18 18.5t-68 19.5q-41 10 -79.5 25.5t-63 43.5t-24.5 75q0 58 27 91t77 46.5t117 13.5q38 0 71 -4t47 -6l93 -60l-45 -107l-175 38q-32 0 -32 -21q0 -22 46 -33
q36 -8 74 -17.5t69.5 -24.5t51 -40t19.5 -66q0 -76 -54.5 -113.5t-160.5 -37.5zM124 682l109 -140h101l108 140h-81l-77 -58l-80 58h-80z" />
    <glyph glyph-name="uni0162" unicode="&#x162;" horiz-adv-x="625" 
d="M220 0v548l-200 -10v170h585v-170l-205 10v-388l11 -100l-11 -60h-180zM294 -220q-49 0 -76.5 12.5l-27.5 12.5v80l26.5 -12.5t69.5 -12.5q11 0 25 4.5t14 17.5l-75 48l30 70h79l-10 -42l73 -55q0 -42 -18 -69t-47.5 -40.5t-62.5 -13.5z" />
    <glyph glyph-name="uni0163" unicode="&#x163;" horiz-adv-x="432" 
d="M233 -10q-68 0 -109 40t-41 101v218h-73v95l63 49l71 124h118v-145h140v-130h-140v-214l140 1v-109l-23.5 -7.5t-61.5 -15t-84 -7.5zM206 -220q-49 0 -76.5 12.5l-27.5 12.5v80l26.5 -12.5t69.5 -12.5q11 0 25 4.5t14 17.5l-75 48l30 70h79l-10 -42l73 -55q0 -42 -18 -69
t-47.5 -40.5t-62.5 -13.5z" />
    <glyph glyph-name="Tcaron" unicode="&#x164;" horiz-adv-x="625" 
d="M220 0v548l-200 -10v170h585v-170l-205 10v-388l11 -100l-11 -60h-180zM155 924l109 -140h101l108 140h-81l-77 -58l-80 58h-80z" />
    <glyph glyph-name="tcaron" unicode="&#x165;" horiz-adv-x="432" 
d="M233 -10q-68 0 -109 40t-41 101v218h-73v95l63 49l71 124h118v-145h140v-130h-140v-214l140 1v-109l-23.5 -7.5t-61.5 -15t-84 -7.5zM41 822l109 -140h101l108 140h-81l-77 -58l-80 58h-80z" />
    <glyph glyph-name="Tbar" unicode="&#x166;" horiz-adv-x="625" 
d="M220 0v548l-200 -10v170h585v-170l-205 10v-388l11 -100l-11 -60h-180zM122 300v80h390v-80h-390z" />
    <glyph glyph-name="tbar" unicode="&#x167;" horiz-adv-x="432" 
d="M233 -10q-68 0 -109 40t-41 101v218h-73v95l63 49l71 124h118v-145h140v-130h-140v-214l140 1v-109l-23.5 -7.5t-61.5 -15t-84 -7.5zM11 214v80h390v-80h-390z" />
    <glyph glyph-name="Utilde" unicode="&#x168;" horiz-adv-x="738" 
d="M369 -10q-154 0 -231.5 70.5t-77.5 226.5v260l1 101l-1 60h182v-401q0 -70 28 -113.5t99 -43.5t100.5 40.5t29.5 116.5v401h179v-421q0 -153 -75.5 -225t-233.5 -72zM446 762q-33 0 -56 10.5t-41 24.5t-35 24.5t-38 10.5l-19 -60h-71q0 62 25 106t75 44q31 0 54 -10.5
t41.5 -24.5t36.5 -24.5t39 -10.5l19 60h71q0 -68 -24 -109t-77 -41z" />
    <glyph glyph-name="utilde" unicode="&#x169;" horiz-adv-x="587" 
d="M190 -10q-60 0 -92.5 23t-45 66.5t-12.5 104.5v289h180v-263q0 -37 14.5 -58t43.5 -21q27 0 49.5 23t22.5 67v252h180v-312l21 -100l-21 -61h-169v49l-10 5q-13 -13 -37.5 -28t-56 -25.5t-67.5 -10.5zM367 535q-33 0 -56 10.5t-41 24.5t-35 24.5t-38 10.5l-19 -60h-71
q0 62 25 106t75 44q31 0 54 -10.5t41.5 -24.5t36.5 -24.5t39 -10.5l19 60h71q0 -68 -24 -109t-77 -41z" />
    <glyph glyph-name="Umacron" unicode="&#x16a;" horiz-adv-x="738" 
d="M369 -10q-154 0 -231.5 70.5t-77.5 226.5v260l1 101l-1 60h182v-401q0 -70 28 -113.5t99 -43.5t100.5 40.5t29.5 116.5v401h179v-421q0 -153 -75.5 -225t-233.5 -72zM198 802v80h340v-80h-340z" />
    <glyph glyph-name="umacron" unicode="&#x16b;" horiz-adv-x="587" 
d="M190 -10q-60 0 -92.5 23t-45 66.5t-12.5 104.5v289h180v-263q0 -37 14.5 -58t43.5 -21q27 0 49.5 23t22.5 67v252h180v-312l21 -100l-21 -61h-169v49l-10 5q-13 -13 -37.5 -28t-56 -25.5t-67.5 -10.5zM119 575v80h340v-80h-340z" />
    <glyph glyph-name="Ubreve" unicode="&#x16c;" horiz-adv-x="738" 
d="M369 -10q-154 0 -231.5 70.5t-77.5 226.5v260l1 101l-1 60h182v-401q0 -70 28 -113.5t99 -43.5t100.5 40.5t29.5 116.5v401h179v-421q0 -153 -75.5 -225t-233.5 -72zM368 772q-90 0 -127.5 39.5t-37.5 100.5h69q0 -9 6.5 -20.5t27 -20.5t62.5 -9t62 9t26 20.5t6 20.5h71
q0 -62 -37.5 -101t-127.5 -39z" />
    <glyph glyph-name="ubreve" unicode="&#x16d;" horiz-adv-x="587" 
d="M190 -10q-60 0 -92.5 23t-45 66.5t-12.5 104.5v289h180v-263q0 -37 14.5 -58t43.5 -21q27 0 49.5 23t22.5 67v252h180v-312l21 -100l-21 -61h-169v49l-10 5q-13 -13 -37.5 -28t-56 -25.5t-67.5 -10.5zM289 545q-90 0 -127.5 39.5t-37.5 100.5h69q0 -9 6.5 -20.5t27 -20.5
t62.5 -9t62 9t26 20.5t6 20.5h71q0 -62 -37.5 -101t-127.5 -39z" />
    <glyph glyph-name="Uring" unicode="&#x16e;" horiz-adv-x="738" 
d="M369 -10q-154 0 -231.5 70.5t-77.5 226.5v260l1 101l-1 60h182v-401q0 -70 28 -113.5t99 -43.5t100.5 40.5t29.5 116.5v401h179v-421q0 -153 -75.5 -225t-233.5 -72zM368 762q-45 0 -77 32t-32 77t32 77t77 32t77 -32t32 -77t-32 -77t-77 -32zM368 838q14 0 23.5 10
t9.5 23q0 14 -9.5 23.5t-23.5 9.5q-13 0 -23 -9.5t-10 -23.5q0 -13 10 -23t23 -10z" />
    <glyph glyph-name="uring" unicode="&#x16f;" horiz-adv-x="587" 
d="M190 -10q-60 0 -92.5 23t-45 66.5t-12.5 104.5v289h180v-263q0 -37 14.5 -58t43.5 -21q27 0 49.5 23t22.5 67v252h180v-312l21 -100l-21 -61h-169v49l-10 5q-13 -13 -37.5 -28t-56 -25.5t-67.5 -10.5zM289 535q-45 0 -77 32t-32 77t32 77t77 32t77 -32t32 -77t-32 -77
t-77 -32zM289 611q14 0 23.5 10t9.5 23q0 14 -9.5 23.5t-23.5 9.5q-13 0 -23 -9.5t-10 -23.5q0 -13 10 -23t23 -10z" />
    <glyph glyph-name="Uhungarumlaut" unicode="&#x170;" horiz-adv-x="738" 
d="M369 -10q-154 0 -231.5 70.5t-77.5 226.5v260l1 101l-1 60h182v-401q0 -70 28 -113.5t99 -43.5t100.5 40.5t29.5 116.5v401h179v-421q0 -153 -75.5 -225t-233.5 -72zM365 752l66 192h122v-61l-138 -131h-50zM185 754l66 192h122v-61l-138 -131h-50z" />
    <glyph glyph-name="uhungarumlaut" unicode="&#x171;" horiz-adv-x="587" 
d="M190 -10q-60 0 -92.5 23t-45 66.5t-12.5 104.5v289h180v-263q0 -37 14.5 -58t43.5 -21q27 0 49.5 23t22.5 67v252h180v-312l21 -100l-21 -61h-169v49l-10 5q-13 -13 -37.5 -28t-56 -25.5t-67.5 -10.5zM286 525l66 192h122v-61l-138 -131h-50zM106 527l66 192h122v-61
l-138 -131h-50z" />
    <glyph glyph-name="Uogonek" unicode="&#x172;" horiz-adv-x="738" 
d="M369 -10q-154 0 -231.5 70.5t-77.5 226.5v260l1 101l-1 60h182v-401q0 -70 28 -113.5t99 -43.5t100.5 40.5t29.5 116.5v401h179v-421q0 -153 -75.5 -225t-233.5 -72zM390 -190q-44 0 -79.5 25t-35.5 78l46 80h80l-23 -62q-4 -12 1 -21.5t21 -9.5q25 0 47.5 10t33.5 20
l30 -70q-3 -5 -20 -17t-43 -22.5t-58 -10.5z" />
    <glyph glyph-name="uogonek" unicode="&#x173;" horiz-adv-x="587" 
d="M190 -10q-60 0 -92.5 23t-45 66.5t-12.5 104.5v289h180v-263q0 -37 14.5 -58t43.5 -21q27 0 49.5 23t22.5 67v252h180v-312l21 -100l-21 -61h-169v49l-10 5q-13 -13 -37.5 -28t-56 -25.5t-67.5 -10.5zM430 -180q-44 0 -79.5 25t-35.5 78l46 80h80l-23 -62q-4 -12 1 -21.5
t21 -9.5q25 0 47.5 10t33.5 20l30 -70q-3 -5 -20 -17t-43 -22.5t-58 -10.5z" />
    <glyph glyph-name="Wcircumflex" unicode="&#x174;" horiz-adv-x="1159" 
d="M210 0l-160 549l-30 99v60h190l125 -516h20l95 516h263l78 -389l16 -127h20l124 516h188v-60l-30 -99l-158 -549h-259l-103 522h-21l-17 -121l-82 -401h-259zM423 782l109 140h101l108 -140h-81l-77 58l-80 -58h-80z" />
    <glyph glyph-name="wcircumflex" unicode="&#x175;" horiz-adv-x="920" 
d="M167 0l-137 342l-20 130h190l65 -312h20l76 312h199l75 -312h20l66 312h189l-20 -130l-138 -342h-210l-72 322h-20l-73 -322h-210zM287 540l109 140h101l108 -140h-81l-77 58l-80 -58h-80z" />
    <glyph glyph-name="Ycircumflex" unicode="&#x176;" horiz-adv-x="719" 
d="M268 0v300l-248 348v60h210l120 -226h20l119 226h210v-60l-255 -354l6 -101v-193h-182zM196 772l109 140h101l108 -140h-81l-77 58l-80 -58h-80z" />
    <glyph glyph-name="ycircumflex" unicode="&#x177;" horiz-adv-x="520" 
d="M101 -243l-141 50l40 149l140 -40q43 0 62.5 22.5t29.5 62.5h-103l-110 342l-19 130h190l55 -330h20l55 330h190l-6.5 -31.5t-18 -83.5t-27 -114.5t-32.5 -126t-35 -116.5q-27 -83 -64.5 -137t-91.5 -80.5t-134 -26.5zM94 540l109 140h101l108 -140h-81l-77 58l-80 -58
h-80z" />
    <glyph glyph-name="Ydieresis" unicode="&#x178;" horiz-adv-x="719" 
d="M268 0v300l-248 348v60h210l120 -226h20l119 226h210v-60l-255 -354l6 -101v-193h-182zM238 739l-110 110l110 110l110 -110zM488 739l-110 110l110 110l110 -110z" />
    <glyph glyph-name="Zacute" unicode="&#x179;" horiz-adv-x="658" 
d="M51 0l-31 60l362 489h-331v159h575v-118l-311 -431h31l282 20v-179h-577zM269 757l66 192h122v-61l-138 -131h-50z" />
    <glyph glyph-name="zacute" unicode="&#x17a;" horiz-adv-x="528" 
d="M20 0v90l238 253h-237v130h469v-94l-158 -192l-60 -57h30l206 20v-150h-488zM194 517l66 192h122v-61l-138 -131h-50z" />
    <glyph glyph-name="Zdotaccent" unicode="&#x17b;" horiz-adv-x="658" 
d="M51 0l-31 60l362 489h-331v159h575v-118l-311 -431h31l282 20v-179h-577zM332 765l-110 110l110 110l110 -110z" />
    <glyph glyph-name="zdotaccent" unicode="&#x17c;" horiz-adv-x="528" 
d="M20 0v90l238 253h-237v130h469v-94l-158 -192l-60 -57h30l206 20v-150h-488zM257 525l-110 110l110 110l110 -110z" />
    <glyph glyph-name="Zcaron" unicode="&#x17d;" horiz-adv-x="658" 
d="M51 0l-31 60l362 489h-331v159h575v-118l-311 -431h31l282 20v-179h-577zM169 922l109 -140h101l108 140h-81l-77 -58l-80 58h-80z" />
    <glyph glyph-name="zcaron" unicode="&#x17e;" horiz-adv-x="528" 
d="M20 0v90l238 253h-237v130h469v-94l-158 -192l-60 -57h30l206 20v-150h-488zM94 682l109 -140h101l108 140h-81l-77 -58l-80 58h-80z" />
    <glyph glyph-name="uni018F" unicode="&#x18f;" horiz-adv-x="694" 
d="M337 -10q-108 0 -176 40t-99.5 111t-31.5 163v84h434q0 85 -34 129.5t-117 44.5q-55 0 -108.5 -10t-91.5 -22t-48 -19v141q9 9 42.5 22.5t91 24t135.5 10.5q112 0 182.5 -44.5t104 -124t33.5 -185.5q0 -122 -39.5 -203t-110.5 -121.5t-167 -40.5zM337 148q66 0 96.5 37
t30.5 87h-257v-14q0 -53 31.5 -81.5t98.5 -28.5z" />
    <glyph glyph-name="florin" unicode="&#x192;" horiz-adv-x="688" 
d="M159 -141l-139 38l40 149l88 -24q25 0 33.5 12.5t9.5 44.5v207l-53 100l53 48v32q0 78 34 134.5t92 87t130 30.5q29 0 60 -2.5t54 -8.5l107 -61l-77 -139l-115 70q-22 0 -46.5 -12.5t-41.5 -43.5t-17 -87h164v-120l-164 10l-1 -274q0 -66 -28 -108t-75.5 -62.5
t-107.5 -20.5z" />
    <glyph glyph-name="uni019D" unicode="&#x19d;" horiz-adv-x="771" 
d="M59 -245l-89 38l40 149l48 -24q26 0 34.5 13.5t8.5 47.5v568l-20 100l20 60h161l202 -272l48 -83h10v355h189v-60l-10 -100v-547h-157l-251 352h-10v-406q0 -66 -31 -108t-82 -62.5t-111 -20.5z" />
    <glyph glyph-name="Ohorn" unicode="&#x1a0;" horiz-adv-x="758" 
d="M379 -10q-64 0 -124.5 15.5t-109 55.5t-77 111t-28.5 182t28.5 182t77 111t109 55.5t124.5 15.5t124.5 -16t109 -56t77 -111t28.5 -181t-28.5 -181t-77 -111t-109 -56t-124.5 -16zM379 160q74 0 112 44t38 150t-38 150t-112 44q-73 0 -111 -45t-38 -149t38 -149t111 -45z
M674 522q-31 0 -47.5 8l-16.5 8v44h31q37 0 48 19.5t11 53.5v59h102v-74q0 -45 -18.5 -70.5t-48 -36.5t-61.5 -11z" />
    <glyph glyph-name="ohorn" unicode="&#x1a1;" horiz-adv-x="560" 
d="M281 -10q-122 0 -189 58t-67 188q0 131 67 188.5t189 57.5q125 0 189.5 -57.5t64.5 -188.5q0 -130 -64.5 -188t-189.5 -58zM281 120q41 0 57 30.5t16 85.5q0 56 -16 86t-57 30q-42 0 -58.5 -30t-16.5 -86q0 -55 16.5 -85.5t58.5 -30.5zM509 340q-31 0 -47.5 8l-16.5 8v44
h31q37 0 48 19.5t11 53.5v59h102v-74q0 -45 -18.5 -70.5t-48 -36.5t-61.5 -11z" />
    <glyph glyph-name="Uhorn" unicode="&#x1af;" horiz-adv-x="738" 
d="M369 -10q-154 0 -231.5 70.5t-77.5 226.5v260l1 101l-1 60h182v-401q0 -70 28 -113.5t99 -43.5t100.5 40.5t29.5 116.5v401h179v-421q0 -153 -75.5 -225t-233.5 -72zM664 648q-31 0 -47.5 8l-16.5 8v44h31q37 0 48 19.5t11 53.5v59h102v-74q0 -45 -18.5 -70.5t-48 -36.5
t-61.5 -11z" />
    <glyph glyph-name="uhorn" unicode="&#x1b0;" horiz-adv-x="587" 
d="M190 -10q-60 0 -92.5 23t-45 66.5t-12.5 104.5v289h180v-263q0 -37 14.5 -58t43.5 -21q27 0 49.5 23t22.5 67v252h180v-312l21 -100l-21 -61h-169v49l-10 5q-13 -13 -37.5 -28t-56 -25.5t-67.5 -10.5zM518 415q-31 0 -47.5 8l-16.5 8v44h31q37 0 48 19.5t11 53.5v59h102
v-74q0 -45 -18.5 -70.5t-48 -36.5t-61.5 -11z" />
    <glyph glyph-name="uni01C4" unicode="&#x1c4;" horiz-adv-x="1447" 
d="M80 0v547l-20 100l20 61h298q72 0 138.5 -13.5t119 -50.5t83 -106t30.5 -179t-31 -180.5t-84 -109.5t-119.5 -54t-136.5 -15h-298zM262 160h116q88 0 135 46.5t47 152.5t-47.5 147.5t-134.5 41.5h-116v-388zM840 0l-31 60l362 489h-331v159h575v-118l-311 -431h31l282 20
v-179h-577zM958 922l109 -140h101l108 140h-81l-77 -58l-80 58h-80z" />
    <glyph glyph-name="uni01C5" unicode="&#x1c5;" horiz-adv-x="1317" 
d="M80 0v547l-20 100l20 61h298q72 0 138.5 -13.5t119 -50.5t83 -106t30.5 -179t-31 -180.5t-84 -109.5t-119.5 -54t-136.5 -15h-298zM262 160h116q88 0 135 46.5t47 152.5t-47.5 147.5t-134.5 41.5h-116v-388zM809 0v90l238 253h-237v130h469v-94l-158 -192l-60 -57h30
l206 20v-150h-488zM883 682l109 -140h101l108 140h-81l-77 -58l-80 58h-80z" />
    <glyph glyph-name="uni01C6" unicode="&#x1c6;" horiz-adv-x="1114" 
d="M215 -10q-47 0 -90.5 24t-71.5 76t-28 136q0 93 27.5 149t71.5 81.5t91 25.5q71 0 100.5 -12l29.5 -12l-10 189l10 60h181v-547l20 -100l-20 -61h-171v49l-10 5l-15 -15.5t-44 -31.5t-71 -16zM290 131l55 14v146q0 23 -15 36.5t-40 13.5q-37 0 -56 -24.5t-19 -80.5
q0 -55 22 -80t53 -25zM606 0v90l238 253h-237v130h469v-94l-158 -192l-60 -57h30l206 20v-150h-488zM680 682l109 -140h101l108 140h-81l-77 -58l-80 58h-80z" />
    <glyph glyph-name="uni01C7" unicode="&#x1c7;" horiz-adv-x="1147" 
d="M80 0l-20 60l20 100v548h180v-411l-10 -137h20l179 10l71 10l88 -116l-49 -64h-479zM768 -10q-29 0 -54.5 3t-46.5 7l-130 60l60 152l185 -64q62 0 89 37.5t27 113.5v249l-22 100l11 60h189l1 -441q0 -134 -80 -205.5t-229 -71.5z" />
    <glyph glyph-name="uni01C8" unicode="&#x1c8;" horiz-adv-x="1005" 
d="M80 0l-20 60l20 100v548h180v-411l-10 -137h20l179 10l71 10l88 -116l-49 -64h-479zM848 502l-127 128l127 127l127 -127zM717 -243q-18 0 -40.5 2.5t-40.5 6.5l-48 49l50 119l88 -34q23 0 31 14.5t7 38t-5 48.5v332l-21 90l20 50h180v-515q0 -105 -57.5 -153t-163.5 -48
z" />
    <glyph glyph-name="uni01C9" unicode="&#x1c9;" horiz-adv-x="688" 
d="M61 0l-1 548l-20 100l21 60h180v-708h-180zM531 502l-127 128l127 127l127 -127zM400 -243q-18 0 -40.5 2.5t-40.5 6.5l-48 49l50 119l88 -34q23 0 31 14.5t7 38t-5 48.5v332l-21 90l20 50h180v-515q0 -105 -57.5 -153t-163.5 -48z" />
    <glyph glyph-name="uni01CA" unicode="&#x1ca;" horiz-adv-x="1370" 
d="M80 0v547l-20 100l20 60h161l202 -272l48 -83h10v355h189v-60l-10 -100v-547h-157l-251 352h-10v-60l10 -292h-192zM991 -10q-29 0 -54.5 3t-46.5 7l-130 60l60 152l185 -64q62 0 89 37.5t27 113.5v249l-22 100l11 60h189l1 -441q0 -134 -80 -205.5t-229 -71.5z" />
    <glyph glyph-name="uni01CB" unicode="&#x1cb;" horiz-adv-x="1137" 
d="M80 0v547l-20 100l20 60h161l202 -272l48 -83h10v355h189v-60l-10 -100v-547h-157l-251 352h-10v-60l10 -292h-192zM980 502l-127 128l127 127l127 -127zM849 -243q-18 0 -40.5 2.5t-40.5 6.5l-48 49l50 119l88 -34q23 0 31 14.5t7 38t-5 48.5v332l-21 90l20 50h180v-515
q0 -105 -57.5 -153t-163.5 -48z" />
    <glyph glyph-name="uni01CC" unicode="&#x1cc;" horiz-adv-x="994" 
d="M60 0v301l-20 110l31 61h149v-43l9 -6q11 10 30.5 23.5t47.5 24.5t63 11q90 0 135 -51t45 -143v-127l21 -100l-21 -61h-180v262q0 38 -16.5 58.5t-51.5 20.5l-62 -19v-322h-180zM837 502l-127 128l127 127l127 -127zM706 -243q-18 0 -40.5 2.5t-40.5 6.5l-48 49l50 119
l88 -34q23 0 31 14.5t7 38t-5 48.5v332l-21 90l20 50h180v-515q0 -105 -57.5 -153t-163.5 -48z" />
    <glyph glyph-name="Gcaron" unicode="&#x1e6;" horiz-adv-x="771" 
d="M419 -10q-77 0 -145.5 15.5t-121 55.5t-82.5 111t-30 182q0 107 32 177.5t85.5 111.5t119 58t132.5 17q49 0 85 -5t69 -13l136 -79l-70 -155l-221 78q-48 0 -88.5 -19t-65 -60.5t-24.5 -111.5q0 -113 50.5 -158.5t138.5 -45.5q45 0 70.5 4.5t39.5 7.5v76h-127v148h318
l11 -60l-22 -83v-210q-11 -4 -49.5 -14t-100 -19t-140.5 -9zM255 934l109 -140h101l108 140h-81l-77 -58l-80 58h-80z" />
    <glyph glyph-name="gcaron" unicode="&#x1e7;" horiz-adv-x="576" 
d="M256 -243q-25 0 -57 1.5t-52 3.5l-122 59l50 130l157 -51q133 0 133 111v19l-10 5q-14 -14 -44.5 -28.5t-95.5 -14.5q-47 0 -91 23.5t-71.5 75.5t-27.5 135q0 93 28 149.5t71.5 82.5t90.5 26q52 0 85.5 -15t44.5 -29v33h181l10 -60l-11 -60l1 -352q0 -86 -33.5 -140
t-94 -79t-142.5 -25zM290 133q18 0 33 5t22 9v187q-4 3 -15 6t-30 3q-39 0 -62 -25t-23 -81q0 -55 22 -79.5t53 -24.5zM169 682l109 -140h101l108 140h-81l-77 -58l-80 58h-80z" />
    <glyph glyph-name="uni01EA" unicode="&#x1ea;" horiz-adv-x="758" 
d="M379 -10q-64 0 -124.5 15.5t-109 55.5t-77 111t-28.5 182t28.5 182t77 111t109 55.5t124.5 15.5t124.5 -16t109 -56t77 -111t28.5 -181t-28.5 -181t-77 -111t-109 -56t-124.5 -16zM379 160q74 0 112 44t38 150t-38 150t-112 44q-73 0 -111 -45t-38 -149t38 -149t111 -45z
M431 -180q-44 0 -79.5 25t-35.5 78l46 80h80l-23 -62q-4 -12 1 -21.5t21 -9.5q25 0 47.5 10t33.5 20l30 -70q-3 -5 -20 -17t-43 -22.5t-58 -10.5z" />
    <glyph glyph-name="uni01EB" unicode="&#x1eb;" horiz-adv-x="560" 
d="M281 -10q-122 0 -189 58t-67 188q0 131 67 188.5t189 57.5q125 0 189.5 -57.5t64.5 -188.5q0 -130 -64.5 -188t-189.5 -58zM281 120q41 0 57 30.5t16 85.5q0 56 -16 86t-57 30q-42 0 -58.5 -30t-16.5 -86q0 -55 16.5 -85.5t58.5 -30.5zM327 -180q-44 0 -79.5 25t-35.5 78
l46 80h80l-23 -62q-4 -12 1 -21.5t21 -9.5q25 0 47.5 10t33.5 20l30 -70q-3 -5 -20 -17t-43 -22.5t-58 -10.5z" />
    <glyph glyph-name="uni01F1" unicode="&#x1f1;" horiz-adv-x="1447" 
d="M80 0v547l-20 100l20 61h298q72 0 138.5 -13.5t119 -50.5t83 -106t30.5 -179t-31 -180.5t-84 -109.5t-119.5 -54t-136.5 -15h-298zM262 160h116q88 0 135 46.5t47 152.5t-47.5 147.5t-134.5 41.5h-116v-388zM840 0l-31 60l362 489h-331v159h575v-118l-311 -431h31l282 20
v-179h-577z" />
    <glyph glyph-name="uni01F2" unicode="&#x1f2;" horiz-adv-x="1317" 
d="M80 0v547l-20 100l20 61h298q72 0 138.5 -13.5t119 -50.5t83 -106t30.5 -179t-31 -180.5t-84 -109.5t-119.5 -54t-136.5 -15h-298zM262 160h116q88 0 135 46.5t47 152.5t-47.5 147.5t-134.5 41.5h-116v-388zM809 0v90l238 253h-237v130h469v-94l-158 -192l-60 -57h30
l206 20v-150h-488z" />
    <glyph glyph-name="uni01F3" unicode="&#x1f3;" horiz-adv-x="1114" 
d="M215 -10q-47 0 -90.5 24t-71.5 76t-28 136q0 93 27.5 149t71.5 81.5t91 25.5q71 0 100.5 -12l29.5 -12l-10 189l10 60h181v-547l20 -100l-20 -61h-171v49l-10 5l-15 -15.5t-44 -31.5t-71 -16zM290 131l55 14v146q0 23 -15 36.5t-40 13.5q-37 0 -56 -24.5t-19 -80.5
q0 -55 22 -80t53 -25zM606 0v90l238 253h-237v130h469v-94l-158 -192l-60 -57h30l206 20v-150h-488z" />
    <glyph glyph-name="Aringacute" unicode="&#x1fa;" horiz-adv-x="769" 
d="M10 0l48 169v127l74 30l130 381h259l161 -448l77 -142v-117h-177l-50 160h-291l-43 -160h-188zM307 314h170l-76 229h-21zM392 762q-45 0 -77 32t-32 77t32 77t77 32t77 -32t32 -77t-32 -77t-77 -32zM392 838q14 0 23.5 10t9.5 23q0 14 -9.5 23.5t-23.5 9.5
q-13 0 -23 -9.5t-10 -23.5q0 -13 10 -23t23 -10zM328 1036l66 192h122v-61l-138 -131h-50z" />
    <glyph glyph-name="aringacute" unicode="&#x1fb;" horiz-adv-x="591" 
d="M190 -10q-43 0 -79.5 12.5t-58.5 43.5t-22 86q0 50 25 83t68 49t97 16q52 0 78 -11.5t45 -23.5l7 6q0 30 -5 50t-23 30.5t-56 10.5q-37 0 -78.5 -6.5t-76 -16t-51.5 -18.5v150q31 11 88.5 20.5t141.5 9.5q90 0 142.5 -22.5t75.5 -65t23 -101.5v-133l20 -101l-20 -59h-171
v49l-10 5q-8 -8 -28 -23t-53 -27.5t-79 -12.5zM275 121q27 0 46.5 5t28.5 9v19q0 13 -18.5 25t-57.5 12q-54 0 -54 -38q0 -16 12 -24t43 -8zM298 525q-45 0 -77 32t-32 77t32 77t77 32t77 -32t32 -77t-32 -77t-77 -32zM298 601q14 0 23.5 10t9.5 23q0 14 -9.5 23.5
t-23.5 9.5q-13 0 -23 -9.5t-10 -23.5q0 -13 10 -23t23 -10zM234 799l66 192h122v-61l-138 -131h-50z" />
    <glyph glyph-name="AEacute" unicode="&#x1fc;" horiz-adv-x="1088" 
d="M10 0l48 169v127l64 40l99 391l109 -20h150v1h495l50 -30l-66 -140l-90 10h-209v-110h269v-155h-118l-151 10v-133h299l119 -96l-59 -64h-539l-20 60l20 100h-239l-43 -160h-188zM307 324l173 -17v240h-116zM494 759l66 192h122v-61l-138 -131h-50z" />
    <glyph glyph-name="aeacute" unicode="&#x1fd;" horiz-adv-x="904" 
d="M190 -10q-43 0 -79.5 12.5t-58.5 43.5t-22 86q0 50 25 83t66.5 49t88.5 16q65 0 96 -16t44 -27l5 2q0 18 2 34q-7 32 -32 50.5t-79 18.5q-37 0 -73.5 -6.5t-66 -16t-46.5 -18.5v150l25 7.5t70 15t105 7.5q63 0 107 -14.5t73 -39.5q37 29 84 42t96 13q86 0 132.5 -17
t61.5 -27l50 -159l-20 -62h-310q7 -37 37 -62t99 -25q54 0 93 12t61 21v-134q-30 -16 -86.5 -27.5t-117.5 -11.5q-60 0 -110.5 13.5t-86.5 45.5q-6 -4 -13 -9q-40 -27 -95.5 -38.5t-124.5 -11.5zM535 281l138 20l-9 43q-7 4 -20.5 6t-23.5 2q-28 0 -46.5 -12t-28 -28.5
t-10.5 -30.5zM275 121q27 0 46.5 5t28.5 9v9q0 19 -18.5 33t-57.5 14q-54 0 -54 -38q0 -16 12 -24t43 -8zM359 517l66 192h122v-61l-138 -131h-50z" />
    <glyph glyph-name="Oslashacute" unicode="&#x1fe;" horiz-adv-x="758" 
d="M379 -10q-64 0 -124.5 15.5t-109 55.5t-77 111t-28.5 182t28.5 182t77 111t109 55.5t124.5 15.5t124.5 -16t109 -56t77 -111t28.5 -181t-28.5 -181t-77 -111t-109 -56t-124.5 -16zM379 160q74 0 112 44t38 150t-38 150t-112 44q-73 0 -111 -45t-38 -149t38 -149t111 -45z
M99 -30l484 788h93l-484 -788h-93zM315 759l66 192h122v-61l-138 -131h-50z" />
    <glyph glyph-name="oslashacute" unicode="&#x1ff;" horiz-adv-x="560" 
d="M281 -10q-122 0 -189 58t-67 188q0 131 67 188.5t189 57.5q125 0 189.5 -57.5t64.5 -188.5q0 -130 -64.5 -188t-189.5 -58zM281 120q41 0 57 30.5t16 85.5q0 56 -16 86t-57 30q-42 0 -58.5 -30t-16.5 -86q0 -55 16.5 -85.5t58.5 -30.5zM159 82l-50 70l161 101l145 133
l47 -70l-161 -103zM219 530l66 192h122v-61l-138 -131h-50z" />
    <glyph glyph-name="uni0200" unicode="&#x200;" horiz-adv-x="769" 
d="M10 0l48 169v127l74 30l130 381h259l161 -448l77 -142v-117h-177l-50 160h-291l-43 -160h-188zM307 314h170l-76 229h-21zM379 772l-66 192h-122v-61l138 -131h50zM559 774l-66 192h-122v-61l138 -131h50z" />
    <glyph glyph-name="uni0201" unicode="&#x201;" horiz-adv-x="591" 
d="M190 -10q-43 0 -79.5 12.5t-58.5 43.5t-22 86q0 50 25 83t68 49t97 16q52 0 78 -11.5t45 -23.5l7 6q0 30 -5 50t-23 30.5t-56 10.5q-37 0 -78.5 -6.5t-76 -16t-51.5 -18.5v150q31 11 88.5 20.5t141.5 9.5q90 0 142.5 -22.5t75.5 -65t23 -101.5v-133l20 -101l-20 -59h-171
v49l-10 5q-8 -8 -28 -23t-53 -27.5t-79 -12.5zM275 121q27 0 46.5 5t28.5 9v19q0 13 -18.5 25t-57.5 12q-54 0 -54 -38q0 -16 12 -24t43 -8zM285 535l-66 192h-122v-61l138 -131h50zM465 537l-66 192h-122v-61l138 -131h50z" />
    <glyph glyph-name="uni0202" unicode="&#x202;" horiz-adv-x="769" 
d="M10 0l48 169v127l74 30l130 381h259l161 -448l77 -142v-117h-177l-50 160h-291l-43 -160h-188zM307 314h170l-76 229h-21zM392 944q-90 0 -127.5 -39.5t-37.5 -100.5h69q0 9 6.5 20.5t27 20.5t62.5 9t62 -9t26 -20.5t6 -20.5h71q0 62 -37.5 101t-127.5 39z" />
    <glyph glyph-name="uni0203" unicode="&#x203;" horiz-adv-x="591" 
d="M190 -10q-43 0 -79.5 12.5t-58.5 43.5t-22 86q0 50 25 83t68 49t97 16q52 0 78 -11.5t45 -23.5l7 6q0 30 -5 50t-23 30.5t-56 10.5q-37 0 -78.5 -6.5t-76 -16t-51.5 -18.5v150q31 11 88.5 20.5t141.5 9.5q90 0 142.5 -22.5t75.5 -65t23 -101.5v-133l20 -101l-20 -59h-171
v49l-10 5q-8 -8 -28 -23t-53 -27.5t-79 -12.5zM275 121q27 0 46.5 5t28.5 9v19q0 13 -18.5 25t-57.5 12q-54 0 -54 -38q0 -16 12 -24t43 -8zM298 707q-90 0 -127.5 -39.5t-37.5 -100.5h69q0 9 6.5 20.5t27 20.5t62.5 9t62 -9t26 -20.5t6 -20.5h71q0 62 -37.5 101t-127.5 39z
" />
    <glyph glyph-name="uni0204" unicode="&#x204;" horiz-adv-x="688" 
d="M80 0l-20 60l20 100v548h495l50 -30l-66 -140l-90 10h-209v-110h269v-155h-118l-151 10v-133h299l119 -96l-59 -64h-539zM331 772l-66 192h-122v-61l138 -131h50zM511 774l-66 192h-122v-61l138 -131h50z" />
    <glyph glyph-name="uni0205" unicode="&#x205;" horiz-adv-x="558" 
d="M290 -10q-77 0 -137 23t-94 77t-34 146q0 66 22.5 113t60.5 76.5t85 43t97 13.5q86 0 132.5 -17t61.5 -27l50 -159l-20 -62h-310q7 -37 37 -62t99 -25q54 0 93 12t61 21v-134q-30 -16 -86.5 -27.5t-117.5 -11.5zM205 281l138 20l-9 43q-7 4 -20.5 6t-23.5 2
q-28 0 -46.5 -12t-28 -28.5t-10.5 -30.5zM275 530l-66 192h-122v-61l138 -131h50zM455 532l-66 192h-122v-61l138 -131h50z" />
    <glyph glyph-name="uni0206" unicode="&#x206;" horiz-adv-x="688" 
d="M80 0l-20 60l20 100v548h495l50 -30l-66 -140l-90 10h-209v-110h269v-155h-118l-151 10v-133h299l119 -96l-59 -64h-539zM344 944q-90 0 -127.5 -39.5t-37.5 -100.5h69q0 9 6.5 20.5t27 20.5t62.5 9t62 -9t26 -20.5t6 -20.5h71q0 62 -37.5 101t-127.5 39z" />
    <glyph glyph-name="uni0207" unicode="&#x207;" horiz-adv-x="558" 
d="M290 -10q-77 0 -137 23t-94 77t-34 146q0 66 22.5 113t60.5 76.5t85 43t97 13.5q86 0 132.5 -17t61.5 -27l50 -159l-20 -62h-310q7 -37 37 -62t99 -25q54 0 93 12t61 21v-134q-30 -16 -86.5 -27.5t-117.5 -11.5zM205 281l138 20l-9 43q-7 4 -20.5 6t-23.5 2
q-28 0 -46.5 -12t-28 -28.5t-10.5 -30.5zM288 702q-90 0 -127.5 -39.5t-37.5 -100.5h69q0 9 6.5 20.5t27 20.5t62.5 9t62 -9t26 -20.5t6 -20.5h71q0 62 -37.5 101t-127.5 39z" />
    <glyph glyph-name="uni0208" unicode="&#x208;" horiz-adv-x="311" 
d="M70 0v548l-10 100l10 60h181v-708h-181zM134 772l-66 192h-122v-61l138 -131h50zM314 774l-66 192h-122v-61l138 -131h50z" />
    <glyph glyph-name="uni0209" unicode="&#x209;" horiz-adv-x="271" 
d="M61 0v331l-21 80l20 61h181v-472h-180zM142 540l-66 192h-122v-61l138 -131h50zM322 542l-66 192h-122v-61l138 -131h50z" />
    <glyph glyph-name="uni020A" unicode="&#x20a;" horiz-adv-x="311" 
d="M70 0v548l-10 100l10 60h181v-708h-181zM147 944q-90 0 -127.5 -39.5t-37.5 -100.5h69q0 9 6.5 20.5t27 20.5t62.5 9t62 -9t26 -20.5t6 -20.5h71q0 62 -37.5 101t-127.5 39z" />
    <glyph glyph-name="uni020B" unicode="&#x20b;" horiz-adv-x="271" 
d="M61 0v331l-21 80l20 61h181v-472h-180zM155 712q-90 0 -127.5 -39.5t-37.5 -100.5h69q0 9 6.5 20.5t27 20.5t62.5 9t62 -9t26 -20.5t6 -20.5h71q0 62 -37.5 101t-127.5 39z" />
    <glyph glyph-name="uni020C" unicode="&#x20c;" horiz-adv-x="758" 
d="M379 -10q-64 0 -124.5 15.5t-109 55.5t-77 111t-28.5 182t28.5 182t77 111t109 55.5t124.5 15.5t124.5 -16t109 -56t77 -111t28.5 -181t-28.5 -181t-77 -111t-109 -56t-124.5 -16zM379 160q74 0 112 44t38 150t-38 150t-112 44q-73 0 -111 -45t-38 -149t38 -149t111 -45z
M366 772l-66 192h-122v-61l138 -131h50zM546 774l-66 192h-122v-61l138 -131h50z" />
    <glyph glyph-name="uni020D" unicode="&#x20d;" horiz-adv-x="560" 
d="M281 -10q-122 0 -189 58t-67 188q0 131 67 188.5t189 57.5q125 0 189.5 -57.5t64.5 -188.5q0 -130 -64.5 -188t-189.5 -58zM281 120q41 0 57 30.5t16 85.5q0 56 -16 86t-57 30q-42 0 -58.5 -30t-16.5 -86q0 -55 16.5 -85.5t58.5 -30.5zM270 543l-66 192h-122v-61
l138 -131h50zM450 545l-66 192h-122v-61l138 -131h50z" />
    <glyph glyph-name="uni020E" unicode="&#x20e;" horiz-adv-x="758" 
d="M379 -10q-64 0 -124.5 15.5t-109 55.5t-77 111t-28.5 182t28.5 182t77 111t109 55.5t124.5 15.5t124.5 -16t109 -56t77 -111t28.5 -181t-28.5 -181t-77 -111t-109 -56t-124.5 -16zM379 160q74 0 112 44t38 150t-38 150t-112 44q-73 0 -111 -45t-38 -149t38 -149t111 -45z
M379 944q-90 0 -127.5 -39.5t-37.5 -100.5h69q0 9 6.5 20.5t27 20.5t62.5 9t62 -9t26 -20.5t6 -20.5h71q0 62 -37.5 101t-127.5 39z" />
    <glyph glyph-name="uni020F" unicode="&#x20f;" horiz-adv-x="560" 
d="M281 -10q-122 0 -189 58t-67 188q0 131 67 188.5t189 57.5q125 0 189.5 -57.5t64.5 -188.5q0 -130 -64.5 -188t-189.5 -58zM281 120q41 0 57 30.5t16 85.5q0 56 -16 86t-57 30q-42 0 -58.5 -30t-16.5 -86q0 -55 16.5 -85.5t58.5 -30.5zM283 715q-90 0 -127.5 -39.5
t-37.5 -100.5h69q0 9 6.5 20.5t27 20.5t62.5 9t62 -9t26 -20.5t6 -20.5h71q0 62 -37.5 101t-127.5 39z" />
    <glyph glyph-name="uni0210" unicode="&#x210;" horiz-adv-x="718" 
d="M80 0v547l-20 101l20 60h320q73 0 131.5 -22.5t93 -76t34.5 -147.5q0 -85 -31 -137.5t-86 -78.5l10 -11l99 -124l57 -51v-60h-225l-140 213h-83v-52l10 -100l-10 -61h-180zM260 370h98q52 0 83 19.5t31 72.5q0 37 -15 55.5t-41.5 24.5t-61.5 6h-104zM340 772l-66 192
h-122v-61l138 -131h50zM520 774l-66 192h-122v-61l138 -131h50z" />
    <glyph glyph-name="uni0211" unicode="&#x211;" horiz-adv-x="466" 
d="M61 0v313l-21 100l21 60h136l20 -23l14 8.5t39.5 16.5t59.5 8q20 0 40 -3t31 -8l65 -55l-65 -128l-132 55l-30 -10v-334h-178zM191 540l-66 192h-122v-61l138 -131h50zM371 542l-66 192h-122v-61l138 -131h50z" />
    <glyph glyph-name="uni0212" unicode="&#x212;" horiz-adv-x="718" 
d="M80 0v547l-20 101l20 60h320q73 0 131.5 -22.5t93 -76t34.5 -147.5q0 -85 -31 -137.5t-86 -78.5l10 -11l99 -124l57 -51v-60h-225l-140 213h-83v-52l10 -100l-10 -61h-180zM260 370h98q52 0 83 19.5t31 72.5q0 37 -15 55.5t-41.5 24.5t-61.5 6h-104zM353 944
q-90 0 -127.5 -39.5t-37.5 -100.5h69q0 9 6.5 20.5t27 20.5t62.5 9t62 -9t26 -20.5t6 -20.5h71q0 62 -37.5 101t-127.5 39z" />
    <glyph glyph-name="uni0213" unicode="&#x213;" horiz-adv-x="466" 
d="M61 0v313l-21 100l21 60h136l20 -23l14 8.5t39.5 16.5t59.5 8q20 0 40 -3t31 -8l65 -55l-65 -128l-132 55l-30 -10v-334h-178zM204 712q-90 0 -127.5 -39.5t-37.5 -100.5h69q0 9 6.5 20.5t27 20.5t62.5 9t62 -9t26 -20.5t6 -20.5h71q0 62 -37.5 101t-127.5 39z" />
    <glyph glyph-name="uni0214" unicode="&#x214;" horiz-adv-x="738" 
d="M369 -10q-154 0 -231.5 70.5t-77.5 226.5v260l1 101l-1 60h182v-401q0 -70 28 -113.5t99 -43.5t100.5 40.5t29.5 116.5v401h179v-421q0 -153 -75.5 -225t-233.5 -72zM355 772l-66 192h-122v-61l138 -131h50zM535 774l-66 192h-122v-61l138 -131h50z" />
    <glyph glyph-name="uni0215" unicode="&#x215;" horiz-adv-x="587" 
d="M190 -10q-60 0 -92.5 23t-45 66.5t-12.5 104.5v289h180v-263q0 -37 14.5 -58t43.5 -21q27 0 49.5 23t22.5 67v252h180v-312l21 -100l-21 -61h-169v49l-10 5q-13 -13 -37.5 -28t-56 -25.5t-67.5 -10.5zM276 545l-66 192h-122v-61l138 -131h50zM456 547l-66 192h-122v-61
l138 -131h50z" />
    <glyph glyph-name="uni0216" unicode="&#x216;" horiz-adv-x="738" 
d="M369 -10q-154 0 -231.5 70.5t-77.5 226.5v260l1 101l-1 60h182v-401q0 -70 28 -113.5t99 -43.5t100.5 40.5t29.5 116.5v401h179v-421q0 -153 -75.5 -225t-233.5 -72zM368 944q-90 0 -127.5 -39.5t-37.5 -100.5h69q0 9 6.5 20.5t27 20.5t62.5 9t62 -9t26 -20.5t6 -20.5h71
q0 62 -37.5 101t-127.5 39z" />
    <glyph glyph-name="uni0217" unicode="&#x217;" horiz-adv-x="587" 
d="M190 -10q-60 0 -92.5 23t-45 66.5t-12.5 104.5v289h180v-263q0 -37 14.5 -58t43.5 -21q27 0 49.5 23t22.5 67v252h180v-312l21 -100l-21 -61h-169v49l-10 5q-13 -13 -37.5 -28t-56 -25.5t-67.5 -10.5zM289 717q-90 0 -127.5 -39.5t-37.5 -100.5h69q0 9 6.5 20.5t27 20.5
t62.5 9t62 -9t26 -20.5t6 -20.5h71q0 62 -37.5 101t-127.5 39z" />
    <glyph glyph-name="uni0218" unicode="&#x218;" horiz-adv-x="658" 
d="M310 -10q-55 0 -104 10.5t-85 25.5t-53 28v179q48 -27 121 -50.5t162 -23.5q36 0 53.5 9.5t17.5 33.5q0 26 -39.5 43.5t-124.5 43.5q-66 21 -112.5 46.5t-71 64t-24.5 98.5q0 62 32 112t100 79t174 29q32 0 68.5 -2.5t58.5 -6.5l113 -83l-39 -122l-237 65
q-41 0 -60.5 -17t-19.5 -41q0 -29 33 -46t95 -34q98 -27 152 -60t76 -74.5t22 -93.5q0 -96 -77 -154.5t-231 -58.5zM304 -436l-37 14l55 212l-80 80l105 104l125 -114z" />
    <glyph glyph-name="uni0219" unicode="&#x219;" horiz-adv-x="500" 
d="M255 -10q-73 0 -129 15t-87 31v139q41 -18 84.5 -28t78.5 -13.5t50 -3.5q17 0 24 5.5t7 13.5q0 11 -18 18.5t-68 19.5q-41 10 -79.5 25.5t-63 43.5t-24.5 75q0 58 27 91t77 46.5t117 13.5q38 0 71 -4t47 -6l93 -60l-45 -107l-175 38q-32 0 -32 -21q0 -22 46 -33
q36 -8 74 -17.5t69.5 -24.5t51 -40t19.5 -66q0 -76 -54.5 -113.5t-160.5 -37.5zM204 -436l-37 14l55 212l-80 80l105 104l125 -114z" />
    <glyph glyph-name="uni021A" unicode="&#x21a;" horiz-adv-x="625" 
d="M220 0v548l-200 -10v170h585v-170l-205 10v-388l11 -100l-11 -60h-180zM251 -436l-37 14l55 212l-80 80l105 104l125 -114z" />
    <glyph glyph-name="uni021B" unicode="&#x21b;" horiz-adv-x="432" 
d="M233 -10q-68 0 -109 40t-41 101v218h-73v95l63 49l71 124h118v-145h140v-130h-140v-214l140 1v-109l-23.5 -7.5t-61.5 -15t-84 -7.5zM163 -436l-37 14l55 212l-80 80l105 104l125 -114z" />
    <glyph glyph-name="uni022A" unicode="&#x22a;" horiz-adv-x="758" 
d="M379 -10q-64 0 -124.5 15.5t-109 55.5t-77 111t-28.5 182t28.5 182t77 111t109 55.5t124.5 15.5t124.5 -16t109 -56t77 -111t28.5 -181t-28.5 -181t-77 -111t-109 -56t-124.5 -16zM379 160q74 0 112 44t38 150t-38 150t-112 44q-73 0 -111 -45t-38 -149t38 -149t111 -45z
M256 749l-110 110l110 110l110 -110zM506 749l-110 110l110 110l110 -110zM205 1011v80h340v-80h-340z" />
    <glyph glyph-name="uni022B" unicode="&#x22b;" horiz-adv-x="560" 
d="M281 -10q-122 0 -189 58t-67 188q0 131 67 188.5t189 57.5q125 0 189.5 -57.5t64.5 -188.5q0 -130 -64.5 -188t-189.5 -58zM281 120q41 0 57 30.5t16 85.5q0 56 -16 86t-57 30q-42 0 -58.5 -30t-16.5 -86q0 -55 16.5 -85.5t58.5 -30.5zM160 520l-110 110l110 110
l110 -110zM410 520l-110 110l110 110l110 -110zM109 782v80h340v-80h-340z" />
    <glyph glyph-name="uni022C" unicode="&#x22c;" horiz-adv-x="758" 
d="M379 -10q-64 0 -124.5 15.5t-109 55.5t-77 111t-28.5 182t28.5 182t77 111t109 55.5t124.5 15.5t124.5 -16t109 -56t77 -111t28.5 -181t-28.5 -181t-77 -111t-109 -56t-124.5 -16zM379 160q74 0 112 44t38 150t-38 150t-112 44q-73 0 -111 -45t-38 -149t38 -149t111 -45z
M457 762q-33 0 -56 10.5t-41 24.5t-35 24.5t-38 10.5l-19 -60h-71q0 62 25 106t75 44q31 0 54 -10.5t41.5 -24.5t36.5 -24.5t39 -10.5l19 60h71q0 -68 -24 -109t-77 -41zM209 1000v80h340v-80h-340z" />
    <glyph glyph-name="uni022D" unicode="&#x22d;" horiz-adv-x="560" 
d="M281 -10q-122 0 -189 58t-67 188q0 131 67 188.5t189 57.5q125 0 189.5 -57.5t64.5 -188.5q0 -130 -64.5 -188t-189.5 -58zM281 120q41 0 57 30.5t16 85.5q0 56 -16 86t-57 30q-42 0 -58.5 -30t-16.5 -86q0 -55 16.5 -85.5t58.5 -30.5zM361 533q-33 0 -56 10.5t-41 24.5
t-35 24.5t-38 10.5l-19 -60h-71q0 62 25 106t75 44q31 0 54 -10.5t41.5 -24.5t36.5 -24.5t39 -10.5l19 60h71q0 -68 -24 -109t-77 -41zM113 771v80h340v-80h-340z" />
    <glyph glyph-name="uni0230" unicode="&#x230;" horiz-adv-x="758" 
d="M379 -10q-64 0 -124.5 15.5t-109 55.5t-77 111t-28.5 182t28.5 182t77 111t109 55.5t124.5 15.5t124.5 -16t109 -56t77 -111t28.5 -181t-28.5 -181t-77 -111t-109 -56t-124.5 -16zM379 160q74 0 112 44t38 150t-38 150t-112 44q-73 0 -111 -45t-38 -149t38 -149t111 -45z
M378 767l-110 110l110 110l110 -110zM209 1039v80h340v-80h-340z" />
    <glyph glyph-name="uni0231" unicode="&#x231;" horiz-adv-x="560" 
d="M281 -10q-122 0 -189 58t-67 188q0 131 67 188.5t189 57.5q125 0 189.5 -57.5t64.5 -188.5q0 -130 -64.5 -188t-189.5 -58zM281 120q41 0 57 30.5t16 85.5q0 56 -16 86t-57 30q-42 0 -58.5 -30t-16.5 -86q0 -55 16.5 -85.5t58.5 -30.5zM282 538l-110 110l110 110
l110 -110zM113 810v80h340v-80h-340z" />
    <glyph glyph-name="uni0232" unicode="&#x232;" horiz-adv-x="719" 
d="M268 0v300l-248 348v60h210l120 -226h20l119 226h210v-60l-255 -354l6 -101v-193h-182zM191 792v80h340v-80h-340z" />
    <glyph glyph-name="uni0233" unicode="&#x233;" horiz-adv-x="520" 
d="M101 -243l-141 50l40 149l140 -40q43 0 62.5 22.5t29.5 62.5h-103l-110 342l-19 130h190l55 -330h20l55 330h190l-6.5 -31.5t-18 -83.5t-27 -114.5t-32.5 -126t-35 -116.5q-27 -83 -64.5 -137t-91.5 -80.5t-134 -26.5zM89 560v80h340v-80h-340z" />
    <glyph glyph-name="uni0237" unicode="&#x237;" horiz-adv-x="350" 
d="M99 -243q-18 0 -40.5 2.5t-40.5 6.5l-48 49l50 119l88 -34q23 0 31 14.5t7 38t-5 48.5v332l-21 90l20 50h180v-515q0 -105 -57.5 -153t-163.5 -48z" />
    <glyph glyph-name="uni0259" unicode="&#x259;" horiz-adv-x="592" 
d="M288 -10q-136 0 -199.5 54t-63.5 159v62h354q0 38 -23 60.5t-67 22.5q-50 0 -95.5 -6t-79 -13t-49.5 -11v120q7 5 39 14.5t81 17.5t104 8q131 0 197 -67.5t66 -176.5q0 -112 -67.5 -178t-196.5 -66zM288 122q50 0 70.5 18.5t20.5 44.5h-181v-12q0 -19 19 -35t71 -16z" />
    <glyph glyph-name="uni0272" unicode="&#x272;" horiz-adv-x="651" 
d="M59 -244l-89 38l40 149l48 -24q26 0 34 13.5t8 47.5v321l-20 110l31 61h149v-43l9 -6q11 10 30.5 23.5t47.5 24.5t63 11q90 0 135 -51t45 -143v-127l21 -100l-21 -61h-180v262q0 38 -16.5 58.5t-51.5 20.5l-62 -19v-375q0 -66 -30.5 -108t-80.5 -62.5t-110 -20.5z" />
    <glyph glyph-name="uni02B9" unicode="&#x2b9;" horiz-adv-x="250" 
d="M70 490v260l100 70l50 -70l-130 -260h-20z" />
    <glyph glyph-name="uni02BA" unicode="&#x2ba;" horiz-adv-x="430" 
d="M50 490v260l100 70l50 -70l-130 -260h-20zM230 490v260l100 70l50 -70l-130 -260h-20z" />
    <glyph glyph-name="uni02BC" unicode="&#x2bc;" horiz-adv-x="250" 
d="M70 520l-20 35q27 7 48.5 27.5t21.5 48.5t-15.5 38.5t-46.5 10.5v25q0 23 11 39t41 16q48 0 69 -31t21 -69q0 -41 -20 -71t-50 -47t-60 -22z" />
    <glyph glyph-name="circumflex" unicode="&#x2c6;" horiz-adv-x="341" 
d="M10 540l109 140h101l108 -140h-81l-77 58l-80 -58h-80z" />
    <glyph glyph-name="caron" unicode="&#x2c7;" horiz-adv-x="341" 
d="M10 692l109 -140h101l108 140h-81l-77 -58l-80 58h-80z" />
    <glyph glyph-name="uni02C9" unicode="&#x2c9;" horiz-adv-x="600" 
d="M130 626v80h340v-80h-340z" />
    <glyph glyph-name="breve" unicode="&#x2d8;" horiz-adv-x="370" 
d="M185 530q-90 0 -127.5 39.5t-37.5 100.5h69q0 -9 6.5 -20.5t27 -20.5t62.5 -9t62 9t26 20.5t6 20.5h71q0 -62 -37.5 -101t-127.5 -39z" />
    <glyph glyph-name="dotaccent" unicode="&#x2d9;" horiz-adv-x="182" 
d="M90 525l-110 110l110 110l110 -110z" />
    <glyph glyph-name="ring" unicode="&#x2da;" horiz-adv-x="278" 
d="M139 520q-45 0 -77 32t-32 77t32 77t77 32t77 -32t32 -77t-32 -77t-77 -32zM139 596q14 0 23.5 10t9.5 23q0 14 -9.5 23.5t-23.5 9.5q-13 0 -23 -9.5t-10 -23.5q0 -13 10 -23t23 -10z" />
    <glyph glyph-name="ogonek" unicode="&#x2db;" horiz-adv-x="246" 
d="M132 -180q-44 0 -79.5 25t-35.5 78l46 80h80l-23 -62q-4 -12 1 -21.5t21 -9.5q25 0 47.5 10t33.5 20l30 -70q-3 -5 -20 -17t-43 -22.5t-58 -10.5z" />
    <glyph glyph-name="tilde" unicode="&#x2dc;" horiz-adv-x="421" 
d="M288 530q-33 0 -56 10.5t-41 24.5t-35 24.5t-38 10.5l-19 -60h-71q0 62 25 106t75 44q31 0 54 -10.5t41.5 -24.5t36.5 -24.5t39 -10.5l19 60h71q0 -68 -24 -109t-77 -41z" />
    <glyph glyph-name="hungarumlaut" unicode="&#x2dd;" horiz-adv-x="365" 
d="M180 510l66 192h122v-61l-138 -131h-50zM0 512l66 192h122v-61l-138 -131h-50z" />
    <glyph glyph-name="gravecomb" unicode="&#x300;" 
d="M-262 510l-138 131v61h123l66 -192h-51z" />
    <glyph glyph-name="acutecomb" unicode="&#x301;" 
d="M-330 510l66 192h122v-61l-138 -131h-50z" />
    <glyph glyph-name="uni0302" unicode="&#x302;" 
d="M-420 540l109 140h101l108 -140h-81l-77 58l-80 -58h-80z" />
    <glyph glyph-name="tildecomb" unicode="&#x303;" 
d="M-222 530q-33 0 -56 10.5t-41 24.5t-35 24.5t-38 10.5l-19 -60h-71q0 62 25 106t75 44q31 0 54 -10.5t41.5 -24.5t36.5 -24.5t39 -10.5l19 60h71q0 -68 -24 -109t-77 -41z" />
    <glyph glyph-name="uni0304" unicode="&#x304;" 
d="M-470 560v80h340v-80h-340z" />
    <glyph glyph-name="uni0306" unicode="&#x306;" 
d="M-225 530q-90 0 -127.5 39.5t-37.5 100.5h69q0 -9 6.5 -20.5t27 -20.5t62.5 -9t62 9t26 20.5t6 20.5h71q0 -62 -37.5 -101t-127.5 -39z" />
    <glyph glyph-name="uni0307" unicode="&#x307;" 
d="M-230 525l-110 110l110 110l110 -110z" />
    <glyph glyph-name="uni0308" unicode="&#x308;" 
d="M-392 495l-110 110l110 110l110 -110zM-142 495l-110 110l110 110l110 -110z" />
    <glyph glyph-name="hookabovecomb" unicode="&#x309;" 
d="M-310 560v10q0 21 9.5 36t22.5 27.5t22.5 24t9.5 24.5q0 7 -5 12.5t-18 5.5q-24 0 -45.5 -13t-35.5 -27l-40 70q14 14 49 32t95 18q46 0 71 -19.5t25 -55.5q0 -29 -12 -48.5t-28.5 -34t-28.5 -28.5t-12 -34h-79z" />
    <glyph glyph-name="uni030A" unicode="&#x30a;" 
d="M-341 520q-45 0 -77 32t-32 77t32 77t77 32t77 -32t32 -77t-32 -77t-77 -32zM-341 596q14 0 23.5 10t9.5 23q0 14 -9.5 23.5t-23.5 9.5q-13 0 -23 -9.5t-10 -23.5q0 -13 10 -23t23 -10z" />
    <glyph glyph-name="uni030B" unicode="&#x30b;" 
d="M-340 510l66 192h122v-61l-138 -131h-50zM-520 512l66 192h122v-61l-138 -131h-50z" />
    <glyph glyph-name="uni030C" unicode="&#x30c;" 
d="M-470 692l109 -140h101l108 140h-81l-77 -58l-80 58h-80z" />
    <glyph glyph-name="uni030F" unicode="&#x30f;" 
d="M-345 530l-66 192h-122v-61l138 -131h50zM-165 532l-66 192h-122v-61l138 -131h50z" />
    <glyph glyph-name="uni0311" unicode="&#x311;" 
d="M-225 702q-90 0 -127.5 -39.5t-37.5 -100.5h69q0 9 6.5 20.5t27 20.5t62.5 9t62 -9t26 -20.5t6 -20.5h71q0 62 -37.5 101t-127.5 39z" />
    <glyph glyph-name="uni0312" unicode="&#x312;" 
d="M-171 936l37 -14l-55 -212l80 -80l-105 -104l-125 114z" />
    <glyph glyph-name="uni031B" unicode="&#x31b;" 
d="M104 410q-31 0 -47.5 8l-16.5 8v44h31q37 0 48 19.5t11 53.5v59h102v-74q0 -45 -18.5 -70.5t-48 -36.5t-61.5 -11z" />
    <glyph glyph-name="uni0321" unicode="&#x321;" 
d="M-225 -170q-43 0 -69 15.5t-36 34.5l31 50q8 -8 22.5 -14t29.5 -6q33 0 41 21.5t8 52.5v19h81v-60q0 -52 -30 -82.5t-78 -30.5z" />
    <glyph glyph-name="dotbelowcomb" unicode="&#x323;" 
d="M-218 -255l-110 110l110 110l110 -110z" />
    <glyph glyph-name="uni0324" unicode="&#x324;" 
d="M-478 -216l-110 110l110 110l110 -110zM-228 -216l-110 110l110 110l110 -110z" />
    <glyph glyph-name="uni0326" unicode="&#x326;" 
d="M-288 -436l-37 14l55 212l-80 80l105 104l125 -114z" />
    <glyph glyph-name="uni0327" unicode="&#x327;" 
d="M-236 -220q-49 0 -76.5 12.5l-27.5 12.5v80l26.5 -12.5t69.5 -12.5q11 0 25 4.5t14 17.5l-75 48l30 70h79l-10 -42l73 -55q0 -42 -18 -69t-47.5 -40.5t-62.5 -13.5z" />
    <glyph glyph-name="uni0328" unicode="&#x328;" 
d="M-215 -180q-44 0 -79.5 25t-35.5 78l46 80h80l-23 -62q-4 -12 1 -21.5t21 -9.5q25 0 47.5 10t33.5 20l30 -70q-3 -5 -20 -17t-43 -22.5t-58 -10.5z" />
    <glyph glyph-name="uni032E" unicode="&#x32e;" 
d="M-225 -260q-90 0 -127.5 39.5t-37.5 100.5h69q0 -9 6.5 -20.5t27 -20.5t62.5 -9t62 9t26 20.5t6 20.5h71q0 -62 -37.5 -101t-127.5 -39z" />
    <glyph glyph-name="uni0331" unicode="&#x331;" 
d="M-470 -164v80h340v-80h-340z" />
    <glyph glyph-name="uni0335" unicode="&#x335;" 
d="M-484 260v80h390v-80h-390z" />
    <glyph glyph-name="uni0336" unicode="&#x336;" 
d="M-590 260v80h505v-80h-505z" />
    <glyph glyph-name="uni0337" unicode="&#x337;" 
d="M-440 -10l-50 70l161 101l145 133l47 -70l-161 -103z" />
    <glyph glyph-name="uni0338" unicode="&#x338;" 
d="M-590 -70l484 788h93l-484 -788h-93z" />
    <glyph glyph-name="uni0394" unicode="&#x394;" horiz-adv-x="739" 
d="M10 0l325 755h73l321 -755h-719zM241 159h258l-127 320h-2z" />
    <glyph glyph-name="uni03A9" unicode="&#x3a9;" horiz-adv-x="880" 
d="M91 0l-41 170l101 -10h58l3 11q-20 15 -46 45.5t-45.5 81.5t-19.5 125q0 136 84.5 215.5t256.5 79.5t253.5 -79t81.5 -216q0 -75 -17.5 -126t-43 -81.5t-49.5 -44.5l3 -11h60l100 10l-40 -170h-297l-30 117q30 17 58 48.5t46 82.5t18 125q0 54 -12.5 93t-43.5 60.5
t-87 21.5q-84 0 -116.5 -48.5t-32.5 -126.5q0 -73 20.5 -125.5t50 -84.5t54.5 -46l-30 -117h-297z" />
    <glyph glyph-name="uni03BC" unicode="&#x3bc;" horiz-adv-x="591" 
d="M190 -7h-1l12 -133l-20 -60h-141v676h180v-263q0 -37 14.5 -58t43.5 -21q27 0 49.5 23t22.5 67v252h180v-312l21 -100l-21 -61h-169v49l-10 5q-13 -13 -37.5 -28t-56 -25.5t-67.5 -10.5z" />
    <glyph glyph-name="pi" unicode="&#x3c0;" horiz-adv-x="777" 
d="M110 0v546h-60v160h615l-20 -121v-425l82 -30l-40 -130h-92q-67 0 -99 34t-32 106l1 406h-176v-546h-179z" />
    <glyph glyph-name="Wgrave" unicode="&#x1e80;" horiz-adv-x="1159" 
d="M210 0l-160 549l-30 99v60h190l125 -516h20l95 516h263l78 -389l16 -127h20l124 516h188v-60l-30 -99l-158 -549h-259l-103 522h-21l-17 -121l-82 -401h-259zM588 752l-138 131v61h123l66 -192h-51z" />
    <glyph glyph-name="wgrave" unicode="&#x1e81;" horiz-adv-x="920" 
d="M167 0l-137 342l-20 130h190l65 -312h20l76 312h199l75 -312h20l66 312h189l-20 -130l-138 -342h-210l-72 322h-20l-73 -322h-210zM452 510l-138 131v61h123l66 -192h-51z" />
    <glyph glyph-name="Wacute" unicode="&#x1e82;" horiz-adv-x="1159" 
d="M210 0l-160 549l-30 99v60h190l125 -516h20l95 516h263l78 -389l16 -127h20l124 516h188v-60l-30 -99l-158 -549h-259l-103 522h-21l-17 -121l-82 -401h-259zM524 759l66 192h122v-61l-138 -131h-50z" />
    <glyph glyph-name="wacute" unicode="&#x1e83;" horiz-adv-x="920" 
d="M167 0l-137 342l-20 130h190l65 -312h20l76 312h199l75 -312h20l66 312h189l-20 -130l-138 -342h-210l-72 322h-20l-73 -322h-210zM388 517l66 192h122v-61l-138 -131h-50z" />
    <glyph glyph-name="Wdieresis" unicode="&#x1e84;" horiz-adv-x="1159" 
d="M210 0l-160 549l-30 99v60h190l125 -516h20l95 516h263l78 -389l16 -127h20l124 516h188v-60l-30 -99l-158 -549h-259l-103 522h-21l-17 -121l-82 -401h-259zM465 749l-110 110l110 110l110 -110zM715 749l-110 110l110 110l110 -110z" />
    <glyph glyph-name="wdieresis" unicode="&#x1e85;" horiz-adv-x="920" 
d="M167 0l-137 342l-20 130h190l65 -312h20l76 312h199l75 -312h20l66 312h189l-20 -130l-138 -342h-210l-72 322h-20l-73 -322h-210zM329 507l-110 110l110 110l110 -110zM579 507l-110 110l110 110l110 -110z" />
    <glyph glyph-name="uni1E9E" unicode="&#x1e9e;" horiz-adv-x="726" 
d="M464 -10q-24 0 -44.5 3t-38.5 7l-103 61l60 122l88 -40q30 0 49 14t19 39q0 31 -24 53t-59 50q-78 63 -78 127q0 45 20 75.5t51 49.5l-5 10h-53q-62 0 -85 -39t-23 -125v-397h-178v454q0 77 23 128.5t63.5 81.5t93.5 42.5t114 12.5q95 0 142 -15t60 -23l30 -92l-105 -128
q5 -19 35.5 -44t69.5 -61q36 -33 55.5 -61.5t27 -57t7.5 -63.5q0 -46 -19.5 -88t-65.5 -69t-127 -27z" />
    <glyph glyph-name="uni1EA0" unicode="&#x1ea0;" horiz-adv-x="769" 
d="M10 0l48 169v127l74 30l130 381h259l161 -448l77 -142v-117h-177l-50 160h-291l-43 -160h-188zM307 314h170l-76 229h-21zM391 -255l-110 110l110 110l110 -110z" />
    <glyph glyph-name="uni1EA1" unicode="&#x1ea1;" horiz-adv-x="591" 
d="M190 -10q-43 0 -79.5 12.5t-58.5 43.5t-22 86q0 50 25 83t68 49t97 16q52 0 78 -11.5t45 -23.5l7 6q0 30 -5 50t-23 30.5t-56 10.5q-37 0 -78.5 -6.5t-76 -16t-51.5 -18.5v150q31 11 88.5 20.5t141.5 9.5q90 0 142.5 -22.5t75.5 -65t23 -101.5v-133l20 -101l-20 -59h-171
v49l-10 5q-8 -8 -28 -23t-53 -27.5t-79 -12.5zM275 121q27 0 46.5 5t28.5 9v19q0 13 -18.5 25t-57.5 12q-54 0 -54 -38q0 -16 12 -24t43 -8zM309 -255l-110 110l110 110l110 -110z" />
    <glyph glyph-name="uni1EA2" unicode="&#x1ea2;" horiz-adv-x="769" 
d="M10 0l48 169v127l74 30l130 381h259l161 -448l77 -142v-117h-177l-50 160h-291l-43 -160h-188zM307 314h170l-76 229h-21zM352 752v10q0 21 9.5 36t22.5 27.5t22.5 24t9.5 24.5q0 7 -5 12.5t-18 5.5q-24 0 -45.5 -13t-35.5 -27l-40 70q14 14 49 32t95 18q46 0 71 -19.5
t25 -55.5q0 -29 -12 -48.5t-28.5 -34t-28.5 -28.5t-12 -34h-79z" />
    <glyph glyph-name="uni1EA3" unicode="&#x1ea3;" horiz-adv-x="591" 
d="M190 -10q-43 0 -79.5 12.5t-58.5 43.5t-22 86q0 50 25 83t68 49t97 16q52 0 78 -11.5t45 -23.5l7 6q0 30 -5 50t-23 30.5t-56 10.5q-37 0 -78.5 -6.5t-76 -16t-51.5 -18.5v150q31 11 88.5 20.5t141.5 9.5q90 0 142.5 -22.5t75.5 -65t23 -101.5v-133l20 -101l-20 -59h-171
v49l-10 5q-8 -8 -28 -23t-53 -27.5t-79 -12.5zM275 121q27 0 46.5 5t28.5 9v19q0 13 -18.5 25t-57.5 12q-54 0 -54 -38q0 -16 12 -24t43 -8zM258 515v10q0 21 9.5 36t22.5 27.5t22.5 24t9.5 24.5q0 7 -5 12.5t-18 5.5q-24 0 -45.5 -13t-35.5 -27l-40 70q14 14 49 32t95 18
q46 0 71 -19.5t25 -55.5q0 -29 -12 -48.5t-28.5 -34t-28.5 -28.5t-12 -34h-79z" />
    <glyph glyph-name="uni1EA4" unicode="&#x1ea4;" horiz-adv-x="769" 
d="M10 0l48 169v127l74 30l130 381h259l161 -448l77 -142v-117h-177l-50 160h-291l-43 -160h-188zM307 314h170l-76 229h-21zM227 782l109 140h101l108 -140h-81l-77 58l-80 -58h-80zM328 967l66 192h122v-61l-138 -131h-50z" />
    <glyph glyph-name="uni1EA5" unicode="&#x1ea5;" horiz-adv-x="591" 
d="M190 -10q-43 0 -79.5 12.5t-58.5 43.5t-22 86q0 50 25 83t68 49t97 16q52 0 78 -11.5t45 -23.5l7 6q0 30 -5 50t-23 30.5t-56 10.5q-37 0 -78.5 -6.5t-76 -16t-51.5 -18.5v150q31 11 88.5 20.5t141.5 9.5q90 0 142.5 -22.5t75.5 -65t23 -101.5v-133l20 -101l-20 -59h-171
v49l-10 5q-8 -8 -28 -23t-53 -27.5t-79 -12.5zM275 121q27 0 46.5 5t28.5 9v19q0 13 -18.5 25t-57.5 12q-54 0 -54 -38q0 -16 12 -24t43 -8zM133 545l109 140h101l108 -140h-81l-77 58l-80 -58h-80zM234 730l66 192h122v-61l-138 -131h-50z" />
    <glyph glyph-name="uni1EA6" unicode="&#x1ea6;" horiz-adv-x="769" 
d="M10 0l48 169v127l74 30l130 381h259l161 -448l77 -142v-117h-177l-50 160h-291l-43 -160h-188zM307 314h170l-76 229h-21zM227 782l109 140h101l108 -140h-81l-77 58l-80 -58h-80zM392 960l-138 131v61h123l66 -192h-51z" />
    <glyph glyph-name="uni1EA7" unicode="&#x1ea7;" horiz-adv-x="591" 
d="M190 -10q-43 0 -79.5 12.5t-58.5 43.5t-22 86q0 50 25 83t68 49t97 16q52 0 78 -11.5t45 -23.5l7 6q0 30 -5 50t-23 30.5t-56 10.5q-37 0 -78.5 -6.5t-76 -16t-51.5 -18.5v150q31 11 88.5 20.5t141.5 9.5q90 0 142.5 -22.5t75.5 -65t23 -101.5v-133l20 -101l-20 -59h-171
v49l-10 5q-8 -8 -28 -23t-53 -27.5t-79 -12.5zM275 121q27 0 46.5 5t28.5 9v19q0 13 -18.5 25t-57.5 12q-54 0 -54 -38q0 -16 12 -24t43 -8zM133 545l109 140h101l108 -140h-81l-77 58l-80 -58h-80zM298 723l-138 131v61h123l66 -192h-51z" />
    <glyph glyph-name="uni1EA8" unicode="&#x1ea8;" horiz-adv-x="769" 
d="M10 0l48 169v127l74 30l130 381h259l161 -448l77 -142v-117h-177l-50 160h-291l-43 -160h-188zM307 314h170l-76 229h-21zM227 782l109 140h101l108 -140h-81l-77 58l-80 -58h-80zM352 960v10q0 21 9.5 36t22.5 27.5t22.5 24t9.5 24.5q0 7 -5 12.5t-18 5.5
q-24 0 -45.5 -13t-35.5 -27l-40 70q14 14 49 32t95 18q46 0 71 -19.5t25 -55.5q0 -29 -12 -48.5t-28.5 -34t-28.5 -28.5t-12 -34h-79z" />
    <glyph glyph-name="uni1EA9" unicode="&#x1ea9;" horiz-adv-x="591" 
d="M190 -10q-43 0 -79.5 12.5t-58.5 43.5t-22 86q0 50 25 83t68 49t97 16q52 0 78 -11.5t45 -23.5l7 6q0 30 -5 50t-23 30.5t-56 10.5q-37 0 -78.5 -6.5t-76 -16t-51.5 -18.5v150q31 11 88.5 20.5t141.5 9.5q90 0 142.5 -22.5t75.5 -65t23 -101.5v-133l20 -101l-20 -59h-171
v49l-10 5q-8 -8 -28 -23t-53 -27.5t-79 -12.5zM275 121q27 0 46.5 5t28.5 9v19q0 13 -18.5 25t-57.5 12q-54 0 -54 -38q0 -16 12 -24t43 -8zM133 545l109 140h101l108 -140h-81l-77 58l-80 -58h-80zM258 723v10q0 21 9.5 36t22.5 27.5t22.5 24t9.5 24.5q0 7 -5 12.5t-18 5.5
q-24 0 -45.5 -13t-35.5 -27l-40 70q14 14 49 32t95 18q46 0 71 -19.5t25 -55.5q0 -29 -12 -48.5t-28.5 -34t-28.5 -28.5t-12 -34h-79z" />
    <glyph glyph-name="uni1EAA" unicode="&#x1eaa;" horiz-adv-x="769" 
d="M10 0l48 169v127l74 30l130 381h259l161 -448l77 -142v-117h-177l-50 160h-291l-43 -160h-188zM307 314h170l-76 229h-21zM227 782l109 140h101l108 -140h-81l-77 58l-80 -58h-80zM470 970q-33 0 -56 10.5t-41 24.5t-35 24.5t-38 10.5l-19 -60h-71q0 62 25 106t75 44
q31 0 54 -10.5t41.5 -24.5t36.5 -24.5t39 -10.5l19 60h71q0 -68 -24 -109t-77 -41z" />
    <glyph glyph-name="uni1EAB" unicode="&#x1eab;" horiz-adv-x="591" 
d="M190 -10q-43 0 -79.5 12.5t-58.5 43.5t-22 86q0 50 25 83t68 49t97 16q52 0 78 -11.5t45 -23.5l7 6q0 30 -5 50t-23 30.5t-56 10.5q-37 0 -78.5 -6.5t-76 -16t-51.5 -18.5v150q31 11 88.5 20.5t141.5 9.5q90 0 142.5 -22.5t75.5 -65t23 -101.5v-133l20 -101l-20 -59h-171
v49l-10 5q-8 -8 -28 -23t-53 -27.5t-79 -12.5zM275 121q27 0 46.5 5t28.5 9v19q0 13 -18.5 25t-57.5 12q-54 0 -54 -38q0 -16 12 -24t43 -8zM133 545l109 140h101l108 -140h-81l-77 58l-80 -58h-80zM376 733q-33 0 -56 10.5t-41 24.5t-35 24.5t-38 10.5l-19 -60h-71
q0 62 25 106t75 44q31 0 54 -10.5t41.5 -24.5t36.5 -24.5t39 -10.5l19 60h71q0 -68 -24 -109t-77 -41z" />
    <glyph glyph-name="uni1EAC" unicode="&#x1eac;" horiz-adv-x="769" 
d="M10 0l48 169v127l74 30l130 381h259l161 -448l77 -142v-117h-177l-50 160h-291l-43 -160h-188zM307 314h170l-76 229h-21zM391 -255l-110 110l110 110l110 -110zM227 782l109 140h101l108 -140h-81l-77 58l-80 -58h-80z" />
    <glyph glyph-name="uni1EAD" unicode="&#x1ead;" horiz-adv-x="591" 
d="M190 -10q-43 0 -79.5 12.5t-58.5 43.5t-22 86q0 50 25 83t68 49t97 16q52 0 78 -11.5t45 -23.5l7 6q0 30 -5 50t-23 30.5t-56 10.5q-37 0 -78.5 -6.5t-76 -16t-51.5 -18.5v150q31 11 88.5 20.5t141.5 9.5q90 0 142.5 -22.5t75.5 -65t23 -101.5v-133l20 -101l-20 -59h-171
v49l-10 5q-8 -8 -28 -23t-53 -27.5t-79 -12.5zM275 121q27 0 46.5 5t28.5 9v19q0 13 -18.5 25t-57.5 12q-54 0 -54 -38q0 -16 12 -24t43 -8zM309 -255l-110 110l110 110l110 -110zM133 545l109 140h101l108 -140h-81l-77 58l-80 -58h-80z" />
    <glyph glyph-name="uni1EAE" unicode="&#x1eae;" horiz-adv-x="769" 
d="M10 0l48 169v127l74 30l130 381h259l161 -448l77 -142v-117h-177l-50 160h-291l-43 -160h-188zM307 314h170l-76 229h-21zM392 772q-90 0 -127.5 39.5t-37.5 100.5h69q0 -9 6.5 -20.5t27 -20.5t62.5 -9t62 9t26 20.5t6 20.5h71q0 -62 -37.5 -101t-127.5 -39zM328 957
l66 192h122v-61l-138 -131h-50z" />
    <glyph glyph-name="uni1EAF" unicode="&#x1eaf;" horiz-adv-x="591" 
d="M190 -10q-43 0 -79.5 12.5t-58.5 43.5t-22 86q0 50 25 83t68 49t97 16q52 0 78 -11.5t45 -23.5l7 6q0 30 -5 50t-23 30.5t-56 10.5q-37 0 -78.5 -6.5t-76 -16t-51.5 -18.5v150q31 11 88.5 20.5t141.5 9.5q90 0 142.5 -22.5t75.5 -65t23 -101.5v-133l20 -101l-20 -59h-171
v49l-10 5q-8 -8 -28 -23t-53 -27.5t-79 -12.5zM275 121q27 0 46.5 5t28.5 9v19q0 13 -18.5 25t-57.5 12q-54 0 -54 -38q0 -16 12 -24t43 -8zM298 535q-90 0 -127.5 39.5t-37.5 100.5h69q0 -9 6.5 -20.5t27 -20.5t62.5 -9t62 9t26 20.5t6 20.5h71q0 -62 -37.5 -101
t-127.5 -39zM234 720l66 192h122v-61l-138 -131h-50z" />
    <glyph glyph-name="uni1EB0" unicode="&#x1eb0;" horiz-adv-x="769" 
d="M10 0l48 169v127l74 30l130 381h259l161 -448l77 -142v-117h-177l-50 160h-291l-43 -160h-188zM307 314h170l-76 229h-21zM392 772q-90 0 -127.5 39.5t-37.5 100.5h69q0 -9 6.5 -20.5t27 -20.5t62.5 -9t62 9t26 20.5t6 20.5h71q0 -62 -37.5 -101t-127.5 -39zM392 950
l-138 131v61h123l66 -192h-51z" />
    <glyph glyph-name="uni1EB1" unicode="&#x1eb1;" horiz-adv-x="591" 
d="M190 -10q-43 0 -79.5 12.5t-58.5 43.5t-22 86q0 50 25 83t68 49t97 16q52 0 78 -11.5t45 -23.5l7 6q0 30 -5 50t-23 30.5t-56 10.5q-37 0 -78.5 -6.5t-76 -16t-51.5 -18.5v150q31 11 88.5 20.5t141.5 9.5q90 0 142.5 -22.5t75.5 -65t23 -101.5v-133l20 -101l-20 -59h-171
v49l-10 5q-8 -8 -28 -23t-53 -27.5t-79 -12.5zM275 121q27 0 46.5 5t28.5 9v19q0 13 -18.5 25t-57.5 12q-54 0 -54 -38q0 -16 12 -24t43 -8zM298 535q-90 0 -127.5 39.5t-37.5 100.5h69q0 -9 6.5 -20.5t27 -20.5t62.5 -9t62 9t26 20.5t6 20.5h71q0 -62 -37.5 -101
t-127.5 -39zM298 713l-138 131v61h123l66 -192h-51z" />
    <glyph glyph-name="uni1EB2" unicode="&#x1eb2;" horiz-adv-x="769" 
d="M10 0l48 169v127l74 30l130 381h259l161 -448l77 -142v-117h-177l-50 160h-291l-43 -160h-188zM307 314h170l-76 229h-21zM392 772q-90 0 -127.5 39.5t-37.5 100.5h69q0 -9 6.5 -20.5t27 -20.5t62.5 -9t62 9t26 20.5t6 20.5h71q0 -62 -37.5 -101t-127.5 -39zM352 950v10
q0 21 9.5 36t22.5 27.5t22.5 24t9.5 24.5q0 7 -5 12.5t-18 5.5q-24 0 -45.5 -13t-35.5 -27l-40 70q14 14 49 32t95 18q46 0 71 -19.5t25 -55.5q0 -29 -12 -48.5t-28.5 -34t-28.5 -28.5t-12 -34h-79z" />
    <glyph glyph-name="uni1EB3" unicode="&#x1eb3;" horiz-adv-x="591" 
d="M190 -10q-43 0 -79.5 12.5t-58.5 43.5t-22 86q0 50 25 83t68 49t97 16q52 0 78 -11.5t45 -23.5l7 6q0 30 -5 50t-23 30.5t-56 10.5q-37 0 -78.5 -6.5t-76 -16t-51.5 -18.5v150q31 11 88.5 20.5t141.5 9.5q90 0 142.5 -22.5t75.5 -65t23 -101.5v-133l20 -101l-20 -59h-171
v49l-10 5q-8 -8 -28 -23t-53 -27.5t-79 -12.5zM275 121q27 0 46.5 5t28.5 9v19q0 13 -18.5 25t-57.5 12q-54 0 -54 -38q0 -16 12 -24t43 -8zM298 535q-90 0 -127.5 39.5t-37.5 100.5h69q0 -9 6.5 -20.5t27 -20.5t62.5 -9t62 9t26 20.5t6 20.5h71q0 -62 -37.5 -101
t-127.5 -39zM258 713v10q0 21 9.5 36t22.5 27.5t22.5 24t9.5 24.5q0 7 -5 12.5t-18 5.5q-24 0 -45.5 -13t-35.5 -27l-40 70q14 14 49 32t95 18q46 0 71 -19.5t25 -55.5q0 -29 -12 -48.5t-28.5 -34t-28.5 -28.5t-12 -34h-79z" />
    <glyph glyph-name="uni1EB4" unicode="&#x1eb4;" horiz-adv-x="769" 
d="M10 0l48 169v127l74 30l130 381h259l161 -448l77 -142v-117h-177l-50 160h-291l-43 -160h-188zM307 314h170l-76 229h-21zM392 772q-90 0 -127.5 39.5t-37.5 100.5h69q0 -9 6.5 -20.5t27 -20.5t62.5 -9t62 9t26 20.5t6 20.5h71q0 -62 -37.5 -101t-127.5 -39zM470 960
q-33 0 -56 10.5t-41 24.5t-35 24.5t-38 10.5l-19 -60h-71q0 62 25 106t75 44q31 0 54 -10.5t41.5 -24.5t36.5 -24.5t39 -10.5l19 60h71q0 -68 -24 -109t-77 -41z" />
    <glyph glyph-name="uni1EB5" unicode="&#x1eb5;" horiz-adv-x="591" 
d="M190 -10q-43 0 -79.5 12.5t-58.5 43.5t-22 86q0 50 25 83t68 49t97 16q52 0 78 -11.5t45 -23.5l7 6q0 30 -5 50t-23 30.5t-56 10.5q-37 0 -78.5 -6.5t-76 -16t-51.5 -18.5v150q31 11 88.5 20.5t141.5 9.5q90 0 142.5 -22.5t75.5 -65t23 -101.5v-133l20 -101l-20 -59h-171
v49l-10 5q-8 -8 -28 -23t-53 -27.5t-79 -12.5zM275 121q27 0 46.5 5t28.5 9v19q0 13 -18.5 25t-57.5 12q-54 0 -54 -38q0 -16 12 -24t43 -8zM298 535q-90 0 -127.5 39.5t-37.5 100.5h69q0 -9 6.5 -20.5t27 -20.5t62.5 -9t62 9t26 20.5t6 20.5h71q0 -62 -37.5 -101
t-127.5 -39zM376 723q-33 0 -56 10.5t-41 24.5t-35 24.5t-38 10.5l-19 -60h-71q0 62 25 106t75 44q31 0 54 -10.5t41.5 -24.5t36.5 -24.5t39 -10.5l19 60h71q0 -68 -24 -109t-77 -41z" />
    <glyph glyph-name="uni1EB6" unicode="&#x1eb6;" horiz-adv-x="769" 
d="M10 0l48 169v127l74 30l130 381h259l161 -448l77 -142v-117h-177l-50 160h-291l-43 -160h-188zM307 314h170l-76 229h-21zM391 -255l-110 110l110 110l110 -110zM392 772q-90 0 -127.5 39.5t-37.5 100.5h69q0 -9 6.5 -20.5t27 -20.5t62.5 -9t62 9t26 20.5t6 20.5h71
q0 -62 -37.5 -101t-127.5 -39z" />
    <glyph glyph-name="uni1EB7" unicode="&#x1eb7;" horiz-adv-x="591" 
d="M190 -10q-43 0 -79.5 12.5t-58.5 43.5t-22 86q0 50 25 83t68 49t97 16q52 0 78 -11.5t45 -23.5l7 6q0 30 -5 50t-23 30.5t-56 10.5q-37 0 -78.5 -6.5t-76 -16t-51.5 -18.5v150q31 11 88.5 20.5t141.5 9.5q90 0 142.5 -22.5t75.5 -65t23 -101.5v-133l20 -101l-20 -59h-171
v49l-10 5q-8 -8 -28 -23t-53 -27.5t-79 -12.5zM275 121q27 0 46.5 5t28.5 9v19q0 13 -18.5 25t-57.5 12q-54 0 -54 -38q0 -16 12 -24t43 -8zM309 -255l-110 110l110 110l110 -110zM298 535q-90 0 -127.5 39.5t-37.5 100.5h69q0 -9 6.5 -20.5t27 -20.5t62.5 -9t62 9t26 20.5
t6 20.5h71q0 -62 -37.5 -101t-127.5 -39z" />
    <glyph glyph-name="uni1EB8" unicode="&#x1eb8;" horiz-adv-x="688" 
d="M80 0l-20 60l20 100v548h495l50 -30l-66 -140l-90 10h-209v-110h269v-155h-118l-151 10v-133h299l119 -96l-59 -64h-539zM365 -255l-110 110l110 110l110 -110z" />
    <glyph glyph-name="uni1EB9" unicode="&#x1eb9;" horiz-adv-x="558" 
d="M290 -10q-77 0 -137 23t-94 77t-34 146q0 66 22.5 113t60.5 76.5t85 43t97 13.5q86 0 132.5 -17t61.5 -27l50 -159l-20 -62h-310q7 -37 37 -62t99 -25q54 0 93 12t61 21v-134q-30 -16 -86.5 -27.5t-117.5 -11.5zM205 281l138 20l-9 43q-7 4 -20.5 6t-23.5 2
q-28 0 -46.5 -12t-28 -28.5t-10.5 -30.5zM289 -255l-110 110l110 110l110 -110z" />
    <glyph glyph-name="uni1EBA" unicode="&#x1eba;" horiz-adv-x="688" 
d="M80 0l-20 60l20 100v548h495l50 -30l-66 -140l-90 10h-209v-110h269v-155h-118l-151 10v-133h299l119 -96l-59 -64h-539zM304 752v10q0 21 9.5 36t22.5 27.5t22.5 24t9.5 24.5q0 7 -5 12.5t-18 5.5q-24 0 -45.5 -13t-35.5 -27l-40 70q14 14 49 32t95 18q46 0 71 -19.5
t25 -55.5q0 -29 -12 -48.5t-28.5 -34t-28.5 -28.5t-12 -34h-79z" />
    <glyph glyph-name="uni1EBB" unicode="&#x1ebb;" horiz-adv-x="558" 
d="M290 -10q-77 0 -137 23t-94 77t-34 146q0 66 22.5 113t60.5 76.5t85 43t97 13.5q86 0 132.5 -17t61.5 -27l50 -159l-20 -62h-310q7 -37 37 -62t99 -25q54 0 93 12t61 21v-134q-30 -16 -86.5 -27.5t-117.5 -11.5zM205 281l138 20l-9 43q-7 4 -20.5 6t-23.5 2
q-28 0 -46.5 -12t-28 -28.5t-10.5 -30.5zM248 510v10q0 21 9.5 36t22.5 27.5t22.5 24t9.5 24.5q0 7 -5 12.5t-18 5.5q-24 0 -45.5 -13t-35.5 -27l-40 70q14 14 49 32t95 18q46 0 71 -19.5t25 -55.5q0 -29 -12 -48.5t-28.5 -34t-28.5 -28.5t-12 -34h-79z" />
    <glyph glyph-name="uni1EBC" unicode="&#x1ebc;" horiz-adv-x="688" 
d="M80 0l-20 60l20 100v548h495l50 -30l-66 -140l-90 10h-209v-110h269v-155h-118l-151 10v-133h299l119 -96l-59 -64h-539zM422 762q-33 0 -56 10.5t-41 24.5t-35 24.5t-38 10.5l-19 -60h-71q0 62 25 106t75 44q31 0 54 -10.5t41.5 -24.5t36.5 -24.5t39 -10.5l19 60h71
q0 -68 -24 -109t-77 -41z" />
    <glyph glyph-name="uni1EBD" unicode="&#x1ebd;" horiz-adv-x="558" 
d="M290 -10q-77 0 -137 23t-94 77t-34 146q0 66 22.5 113t60.5 76.5t85 43t97 13.5q86 0 132.5 -17t61.5 -27l50 -159l-20 -62h-310q7 -37 37 -62t99 -25q54 0 93 12t61 21v-134q-30 -16 -86.5 -27.5t-117.5 -11.5zM205 281l138 20l-9 43q-7 4 -20.5 6t-23.5 2
q-28 0 -46.5 -12t-28 -28.5t-10.5 -30.5zM366 520q-33 0 -56 10.5t-41 24.5t-35 24.5t-38 10.5l-19 -60h-71q0 62 25 106t75 44q31 0 54 -10.5t41.5 -24.5t36.5 -24.5t39 -10.5l19 60h71q0 -68 -24 -109t-77 -41z" />
    <glyph glyph-name="uni1EBE" unicode="&#x1ebe;" horiz-adv-x="688" 
d="M80 0l-20 60l20 100v548h495l50 -30l-66 -140l-90 10h-209v-110h269v-155h-118l-151 10v-133h299l119 -96l-59 -64h-539zM179 782l109 140h101l108 -140h-81l-77 58l-80 -58h-80zM280 967l66 192h122v-61l-138 -131h-50z" />
    <glyph glyph-name="uni1EBF" unicode="&#x1ebf;" horiz-adv-x="558" 
d="M290 -10q-77 0 -137 23t-94 77t-34 146q0 66 22.5 113t60.5 76.5t85 43t97 13.5q86 0 132.5 -17t61.5 -27l50 -159l-20 -62h-310q7 -37 37 -62t99 -25q54 0 93 12t61 21v-134q-30 -16 -86.5 -27.5t-117.5 -11.5zM205 281l138 20l-9 43q-7 4 -20.5 6t-23.5 2
q-28 0 -46.5 -12t-28 -28.5t-10.5 -30.5zM123 540l109 140h101l108 -140h-81l-77 58l-80 -58h-80zM224 725l66 192h122v-61l-138 -131h-50z" />
    <glyph glyph-name="uni1EC0" unicode="&#x1ec0;" horiz-adv-x="688" 
d="M80 0l-20 60l20 100v548h495l50 -30l-66 -140l-90 10h-209v-110h269v-155h-118l-151 10v-133h299l119 -96l-59 -64h-539zM179 782l109 140h101l108 -140h-81l-77 58l-80 -58h-80zM344 960l-138 131v61h123l66 -192h-51z" />
    <glyph glyph-name="uni1EC1" unicode="&#x1ec1;" horiz-adv-x="558" 
d="M290 -10q-77 0 -137 23t-94 77t-34 146q0 66 22.5 113t60.5 76.5t85 43t97 13.5q86 0 132.5 -17t61.5 -27l50 -159l-20 -62h-310q7 -37 37 -62t99 -25q54 0 93 12t61 21v-134q-30 -16 -86.5 -27.5t-117.5 -11.5zM205 281l138 20l-9 43q-7 4 -20.5 6t-23.5 2
q-28 0 -46.5 -12t-28 -28.5t-10.5 -30.5zM123 540l109 140h101l108 -140h-81l-77 58l-80 -58h-80zM288 718l-138 131v61h123l66 -192h-51z" />
    <glyph glyph-name="uni1EC2" unicode="&#x1ec2;" horiz-adv-x="688" 
d="M80 0l-20 60l20 100v548h495l50 -30l-66 -140l-90 10h-209v-110h269v-155h-118l-151 10v-133h299l119 -96l-59 -64h-539zM179 782l109 140h101l108 -140h-81l-77 58l-80 -58h-80zM304 960v10q0 21 9.5 36t22.5 27.5t22.5 24t9.5 24.5q0 7 -5 12.5t-18 5.5
q-24 0 -45.5 -13t-35.5 -27l-40 70q14 14 49 32t95 18q46 0 71 -19.5t25 -55.5q0 -29 -12 -48.5t-28.5 -34t-28.5 -28.5t-12 -34h-79z" />
    <glyph glyph-name="uni1EC3" unicode="&#x1ec3;" horiz-adv-x="558" 
d="M290 -10q-77 0 -137 23t-94 77t-34 146q0 66 22.5 113t60.5 76.5t85 43t97 13.5q86 0 132.5 -17t61.5 -27l50 -159l-20 -62h-310q7 -37 37 -62t99 -25q54 0 93 12t61 21v-134q-30 -16 -86.5 -27.5t-117.5 -11.5zM205 281l138 20l-9 43q-7 4 -20.5 6t-23.5 2
q-28 0 -46.5 -12t-28 -28.5t-10.5 -30.5zM123 540l109 140h101l108 -140h-81l-77 58l-80 -58h-80zM248 718v10q0 21 9.5 36t22.5 27.5t22.5 24t9.5 24.5q0 7 -5 12.5t-18 5.5q-24 0 -45.5 -13t-35.5 -27l-40 70q14 14 49 32t95 18q46 0 71 -19.5t25 -55.5q0 -29 -12 -48.5
t-28.5 -34t-28.5 -28.5t-12 -34h-79z" />
    <glyph glyph-name="uni1EC4" unicode="&#x1ec4;" horiz-adv-x="688" 
d="M80 0l-20 60l20 100v548h495l50 -30l-66 -140l-90 10h-209v-110h269v-155h-118l-151 10v-133h299l119 -96l-59 -64h-539zM179 782l109 140h101l108 -140h-81l-77 58l-80 -58h-80zM422 970q-33 0 -56 10.5t-41 24.5t-35 24.5t-38 10.5l-19 -60h-71q0 62 25 106t75 44
q31 0 54 -10.5t41.5 -24.5t36.5 -24.5t39 -10.5l19 60h71q0 -68 -24 -109t-77 -41z" />
    <glyph glyph-name="uni1EC5" unicode="&#x1ec5;" horiz-adv-x="558" 
d="M290 -10q-77 0 -137 23t-94 77t-34 146q0 66 22.5 113t60.5 76.5t85 43t97 13.5q86 0 132.5 -17t61.5 -27l50 -159l-20 -62h-310q7 -37 37 -62t99 -25q54 0 93 12t61 21v-134q-30 -16 -86.5 -27.5t-117.5 -11.5zM205 281l138 20l-9 43q-7 4 -20.5 6t-23.5 2
q-28 0 -46.5 -12t-28 -28.5t-10.5 -30.5zM123 540l109 140h101l108 -140h-81l-77 58l-80 -58h-80zM366 728q-33 0 -56 10.5t-41 24.5t-35 24.5t-38 10.5l-19 -60h-71q0 62 25 106t75 44q31 0 54 -10.5t41.5 -24.5t36.5 -24.5t39 -10.5l19 60h71q0 -68 -24 -109t-77 -41z" />
    <glyph glyph-name="uni1EC6" unicode="&#x1ec6;" horiz-adv-x="688" 
d="M80 0l-20 60l20 100v548h495l50 -30l-66 -140l-90 10h-209v-110h269v-155h-118l-151 10v-133h299l119 -96l-59 -64h-539zM365 -255l-110 110l110 110l110 -110zM179 782l109 140h101l108 -140h-81l-77 58l-80 -58h-80z" />
    <glyph glyph-name="uni1EC7" unicode="&#x1ec7;" horiz-adv-x="558" 
d="M290 -10q-77 0 -137 23t-94 77t-34 146q0 66 22.5 113t60.5 76.5t85 43t97 13.5q86 0 132.5 -17t61.5 -27l50 -159l-20 -62h-310q7 -37 37 -62t99 -25q54 0 93 12t61 21v-134q-30 -16 -86.5 -27.5t-117.5 -11.5zM205 281l138 20l-9 43q-7 4 -20.5 6t-23.5 2
q-28 0 -46.5 -12t-28 -28.5t-10.5 -30.5zM289 -255l-110 110l110 110l110 -110zM123 540l109 140h101l108 -140h-81l-77 58l-80 -58h-80z" />
    <glyph glyph-name="uni1EC8" unicode="&#x1ec8;" horiz-adv-x="311" 
d="M70 0v548l-10 100l10 60h181v-708h-181zM107 752v10q0 21 9.5 36t22.5 27.5t22.5 24t9.5 24.5q0 7 -5 12.5t-18 5.5q-24 0 -45.5 -13t-35.5 -27l-40 70q14 14 49 32t95 18q46 0 71 -19.5t25 -55.5q0 -29 -12 -48.5t-28.5 -34t-28.5 -28.5t-12 -34h-79z" />
    <glyph glyph-name="uni1EC9" unicode="&#x1ec9;" horiz-adv-x="271" 
d="M61 0v331l-21 80l20 61h181v-472h-180zM115 520v10q0 21 9.5 36t22.5 27.5t22.5 24t9.5 24.5q0 7 -5 12.5t-18 5.5q-24 0 -45.5 -13t-35.5 -27l-40 70q14 14 49 32t95 18q46 0 71 -19.5t25 -55.5q0 -29 -12 -48.5t-28.5 -34t-28.5 -28.5t-12 -34h-79z" />
    <glyph glyph-name="uni1ECA" unicode="&#x1eca;" horiz-adv-x="311" 
d="M70 0v548l-10 100l10 60h181v-708h-181zM158 -255l-110 110l110 110l110 -110z" />
    <glyph glyph-name="uni1ECB" unicode="&#x1ecb;" horiz-adv-x="292" 
d="M150 501l-127 128l127 127l127 -127zM60 0v331l-21 80l20 61h181v-472h-180zM151 -255l-110 110l110 110l110 -110z" />
    <glyph glyph-name="uni1ECC" unicode="&#x1ecc;" horiz-adv-x="758" 
d="M379 -10q-64 0 -124.5 15.5t-109 55.5t-77 111t-28.5 182t28.5 182t77 111t109 55.5t124.5 15.5t124.5 -16t109 -56t77 -111t28.5 -181t-28.5 -181t-77 -111t-109 -56t-124.5 -16zM379 160q74 0 112 44t38 150t-38 150t-112 44q-73 0 -111 -45t-38 -149t38 -149t111 -45z
M389 -265l-110 110l110 110l110 -110z" />
    <glyph glyph-name="uni1ECD" unicode="&#x1ecd;" horiz-adv-x="560" 
d="M281 -10q-122 0 -189 58t-67 188q0 131 67 188.5t189 57.5q125 0 189.5 -57.5t64.5 -188.5q0 -130 -64.5 -188t-189.5 -58zM281 120q41 0 57 30.5t16 85.5q0 56 -16 86t-57 30q-42 0 -58.5 -30t-16.5 -86q0 -55 16.5 -85.5t58.5 -30.5zM283 -265l-110 110l110 110
l110 -110z" />
    <glyph glyph-name="uni1ECE" unicode="&#x1ece;" horiz-adv-x="758" 
d="M379 -10q-64 0 -124.5 15.5t-109 55.5t-77 111t-28.5 182t28.5 182t77 111t109 55.5t124.5 15.5t124.5 -16t109 -56t77 -111t28.5 -181t-28.5 -181t-77 -111t-109 -56t-124.5 -16zM379 160q74 0 112 44t38 150t-38 150t-112 44q-73 0 -111 -45t-38 -149t38 -149t111 -45z
M339 752v10q0 21 9.5 36t22.5 27.5t22.5 24t9.5 24.5q0 7 -5 12.5t-18 5.5q-24 0 -45.5 -13t-35.5 -27l-40 70q14 14 49 32t95 18q46 0 71 -19.5t25 -55.5q0 -29 -12 -48.5t-28.5 -34t-28.5 -28.5t-12 -34h-79z" />
    <glyph glyph-name="uni1ECF" unicode="&#x1ecf;" horiz-adv-x="560" 
d="M281 -10q-122 0 -189 58t-67 188q0 131 67 188.5t189 57.5q125 0 189.5 -57.5t64.5 -188.5q0 -130 -64.5 -188t-189.5 -58zM281 120q41 0 57 30.5t16 85.5q0 56 -16 86t-57 30q-42 0 -58.5 -30t-16.5 -86q0 -55 16.5 -85.5t58.5 -30.5zM243 523v10q0 21 9.5 36t22.5 27.5
t22.5 24t9.5 24.5q0 7 -5 12.5t-18 5.5q-24 0 -45.5 -13t-35.5 -27l-40 70q14 14 49 32t95 18q46 0 71 -19.5t25 -55.5q0 -29 -12 -48.5t-28.5 -34t-28.5 -28.5t-12 -34h-79z" />
    <glyph glyph-name="uni1ED0" unicode="&#x1ed0;" horiz-adv-x="758" 
d="M379 -10q-64 0 -124.5 15.5t-109 55.5t-77 111t-28.5 182t28.5 182t77 111t109 55.5t124.5 15.5t124.5 -16t109 -56t77 -111t28.5 -181t-28.5 -181t-77 -111t-109 -56t-124.5 -16zM379 160q74 0 112 44t38 150t-38 150t-112 44q-73 0 -111 -45t-38 -149t38 -149t111 -45z
M214 782l109 140h101l108 -140h-81l-77 58l-80 -58h-80zM315 967l66 192h122v-61l-138 -131h-50z" />
    <glyph glyph-name="uni1ED1" unicode="&#x1ed1;" horiz-adv-x="560" 
d="M281 -10q-122 0 -189 58t-67 188q0 131 67 188.5t189 57.5q125 0 189.5 -57.5t64.5 -188.5q0 -130 -64.5 -188t-189.5 -58zM281 120q41 0 57 30.5t16 85.5q0 56 -16 86t-57 30q-42 0 -58.5 -30t-16.5 -86q0 -55 16.5 -85.5t58.5 -30.5zM118 553l109 140h101l108 -140h-81
l-77 58l-80 -58h-80zM219 738l66 192h122v-61l-138 -131h-50z" />
    <glyph glyph-name="uni1ED2" unicode="&#x1ed2;" horiz-adv-x="758" 
d="M379 -10q-64 0 -124.5 15.5t-109 55.5t-77 111t-28.5 182t28.5 182t77 111t109 55.5t124.5 15.5t124.5 -16t109 -56t77 -111t28.5 -181t-28.5 -181t-77 -111t-109 -56t-124.5 -16zM379 160q74 0 112 44t38 150t-38 150t-112 44q-73 0 -111 -45t-38 -149t38 -149t111 -45z
M214 782l109 140h101l108 -140h-81l-77 58l-80 -58h-80zM379 960l-138 131v61h123l66 -192h-51z" />
    <glyph glyph-name="uni1ED3" unicode="&#x1ed3;" horiz-adv-x="560" 
d="M281 -10q-122 0 -189 58t-67 188q0 131 67 188.5t189 57.5q125 0 189.5 -57.5t64.5 -188.5q0 -130 -64.5 -188t-189.5 -58zM281 120q41 0 57 30.5t16 85.5q0 56 -16 86t-57 30q-42 0 -58.5 -30t-16.5 -86q0 -55 16.5 -85.5t58.5 -30.5zM118 553l109 140h101l108 -140h-81
l-77 58l-80 -58h-80zM283 731l-138 131v61h123l66 -192h-51z" />
    <glyph glyph-name="uni1ED4" unicode="&#x1ed4;" horiz-adv-x="758" 
d="M379 -10q-64 0 -124.5 15.5t-109 55.5t-77 111t-28.5 182t28.5 182t77 111t109 55.5t124.5 15.5t124.5 -16t109 -56t77 -111t28.5 -181t-28.5 -181t-77 -111t-109 -56t-124.5 -16zM379 160q74 0 112 44t38 150t-38 150t-112 44q-73 0 -111 -45t-38 -149t38 -149t111 -45z
M214 782l109 140h101l108 -140h-81l-77 58l-80 -58h-80zM339 960v10q0 21 9.5 36t22.5 27.5t22.5 24t9.5 24.5q0 7 -5 12.5t-18 5.5q-24 0 -45.5 -13t-35.5 -27l-40 70q14 14 49 32t95 18q46 0 71 -19.5t25 -55.5q0 -29 -12 -48.5t-28.5 -34t-28.5 -28.5t-12 -34h-79z" />
    <glyph glyph-name="uni1ED5" unicode="&#x1ed5;" horiz-adv-x="560" 
d="M281 -10q-122 0 -189 58t-67 188q0 131 67 188.5t189 57.5q125 0 189.5 -57.5t64.5 -188.5q0 -130 -64.5 -188t-189.5 -58zM281 120q41 0 57 30.5t16 85.5q0 56 -16 86t-57 30q-42 0 -58.5 -30t-16.5 -86q0 -55 16.5 -85.5t58.5 -30.5zM118 553l109 140h101l108 -140h-81
l-77 58l-80 -58h-80zM243 731v10q0 21 9.5 36t22.5 27.5t22.5 24t9.5 24.5q0 7 -5 12.5t-18 5.5q-24 0 -45.5 -13t-35.5 -27l-40 70q14 14 49 32t95 18q46 0 71 -19.5t25 -55.5q0 -29 -12 -48.5t-28.5 -34t-28.5 -28.5t-12 -34h-79z" />
    <glyph glyph-name="uni1ED6" unicode="&#x1ed6;" horiz-adv-x="758" 
d="M379 -10q-64 0 -124.5 15.5t-109 55.5t-77 111t-28.5 182t28.5 182t77 111t109 55.5t124.5 15.5t124.5 -16t109 -56t77 -111t28.5 -181t-28.5 -181t-77 -111t-109 -56t-124.5 -16zM379 160q74 0 112 44t38 150t-38 150t-112 44q-73 0 -111 -45t-38 -149t38 -149t111 -45z
M214 782l109 140h101l108 -140h-81l-77 58l-80 -58h-80zM457 970q-33 0 -56 10.5t-41 24.5t-35 24.5t-38 10.5l-19 -60h-71q0 62 25 106t75 44q31 0 54 -10.5t41.5 -24.5t36.5 -24.5t39 -10.5l19 60h71q0 -68 -24 -109t-77 -41z" />
    <glyph glyph-name="uni1ED7" unicode="&#x1ed7;" horiz-adv-x="560" 
d="M281 -10q-122 0 -189 58t-67 188q0 131 67 188.5t189 57.5q125 0 189.5 -57.5t64.5 -188.5q0 -130 -64.5 -188t-189.5 -58zM281 120q41 0 57 30.5t16 85.5q0 56 -16 86t-57 30q-42 0 -58.5 -30t-16.5 -86q0 -55 16.5 -85.5t58.5 -30.5zM118 553l109 140h101l108 -140h-81
l-77 58l-80 -58h-80zM361 741q-33 0 -56 10.5t-41 24.5t-35 24.5t-38 10.5l-19 -60h-71q0 62 25 106t75 44q31 0 54 -10.5t41.5 -24.5t36.5 -24.5t39 -10.5l19 60h71q0 -68 -24 -109t-77 -41z" />
    <glyph glyph-name="uni1ED8" unicode="&#x1ed8;" horiz-adv-x="758" 
d="M379 -10q-64 0 -124.5 15.5t-109 55.5t-77 111t-28.5 182t28.5 182t77 111t109 55.5t124.5 15.5t124.5 -16t109 -56t77 -111t28.5 -181t-28.5 -181t-77 -111t-109 -56t-124.5 -16zM379 160q74 0 112 44t38 150t-38 150t-112 44q-73 0 -111 -45t-38 -149t38 -149t111 -45z
M389 -265l-110 110l110 110l110 -110zM214 782l109 140h101l108 -140h-81l-77 58l-80 -58h-80z" />
    <glyph glyph-name="uni1ED9" unicode="&#x1ed9;" horiz-adv-x="560" 
d="M281 -10q-122 0 -189 58t-67 188q0 131 67 188.5t189 57.5q125 0 189.5 -57.5t64.5 -188.5q0 -130 -64.5 -188t-189.5 -58zM281 120q41 0 57 30.5t16 85.5q0 56 -16 86t-57 30q-42 0 -58.5 -30t-16.5 -86q0 -55 16.5 -85.5t58.5 -30.5zM283 -265l-110 110l110 110
l110 -110zM118 553l109 140h101l108 -140h-81l-77 58l-80 -58h-80z" />
    <glyph glyph-name="uni1EDA" unicode="&#x1eda;" horiz-adv-x="758" 
d="M379 -10q-64 0 -124.5 15.5t-109 55.5t-77 111t-28.5 182t28.5 182t77 111t109 55.5t124.5 15.5t124.5 -16t109 -56t77 -111t28.5 -181t-28.5 -181t-77 -111t-109 -56t-124.5 -16zM379 160q74 0 112 44t38 150t-38 150t-112 44q-73 0 -111 -45t-38 -149t38 -149t111 -45z
M674 522q-31 0 -47.5 8l-16.5 8v44h31q37 0 48 19.5t11 53.5v59h102v-74q0 -45 -18.5 -70.5t-48 -36.5t-61.5 -11zM315 759l66 192h122v-61l-138 -131h-50z" />
    <glyph glyph-name="uni1EDB" unicode="&#x1edb;" horiz-adv-x="560" 
d="M281 -10q-122 0 -189 58t-67 188q0 131 67 188.5t189 57.5q125 0 189.5 -57.5t64.5 -188.5q0 -130 -64.5 -188t-189.5 -58zM281 120q41 0 57 30.5t16 85.5q0 56 -16 86t-57 30q-42 0 -58.5 -30t-16.5 -86q0 -55 16.5 -85.5t58.5 -30.5zM509 340q-31 0 -47.5 8l-16.5 8v44
h31q37 0 48 19.5t11 53.5v59h102v-74q0 -45 -18.5 -70.5t-48 -36.5t-61.5 -11zM219 530l66 192h122v-61l-138 -131h-50z" />
    <glyph glyph-name="uni1EDC" unicode="&#x1edc;" horiz-adv-x="758" 
d="M379 -10q-64 0 -124.5 15.5t-109 55.5t-77 111t-28.5 182t28.5 182t77 111t109 55.5t124.5 15.5t124.5 -16t109 -56t77 -111t28.5 -181t-28.5 -181t-77 -111t-109 -56t-124.5 -16zM379 160q74 0 112 44t38 150t-38 150t-112 44q-73 0 -111 -45t-38 -149t38 -149t111 -45z
M674 522q-31 0 -47.5 8l-16.5 8v44h31q37 0 48 19.5t11 53.5v59h102v-74q0 -45 -18.5 -70.5t-48 -36.5t-61.5 -11zM379 752l-138 131v61h123l66 -192h-51z" />
    <glyph glyph-name="uni1EDD" unicode="&#x1edd;" horiz-adv-x="560" 
d="M281 -10q-122 0 -189 58t-67 188q0 131 67 188.5t189 57.5q125 0 189.5 -57.5t64.5 -188.5q0 -130 -64.5 -188t-189.5 -58zM281 120q41 0 57 30.5t16 85.5q0 56 -16 86t-57 30q-42 0 -58.5 -30t-16.5 -86q0 -55 16.5 -85.5t58.5 -30.5zM509 340q-31 0 -47.5 8l-16.5 8v44
h31q37 0 48 19.5t11 53.5v59h102v-74q0 -45 -18.5 -70.5t-48 -36.5t-61.5 -11zM283 523l-138 131v61h123l66 -192h-51z" />
    <glyph glyph-name="uni1EDE" unicode="&#x1ede;" horiz-adv-x="758" 
d="M379 -10q-64 0 -124.5 15.5t-109 55.5t-77 111t-28.5 182t28.5 182t77 111t109 55.5t124.5 15.5t124.5 -16t109 -56t77 -111t28.5 -181t-28.5 -181t-77 -111t-109 -56t-124.5 -16zM379 160q74 0 112 44t38 150t-38 150t-112 44q-73 0 -111 -45t-38 -149t38 -149t111 -45z
M674 522q-31 0 -47.5 8l-16.5 8v44h31q37 0 48 19.5t11 53.5v59h102v-74q0 -45 -18.5 -70.5t-48 -36.5t-61.5 -11zM339 752v10q0 21 9.5 36t22.5 27.5t22.5 24t9.5 24.5q0 7 -5 12.5t-18 5.5q-24 0 -45.5 -13t-35.5 -27l-40 70q14 14 49 32t95 18q46 0 71 -19.5t25 -55.5
q0 -29 -12 -48.5t-28.5 -34t-28.5 -28.5t-12 -34h-79z" />
    <glyph glyph-name="uni1EDF" unicode="&#x1edf;" horiz-adv-x="560" 
d="M281 -10q-122 0 -189 58t-67 188q0 131 67 188.5t189 57.5q125 0 189.5 -57.5t64.5 -188.5q0 -130 -64.5 -188t-189.5 -58zM281 120q41 0 57 30.5t16 85.5q0 56 -16 86t-57 30q-42 0 -58.5 -30t-16.5 -86q0 -55 16.5 -85.5t58.5 -30.5zM509 340q-31 0 -47.5 8l-16.5 8v44
h31q37 0 48 19.5t11 53.5v59h102v-74q0 -45 -18.5 -70.5t-48 -36.5t-61.5 -11zM243 523v10q0 21 9.5 36t22.5 27.5t22.5 24t9.5 24.5q0 7 -5 12.5t-18 5.5q-24 0 -45.5 -13t-35.5 -27l-40 70q14 14 49 32t95 18q46 0 71 -19.5t25 -55.5q0 -29 -12 -48.5t-28.5 -34
t-28.5 -28.5t-12 -34h-79z" />
    <glyph glyph-name="uni1EE0" unicode="&#x1ee0;" horiz-adv-x="758" 
d="M379 -10q-64 0 -124.5 15.5t-109 55.5t-77 111t-28.5 182t28.5 182t77 111t109 55.5t124.5 15.5t124.5 -16t109 -56t77 -111t28.5 -181t-28.5 -181t-77 -111t-109 -56t-124.5 -16zM379 160q74 0 112 44t38 150t-38 150t-112 44q-73 0 -111 -45t-38 -149t38 -149t111 -45z
M674 522q-31 0 -47.5 8l-16.5 8v44h31q37 0 48 19.5t11 53.5v59h102v-74q0 -45 -18.5 -70.5t-48 -36.5t-61.5 -11zM457 762q-33 0 -56 10.5t-41 24.5t-35 24.5t-38 10.5l-19 -60h-71q0 62 25 106t75 44q31 0 54 -10.5t41.5 -24.5t36.5 -24.5t39 -10.5l19 60h71
q0 -68 -24 -109t-77 -41z" />
    <glyph glyph-name="uni1EE1" unicode="&#x1ee1;" horiz-adv-x="560" 
d="M281 -10q-122 0 -189 58t-67 188q0 131 67 188.5t189 57.5q125 0 189.5 -57.5t64.5 -188.5q0 -130 -64.5 -188t-189.5 -58zM281 120q41 0 57 30.5t16 85.5q0 56 -16 86t-57 30q-42 0 -58.5 -30t-16.5 -86q0 -55 16.5 -85.5t58.5 -30.5zM509 340q-31 0 -47.5 8l-16.5 8v44
h31q37 0 48 19.5t11 53.5v59h102v-74q0 -45 -18.5 -70.5t-48 -36.5t-61.5 -11zM361 533q-33 0 -56 10.5t-41 24.5t-35 24.5t-38 10.5l-19 -60h-71q0 62 25 106t75 44q31 0 54 -10.5t41.5 -24.5t36.5 -24.5t39 -10.5l19 60h71q0 -68 -24 -109t-77 -41z" />
    <glyph glyph-name="uni1EE2" unicode="&#x1ee2;" horiz-adv-x="758" 
d="M379 -10q-64 0 -124.5 15.5t-109 55.5t-77 111t-28.5 182t28.5 182t77 111t109 55.5t124.5 15.5t124.5 -16t109 -56t77 -111t28.5 -181t-28.5 -181t-77 -111t-109 -56t-124.5 -16zM379 160q74 0 112 44t38 150t-38 150t-112 44q-73 0 -111 -45t-38 -149t38 -149t111 -45z
M674 522q-31 0 -47.5 8l-16.5 8v44h31q37 0 48 19.5t11 53.5v59h102v-74q0 -45 -18.5 -70.5t-48 -36.5t-61.5 -11zM389 -265l-110 110l110 110l110 -110z" />
    <glyph glyph-name="uni1EE3" unicode="&#x1ee3;" horiz-adv-x="560" 
d="M281 -10q-122 0 -189 58t-67 188q0 131 67 188.5t189 57.5q125 0 189.5 -57.5t64.5 -188.5q0 -130 -64.5 -188t-189.5 -58zM281 120q41 0 57 30.5t16 85.5q0 56 -16 86t-57 30q-42 0 -58.5 -30t-16.5 -86q0 -55 16.5 -85.5t58.5 -30.5zM509 340q-31 0 -47.5 8l-16.5 8v44
h31q37 0 48 19.5t11 53.5v59h102v-74q0 -45 -18.5 -70.5t-48 -36.5t-61.5 -11zM283 -265l-110 110l110 110l110 -110z" />
    <glyph glyph-name="uni1EE4" unicode="&#x1ee4;" horiz-adv-x="738" 
d="M369 -10q-154 0 -231.5 70.5t-77.5 226.5v260l1 101l-1 60h182v-401q0 -70 28 -113.5t99 -43.5t100.5 40.5t29.5 116.5v401h179v-421q0 -153 -75.5 -225t-233.5 -72zM369 -265l-110 110l110 110l110 -110z" />
    <glyph glyph-name="uni1EE5" unicode="&#x1ee5;" horiz-adv-x="587" 
d="M190 -10q-60 0 -92.5 23t-45 66.5t-12.5 104.5v289h180v-263q0 -37 14.5 -58t43.5 -21q27 0 49.5 23t22.5 67v252h180v-312l21 -100l-21 -61h-169v49l-10 5q-13 -13 -37.5 -28t-56 -25.5t-67.5 -10.5zM324 -255l-110 110l110 110l110 -110z" />
    <glyph glyph-name="uni1EE6" unicode="&#x1ee6;" horiz-adv-x="738" 
d="M369 -10q-154 0 -231.5 70.5t-77.5 226.5v260l1 101l-1 60h182v-401q0 -70 28 -113.5t99 -43.5t100.5 40.5t29.5 116.5v401h179v-421q0 -153 -75.5 -225t-233.5 -72zM328 752v10q0 21 9.5 36t22.5 27.5t22.5 24t9.5 24.5q0 7 -5 12.5t-18 5.5q-24 0 -45.5 -13t-35.5 -27
l-40 70q14 14 49 32t95 18q46 0 71 -19.5t25 -55.5q0 -29 -12 -48.5t-28.5 -34t-28.5 -28.5t-12 -34h-79z" />
    <glyph glyph-name="uni1EE7" unicode="&#x1ee7;" horiz-adv-x="587" 
d="M190 -10q-60 0 -92.5 23t-45 66.5t-12.5 104.5v289h180v-263q0 -37 14.5 -58t43.5 -21q27 0 49.5 23t22.5 67v252h180v-312l21 -100l-21 -61h-169v49l-10 5q-13 -13 -37.5 -28t-56 -25.5t-67.5 -10.5zM249 525v10q0 21 9.5 36t22.5 27.5t22.5 24t9.5 24.5q0 7 -5 12.5
t-18 5.5q-24 0 -45.5 -13t-35.5 -27l-40 70q14 14 49 32t95 18q46 0 71 -19.5t25 -55.5q0 -29 -12 -48.5t-28.5 -34t-28.5 -28.5t-12 -34h-79z" />
    <glyph glyph-name="uni1EE8" unicode="&#x1ee8;" horiz-adv-x="738" 
d="M369 -10q-154 0 -231.5 70.5t-77.5 226.5v260l1 101l-1 60h182v-401q0 -70 28 -113.5t99 -43.5t100.5 40.5t29.5 116.5v401h179v-421q0 -153 -75.5 -225t-233.5 -72zM664 648q-31 0 -47.5 8l-16.5 8v44h31q37 0 48 19.5t11 53.5v59h102v-74q0 -45 -18.5 -70.5t-48 -36.5
t-61.5 -11zM304 759l66 192h122v-61l-138 -131h-50z" />
    <glyph glyph-name="uni1EE9" unicode="&#x1ee9;" horiz-adv-x="587" 
d="M190 -10q-60 0 -92.5 23t-45 66.5t-12.5 104.5v289h180v-263q0 -37 14.5 -58t43.5 -21q27 0 49.5 23t22.5 67v252h180v-312l21 -100l-21 -61h-169v49l-10 5q-13 -13 -37.5 -28t-56 -25.5t-67.5 -10.5zM518 415q-31 0 -47.5 8l-16.5 8v44h31q37 0 48 19.5t11 53.5v59h102
v-74q0 -45 -18.5 -70.5t-48 -36.5t-61.5 -11zM225 532l66 192h122v-61l-138 -131h-50z" />
    <glyph glyph-name="uni1EEA" unicode="&#x1eea;" horiz-adv-x="738" 
d="M369 -10q-154 0 -231.5 70.5t-77.5 226.5v260l1 101l-1 60h182v-401q0 -70 28 -113.5t99 -43.5t100.5 40.5t29.5 116.5v401h179v-421q0 -153 -75.5 -225t-233.5 -72zM664 648q-31 0 -47.5 8l-16.5 8v44h31q37 0 48 19.5t11 53.5v59h102v-74q0 -45 -18.5 -70.5t-48 -36.5
t-61.5 -11zM368 752l-138 131v61h123l66 -192h-51z" />
    <glyph glyph-name="uni1EEB" unicode="&#x1eeb;" horiz-adv-x="587" 
d="M190 -10q-60 0 -92.5 23t-45 66.5t-12.5 104.5v289h180v-263q0 -37 14.5 -58t43.5 -21q27 0 49.5 23t22.5 67v252h180v-312l21 -100l-21 -61h-169v49l-10 5q-13 -13 -37.5 -28t-56 -25.5t-67.5 -10.5zM518 415q-31 0 -47.5 8l-16.5 8v44h31q37 0 48 19.5t11 53.5v59h102
v-74q0 -45 -18.5 -70.5t-48 -36.5t-61.5 -11zM289 525l-138 131v61h123l66 -192h-51z" />
    <glyph glyph-name="uni1EEC" unicode="&#x1eec;" horiz-adv-x="738" 
d="M369 -10q-154 0 -231.5 70.5t-77.5 226.5v260l1 101l-1 60h182v-401q0 -70 28 -113.5t99 -43.5t100.5 40.5t29.5 116.5v401h179v-421q0 -153 -75.5 -225t-233.5 -72zM664 648q-31 0 -47.5 8l-16.5 8v44h31q37 0 48 19.5t11 53.5v59h102v-74q0 -45 -18.5 -70.5t-48 -36.5
t-61.5 -11zM328 752v10q0 21 9.5 36t22.5 27.5t22.5 24t9.5 24.5q0 7 -5 12.5t-18 5.5q-24 0 -45.5 -13t-35.5 -27l-40 70q14 14 49 32t95 18q46 0 71 -19.5t25 -55.5q0 -29 -12 -48.5t-28.5 -34t-28.5 -28.5t-12 -34h-79z" />
    <glyph glyph-name="uni1EED" unicode="&#x1eed;" horiz-adv-x="587" 
d="M190 -10q-60 0 -92.5 23t-45 66.5t-12.5 104.5v289h180v-263q0 -37 14.5 -58t43.5 -21q27 0 49.5 23t22.5 67v252h180v-312l21 -100l-21 -61h-169v49l-10 5q-13 -13 -37.5 -28t-56 -25.5t-67.5 -10.5zM518 415q-31 0 -47.5 8l-16.5 8v44h31q37 0 48 19.5t11 53.5v59h102
v-74q0 -45 -18.5 -70.5t-48 -36.5t-61.5 -11zM249 525v10q0 21 9.5 36t22.5 27.5t22.5 24t9.5 24.5q0 7 -5 12.5t-18 5.5q-24 0 -45.5 -13t-35.5 -27l-40 70q14 14 49 32t95 18q46 0 71 -19.5t25 -55.5q0 -29 -12 -48.5t-28.5 -34t-28.5 -28.5t-12 -34h-79z" />
    <glyph glyph-name="uni1EEE" unicode="&#x1eee;" horiz-adv-x="738" 
d="M369 -10q-154 0 -231.5 70.5t-77.5 226.5v260l1 101l-1 60h182v-401q0 -70 28 -113.5t99 -43.5t100.5 40.5t29.5 116.5v401h179v-421q0 -153 -75.5 -225t-233.5 -72zM664 648q-31 0 -47.5 8l-16.5 8v44h31q37 0 48 19.5t11 53.5v59h102v-74q0 -45 -18.5 -70.5t-48 -36.5
t-61.5 -11zM446 762q-33 0 -56 10.5t-41 24.5t-35 24.5t-38 10.5l-19 -60h-71q0 62 25 106t75 44q31 0 54 -10.5t41.5 -24.5t36.5 -24.5t39 -10.5l19 60h71q0 -68 -24 -109t-77 -41z" />
    <glyph glyph-name="uni1EEF" unicode="&#x1eef;" horiz-adv-x="587" 
d="M190 -10q-60 0 -92.5 23t-45 66.5t-12.5 104.5v289h180v-263q0 -37 14.5 -58t43.5 -21q27 0 49.5 23t22.5 67v252h180v-312l21 -100l-21 -61h-169v49l-10 5q-13 -13 -37.5 -28t-56 -25.5t-67.5 -10.5zM518 415q-31 0 -47.5 8l-16.5 8v44h31q37 0 48 19.5t11 53.5v59h102
v-74q0 -45 -18.5 -70.5t-48 -36.5t-61.5 -11zM367 535q-33 0 -56 10.5t-41 24.5t-35 24.5t-38 10.5l-19 -60h-71q0 62 25 106t75 44q31 0 54 -10.5t41.5 -24.5t36.5 -24.5t39 -10.5l19 60h71q0 -68 -24 -109t-77 -41z" />
    <glyph glyph-name="uni1EF0" unicode="&#x1ef0;" horiz-adv-x="738" 
d="M369 -10q-154 0 -231.5 70.5t-77.5 226.5v260l1 101l-1 60h182v-401q0 -70 28 -113.5t99 -43.5t100.5 40.5t29.5 116.5v401h179v-421q0 -153 -75.5 -225t-233.5 -72zM664 648q-31 0 -47.5 8l-16.5 8v44h31q37 0 48 19.5t11 53.5v59h102v-74q0 -45 -18.5 -70.5t-48 -36.5
t-61.5 -11zM369 -265l-110 110l110 110l110 -110z" />
    <glyph glyph-name="uni1EF1" unicode="&#x1ef1;" horiz-adv-x="587" 
d="M190 -10q-60 0 -92.5 23t-45 66.5t-12.5 104.5v289h180v-263q0 -37 14.5 -58t43.5 -21q27 0 49.5 23t22.5 67v252h180v-312l21 -100l-21 -61h-169v49l-10 5q-13 -13 -37.5 -28t-56 -25.5t-67.5 -10.5zM518 415q-31 0 -47.5 8l-16.5 8v44h31q37 0 48 19.5t11 53.5v59h102
v-74q0 -45 -18.5 -70.5t-48 -36.5t-61.5 -11zM324 -255l-110 110l110 110l110 -110z" />
    <glyph glyph-name="Ygrave" unicode="&#x1ef2;" horiz-adv-x="719" 
d="M268 0v300l-248 348v60h210l120 -226h20l119 226h210v-60l-255 -354l6 -101v-193h-182zM361 742l-138 131v61h123l66 -192h-51z" />
    <glyph glyph-name="ygrave" unicode="&#x1ef3;" horiz-adv-x="520" 
d="M101 -243l-141 50l40 149l140 -40q43 0 62.5 22.5t29.5 62.5h-103l-110 342l-19 130h190l55 -330h20l55 330h190l-6.5 -31.5t-18 -83.5t-27 -114.5t-32.5 -126t-35 -116.5q-27 -83 -64.5 -137t-91.5 -80.5t-134 -26.5zM259 510l-138 131v61h123l66 -192h-51z" />
    <glyph glyph-name="uni1EF4" unicode="&#x1ef4;" horiz-adv-x="719" 
d="M268 0v300l-248 348v60h210l120 -226h20l119 226h210v-60l-255 -354l6 -101v-193h-182zM362 -255l-110 110l110 110l110 -110z" />
    <glyph glyph-name="uni1EF5" unicode="&#x1ef5;" horiz-adv-x="520" 
d="M101 -243l-141 50l40 149l140 -40q43 0 62.5 22.5t29.5 62.5h-103l-110 342l-19 130h190l55 -330h20l55 330h190l-6.5 -31.5t-18 -83.5t-27 -114.5t-32.5 -126t-35 -116.5q-27 -83 -64.5 -137t-91.5 -80.5t-134 -26.5zM510 -255l-110 110l110 110l110 -110z" />
    <glyph glyph-name="uni1EF6" unicode="&#x1ef6;" horiz-adv-x="719" 
d="M268 0v300l-248 348v60h210l120 -226h20l119 226h210v-60l-255 -354l6 -101v-193h-182zM321 742v10q0 21 9.5 36t22.5 27.5t22.5 24t9.5 24.5q0 7 -5 12.5t-18 5.5q-24 0 -45.5 -13t-35.5 -27l-40 70q14 14 49 32t95 18q46 0 71 -19.5t25 -55.5q0 -29 -12 -48.5
t-28.5 -34t-28.5 -28.5t-12 -34h-79z" />
    <glyph glyph-name="uni1EF7" unicode="&#x1ef7;" horiz-adv-x="520" 
d="M101 -243l-141 50l40 149l140 -40q43 0 62.5 22.5t29.5 62.5h-103l-110 342l-19 130h190l55 -330h20l55 330h190l-6.5 -31.5t-18 -83.5t-27 -114.5t-32.5 -126t-35 -116.5q-27 -83 -64.5 -137t-91.5 -80.5t-134 -26.5zM219 510v10q0 21 9.5 36t22.5 27.5t22.5 24
t9.5 24.5q0 7 -5 12.5t-18 5.5q-24 0 -45.5 -13t-35.5 -27l-40 70q14 14 49 32t95 18q46 0 71 -19.5t25 -55.5q0 -29 -12 -48.5t-28.5 -34t-28.5 -28.5t-12 -34h-79z" />
    <glyph glyph-name="uni1EF8" unicode="&#x1ef8;" horiz-adv-x="719" 
d="M268 0v300l-248 348v60h210l120 -226h20l119 226h210v-60l-255 -354l6 -101v-193h-182zM439 752q-33 0 -56 10.5t-41 24.5t-35 24.5t-38 10.5l-19 -60h-71q0 62 25 106t75 44q31 0 54 -10.5t41.5 -24.5t36.5 -24.5t39 -10.5l19 60h71q0 -68 -24 -109t-77 -41z" />
    <glyph glyph-name="uni1EF9" unicode="&#x1ef9;" horiz-adv-x="520" 
d="M101 -243l-141 50l40 149l140 -40q43 0 62.5 22.5t29.5 62.5h-103l-110 342l-19 130h190l55 -330h20l55 330h190l-6.5 -31.5t-18 -83.5t-27 -114.5t-32.5 -126t-35 -116.5q-27 -83 -64.5 -137t-91.5 -80.5t-134 -26.5zM337 520q-33 0 -56 10.5t-41 24.5t-35 24.5
t-38 10.5l-19 -60h-71q0 62 25 106t75 44q31 0 54 -10.5t41.5 -24.5t36.5 -24.5t39 -10.5l19 60h71q0 -68 -24 -109t-77 -41z" />
    <glyph glyph-name="uni2010" unicode="&#x2010;" horiz-adv-x="376" 
d="M50 180v120h320v-120h-320z" />
    <glyph glyph-name="endash" unicode="&#x2013;" horiz-adv-x="556" 
d="M30 180v120h500v-120h-500z" />
    <glyph glyph-name="emdash" unicode="&#x2014;" horiz-adv-x="860" 
d="M30 180v120h800v-120h-800z" />
    <glyph glyph-name="quoteleft" unicode="&#x2018;" horiz-adv-x="293" 
d="M188 820l20 -20q-50 -44 -70 -89.5t-17 -70.5l38 20l90 -100l-110 -100q-47 19 -78 59t-31 104q0 37 15.5 68.5t40 56.5t51.5 43t51 29z" />
    <glyph glyph-name="quoteright" unicode="&#x2019;" horiz-adv-x="293" 
d="M91 450l-20 20q50 44 70 89.5t17 70.5l-38 -20l-90 100l110 100q47 -19 78 -59t31 -104q0 -37 -15.5 -68.5t-40 -56.5t-51.5 -43t-51 -29z" />
    <glyph glyph-name="quotesinglbase" unicode="&#x201a;" horiz-adv-x="293" 
d="M91 -190l-20 20q50 44 70 89.5t17 70.5l-38 -20l-90 100l110 100q47 -19 78 -59t31 -104q0 -37 -15.5 -68.5t-40 -56.5t-51.5 -43t-51 -29z" />
    <glyph glyph-name="quotedblleft" unicode="&#x201c;" horiz-adv-x="543" 
d="M438 820l20 -20q-50 -44 -70 -89.5t-17 -70.5l38 20l90 -100l-110 -100q-47 19 -78 59t-31 104q0 37 15.5 68.5t40 56.5t51.5 43t51 29zM188 820l20 -20q-50 -44 -70 -89.5t-17 -70.5l38 20l90 -100l-110 -100q-47 19 -78 59t-31 104q0 37 15.5 68.5t40 56.5t51.5 43
t51 29z" />
    <glyph glyph-name="quotedblright" unicode="&#x201d;" horiz-adv-x="533" 
d="M91 450l-20 20q50 44 70 89.5t17 70.5l-38 -20l-90 100l110 100q47 -19 78 -59t31 -104q0 -37 -15.5 -68.5t-40 -56.5t-51.5 -43t-51 -29zM331 450l-20 20q50 44 70 89.5t17 70.5l-38 -20l-90 100l110 100q47 -19 78 -59t31 -104q0 -37 -15.5 -68.5t-40 -56.5t-51.5 -43
t-51 -29z" />
    <glyph glyph-name="quotedblbase" unicode="&#x201e;" horiz-adv-x="492" 
d="M85.7295 -177.896l-18.1816 18.1826q45.4551 40.001 63.6377 81.3662q18.1826 41.3643 15.4551 64.0928l-34.5469 -18.1826l-81.8203 90.9121l100.003 90.9111q42.7285 -17.2725 70.9111 -53.6377q28.1826 -36.3643 28.1826 -94.5479q0 -33.6377 -14.0908 -62.2754
q-14.0918 -28.6367 -36.3652 -51.3652q-22.2734 -22.7275 -46.8193 -39.0918t-46.3652 -26.3643zM303.918 -177.896l-18.1816 18.1826q45.4551 40.001 63.6377 81.3662q18.1826 41.3643 15.4551 64.0928l-34.5459 -18.1826l-81.8213 90.9121l100.003 90.9111
q42.7285 -17.2725 70.9111 -53.6377q28.1826 -36.3643 28.1826 -94.5479q0 -33.6377 -14.0908 -62.2754q-14.0918 -28.6367 -36.3652 -51.3652q-22.2734 -22.7275 -46.8193 -39.0918t-46.3652 -26.3643z" />
    <glyph glyph-name="dagger" unicode="&#x2020;" horiz-adv-x="516" 
d="M183 -80l10 289v177l-143 -7v120l141 -7l-8 216h150l-8 -216l141 7v-120l-143 7v-180l10 -286h-150z" />
    <glyph glyph-name="daggerdbl" unicode="&#x2021;" horiz-adv-x="516" 
d="M50 129v120l143 -7v144l-143 -7v120l141 -7l-8 216h150l-8 -216l141 7v-120l-143 7v-144l143 7v-120l-141 7l8 -216h-150l8 216z" />
    <glyph glyph-name="bullet" unicode="&#x2022;" horiz-adv-x="410" 
d="M205 163l-165 165l165 165l165 -165z" />
    <glyph glyph-name="ellipsis" unicode="&#x2026;" horiz-adv-x="820" 
d="M160 -30l-110 110l110 110l110 -110zM410 -30l-110 110l110 110l110 -110zM660 -30l-110 110l110 110l110 -110z" />
    <glyph glyph-name="perthousand" unicode="&#x2030;" horiz-adv-x="1330" 
d="M240 387q-66 0 -108 22.5t-62 59.5t-20 83t20 83t62 59.5t108 22.5q65 0 107 -22.5t62.5 -59.5t20.5 -83t-20.5 -83t-62.5 -59.5t-107 -22.5zM110 0v60l339 357l185 290h186v-60l-318 -329l-206 -318h-186zM240 497q24 0 35.5 9.5t15 22.5t3.5 23t-3.5 23t-15 22.5
t-35.5 9.5t-35.5 -9.5t-15 -22.5t-3.5 -23t3.5 -23t15 -22.5t35.5 -9.5zM1090 -10q-66 0 -108 22.5t-62 60t-20 82.5q0 46 20 83t62 59.5t108 22.5q65 0 107 -22.5t62.5 -59.5t20.5 -83q0 -45 -20.5 -82.5t-62.5 -60t-107 -22.5zM680 -10q-66 0 -108 22.5t-62 60t-20 82.5
q0 46 20 83t62 59.5t108 22.5q65 0 107 -22.5t62.5 -59.5t20.5 -83q0 -45 -20.5 -82.5t-62.5 -60t-107 -22.5zM1090 100q24 0 35.5 9.5t15 22.5t3.5 23t-3.5 23t-15 22.5t-35.5 9.5t-35.5 -9.5t-15 -22.5t-3.5 -23t3.5 -23t15 -22.5t35.5 -9.5zM680 100q24 0 35.5 9.5
t15 22.5t3.5 23t-3.5 23t-15 22.5t-35.5 9.5t-35.5 -9.5t-15 -22.5t-3.5 -23t3.5 -23t15 -22.5t35.5 -9.5z" />
    <glyph glyph-name="minute" unicode="&#x2032;" horiz-adv-x="250" 
d="M50 490v260l100 70l50 -70l-130 -260h-20z" />
    <glyph glyph-name="second" unicode="&#x2033;" horiz-adv-x="450" 
d="M250 490v260l100 70l50 -70l-130 -260h-20zM50 490v260l100 70l50 -70l-130 -260h-20z" />
    <glyph glyph-name="guilsinglleft" unicode="&#x2039;" horiz-adv-x="350" 
d="M310 130l-130 170l130 170h-140l-130 -170l130 -170h140z" />
    <glyph glyph-name="guilsinglright" unicode="&#x203a;" horiz-adv-x="350" 
d="M40 130l130 170l-130 170h140l130 -170l-130 -170h-140z" />
    <glyph glyph-name="fraction" unicode="&#x2044;" horiz-adv-x="298" 
d="M-140 -80l484 788h94l-484 -788h-94z" />
    <glyph glyph-name="uni2052" unicode="&#x2052;" horiz-adv-x="610" 
d="M160 580l-110 110l110 110l110 -110zM460 -80l-110 110l110 110l110 -110zM90 -47l305 815h131l-306 -815h-130z" />
    <glyph glyph-name="uni2074" unicode="&#x2074;" horiz-adv-x="358" 
d="M191 440v50h-181v66l143 238h130l10 -30l-10 -50v-143h65v-76l-65 -5v-50h-92zM117 571h74v124h-9z" />
    <glyph glyph-name="colonmonetary" unicode="&#x20a1;" horiz-adv-x="740" 
d="M192 -60l25 76q-48 18 -86 55t-59.5 98.5t-21.5 152.5q0 103 29 168.5t77.5 101t109 49.5t123.5 14h2l11 53h110l-20 -63q32 -6 64 -15l16 78h110l-36 -114q37 -18 54 -36l-50 -135q-3 3 -16 10t-33 16l-39 -125l-39 -166q57 10 95.5 25t61.5 25v-158
q-26 -16 -75.5 -31.5t-119.5 -22.5l-13 -56h-110l17 50q-34 0 -65 3l-12 -53h-110zM392 324l-40 -171q25 -4 57 -4h24l59 177l32 153q-19 6 -38.5 11t-39.5 8zM229 322q0 -50 12 -83t34 -52l47 139l36 172q-63 -10 -96 -50.5t-33 -125.5z" />
    <glyph glyph-name="franc" unicode="&#x20a3;" horiz-adv-x="645" 
d="M60 78v90l80 -4v382l-20 102l20 60h495l50 -30l-66 -140l-90 10h-219l10 -110h269v-155h-121l-148 10v-132l153 7l1 -90l-146 6l3 -25l-11 -59h-180v82z" />
    <glyph glyph-name="lira" unicode="&#x20a4;" horiz-adv-x="748" 
d="M90 0l-10 60l50 100v92l-90 -4v90l90 -4v48l-90 -4v90l94 -5q14 125 83 190t178 65q51 0 94.5 -8t65.5 -18l81 -71l-90 -135l-151 68q-78 0 -84 -93l147 7l1 -90l-149 7v-54l148 7l1 -90l-149 7v-95h259l71 24l88 -120l-49 -64h-589z" />
    <glyph glyph-name="uni20A6" unicode="&#x20a6;" horiz-adv-x="859" 
d="M129 0v252l-89 -5v90l89 -5v50l-89 -5v90l89 -5v85l-20 100l20 60h161l202 -272l48 -83h10v355h189v-60l-10 -100v-85l89 5l1 -90l-90 5v-50l89 5l1 -90l-90 5v-252h-157l-251 352h-10v-60l10 -292h-192z" />
    <glyph glyph-name="peseta" unicode="&#x20a7;" horiz-adv-x="849" 
d="M149 0v413l-89 -5v90l89 -5v54l-20 101l20 60h320q68 0 124.5 -19.5t92 -66.5t41.5 -129l91 5l1 -90l-94 5q-10 -75 -49 -118.5t-100 -62.5t-137 -19h-110v-52l10 -100l-10 -61h-180zM329 370h98q52 0 83 19.5t31 72.5q0 37 -15 55.5t-41.5 24.5t-61.5 6h-104z" />
    <glyph glyph-name="uni20A8" unicode="&#x20a8;" horiz-adv-x="707" 
d="M50 173v157h132q43 0 72 20t38 58l-242 -10v90l241 -10q-10 36 -40 53t-73 17h-128v160h521v-100h-131q16 -24 26.5 -55t14.5 -68l90 3v-90l-90 3q-8 -77 -45 -126.5t-95 -74.5l5 -5l79 -84l67 -51v-60h-235l-120 173h-87z" />
    <glyph glyph-name="uni20A9" unicode="&#x20a9;" horiz-adv-x="1239" 
d="M20 247v90l133 -7l-16 53l-117 -6v90l94 -5l-25 87l-30 99v60h190l125 -516h20l85 516h283l68 -389l16 -127h20l124 516h188v-60l-30 -99l-25 -87l95 5l1 -90l-119 6l-15 -53l133 7l1 -90l-156 8l-73 -255h-259l-103 522h-21l-17 -121l-82 -401h-259l-74 255z" />
    <glyph glyph-name="dong" unicode="&#x20ab;" horiz-adv-x="664" 
d="M215 111q-47 0 -90.5 21t-71.5 66t-28 117q0 78 26.5 125.5t70 68.5t93.5 21q47 0 75.5 -11.5t41.5 -22.5l13 -11l-5 80l-95 -5v90l90 -4v1l10 60h181v-63l97 6l1 -90l-98 6v-295l20 -90l-20 -61h-171v49l-10 5l-15 -16t-44 -31.5t-71 -15.5zM290 252l55 14v73
q0 21 -15 35.5t-40 14.5q-75 0 -75 -74q0 -37 20.5 -50t54.5 -13zM99 0v60h440v-60h-440z" />
    <glyph glyph-name="Euro" unicode="&#x20ac;" horiz-adv-x="709" 
d="M40 248v90l80 -3v19v27l-80 -3v90l89 -4q18 95 64 150.5t114.5 79.5t151.5 24q69 0 110 -8t64 -19t36 -20v-155q-13 11 -60.5 24.5t-109.5 13.5q-94 0 -135.5 -23.5t-54.5 -71.5l212 9l1 -90l-222 9q-1 -14 -1 -33v-25l222 9l1 -90l-214 9q13 -52 55 -75t137 -23
q58 0 88 3t47 7.5t34 8.5v-158q-17 -6 -39.5 -13t-64 -12t-116.5 -5q-84 0 -151 24.5t-111 82t-60 155.5z" />
    <glyph glyph-name="uni20AD" unicode="&#x20ad;" horiz-adv-x="829" 
d="M130 0v320l-90 -2v90l90 -2v138l-20 101l20 63h180v-120l-10 -179h60l161 299h199v-60l-173 -246l216 6l1 -90l-207 6l133 -165l99 -99v-60h-225l-182 265l-72 -10v-135l10 -60l-10 -60h-180z" />
    <glyph glyph-name="uni20B1" unicode="&#x20b1;" horiz-adv-x="799" 
d="M109 0v333l-89 -5v90l89 -5v50l-89 -5v90l89 -5v4l-20 101l20 60h320q61 0 112.5 -15.5t87.5 -51.5t51 -98l98 5l1 -90l-91 5v-1q0 -26 -3 -49l93 5l1 -90l-117 6q-33 -67 -102.5 -94t-160.5 -27h-110v-52l10 -100l-10 -61h-180zM289 370h98q52 0 83 19.5t31 72.5
q0 37 -15 55.5t-41.5 24.5t-61.5 6h-104z" />
    <glyph glyph-name="uni20B2" unicode="&#x20b2;" horiz-adv-x="801" 
d="M362 -60v52q-67 5 -123.5 24.5t-99 60.5t-66 109t-23.5 168q0 102 26 170.5t70.5 109.5t100 60t115.5 23v53h90v-54q31 -2 59 -6.5t52 -9.5l146 -79l-70 -165l-187 74v-380q32 1 54 5l33 6v66l-43 138h234l11 -60l-22 -83v-190q-10 -4 -46.5 -13t-93 -17.5t-127.5 -11.5
v-50h-90zM240 353q0 -90 31 -137.5t91 -60.5v382q-53 -13 -87.5 -57t-34.5 -127z" />
    <glyph glyph-name="uni20B5" unicode="&#x20b5;" horiz-adv-x="710" 
d="M334 -60l2 51q-51 3 -103 20t-96 53.5t-70.5 99.5t-26.5 158q0 93 27 155t70.5 99t96 55t102.5 22l-2 57h130l-3 -62q74 -12 129.5 -39t79.5 -51l-60 -145q-10 10 -30.5 26.5t-52 30.5t-74.5 19l-9 -171l8 -158q71 4 115.5 22t82.5 36v-168q-27 -17 -72.5 -32.5
t-116.5 -23.5l3 -54h-130zM219 322q0 -80 33 -114.5t91 -43.5l6 154l-6 167q-61 -11 -92.5 -48t-31.5 -115z" />
    <glyph glyph-name="uni20B9" unicode="&#x20b9;" horiz-adv-x="621" 
d="M50 173v157h132q43 0 72 20t38 58l-242 -10v90l241 -10q-10 36 -40 53t-73 17h-128v160h521v-100h-131q16 -24 26.5 -55t14.5 -68l90 3v-90l-90 3q-8 -77 -45 -126.5t-95 -74.5l5 -5l79 -84l67 -51v-60h-235l-120 173h-87z" />
    <glyph glyph-name="uni20BA" unicode="&#x20ba;" horiz-adv-x="736" 
d="M40 123v102l102 48v64l-102 -48v102l102 48v269h180l20 -60l-20 -111v-14l123 58v-102l-123 -58v-64l123 58v-102l-123 -58v-95h194v144l180 -20v-72q0 -37 -17 -66.5t-45 -57.5l-28 -25q-26 -26 -67 -44.5t-88 -18.5h-309l-10 60l10 100v11z" />
    <glyph glyph-name="uni20BC" unicode="&#x20bc;" horiz-adv-x="796" 
d="M40 0v164q0 191 73.5 283t235.5 103l-16 161h130l-16 -161q162 -10 235.5 -101.5t73.5 -284.5v-164h-183v164q0 81 -7.5 139.5t-34.5 92.5t-85 42l17 -315h-130l16 314q-56 -10 -82.5 -45.5t-34 -93.5t-7.5 -134v-164h-185z" />
    <glyph glyph-name="uni20BD" unicode="&#x20bd;" horiz-adv-x="739" 
d="M20 78v90l90 -4v383l-20 101l20 60h320q73 0 131.5 -22.5t93 -76t34.5 -147.5t-37 -146t-102.5 -72.5t-149.5 -20.5h-110v-62v-1l201 8l1 -90l-194 8l2 -25l-10 -61h-180v82zM290 370h98q52 0 83 19.5t31 72.5q0 37 -15 55.5t-41.5 24.5t-61.5 6h-104z" />
    <glyph glyph-name="uni2113" unicode="&#x2113;" horiz-adv-x="570" 
d="M394 656q-17 0 -20.5 -21.5t-3.5 -43.5v-151q28 35 44.5 74t16.5 82q0 26 -9 43t-28 17zM68 107l-48 90q41 21 85 44t86 50v290q0 89 51 132.5t132 43.5q65 0 102 -38.5t37 -112.5q0 -91 -39 -166.5t-104 -137.5v-131q0 -25 9.5 -35.5t30.5 -10.5q26 0 48.5 14.5t37 28.5
l14.5 14l30 -131q-17 -19 -47 -33t-65.5 -21t-69.5 -7q-76 0 -121.5 39.5t-45.5 121.5v20q-30 -17 -61 -33t-62 -31z" />
    <glyph glyph-name="uni2116" unicode="&#x2116;" horiz-adv-x="1158" 
d="M80 0v547l-20 100l20 60h161l202 -272l48 -83h10v355h189v-60l-10 -100v-547h-157l-251 352h-10v-60l10 -292h-192zM927 173q-82 0 -126.5 38.5t-44.5 125.5t44.5 125.5t126.5 38.5q83 0 126 -38.5t43 -125.5t-43 -125.5t-126 -38.5zM927 260q27 0 37.5 20t10.5 57
t-10.5 57.5t-37.5 20.5q-28 0 -39 -20.5t-11 -57.5t11 -57t39 -20zM758 0v80h340v-80h-340z" />
    <glyph glyph-name="trademark" unicode="&#x2122;" horiz-adv-x="535" 
d="M91 468v166l-61 -3v51h177v-51l-62 3v-118l3 -30l-3 -18h-54zM239 468v165l-6 31l7 18h57l60 -115h6l49 115h60l3 -18l-3 -29v-167h-55l1 26v84h-3l-12 -29l-28 -51h-36l-42 80h-3v-24l3 -86h-58z" />
    <glyph glyph-name="estimated" unicode="&#x212e;" horiz-adv-x="807" 
d="M404 0q-77 0 -145 26.5t-119 72.5q-51 45 -80.5 106t-29.5 131t29.5 131t80.5 107q51 45 119 71.5t145 26.5t145 -26.5t119 -71.5q50 -46 79.5 -107t29.5 -131v-9h-605q-5 0 -5 -4v-183q0 -10 9 -21q43 -46 101.5 -72.5t127.5 -26.5q72 0 133.5 30t106.5 81h55
q-51 -60 -128 -95.5t-168 -35.5zM172 346h464q5 0 5 5v184q0 12 -10 22q-45 45 -102.5 70t-123.5 25q-69 0 -126 -26.5t-102 -71.5q-10 -10 -10 -23v-180q0 -5 5 -5z" />
    <glyph glyph-name="oneeighth" unicode="&#x215b;" horiz-adv-x="838" 
d="M90 285v254.5h-60v79.5l152 20l5 -30l-5 -50v-274h-92zM62 -80l484 788h94l-484 -788h-94zM670 -10q-27.5 0 -54 5.25t-48.25 17.5t-34.75 33.25t-13 52.5q0 32 13.5 51.5t35.5 30q-18 13 -26 32.25t-8 43.25q0 29 15.75 51t45.75 34.75t72.5 12.75q64 0 99 -25.5t35 -73
q0 -26.5 -7.5 -44.75t-22 -29.75q21 -10.5 32.75 -30.25t11.75 -52.25q0 -31.5 -12.5 -52.5t-33.75 -33.25t-47.75 -17.5t-54 -5.25zM670 208q18.5 0 28.5 9.75t10 22.25q0 13 -10 21t-28.5 8q-18 0 -29.25 -7.25t-11.25 -21.75q0 -14 11.25 -23t29.25 -9zM670 75
q27 0 40.25 8.75t13.25 20.75q0 15 -12.25 24.75t-33 14t-46.25 3.25q-6 -6.5 -10.25 -16t-4.25 -20q0 -15.5 12.75 -25.5t39.75 -10z" />
    <glyph glyph-name="threeeighths" unicode="&#x215c;" horiz-adv-x="951" 
d="M140 285q-16 0 -30.25 1t-26.75 3l-63 28.5l25 79.5l100 -27.5q29 0 42 9.75t13 24.75q0 13.5 -9.5 19t-32 5.5h-62v80.5h56q17 0 27.25 7t10.25 19.5q0 16 -9.5 22.25t-27 6.25q-25 0 -48 -5t-41 -11.75t-29.5 -11.75v85q10 5 28.5 11.5t44.25 11.5t56.25 5
q56.5 0 85.75 -24.75t29.25 -69.75q0 -26 -10.75 -42.75t-23.25 -26.75q21 -9.5 35.25 -28.25t14.25 -51.75q0 -119.5 -154.5 -119.5zM175 -80l484 788h94l-484 -788h-94zM783 -10q-27.5 0 -54 5.25t-48.25 17.5t-34.75 33.25t-13 52.5q0 32 13.5 51.5t35.5 30
q-18 13 -26 32.25t-8 43.25q0 29 15.75 51t45.75 34.75t72.5 12.75q64 0 99 -25.5t35 -73q0 -26.5 -7.5 -44.75t-22 -29.75q21 -10.5 32.75 -30.25t11.75 -52.25q0 -31.5 -12.5 -52.5t-33.75 -33.25t-47.75 -17.5t-54 -5.25zM783 208q18.5 0 28.5 9.75t10 22.25q0 13 -10 21
t-28.5 8q-18 0 -29.25 -7.25t-11.25 -21.75q0 -14 11.25 -23t29.25 -9zM783 75q27 0 40.25 8.75t13.25 20.75q0 15 -12.25 24.75t-33 14t-46.25 3.25q-6 -6.5 -10.25 -16t-4.25 -20q0 -15.5 12.75 -25.5t39.75 -10z" />
    <glyph glyph-name="fiveeighths" unicode="&#x215d;" horiz-adv-x="964" 
d="M158.5 285q-19 0 -35.25 1t-30.25 3l-73 23l25 89.5l103.5 -32.5q26.5 0 41.25 8.75t14.75 30.75q0 16.5 -11.25 25.5t-39.25 9h-114v201h242.5v-84.5l-125 5h-21v-48h33.5q69.5 0 101 -29t31.5 -81q0 -38.5 -17.75 -65.75t-50 -41.5t-76.25 -14.25zM188 -80l484 788h94
l-484 -788h-94zM796 -10q-27.5 0 -54 5.25t-48.25 17.5t-34.75 33.25t-13 52.5q0 32 13.5 51.5t35.5 30q-18 13 -26 32.25t-8 43.25q0 29 15.75 51t45.75 34.75t72.5 12.75q64 0 99 -25.5t35 -73q0 -26.5 -7.5 -44.75t-22 -29.75q21 -10.5 32.75 -30.25t11.75 -52.25
q0 -31.5 -12.5 -52.5t-33.75 -33.25t-47.75 -17.5t-54 -5.25zM796 208q18.5 0 28.5 9.75t10 22.25q0 13 -10 21t-28.5 8q-18 0 -29.25 -7.25t-11.25 -21.75q0 -14 11.25 -23t29.25 -9zM796 75q27 0 40.25 8.75t13.25 20.75q0 15 -12.25 24.75t-33 14t-46.25 3.25
q-6 -6.5 -10.25 -16t-4.25 -20q0 -15.5 12.75 -25.5t39.75 -10z" />
    <glyph glyph-name="seveneighths" unicode="&#x215e;" horiz-adv-x="928" 
d="M65 280l83.5 222l26.5 52.5h-15l-145 -10v89.5h262v-60.5l-82.5 -213.5l-25 -80h-104.5zM152 -80l484 788h94l-484 -788h-94zM760 -10q-27.5 0 -54 5.25t-48.25 17.5t-34.75 33.25t-13 52.5q0 32 13.5 51.5t35.5 30q-18 13 -26 32.25t-8 43.25q0 29 15.75 51t45.75 34.75
t72.5 12.75q64 0 99 -25.5t35 -73q0 -26.5 -7.5 -44.75t-22 -29.75q21 -10.5 32.75 -30.25t11.75 -52.25q0 -31.5 -12.5 -52.5t-33.75 -33.25t-47.75 -17.5t-54 -5.25zM760 208q18.5 0 28.5 9.75t10 22.25q0 13 -10 21t-28.5 8q-18 0 -29.25 -7.25t-11.25 -21.75
q0 -14 11.25 -23t29.25 -9zM760 75q27 0 40.25 8.75t13.25 20.75q0 15 -12.25 24.75t-33 14t-46.25 3.25q-6 -6.5 -10.25 -16t-4.25 -20q0 -15.5 12.75 -25.5t39.75 -10z" />
    <glyph glyph-name="partialdiff" unicode="&#x2202;" horiz-adv-x="601" 
d="M258 -10q-68 0 -120.5 28t-82.5 80t-30 125q0 115 59.5 173.5t162.5 58.5q41 0 69 -9.5t43.5 -20.5t19.5 -18q0 39 -6 78t-22 70.5t-45 51t-76 19.5q-42 0 -79 -13.5t-64 -32t-42 -33.5l50 161q20 16 59.5 32t103.5 16q144 0 218.5 -99t74.5 -283q0 -118 -36.5 -204
t-102.5 -133t-154 -47zM275 91q41 0 67.5 44t26.5 117q0 42 -21.5 72.5t-62.5 30.5q-49 0 -68.5 -41t-19.5 -111q0 -58 23 -85t55 -27z" />
    <glyph glyph-name="emptyset" unicode="&#x2205;" horiz-adv-x="796" 
d="M398 -10q-116 0 -198.5 48t-126 130.5t-43.5 184.5q0 76 25 142.5t72 116.5t115.5 78.5t155.5 28.5t155.5 -28.5t115.5 -78.5t72 -116.5t25 -142.5q0 -102 -43.5 -184.5t-126 -130.5t-198.5 -48zM398 72q89 0 150 36.5t93 100t32 144.5t-32 145t-93 101.5t-150 37.5
q-87 0 -148.5 -37.5t-94 -101.5t-32.5 -145t32.5 -144.5t94 -100t148.5 -36.5zM119 -27l484 788h93l-484 -788h-93z" />
    <glyph glyph-name="product" unicode="&#x220f;" horiz-adv-x="769" 
d="M110 -160v708h-60v160h669v-160h-50v-708h-180v708h-199v-708h-180z" />
    <glyph glyph-name="summation" unicode="&#x2211;" horiz-adv-x="828" 
d="M40 -160l-10 40l80 130l171 291l-241 347v60h655l50 -30l-66 -140l-90 10h-269l184 -272l-55 -50l-148 -226h378l119 -96l-59 -64h-699z" />
    <glyph glyph-name="minus" unicode="&#x2212;" horiz-adv-x="520" 
d="M50 250v100h420v-100h-420z" />
    <glyph glyph-name="uni2215" unicode="&#x2215;" horiz-adv-x="298" 
d="M-140 -80l484 788h94l-484 -788h-94z" />
    <glyph glyph-name="uni2219" unicode="&#x2219;" horiz-adv-x="430" 
d="M215 153l-165 165l165 165l165 -165z" />
    <glyph glyph-name="radical" unicode="&#x221a;" horiz-adv-x="818" 
d="M201 -160l-130 273h-51v110h215l9 -60l52 -139h3l14 39l309 693h196l-434 -916h-183z" />
    <glyph glyph-name="infinity" unicode="&#x221e;" horiz-adv-x="906" 
d="M246 120q-73 0 -116 28t-61.5 69.5t-18.5 81.5q0 43 21.5 83.5t63.5 66.5t101 26q57 0 99.5 -17.5t73.5 -42.5t54 -47q6 8 22 25.5t41 36.5t58 32t73 13q75 0 118.5 -27.5t62 -68t18.5 -81.5q0 -40 -22.5 -81.5t-66.5 -69t-110 -27.5q-51 0 -106.5 15.5t-106.5 67.5
q-38 -40 -85 -61.5t-113 -21.5zM656 239q25 0 41.5 15.5t16.5 39.5q0 32 -21.5 51t-56.5 19q-31 0 -52.5 -11t-36 -24.5t-24.5 -23.5q31 -30 59 -48t74 -18zM276 229q32 0 63 13t42 25q-12 14 -29.5 32t-41.5 31.5t-54 13.5q-29 0 -46.5 -13.5t-17.5 -36.5q0 -29 22 -47
t62 -18z" />
    <glyph glyph-name="integral" unicode="&#x222b;" horiz-adv-x="688" 
d="M168 -163q-67 0 -102.5 33t-35.5 85q0 45 25 72t65 27q39 0 60 -15.5t28 -38.5q18 0 27 15t12.5 38t3.5 48v334q0 99 30.5 171t88 111t138.5 39q74 0 112 -35.5t38 -86.5q0 -44 -25.5 -70t-71.5 -26q-40 0 -62.5 21.5t-22.5 55.5q-24 -5 -34.5 -35t-10.5 -107l-1 -315
q0 -96 -23.5 -158t-62 -98t-85 -50.5t-91.5 -14.5z" />
    <glyph glyph-name="approxequal" unicode="&#x2248;" horiz-adv-x="520" 
d="M363 340q-34 0 -69.5 15t-69 30t-62.5 15q-34 0 -65 -17.5t-47 -31.5v99l13 12.5t38.5 25t60.5 12.5q30 0 64.5 -15t70 -30t66.5 -15q24 0 46 9.5t38.5 21t22.5 18.5v-99l-11.5 -12.5t-35 -25t-60.5 -12.5zM363 120q-34 0 -69.5 15t-69 30t-62.5 15q-34 0 -65 -17.5
t-47 -31.5v99l13 12.5t38.5 25t60.5 12.5q30 0 64.5 -15t70 -30t66.5 -15q24 0 46 9.5t38.5 21t22.5 18.5v-99l-11.5 -12.5t-35 -25t-60.5 -12.5z" />
    <glyph glyph-name="notequal" unicode="&#x2260;" horiz-adv-x="520" 
d="M120 40l39 110h-109v100h145l36 100h-181v100h217l36 100h95l-36 -100h108v-100h-144l-36 -100h180v-100h-216l-39 -110h-95z" />
    <glyph glyph-name="lessequal" unicode="&#x2264;" horiz-adv-x="520" 
d="M470 110v100l-324 90l324 90v100l-420 -130v-120zM50 0v100h420v-100h-420z" />
    <glyph glyph-name="greaterequal" unicode="&#x2265;" horiz-adv-x="520" 
d="M50 110v100l324 90l-324 90v100l420 -130v-120zM50 0v100h420v-100h-420z" />
    <glyph glyph-name="lozenge" unicode="&#x25ca;" horiz-adv-x="560" 
d="M280 0l-250 310l250 311l250 -311zM280 174l110 136l-110 137l-110 -137z" />
    <glyph glyph-name="circle" unicode="&#x25cb;" horiz-adv-x="796" 
d="M398 -10q-116 0 -198.5 48t-126 130.5t-43.5 184.5q0 76 25 142.5t72 116.5t115.5 78.5t155.5 28.5t155.5 -28.5t115.5 -78.5t72 -116.5t25 -142.5q0 -102 -43.5 -184.5t-126 -130.5t-198.5 -48zM398 72q89 0 150 36.5t93 100t32 144.5t-32 145t-93 101.5t-150 37.5
q-87 0 -148.5 -37.5t-94 -101.5t-32.5 -145t32.5 -144.5t94 -100t148.5 -36.5z" />
    <glyph glyph-name="uni27E8" unicode="&#x27e8;" horiz-adv-x="318" 
d="M288 -140l-139 479l139 470h-120l-138 -470l138 -479h120z" />
    <glyph glyph-name="uni27E9" unicode="&#x27e9;" horiz-adv-x="318" 
d="M30 -140l139 479l-139 470h120l138 -470l-138 -479h-120z" />
    <glyph glyph-name="uniF8FF" unicode="&#xf8ff;" horiz-adv-x="4365" 
d="M1939 715q14 0 27 -1.5t26 -6.5q40 -13 57.5 -41t17.5 -61q0 -46 -28 -73t-69 -27q-32 0 -50 13.5t-21.5 31t7.5 28.5q6 6 3.5 13t-19.5 7h-2q-27 -1 -53.5 -25t-26.5 -77q0 -8 -9 -8q-7 0 -18.5 10t-14.5 29q-8 44 8 83t52 69q20 16 50 26t63 10zM3127 676
q8 -13 9.5 -34.5t-1.5 -42.5t-11 -33q-11 -17 -31.5 -29.5t-64.5 -12.5q-31 0 -71 2.5t-79.5 6.5t-70 6.5t-43.5 2.5v-453l19 -89h-177l8 67v385q0 40 14 61t23 29v7q-20 0 -45 1.5t-52 1.5q-24 0 -49 -2t-48 -8q-36 -9 -49.5 -23l-13.5 -14q0 -18 13.5 -39t32.5 -40
q13 -13 28 -23.5t26 -17l11 -6.5l-4 -12t-13.5 -28t-27 -28t-45.5 -12q-41 0 -70 26t-29 80q0 35 9.5 68t28.5 52q23 23 29.5 46t15.5 41q18 35 49 45.5t75 10.5q61 0 139 -3.5t160.5 -7.5t154.5 -4zM244 609q30 0 68.5 -1t74 -2t59 -2l23.5 -1v-86l118 -247l135 320l163 15
v-516l22 -89h-178l8 67v329h-8l-91 -307l-74 -89l-169 357h-8v-267l21 -90h-124l8 67v367q0 18 5.5 32.5t9.5 18.5v7h-41q-25 0 -54 -1.5t-49 -7.5q-35 -11 -49 -24l-14 -13q0 -4 3.5 -16t19.5 -27q12 -12 28 -17t28 -6l12 -1l-1.5 -15t-9 -34t-23.5 -34t-45 -15
q-43 0 -67.5 25.5t-24.5 62.5q0 20 8.5 47t33.5 52q23 23 35.5 45t22.5 40q17 35 48 45.5t76 10.5zM1532 461h36t50 -0.5t37 -0.5q27 0 55 -6t52 -21t39 -43t15 -73t-15.5 -75t-37.5 -49q-28 -25 -68 -37t-84 -12q-32 0 -45.5 -10.5t-13.5 -25.5q0 -10 6.5 -17.5t28 -11.5
t66.5 -4q54 0 99.5 -10t72.5 -37.5t27 -78.5q0 -56 -32 -95.5t-86 -59.5t-119 -20q-90 0 -144.5 28.5t-54.5 77.5q0 23 16.5 39.5t38 30.5t35.5 28q11 11 9.5 26t-12.5 27q-18 18 -31.5 34.5t-13.5 38.5q0 23 16 41.5t28 30.5q-16 17 -30.5 34.5t-23.5 43.5t-9 65
q0 29 14 55t32.5 45.5t32.5 30.5zM4111 460q53 0 101 -19.5t71 -59.5q24 -43 28 -86.5t4 -94.5h-182q-13 0 -15.5 5.5t3.5 11.5l53 63q-6 31 -23 47.5t-36 23t-33 6.5l-11.5 -10.5t-23.5 -36.5t-12 -74q0 -47 19.5 -80t51.5 -50t70 -17l121 36v-125q-9 -3 -41 -9t-101 -6
q-126 0 -193.5 60.5t-67.5 178.5q0 78 30.5 130.5t80 79t106.5 26.5zM3647 454q54 0 97.5 -23.5t69 -71t25.5 -120.5q0 -118 -55 -186t-150 -68q-28 0 -51.5 5t-37.5 10v-58q0 -59 -13.5 -88t-32.5 -38.5t-35 -9.5h-77l23 135v438l-8 67l100 7l37 -22q17 5 41 14t67 9z
M1075 453h116q92 0 131.5 -41t39.5 -145v-178l23 -89h-91q-23 0 -35.5 12.5t-17.5 34.5l-126 -62q-73 0 -107 29t-34 75q0 20 9 42t28 40q23 23 58.5 39.5t77 25.5t81.5 9v22q0 52 -15.5 75.5t-38 30t-43.5 6.5v-92l-13 -2t-31 -2t-36.5 3.5t-29.5 14.5q-15 16 -19 34
t-3.5 31l0.5 13zM2034 453v-364l22 -89h-164l7 67v317l-7 51q2 0 14.5 -1.5t30.5 -1.5q22 0 48.5 4t48.5 17zM2280 452q5 -25 3.5 -53t-14.5 -62q-8 -22 -13.5 -47.5t-5.5 -58.5q0 -44 18 -76t48.5 -49t65.5 -17l90 29v-118q-5 -2 -27 -5.5t-51.5 -6t-59.5 -2.5
q-109 0 -167.5 60t-58.5 177q0 82 38 133t90 75q13 6 23.5 11.5t20.5 9.5zM3309 446l-8 -89v-236q0 -106 -6 -173t-20.5 -107.5t-40.5 -69.5q-41 -48 -97.5 -69t-129.5 -21q-51 0 -94.5 20.5t-70 55.5t-26.5 78q0 46 30 79t88 33q16 0 32.5 -3t22.5 -5q9 10 7.5 31t-36.5 47
q-35 27 -52 69.5t-17 109.5v148q0 24 0.5 47.5t0.5 39v15.5h142l-9 -75v-177q0 -61 23.5 -83t54.5 -22q32 0 48.5 11.5l16.5 11.5v334h141zM1642 223q13 14 23 29t10 46q0 40 -19 60.5t-45 20.5q-28 0 -50 -22v-8q0 -37 13 -65.5t31.5 -44.5t36.5 -16zM3641 89h8
q14 15 28.5 43.5t14.5 86.5q0 34 -14 65.5t-37 52t-49 20.5q-15 -10 -31 -21l-16 -11v-207q14 -13 32.5 -19.5t36 -8t27.5 -1.5zM1160 89q18 0 39 7t29 16v52l-96 15q-20 -20 -20 -46q0 -19 13 -31.5t35 -12.5zM3048 -172q-13 0 -20.5 5.5t-21.5 5.5q-12 0 -21.5 -7
t-9.5 -20q0 -19 17 -30.5t45 -11.5q39 0 68.5 24.5t46.5 66.5t17 94v60q-5 -5 -30.5 -17.5t-66.5 -12.5q-31 0 -40.5 -23.5t19.5 -61.5q8 -11 13.5 -22.5t5.5 -23.5q0 -11 -5.5 -18.5t-16.5 -7.5zM1619 -112q68 0 68 37q0 19 -19.5 36.5t-47.5 28.5t-56 11l-6 -14.5
t-6 -37.5q0 -25 18 -43t49 -18zM3665 -211q34 0 64 -13.5t49 -39t19 -63.5q0 -48 -33 -86t-85.5 -59.5t-113.5 -21.5q-32 0 -63 6.5t-71 25.5t-100 56q-48 30 -71.5 44.5t-43.5 27.5q-6 4 -4.5 10.5t12.5 11.5q14 7 31.5 9.5t35.5 2.5q23 0 45.5 -4.5t55.5 -17.5t84 -40
q68 -35 118.5 -46t75.5 -11q12 12 12.5 34.5t-14 41t-48.5 18.5q-25 0 -58 -4t-54 -4h-12q5 13 26 41.5t52 51.5q40 29 91 29zM3415 -499q-12 -27 -2.5 -53t32.5 -38q18 -9 27.5 -12.5t12.5 -7.5q0 -32 -19.5 -51t-48.5 -19q-40 0 -59 24.5t-19 52.5q0 40 28 67q14 15 28 26
t20 11z" />
    <glyph glyph-name="fi" unicode="&#xfb01;" horiz-adv-x="677" 
d="M73 0v324l-53 100l53 48q-5 17 -7.5 45.5t-2.5 46.5q0 57 26.5 100t73.5 67.5t106 24.5q28 0 59.5 -2.5t54.5 -8.5l70 -56l67 67l127 -127l-127 -128l-222 114q-34 0 -50 -24.5t-16 -54.5q0 -22 7 -39t14 -25h357v-472h-180v331l-6 21h-171v-190l10 -101l-10 -61h-180z
" />
    <glyph glyph-name="fl" unicode="&#xfb02;" horiz-adv-x="674" 
d="M73 0v324l-53 100l53 48q-5 17 -7.5 45.5t-2.5 46.5q0 57 26.5 100t73.5 67.5t106 24.5q28 0 59.5 -2.5t54.5 -8.5l51 -37h180v-708h-180v548l-6 30l-130 37q-34 0 -50 -24.5t-16 -54.5q0 -22 7 -39t14 -25h130v-120h-130v-190l10 -101l-10 -61h-180z" />
    <glyph glyph-name="uni03060301" 
d="M-225 530q-90 0 -127.5 39.5t-37.5 100.5h69q0 -9 6.5 -20.5t27 -20.5t62.5 -9t62 9t26 20.5t6 20.5h71q0 -62 -37.5 -101t-127.5 -39zM-289 715l66 192h122v-61l-138 -131h-50z" />
    <glyph glyph-name="uni03060300" 
d="M-225 530q-90 0 -127.5 39.5t-37.5 100.5h69q0 -9 6.5 -20.5t27 -20.5t62.5 -9t62 9t26 20.5t6 20.5h71q0 -62 -37.5 -101t-127.5 -39zM-225 708l-138 131v61h123l66 -192h-51z" />
    <glyph glyph-name="uni03060309" 
d="M-225 530q-90 0 -127.5 39.5t-37.5 100.5h69q0 -9 6.5 -20.5t27 -20.5t62.5 -9t62 9t26 20.5t6 20.5h71q0 -62 -37.5 -101t-127.5 -39zM-265 708v10q0 21 9.5 36t22.5 27.5t22.5 24t9.5 24.5q0 7 -5 12.5t-18 5.5q-24 0 -45.5 -13t-35.5 -27l-40 70q14 14 49 32t95 18
q46 0 71 -19.5t25 -55.5q0 -29 -12 -48.5t-28.5 -34t-28.5 -28.5t-12 -34h-79z" />
    <glyph glyph-name="uni03060303" 
d="M-225 530q-90 0 -127.5 39.5t-37.5 100.5h69q0 -9 6.5 -20.5t27 -20.5t62.5 -9t62 9t26 20.5t6 20.5h71q0 -62 -37.5 -101t-127.5 -39zM-147 718q-33 0 -56 10.5t-41 24.5t-35 24.5t-38 10.5l-19 -60h-71q0 62 25 106t75 44q31 0 54 -10.5t41.5 -24.5t36.5 -24.5
t39 -10.5l19 60h71q0 -68 -24 -109t-77 -41z" />
    <glyph glyph-name="uni03020301" 
d="M-420 540l109 140h101l108 -140h-81l-77 58l-80 -58h-80zM-319 725l66 192h122v-61l-138 -131h-50z" />
    <glyph glyph-name="uni03020300" 
d="M-420 540l109 140h101l108 -140h-81l-77 58l-80 -58h-80zM-255 718l-138 131v61h123l66 -192h-51z" />
    <glyph glyph-name="uni03020309" 
d="M-420 540l109 140h101l108 -140h-81l-77 58l-80 -58h-80zM-295 718v10q0 21 9.5 36t22.5 27.5t22.5 24t9.5 24.5q0 7 -5 12.5t-18 5.5q-24 0 -45.5 -13t-35.5 -27l-40 70q14 14 49 32t95 18q46 0 71 -19.5t25 -55.5q0 -29 -12 -48.5t-28.5 -34t-28.5 -28.5t-12 -34h-79z
" />
    <glyph glyph-name="uni03020303" 
d="M-420 540l109 140h101l108 -140h-81l-77 58l-80 -58h-80zM-177 728q-33 0 -56 10.5t-41 24.5t-35 24.5t-38 10.5l-19 -60h-71q0 62 25 106t75 44q31 0 54 -10.5t41.5 -24.5t36.5 -24.5t39 -10.5l19 60h71q0 -68 -24 -109t-77 -41z" />
    <glyph glyph-name="eight.dnom" horiz-adv-x="338" 
d="M170 -10q-27.5 0 -54 5.25t-48.25 17.5t-34.75 33.25t-13 52.5q0 32 13.5 51.5t35.5 30q-18 13 -26 32.25t-8 43.25q0 29 15.75 51t45.75 34.75t72.5 12.75q64 0 99 -25.5t35 -73q0 -26.5 -7.5 -44.75t-22 -29.75q21 -10.5 32.75 -30.25t11.75 -52.25
q0 -31.5 -12.5 -52.5t-33.75 -33.25t-47.75 -17.5t-54 -5.25zM170 208q18.5 0 28.5 9.75t10 22.25q0 13 -10 21t-28.5 8q-18 0 -29.25 -7.25t-11.25 -21.75q0 -14 11.25 -23t29.25 -9zM170 75q27 0 40.25 8.75t13.25 20.75q0 15 -12.25 24.75t-33 14t-46.25 3.25
q-6 -6.5 -10.25 -16t-4.25 -20q0 -15.5 12.75 -25.5t39.75 -10z" />
    <glyph glyph-name="eight.numr" horiz-adv-x="338" 
d="M170 280q-27.5 0 -54 5.25t-48.25 17.5t-34.75 33.25t-13 52.5q0 32 13.5 51.5t35.5 30q-18 13 -26 32.25t-8 43.25q0 29 15.75 51t45.75 34.75t72.5 12.75q64 0 99 -25.5t35 -73q0 -26.5 -7.5 -44.75t-22 -29.75q21 -10.5 32.75 -30.25t11.75 -52.25
q0 -31.5 -12.5 -52.5t-33.75 -33.25t-47.75 -17.5t-54 -5.25zM170 498q18.5 0 28.5 9.75t10 22.25q0 13 -10 21t-28.5 8q-18 0 -29.25 -7.25t-11.25 -21.75q0 -14 11.25 -23t29.25 -9zM170 365q27 0 40.25 8.75t13.25 20.75q0 15 -12.25 24.75t-33 14t-46.25 3.25
q-6 -6.5 -10.25 -16t-4.25 -20q0 -15.5 12.75 -25.5t39.75 -10z" />
    <glyph glyph-name="f_f_ij" horiz-adv-x="1364" 
d="M73 0v324l-53 100l53 48q-5 17 -7.5 45.5t-2.5 46.5q0 57 26.5 100t73.5 67.5t106 24.5q28 0 59.5 -2.5t54.5 -8.5l127 -101l-57 -99l-155 70q-34 0 -50 -24.5t-16 -54.5q0 -22 7 -39t14 -25h200v-120h-200v-190l10 -101l-10 -61h-180zM437 0v324l-53 100l53 48
q-5 17 -7.5 45.5t-2.5 46.5q0 57 26.5 100t73.5 67.5t106 24.5q28 0 59.5 -2.5t54.5 -8.5l70 -56l67 67l127 -127l-127 -128l-222 114q-34 0 -50 -24.5t-16 -54.5q0 -22 7 -39t14 -25h357v-472h-180v331l-6 21h-171v-190l10 -101l-10 -61h-180zM1207 501l-127 128l127 127
l127 -127zM1076 -244q-18 0 -40.5 2.5t-40.5 6.5l-48 49l50 119l88 -34q23 0 31 14.5t7 38t-5 48.5v332l-21 90l20 50h180v-515q0 -105 -57.5 -153t-163.5 -48z" />
    <glyph glyph-name="f_ij" horiz-adv-x="976" 
d="M73 0v324l-53 100l53 48q-5 17 -7.5 45.5t-2.5 46.5q0 57 26.5 100t73.5 67.5t106 24.5q28 0 59.5 -2.5t54.5 -8.5l70 -56l67 67l127 -127l-127 -128l-222 114q-34 0 -50 -24.5t-16 -54.5q0 -22 7 -39t14 -25h357v-472h-180v331l-6 21h-171v-190l10 -101l-10 -61h-180z
M819 502l-127 128l127 127l127 -127zM688 -243q-18 0 -40.5 2.5t-40.5 6.5l-48 49l50 119l88 -34q23 0 31 14.5t7 38t-5 48.5v332l-21 90l20 50h180v-515q0 -105 -57.5 -153t-163.5 -48z" />
    <glyph glyph-name="f_joint" horiz-adv-x="350" 
d="M73 0v324l-53 100l53 48q-5 17 -7.5 45.5t-2.5 46.5q0 57 26.5 100t73.5 67.5t106 24.5q28 0 59.5 -2.5t54.5 -8.5l127 -101l-57 -99l-155 70q-34 0 -50 -24.5t-16 -54.5q0 -22 7 -39t14 -25h200v-120h-200v-190l10 -101l-10 -61h-180z" />
    <glyph glyph-name="five.dnom" horiz-adv-x="328" 
d="M158.5 -5q-19 0 -35.25 1t-30.25 3l-73 23l25 89.5l103.5 -32.5q26.5 0 41.25 8.75t14.75 30.75q0 16.5 -11.25 25.5t-39.25 9h-114v201h242.5v-84.5l-125 5h-21v-48h33.5q69.5 0 101 -29t31.5 -81q0 -38.5 -17.75 -65.75t-50 -41.5t-76.25 -14.25z" />
    </font>
</defs>
</svg>
