<?xml version="1.0" standalone="no"?>
<!DOCTYPE svg PUBLIC "-//W3C//DTD SVG 1.1//EN" "http://www.w3.org/Graphics/SVG/1.1/DTD/svg11.dtd" >
<svg xmlns="http://www.w3.org/2000/svg" xmlns:xlink="http://www.w3.org/1999/xlink" version="1.1">
<metadata>
Created by FontForge 20170731 at Tue Dec  6 09:48:10 2022
 By Aleksey,,,
Copyright (c) 1995 ParaGraph Intl., (c) 1998 ParaType Inc., ParaType Ltd. All rights reserved.
</metadata>
<defs>
<font id="SVN-FuturaBlack" horiz-adv-x="1024" >
  <font-face 
    font-family="SVN-Futura Black"
    font-weight="950"
    font-stretch="normal"
    units-per-em="2048"
    panose-1="2 11 10 2 2 2 4 2 2 3"
    ascent="1638"
    descent="-410"
    x-height="956"
    cap-height="1366"
    bbox="-739 -549 3054 2243"
    underline-thickness="102"
    underline-position="-307"
    unicode-range="U+0020-FB02"
  />
<missing-glyph horiz-adv-x="477" 
 />
    <glyph glyph-name=".notdef" horiz-adv-x="477" 
 />
    <glyph glyph-name=".null" horiz-adv-x="0" 
 />
    <glyph glyph-name="nonmarkingreturn" horiz-adv-x="682" 
 />
    <glyph glyph-name="space" unicode=" " horiz-adv-x="477" 
 />
    <glyph glyph-name="exclam" unicode="!" horiz-adv-x="837" 
d="M653 1366v-844h-477v844h477zM688 205q0 -89 -63 -152q-78 -78 -207 -78q-127 0 -205 78q-63 63 -63 152q0 38 16.5 78.5t46.5 70.5q78 78 205 78q129 0 207 -78q30 -30 46.5 -70.5t16.5 -78.5z" />
    <glyph glyph-name="quotedbl" unicode="&#x22;" horiz-adv-x="854" 
d="M387 1366l-51 -549h-203l-49 549h303zM770 1366l-49 -549h-205l-49 549h303z" />
    <glyph glyph-name="numbersign" unicode="#" horiz-adv-x="1228" 
d="M973 612h207l-35 -239h-209l-59 -373h-275l62 373h-175l-59 -373h-270l61 373h-209l37 239h207l29 170h-207l37 238h207l55 346h270l-57 -346h174l55 346h273l-56 -346h205l-37 -238h-205zM700 612l27 170h-174l-27 -170h174z" />
    <glyph glyph-name="dollar" unicode="$" horiz-adv-x="1447" 
d="M166 166l139 358q81 -71 172 -116q115 -56 219 -56q78 0 121 25q35 21 35 59q0 28 -21 49q-8 8 -20 14t-18 8.5t-23 6.5t-18 4l-125 21q-224 39 -318 137q-44 45 -70 113.5t-26 144.5q0 174 121 295q104 104 262 131v223h270v-211q173 -13 348 -106l-137 -342
q-69 57 -153 88q-74 26 -160 26q-68 0 -100 -26q-27 -19 -27 -58q0 -27 18 -45q18 -13 55.5 -21.5t135.5 -19.5q106 -13 189.5 -42.5t148.5 -94.5q100 -105 100 -262q0 -184 -117 -307q-51 -55 -128.5 -95t-172.5 -51v-252h-270v248q-127 10 -238 54q-101 38 -192 100z" />
    <glyph glyph-name="percent" unicode="%" horiz-adv-x="2105" 
d="M913 1010q0 -154 -104 -258q-119 -119 -330 -119q-208 0 -327 119q-105 105 -105 258t105 258q118 118 327 118q212 0 330 -118q104 -104 104 -258zM401 1012q0 -47 27 -74q20 -20 55 -20q36 0 56 20q28 28 28 80q0 50 -24 74q-19 22 -58 22q-33 0 -55 -22
q-29 -29 -29 -80zM541 0l792 1366h226l-795 -1366h-223zM2056 354q0 -154 -104 -258q-119 -119 -330 -119q-209 0 -328 119q-104 104 -104 258t104 258q119 119 328 119q211 0 330 -119q104 -104 104 -258zM1544 356q0 -46 27 -73q21 -21 55 -21t55 21q29 29 29 79t-24 74
q-20 23 -58 23q-32 0 -55 -23q-29 -29 -29 -80z" />
    <glyph glyph-name="ampersand" unicode="&#x26;" horiz-adv-x="1726" 
d="M1720 0h-571l-88 106q-84 -65 -184 -102q-93 -35 -246 -35q-58 0 -104.5 4.5t-103.5 17.5t-110.5 42t-99.5 73q-131 125 -131 297q0 138 86 224q43 48 111 81.5t145 43.5q-52 37 -92.5 104t-40.5 158q0 140 92 235q62 68 167.5 108t240.5 40q267 0 409 -152
q92 -100 92 -227q0 -157 -110 -258q-67 -62 -154 -90l121 -125q54 38 112.5 94.5t98.5 112.5l258 -295q-79 -79 -213 -160zM801 356l-174 172q-36 -22 -56 -45q-26 -33 -26 -73q0 -44 33 -70q37 -29 94 -29q74 0 129 45zM737 1010q0 -34 19 -62q15 -30 49 -51q41 23 61 43
q33 33 33 78q0 40 -27 67q-24 17 -49 17q-34 0 -59 -25q-27 -27 -27 -67z" />
    <glyph glyph-name="quotesingle" unicode="'" horiz-adv-x="473" 
d="M391 1366l-51 -549h-207l-49 549h307z" />
    <glyph glyph-name="parenleft" unicode="(" horiz-adv-x="827" 
d="M375 1569l348 -201q-78 -166 -131 -375q-49 -195 -49 -403q0 -223 49 -443q46 -217 131 -415l-348 -203q-117 234 -193 498q-76 278 -76 540t62 492q74 272 207 510z" />
    <glyph glyph-name="parenright" unicode=")" horiz-adv-x="827" 
d="M104 1368l349 201q131 -235 206 -510q62 -230 62 -492t-76 -540q-78 -269 -192 -498l-349 203q87 203 132 415q49 220 49 443q0 208 -49 403q-52 204 -132 375z" />
    <glyph glyph-name="asterisk" unicode="*" horiz-adv-x="1447" 
d="M414 1358l207 -90l-21 225h246l-21 -225l209 90l76 -234l-221 -51l149 -170l-198 -143l-117 192l-115 -192l-198 143l149 170l-221 51z" />
    <glyph glyph-name="plus" unicode="+" 
d="M68 573v246h311v314h266v-314h311v-246h-311v-313h-266v313h-311z" />
    <glyph glyph-name="comma" unicode="," horiz-adv-x="729" 
d="M668 348l-324 -676h-364l219 676h469z" />
    <glyph glyph-name="hyphen" unicode="-" horiz-adv-x="849" 
d="M748 358h-646v369h646v-369z" />
    <glyph glyph-name="period" unicode="." horiz-adv-x="727" 
d="M633 203q0 -39 -17 -80.5t-47 -71.5q-78 -78 -207 -78q-126 0 -204 78q-30 30 -47 71.5t-17 80.5q0 38 17 78.5t47 70.5q78 78 204 78q129 0 207 -78q30 -30 47 -70.5t17 -78.5z" />
    <glyph glyph-name="slash" unicode="/" horiz-adv-x="1486" 
d="M-53 -395l1063 1888h354l-1065 -1888h-352z" />
    <glyph glyph-name="zero" unicode="0" horiz-adv-x="1447" 
d="M1372 684q0 -60 -9 -123.5t-29.5 -138.5t-62.5 -149t-100 -132q-179 -172 -448 -172q-270 0 -449 172q-58 58 -100 132t-62.5 149t-29 138.5t-8.5 123.5t8.5 123.5t29 137.5t62.5 148t100 132q179 172 449 172q269 0 448 -172q76 -76 124 -182t62.5 -191t14.5 -168z
M723 991q-50 0 -88 -35q-44 -40 -66 -115t-22 -151q0 -187 88 -264q38 -35 88 -35q48 0 86 35q88 78 88 264q0 189 -88 266q-38 35 -86 35z" />
    <glyph glyph-name="one" unicode="1" horiz-adv-x="1447" 
d="M1044 0h-491v926l-211 -17v457h702v-1366z" />
    <glyph glyph-name="two" unicode="2" horiz-adv-x="1447" 
d="M1362 420v-420h-1354l561 498q104 84 193 192q92 109 92 195q0 47 -33 76q-30 30 -82 30t-88 -41q-33 -44 -33 -131h-483q-4 118 33 223.5t100 174.5q80 88 207.5 134t278.5 46q149 0 268.5 -45.5t196.5 -126.5q127 -136 127 -312q0 -205 -144 -338q-70 -66 -164 -115
t-174 -75v-14q152 30 289 39z" />
    <glyph glyph-name="three" unicode="3" horiz-adv-x="1447" 
d="M1122 733v-10q81 -23 142 -84q84 -84 84 -221q0 -176 -119 -289q-54 -54 -120.5 -88.5t-139.5 -49t-123.5 -18.5t-114.5 -4q-348 0 -514 166q-56 56 -94 142t-39 194h500q0 -77 47 -121q35 -35 94 -35t96 37t37 92q0 54 -33 93q-30 32 -78 39.5t-81 -5.5v283
q67 -16 110 20q33 26 33 84q0 39 -29 68q-23 23 -65 23q-37 0 -62 -25q-29 -29 -26 -80h-488q0 36 7.5 74.5t26 90t60.5 103t103 91.5q145 94 387 94q299 0 455 -148q112 -107 112 -252q0 -120 -65 -192q-48 -51 -103 -72z" />
    <glyph glyph-name="four" unicode="4" horiz-adv-x="1447" 
d="M1198 272l12 -272h-469l17 272l-692 -14v358l559 750h585v-735l172 12v-385zM635 631h125v196q0 63 20 119l-12 8q-35 -66 -61 -96l-129 -166q-28 -39 -60 -65l4 -11q56 15 113 15z" />
    <glyph glyph-name="five" unicode="5" horiz-adv-x="1447" 
d="M219 559l119 807h928v-381h-584q-14 -104 -43 -158h12q63 72 213 72q95 0 195.5 -32t169.5 -97q59 -56 91 -135t32 -166q0 -77 -33 -162t-111 -160q-83 -79 -211 -128.5t-297 -49.5q-150 0 -325 41q-106 24 -223 70l55 371q225 -115 403 -115q98 0 162 26q84 36 84 109
q0 78 -86 115q-73 32 -195 32q-181 0 -356 -59z" />
    <glyph glyph-name="six" unicode="6" horiz-adv-x="1447" 
d="M588 1366h649l-436 -383l2 -12q56 20 119 20q175 0 292 -117q62 -62 97 -153t35 -199q0 -212 -144 -362q-191 -191 -491 -191q-311 0 -502 191q-158 162 -158 409q0 129 51 239.5t164 227.5zM528 524q0 -62 43 -110q51 -54 125 -54q66 0 119 46q51 43 51 122
q0 84 -59 136q-52 45 -113 45q-63 0 -108 -41q-58 -46 -58 -144z" />
    <glyph glyph-name="seven" unicode="7" horiz-adv-x="1447" 
d="M1473 1366l-777 -1366h-549l525 881q21 37 49 63l-2 12q-25 -5 -49.5 -8t-36.5 -3.5t-37 -1.5t-33 -1l-416 -14v438h1326z" />
    <glyph glyph-name="eight" unicode="8" horiz-adv-x="1447" 
d="M1092 713l2 -15q108 -21 170 -86q82 -82 82 -223q0 -140 -101 -248q-163 -172 -512 -172q-371 0 -532 174q-101 106 -101 240q0 141 95 233q57 57 153 82v15q-88 29 -137 82q-68 76 -68 198q0 169 160 289q164 115 422 115q306 0 471 -156q109 -109 109 -256
q0 -112 -66 -186q-58 -65 -147 -86zM725 1053q-43 0 -76 -33q-28 -28 -28 -70q0 -52 28 -80q28 -32 76 -32q44 0 76 32q28 31 28 80q0 42 -28 70q-33 33 -76 33zM592 432q0 -57 37 -94q39 -39 98 -39t98 39q37 37 37 94q0 68 -37 105q-38 38 -98 38t-98 -38
q-37 -37 -37 -105z" />
    <glyph glyph-name="nine" unicode="9" horiz-adv-x="1447" 
d="M840 0h-660l359 317q45 35 67 48v8q-46 -4 -76 -4q-202 0 -329 133q-127 131 -127 352q0 217 143 363q171 180 496 180q327 0 518 -191q79 -82 111 -170.5t32 -208.5q0 -140 -49 -254t-154 -225zM565 831q0 -77 47 -124q50 -50 119 -50q67 0 115 48q47 47 47 126
q0 73 -49 119q-49 45 -115 45q-38 0 -64 -9.5t-51 -37.5q-49 -49 -49 -117z" />
    <glyph glyph-name="colon" unicode=":" horiz-adv-x="727" 
d="M633 756q0 -39 -17 -80.5t-47 -71.5q-78 -78 -207 -78q-126 0 -204 78q-30 30 -47 71.5t-17 80.5q0 38 17 78.5t47 70.5q78 78 204 78q129 0 207 -78q30 -30 47 -70.5t17 -78.5zM633 203q0 -39 -17 -80.5t-47 -71.5q-78 -78 -207 -78q-126 0 -204 78q-30 30 -47 71.5
t-17 80.5q0 38 17 78.5t47 70.5q78 78 204 78q129 0 207 -78q30 -30 47 -70.5t17 -78.5z" />
    <glyph glyph-name="semicolon" unicode=";" horiz-adv-x="731" 
d="M668 348l-324 -676h-364l219 676h469zM717 756q0 -39 -17 -80.5t-47 -71.5q-78 -78 -207 -78q-126 0 -204 78q-30 30 -47 71.5t-17 80.5q0 38 17 78.5t47 70.5q78 78 204 78q129 0 207 -78q30 -30 47 -70.5t17 -78.5z" />
    <glyph glyph-name="less" unicode="&#x3c;" 
d="M68 797l888 450v-262l-608 -301l606 -303l2 -262l-888 454v224z" />
    <glyph glyph-name="equal" unicode="=" 
d="M68 758v231h888v-231h-888zM68 403v232h888v-232h-888z" />
    <glyph glyph-name="greater" unicode="&#x3e;" 
d="M956 571l-888 -452v264l608 301l-606 301l-2 262l888 -452v-224z" />
    <glyph glyph-name="question" unicode="?" horiz-adv-x="1257" 
d="M545 942h-463q24 182 145 303q152 152 418 152q258 0 406 -144q125 -125 125 -305q0 -188 -109 -303q-124 -131 -414 -131q-111 0 -178 16v310q46 -19 98 -19q72 0 113 39q41 41 41 109q0 48 -27 75q-23 23 -59 23q-41 0 -70 -29q-26 -28 -26 -96zM901 205
q0 -89 -63 -152q-78 -78 -207 -78q-127 0 -205 78q-30 30 -47 71.5t-17 80.5q0 38 17 78.5t47 70.5q78 78 205 78q129 0 207 -78q30 -30 46.5 -70.5t16.5 -78.5z" />
    <glyph glyph-name="at" unicode="@" horiz-adv-x="1501" 
d="M944 930l14 78h183l-76 -390q-12 -66 -12 -79q0 -29 14 -43q15 -15 41 -15q30 0 59 25q43 37 69 115.5t26 156.5q0 180 -119 299q-137 140 -346 140q-103 0 -203 -40t-182 -122q-156 -156 -156 -383t150 -377q87 -87 182.5 -115t212.5 -28q190 0 366 69l41 -176
q-185 -70 -401 -70q-73 0 -135 7.5t-136 27.5t-145 64t-133 110q-94 97 -142 223.5t-48 258.5q0 147 52.5 275t143.5 224q217 224 537 224q263 0 456 -181q177 -177 177 -422q0 -101 -30.5 -200.5t-100.5 -169.5q-101 -101 -230 -101q-80 0 -125 47q-26 28 -35 64
q-39 -56 -96 -90q-62 -39 -143 -39q-118 0 -195 80q-92 95 -92 239q0 183 125 308q104 104 246 104q68 0 112 -27q49 -29 74 -71zM600 627q0 -63 31 -101q35 -43 82 -43q52 0 98 39q34 30 53 77t19 93q0 76 -37 113q-33 33 -78 33q-57 0 -104 -47q-64 -64 -64 -164z" />
    <glyph glyph-name="A" unicode="A" horiz-adv-x="1509" 
d="M938 170h-377l-37 -170h-524l473 1366h549l487 -1366h-526zM852 494l-64 262q-14 55 -26 153h-19q-3 -87 -22 -153l-68 -262h199z" />
    <glyph glyph-name="B" unicode="B" horiz-adv-x="1386" 
d="M137 0v1366h596q285 0 408 -115q104 -104 104 -266q0 -118 -57 -188q-47 -58 -119 -84l-2 -13q80 -22 143 -82q101 -98 101 -237q0 -175 -129 -277q-130 -104 -351 -104h-694zM596 1038v-196h78q64 0 94 30q27 27 27 72q0 50 -31 72q-26 22 -90 22h-78zM596 555v-225h100
q73 0 105 22q47 30 47 92q0 52 -37 82q-35 29 -109 29h-106z" />
    <glyph glyph-name="C" unicode="C" horiz-adv-x="1210" 
d="M1137 535l-15 -510q-147 -56 -344 -56q-141 0 -273 50t-231 149q-97 96 -147.5 226t-50.5 278q0 306 205 518q207 207 516 207q174 0 325 -54l15 -520q-150 135 -289 135q-121 0 -199 -84q-71 -77 -71 -194q0 -124 79 -197q81 -77 203 -77q148 0 277 129z" />
    <glyph glyph-name="D" unicode="D" horiz-adv-x="1525" 
d="M786 0h-649v1366h527q397 0 604 -207q184 -184 184 -493q0 -297 -176 -473q-49 -49 -109 -88.5t-162.5 -72t-218.5 -32.5zM629 948v-530h37q41 0 66.5 2t68.5 17t76 44q79 69 79 197q0 64 -21.5 118t-57.5 87q-70 65 -195 65h-53z" />
    <glyph glyph-name="E" unicode="E" horiz-adv-x="1146" 
d="M1071 0h-934v1366h922v-375h-426v-127h387v-358h-387v-131h438v-375z" />
    <glyph glyph-name="F" unicode="F" horiz-adv-x="1110" 
d="M633 0h-496v1366h912v-389h-416v-139h364v-361h-364v-477z" />
    <glyph glyph-name="G" unicode="G" horiz-adv-x="1646" 
d="M805 471v324h768v-31q0 -77 -5.5 -138.5t-21.5 -142t-54.5 -154.5t-96.5 -136q-101 -108 -254 -166t-326 -58q-351 0 -563 226q-176 187 -176 485q0 314 188 502q94 96 237.5 155.5t336.5 59.5q217 0 401 -97q89 -48 152.5 -108t109.5 -143l-463 -172q-69 104 -188 104
q-105 0 -174 -63q-101 -94 -101 -259q0 -71 24 -136t67 -107q62 -62 161 -62q64 0 122 28t81 89h-225z" />
    <glyph glyph-name="H" unicode="H" horiz-adv-x="1531" 
d="M614 0h-477v1366h477v-463h304v463h477v-1366h-477v475h-304v-475z" />
    <glyph glyph-name="I" unicode="I" horiz-adv-x="770" 
d="M633 0h-496v1366h496v-1366z" />
    <glyph glyph-name="J" unicode="J" horiz-adv-x="987" 
d="M365 522v844h487v-952q0 -100 -36 -177t-87 -128q-131 -140 -342 -140q-193 0 -352 111l-55 39l180 422l10 -35q15 -57 45 -84q25 -25 64 -25q35 0 57 25q29 33 29 100z" />
    <glyph glyph-name="K" unicode="K" horiz-adv-x="1515" 
d="M612 0h-475v1366h475v-424q0 -93 -10 -172h10q27 69 72 154l236 442h536l-426 -670l471 -696h-573l-250 438q-30 50 -66 131h-10q10 -59 10 -129v-440z" />
    <glyph glyph-name="L" unicode="L" horiz-adv-x="1079" 
d="M1051 0h-914v1366h496v-926h418v-440z" />
    <glyph glyph-name="M" unicode="M" horiz-adv-x="2013" 
d="M563 0h-481l221 1366h510l160 -559q21 -65 31 -158h12q3 74 26 158l160 559h506l223 -1366h-477l-61 612q-9 70 -9 136h-8q-11 -65 -26 -115l-203 -633h-291l-182 598q-25 87 -27 150h-14q0 -80 -2 -107z" />
    <glyph glyph-name="N" unicode="N" horiz-adv-x="1640" 
d="M610 0h-473v1366h473l318 -516q88 -147 129 -242h14q-43 165 -43 324v434h475v-1366h-475l-340 539q-39 61 -94 178h-14q30 -139 30 -252v-465z" />
    <glyph glyph-name="O" unicode="O" horiz-adv-x="1667" 
d="M1591 684q0 -157 -52 -282t-138 -214q-95 -98 -239 -158.5t-328 -60.5t-328.5 60.5t-239.5 158.5q-86 89 -138 214t-52 282q0 155 52 280t138 214q93 98 239 158.5t329 60.5t328.5 -60.5t238.5 -158.5q86 -89 138 -214t52 -280zM834 956q-114 0 -179 -69
q-36 -38 -56.5 -93.5t-20.5 -111.5q0 -126 77 -203q69 -69 179 -69q109 0 178 69q78 78 78 203q0 130 -78 205q-69 69 -178 69z" />
    <glyph glyph-name="P" unicode="P" horiz-adv-x="1366" 
d="M621 0h-484v1366h656q240 0 399 -143q139 -139 139 -359t-135 -342q-74 -66 -156.5 -88t-179.5 -22h-239v-412zM621 991v-235h84q73 0 110 37q33 29 33 84t-37 84q-38 30 -100 30h-90z" />
    <glyph glyph-name="Q" unicode="Q" horiz-adv-x="1660" 
d="M1272 -119l-96 166q-87 -45 -162 -61.5t-172 -16.5q-169 0 -308 42.5t-251 154.5q-207 207 -207 518q0 304 205 502q218 211 553 211q348 0 567 -219q92 -97 140 -226t48 -272q0 -248 -129 -414l201 -223zM766 549l309 59q23 75 6 150t-71 129q-71 71 -179 71
q-110 0 -180 -75q-76 -85 -76 -197q0 -132 82 -211q44 -42 107 -59t127 0z" />
    <glyph glyph-name="R" unicode="R" horiz-adv-x="1456" 
d="M621 0h-484v1366h617q129 0 230.5 -28t186.5 -113q129 -129 129 -336q0 -154 -75 -244q-67 -84 -189 -108v-13q51 -26 72 -63l307 -461h-571l-197 399l-5.5 11t-6.5 14.5t-6 17.5l-8 -4v-438zM621 991v-233h57q70 0 104 30q35 31 35 84q0 49 -26 82q-33 37 -84 37h-86z
" />
    <glyph glyph-name="S" unicode="S" horiz-adv-x="1265" 
d="M1145 1278l-133 -348q-147 102 -279 102q-66 0 -94 -24q-25 -19 -25 -50q0 -19 3.5 -29.5t22 -22t54.5 -19.5l158 -35q149 -33 233 -117q105 -100 105 -270q0 -194 -123 -322q-69 -73 -188.5 -123.5t-292.5 -50.5q-96 0 -190 18.5t-146.5 37.5t-128.5 51l-45 18l149 385
l54 -41q48 -38 121.5 -69t154.5 -31q77 0 107 24q26 20 26 62q0 31 -16 47q-18 18 -94 33l-121 22q-72 13 -129 38t-109 79q-98 98 -98 252q0 193 133 326q173 176 475 176q218 0 416 -119z" />
    <glyph glyph-name="T" unicode="T" horiz-adv-x="1073" 
d="M780 0h-487v934l-279 -12v444h1045v-444l-279 12v-934z" />
    <glyph glyph-name="U" unicode="U" horiz-adv-x="1538" 
d="M137 494v872h492v-793q0 -94 43 -139q32 -37 98 -37q67 0 100 33q37 37 37 143v793h494v-838q0 -240 -144 -389q-170 -170 -487 -170q-344 0 -508 181q-125 136 -125 344z" />
    <glyph glyph-name="V" unicode="V" horiz-adv-x="1484" 
d="M530 0l-530 1366h518l191 -643q13 -46 30 -182h13q3 94 28 182l187 643h518l-529 -1366h-426z" />
    <glyph glyph-name="W" unicode="W" horiz-adv-x="2148" 
d="M479 0l-479 1366h514l150 -647q22 -103 22 -168h12q8 122 35 229l150 586h381l157 -623q13 -46 29 -192h10q2 89 31 219l141 596h516l-481 -1366h-432l-129 557q-16 64 -27 186h-16q0 -34 -7 -95t-14 -91l-141 -557h-422z" />
    <glyph glyph-name="X" unicode="X" horiz-adv-x="1519" 
d="M477 727l-430 639h561l113 -215q16 -28 31 -92h10q12 51 33 92l104 215h561l-428 -639l488 -727h-566l-166 309q-7 13 -18 66h-14q-12 -45 -29 -76l-162 -299h-565z" />
    <glyph glyph-name="Y" unicode="Y" horiz-adv-x="1402" 
d="M461 588l-475 778h561l117 -250q17 -37 36 -108h15q7 43 37 108l106 250h559l-467 -778v-588h-489v588z" />
    <glyph glyph-name="Z" unicode="Z" horiz-adv-x="1443" 
d="M145 952v414h1272l-518 -844q-34 -52 -76 -100l4 -8l95 8h434v-422h-1329l505 817q6 9 18.5 28.5t19 30t18 26.5t24.5 31.5t29 31.5l-4 8q-60 -21 -98 -21h-394z" />
    <glyph glyph-name="bracketleft" unicode="[" horiz-adv-x="880" 
d="M559 1309v-1520h240v-184h-649v1888h649v-184h-240z" />
    <glyph glyph-name="backslash" unicode="\" horiz-adv-x="1486" 
d="M1540 -395h-352l-1065 1888h354z" />
    <glyph glyph-name="bracketright" unicode="]" horiz-adv-x="880" 
d="M322 -211v1520h-240v184h649v-1888h-649v184h240z" />
    <glyph glyph-name="asciicircum" unicode="^" 
d="M512 1124l-207 -448h-295l328 690h348l330 -690h-295z" />
    <glyph glyph-name="underscore" unicode="_" 
d="M0 -401v307h1024v-307h-1024z" />
    <glyph glyph-name="grave" unicode="`" 
d="M274 1370l240 150l236 -299l-177 -113z" />
    <glyph glyph-name="a" unicode="a" horiz-adv-x="1308" 
d="M756 842l10 6q-16 45 -16 82v26h460v-956h-458l2 33q3 41 18 88h-14q-116 -148 -287 -148q-160 0 -270 113q-144 148 -144 387q0 245 150 395q115 115 282 115q162 0 267 -141zM520 479q0 -59 41 -100q33 -33 80 -33q44 0 80 31q45 45 45 106q0 60 -41 101q-35 30 -80 30
q-52 0 -84 -32q-41 -41 -41 -103z" />
    <glyph glyph-name="b" unicode="b" horiz-adv-x="1304" 
d="M98 0v1493h467v-537q0 -65 -22 -133h14q44 72 105 109q77 51 182 51q130 0 246 -106q71 -68 114 -175.5t43 -234.5q0 -249 -143 -389q-105 -105 -268 -105q-112 0 -195 62q-55 39 -98 112l-15 -6q15 -41 15 -73v-68h-445zM793 483q0 68 -41 109q-37 37 -86 37
q-51 0 -84 -33q-39 -39 -39 -107q0 -79 39 -118q33 -33 82 -33q55 0 88 39q41 47 41 106z" />
    <glyph glyph-name="c" unicode="c" horiz-adv-x="909" 
d="M852 418l-18 -395q-102 -50 -236 -50q-261 0 -403 142q-138 134 -138 350q0 233 148 381q137 137 370 137q148 0 271 -49v-389q-84 76 -174 76q-66 0 -103 -37q-39 -42 -39 -101q0 -61 39 -100q41 -41 99 -41q105 0 184 76z" />
    <glyph glyph-name="d" unicode="d" horiz-adv-x="1304" 
d="M741 969v524h465v-1493h-450v43q0 55 14 109l-14 2q-43 -80 -107 -125q-82 -56 -198 -56q-148 0 -252 107q-69 69 -105.5 175t-36.5 220q0 125 39.5 227.5t108.5 171.5q109 109 258 109q101 0 180 -53q47 -32 102 -101h15q-19 93 -19 140zM760 485q0 74 -47 121
q-31 31 -78 31q-51 0 -80 -29q-20 -18 -32.5 -51t-12.5 -63q0 -72 47 -119q33 -33 80 -33q46 0 78 29q45 45 45 114z" />
    <glyph glyph-name="e" unicode="e" horiz-adv-x="1255" 
d="M1198 401h-678q-4 -94 35 -139q19 -26 70 -26q39 0 69 26q23 23 31 55h455q-26 -82 -97 -163q-80 -89 -180.5 -135t-257.5 -46q-294 0 -452 158q-136 136 -136 334q0 103 37.5 197t106.5 163q162 158 426 158q252 0 411 -152q76 -72 118 -173t42 -203v-54zM524 600h219
q-4 62 -41 96q-27 27 -73 27q-40 0 -68 -25q-37 -37 -37 -98z" />
    <glyph glyph-name="f" unicode="f" horiz-adv-x="778" 
d="M608 0h-465v600l-127 -14v370l127 -12v158q0 205 109 307q111 107 313 107q110 0 199 -21v-371q-38 17 -64 17q-40 0 -67 -27q-31 -29 -31 -80v-94l158 16v-370l-152 14v-600z" />
    <glyph glyph-name="g" unicode="g" horiz-adv-x="1300" 
d="M1202 956v-901q0 -110 -29 -191t-104 -157q-171 -176 -489 -176q-227 0 -400 61l-82 29l105 324q43 -35 135 -80q88 -37 170 -37q117 0 180 63q53 53 64 154l8 94h-10q-34 -69 -101 -112q-68 -43 -170 -43q-167 0 -280 116q-70 70 -106 171t-36 210t41 217.5t111 175.5
q113 109 270 109q99 0 162 -43q59 -41 109 -117h10q-10 39 -10 74v59h452zM510 479q0 -54 35 -92q42 -45 100 -45q44 0 80 31q39 37 39 98q0 74 -37 109q-43 34 -88 34q-51 0 -90 -39t-39 -96z" />
    <glyph glyph-name="h" unicode="h" horiz-adv-x="1280" 
d="M563 0h-465v1493h465v-537q0 -88 -14 -151l6 -4q59 79 125 125q83 57 188 57q57 0 115 -22.5t96 -59.5q47 -45 75 -120t28 -169v-612h-455v518q0 45 -25 70q-20 20 -49 20q-39 0 -65 -26q-25 -25 -25 -70v-512z" />
    <glyph glyph-name="i" unicode="i" horiz-adv-x="661" 
d="M563 0h-465v956h465v-956zM139 1192q0 67 54.5 112.5t132.5 45.5q85 0 139.5 -45t54.5 -113q0 -67 -54.5 -111.5t-139.5 -44.5q-78 0 -132.5 45t-54.5 111z" />
    <glyph glyph-name="j" unicode="j" horiz-adv-x="661" 
d="M563 -469h-465v1425h465v-1425zM588 1255q0 -84 -60 -151q-68 -74 -198 -74q-61 0 -114 19.5t-85 54.5q-59 66 -59 151q0 86 59 152q32 35 85 54.5t114 19.5q130 0 198 -74q60 -67 60 -152z" />
    <glyph glyph-name="k" unicode="k" horiz-adv-x="1323" 
d="M563 0h-465v1493h465v-889h12l3 6l180 346h545l-353 -464l369 -492h-549l-199 352h-8v-352z" />
    <glyph glyph-name="l" unicode="l" horiz-adv-x="661" 
d="M563 0h-465v1493h465v-1493z" />
    <glyph glyph-name="m" unicode="m" horiz-adv-x="1820" 
d="M549 0h-451v956h439v-73q0 -31 -17 -88l15 -4q30 78 90 129q78 63 194 63q104 0 170 -53q68 -52 103 -152h12q27 87 96 144q75 61 191 61q145 0 233 -88q47 -49 73.5 -123t26.5 -154v-618h-450v526q0 49 -23 72q-16 16 -41 16q-29 0 -49 -20q-24 -24 -24 -68v-526h-451
v539q0 33 -16 55q-15 20 -47 20q-35 0 -54 -22q-20 -26 -20 -82v-510z" />
    <glyph glyph-name="n" unicode="n" horiz-adv-x="1288" 
d="M563 0h-465v956h457v-49q0 -42 -18 -98l10 -2q70 84 129 125q74 51 174 51q139 0 233 -86q107 -107 107 -283v-614h-465v520q0 54 -20 74q-18 20 -54 20q-37 0 -59 -22q-29 -29 -29 -94v-498z" />
    <glyph glyph-name="o" unicode="o" horiz-adv-x="1282" 
d="M1225 479q0 -100 -37.5 -190t-100.5 -154q-66 -69 -177.5 -115.5t-268.5 -46.5t-268.5 46.5t-177.5 115.5q-63 64 -100.5 154t-37.5 190q0 91 35.5 181.5t102.5 160.5q66 69 177.5 115.5t268.5 46.5t268.5 -46.5t177.5 -115.5q67 -70 102.5 -160.5t35.5 -181.5zM641 614
q-58 0 -90 -32q-41 -41 -41 -103q0 -63 41 -104q33 -33 90 -33t90 33q41 41 41 104q0 62 -41 103q-32 32 -90 32z" />
    <glyph glyph-name="p" unicode="p" horiz-adv-x="1304" 
d="M565 -469h-467v1425h445v-53q0 -47 -13 -84l-2 -6l15 -4q39 67 98 113q85 61 195 61q163 0 272 -109q69 -69 104 -173t35 -218q0 -232 -149 -395q-109 -115 -254 -115q-103 0 -189 56q-67 48 -98 102h-14q22 -90 22 -186v-414zM543 473q0 -74 41 -115q28 -30 80 -30
q46 0 81 30q48 48 48 115q0 68 -45 113q-35 35 -86 35q-43 0 -76 -29q-43 -43 -43 -119z" />
    <glyph glyph-name="q" unicode="q" horiz-adv-x="1308" 
d="M1210 -469h-465v481q0 37 19 115h-14q-51 -66 -107 -102q-79 -52 -182 -52q-145 0 -256 111q-66 68 -107 169.5t-41 225.5q0 254 154 404q106 100 244 100q113 0 196 -59q61 -37 109 -121l14 2q-14 47 -14 90v61h450v-1425zM510 463q0 -65 39 -107q31 -39 88 -39
q47 0 82 35q45 45 45 117q0 76 -47 117q-31 28 -78 28q-50 0 -84 -34q-45 -39 -45 -117z" />
    <glyph glyph-name="r" unicode="r" horiz-adv-x="907" 
d="M563 0h-465v956h469v-59q0 -33 -12 -63h8q42 74 117 116q77 43 213 43v-485q-49 30 -79 41.5t-66 11.5q-75 0 -127 -45q-58 -51 -58 -141v-375z" />
    <glyph glyph-name="s" unicode="s" horiz-adv-x="997" 
d="M930 901l-113 -268q-45 34 -96 55q-71 29 -119 29q-30 0 -51 -15q-19 -16 -19 -36q0 -16 15 -31q8 -6 55 -17l94 -20q127 -28 189 -90q67 -71 67 -178q0 -139 -96 -232q-125 -125 -362 -125q-190 0 -379 78l-68 29l119 291l65 -41q107 -66 191 -66q41 0 63 17
q19 13 19 36t-19 39q-18 12 -65 21l-68 10q-108 18 -170 80q-73 73 -73 182q0 155 135 246q126 88 325 88q183 0 361 -82z" />
    <glyph glyph-name="t" unicode="t" horiz-adv-x="751" 
d="M598 0h-465v598l-117 -8v366l117 -8v348h465v-348l158 8v-366l-158 8v-598z" />
    <glyph glyph-name="u" unicode="u" horiz-adv-x="1286" 
d="M98 391v565h465v-518q0 -53 23 -76q18 -20 55 -20t57 20q25 25 25 76v518h465v-550q0 -155 -111 -273q-70 -75 -181.5 -117.5t-254.5 -42.5q-141 0 -250.5 42t-179.5 112q-113 113 -113 264z" />
    <glyph glyph-name="v" unicode="v" horiz-adv-x="1220" 
d="M401 0l-421 956h501l105 -354q4 -14 10.5 -51.5t7.5 -44.5h14q0 46 17 96l106 354h500l-416 -956h-424z" />
    <glyph glyph-name="w" unicode="w" horiz-adv-x="1730" 
d="M369 0l-389 956h491l92 -391q19 -82 19 -137h14q0 63 18 137l99 391h305l102 -391q11 -43 23 -137h12q0 55 19 137l88 391h489l-393 -956h-377l-92 346l-15 78h-12l-16 -78l-94 -346h-383z" />
    <glyph glyph-name="x" unicode="x" horiz-adv-x="1323" 
d="M399 498l-364 458h536l70 -135q15 -27 21 -61h12q5 23 22 61l70 135h534l-362 -458l389 -498h-549l-86 156q-14 19 -20 55h-10q-6 -28 -19 -55l-84 -156h-563z" />
    <glyph glyph-name="y" unicode="y" horiz-adv-x="1230" 
d="M391 96l-411 860h501l115 -393q17 -58 20 -125h13q3 64 20 131l111 387h491l-649 -1425h-493z" />
    <glyph glyph-name="z" unicode="z" horiz-adv-x="1124" 
d="M1057 362v-362h-1014v63l297 451q17 26 84 88v8q-33 -14 -84 -14h-250v360h989v-49l-309 -461q-24 -39 -76 -84v-12q36 12 74 12h289z" />
    <glyph glyph-name="braceleft" unicode="{" 
d="M623 1137v-330q0 -105 -29 -164q-33 -66 -94 -94q66 -37 96 -103q27 -55 27 -157v-330q0 -66 24 -90q27 -27 121 -27q22 0 35 1t22 1v-235q-49 -1 -95.5 -2.5t-61.5 -1.5q-36 0 -63 2t-63.5 9t-67.5 23t-54 42q-64 68 -64 219v370q0 95 -26 129q-23 38 -86 47v226
q59 3 84 39q28 30 28 100v385q0 38 1.5 59.5t7.5 55t21.5 61t41.5 51.5q33 31 82 48t81.5 19.5t80.5 2.5t153 -6v-234h-41h-24h-27.5t-24 -1.5t-25.5 -4t-19.5 -8t-18.5 -12.5q-22 -22 -22 -90z" />
    <glyph glyph-name="bar" unicode="|" 
d="M379 -512v2048h266v-2048h-266z" />
    <glyph glyph-name="braceright" unicode="}" 
d="M446 807v330q0 68 -22 90q-7 7 -18.5 12.5t-19.5 8t-25.5 4t-24 1.5h-27.5h-24h-41v234q105 6 153 6t80.5 -2.5t81.5 -19.5t82 -48q26 -24 41.5 -51.5t21.5 -61t7.5 -55t1.5 -59.5v-385q0 -70 28 -100q25 -36 84 -39v-226q-63 -9 -86 -47q-26 -34 -26 -129v-370
q0 -151 -64 -219q-30 -33 -79 -51t-84.5 -21.5t-84.5 -3.5q-15 0 -61.5 1.5t-95.5 2.5v235q10 0 23 -1t34 -1q94 0 121 27q24 24 24 90v330q0 102 27 157q30 66 96 103q-61 28 -94 94q-29 59 -29 164z" />
    <glyph glyph-name="asciitilde" unicode="~" 
d="M541 457l-80 26q-14 5 -40.5 14t-41.5 14t-35 9t-37 4q-57 0 -92 -35q-31 -24 -57 -90l-146 97l17 34q35 76 59 117t53 68q65 65 174 65q76 0 177 -37l88 -32q83 -31 139 -31q47 0 78 22q29 21 63 82l152 -88q-19 -48 -51.5 -102.5t-67.5 -89.5q-79 -82 -195 -82
q-22 0 -46 4t-35 7t-41 12.5t-35 11.5z" />
    <glyph glyph-name="uni00A0" unicode="&#xa0;" horiz-adv-x="477" 
 />
    <glyph glyph-name="exclamdown" unicode="&#xa1;" horiz-adv-x="837" 
d="M182 -471v844h477v-844h-477zM150 690q0 89 63 152q78 78 207 78q127 0 205 -78q63 -63 63 -152q0 -38 -16.5 -78.5t-46.5 -70.5q-78 -78 -205 -78q-129 0 -207 78q-30 30 -46.5 70.5t-16.5 78.5z" />
    <glyph glyph-name="cent" unicode="&#xa2;" horiz-adv-x="1447" 
d="M895 20h-213v209q-133 18 -238 111q-68 64 -108.5 160.5t-40.5 208.5q0 96 35 182.5t94 150.5q104 112 258 142v188h213v-184q81 -6 168 -35l10 -381q-54 38 -92.5 55t-83.5 17q-61 0 -100 -39q-35 -35 -35 -90q0 -67 43 -105q38 -35 94 -35q82 0 176 76l-6 -383
q-94 -31 -174 -41v-207z" />
    <glyph glyph-name="sterling" unicode="&#xa3;" horiz-adv-x="1447" 
d="M1049 332h258q0 -83 -27 -155t-72 -118q-83 -88 -229 -88q-134 0 -231 41l-84 33q-86 33 -146 33q-59 0 -92 -31q-24 -24 -29 -47h-231q3 137 78 231q70 92 184 129q10 29 10 72q0 42 -6 66h-246v225h170q-71 119 -71 227q0 79 32 160.5t95 144.5q142 142 376 142
q229 0 357 -131q41 -43 66 -90.5t35 -101.5t12 -86.5t2 -86.5v-24h-316v16q0 104 -31 147q-39 52 -106 52q-63 0 -100 -37q-41 -38 -41 -105q0 -46 34 -121q3 -7 12 -25t12 -25.5t7.5 -23t7.5 -32.5h260v-225h-241q2 -14 2 -41q0 -70 -25 -125l29 -13q134 -63 201 -63
q39 0 59 20q22 22 25 56z" />
    <glyph glyph-name="currency" unicode="&#xa4;" horiz-adv-x="1366" 
d="M184 137l-143 144l211 211q-90 134 -90 282q0 141 92 281l-215 213l145 145l213 -213q133 90 295 90q146 0 273 -88l211 209l143 -143l-209 -209q94 -128 94 -289q0 -154 -90 -276l211 -211l-141 -146l-211 211q-128 -92 -291 -92q-155 0 -287 90zM684 1053
q-117 0 -197 -80q-37 -37 -59 -91t-22 -110q0 -55 22 -108.5t59 -90.5q79 -79 197 -79q116 0 195 79q37 37 59.5 90.5t22.5 108.5q0 56 -22.5 110t-59.5 91q-80 80 -195 80z" />
    <glyph glyph-name="yen" unicode="&#xa5;" horiz-adv-x="1447" 
d="M287 930l-250 436h559l133 -373l125 373h557l-246 -436h187v-242h-322l-57 -100v-74h379v-242h-379v-272h-490v272h-387v242h387v74l-57 100h-330v242h191z" />
    <glyph glyph-name="brokenbar" unicode="&#xa6;" 
d="M379 696v840h266v-840h-266zM379 -512v840h266v-840h-266z" />
    <glyph glyph-name="section" unicode="&#xa7;" horiz-adv-x="1447" 
d="M780 995l109 -30q199 -55 285 -136q98 -91 98 -233q0 -198 -189 -322q142 -95 142 -288q0 -157 -103 -258q-54 -52 -129 -81t-134.5 -35.5t-139.5 -6.5q-59 0 -108.5 4.5t-110 17.5t-115.5 41.5t-98 71.5q-103 103 -111 270h379q4 -73 45 -108q33 -33 100 -33q64 0 97 33
q28 28 28 86t-51 92q-27 16 -143 51l-105 31q-84 24 -143 51t-102 70q-93 93 -93 229q0 99 45 183.5t134 140.5q-72 49 -105 108q-41 73 -41 166q0 139 103 246q137 137 421 137q267 0 400 -133q51 -53 82.5 -128.5t32.5 -160.5h-365q-4 79 -39 117q-33 39 -108 39
q-56 0 -95 -27q-35 -31 -35 -76t37 -75q43 -31 125 -54zM860 555q0 21 -9.5 47.5t-25.5 42.5q-17 19 -45.5 31t-54.5 12q-54 0 -94 -37q-39 -39 -39 -96q0 -60 43 -100q39 -35 90 -35q62 0 96 37q39 39 39 98z" />
    <glyph glyph-name="dieresis" unicode="&#xa8;" 
d="M104 1274q0 78 53.5 132t131.5 54t132 -54t54 -132t-54 -132.5t-132 -54.5t-131.5 54.5t-53.5 132.5zM549 1274q0 78 53 132t131 54t132.5 -54t54.5 -132t-54.5 -132.5t-132.5 -54.5t-131 54.5t-53 132.5z" />
    <glyph glyph-name="copyright" unicode="&#xa9;" horiz-adv-x="1556" 
d="M1051 621l-7 -324q-103 -37 -208 -37q-124 0 -210.5 40.5t-125.5 86.5q-119 119 -119 289q0 86 33.5 166t95.5 139q131 123 336 123q95 0 198 -35l7 -328q-42 42 -74 56q-50 26 -107 26q-65 0 -108 -43q-41 -36 -41 -96q0 -55 39 -94q47 -47 112 -47q60 0 111 26
q36 20 68 52zM1489 684q0 -135 -52.5 -267.5t-158.5 -238.5q-209 -209 -500 -209q-290 0 -499 209q-106 106 -158.5 238.5t-52.5 267.5t52.5 266.5t158.5 237.5q209 209 499 209q291 0 500 -209q106 -106 158.5 -237.5t52.5 -266.5zM778 1247q-219 0 -381 -162
q-87 -90 -126.5 -187.5t-39.5 -215.5t39.5 -215.5t126.5 -187.5q162 -162 381 -162t381 162q87 90 126.5 187.5t39.5 215.5t-39.5 215.5t-126.5 187.5q-162 162 -381 162z" />
    <glyph glyph-name="ordfeminine" unicode="&#xaa;" horiz-adv-x="743" 
d="M440 874h-8q-32 -37 -67 -57q-45 -26 -99 -26q-86 0 -151 65q-82 86 -82 219q0 63 21.5 123.5t62.5 101.5q66 66 162 66q48 0 88 -23q52 -41 65 -57q-6 30 -6 39v25h264v-545h-262v18q0 15 12 51zM690 547h-645v188h645v-188zM297 1079q0 -38 22 -57q18 -18 48 -18
q29 0 47 18q22 19 22 57q0 34 -22 56q-18 18 -47 18q-30 0 -48 -18q-22 -22 -22 -56z" />
    <glyph glyph-name="guillemotleft" unicode="&#xab;" horiz-adv-x="1120" 
d="M565 143l-188 -133l-309 465l325 461l189 -131l-232 -330zM1018 143l-189 -133l-309 465l326 461l188 -131l-231 -330z" />
    <glyph glyph-name="logicalnot" unicode="&#xac;" 
d="M956 0h-266v307h-622v240h888v-547z" />
    <glyph glyph-name="uni00AD" unicode="&#xad;" horiz-adv-x="849" 
d="M748 358h-646v369h646v-369z" />
    <glyph glyph-name="registered" unicode="&#xae;" horiz-adv-x="1556" 
d="M727 326h-291v735h375q162 0 238 -74q69 -69 69 -182q0 -86 -45 -135q-43 -49 -108 -60q20 -14 39 -41l161 -243h-323l-115 231v-231zM727 856v-121h43q31 0 49 13q21 17 21 49q0 26 -19 45q-20 14 -47 14h-47zM778 1247q-219 0 -381 -162q-87 -90 -126.5 -187.5
t-39.5 -215.5t39.5 -215.5t126.5 -187.5q162 -162 381 -162t381 162q87 90 126.5 187.5t39.5 215.5t-39.5 215.5t-126.5 187.5q-162 162 -381 162zM1489 684q0 -135 -52.5 -267.5t-158.5 -238.5q-209 -209 -500 -209q-290 0 -499 209q-106 106 -158.5 238.5t-52.5 267.5
t52.5 266.5t158.5 237.5q209 209 499 209q291 0 500 -209q106 -106 158.5 -237.5t52.5 -266.5z" />
    <glyph glyph-name="macron" unicode="&#xaf;" 
d="M860 1114h-696v205h696v-205z" />
    <glyph glyph-name="degree" unicode="&#xb0;" 
d="M516 743q-134 0 -227 93q-92 92 -92 221q0 127 92 217q96 92 221 92q135 0 225 -90q92 -85 92 -219q0 -129 -92 -221q-93 -93 -219 -93zM369 1055q0 -57 41.5 -98.5t101.5 -41.5t101.5 41.5t41.5 98.5t-41.5 98t-101.5 41t-101.5 -41t-41.5 -98z" />
    <glyph glyph-name="plusminus" unicode="&#xb1;" 
d="M68 731v246h311v313h266v-313h311v-246h-311v-315h-266v315h-311zM68 102v246h888v-246h-888z" />
    <glyph glyph-name="twosuperior" unicode="&#xb2;" horiz-adv-x="923" 
d="M842 807v-254h-822l336 301q55 46 119 119q60 65 60 119q0 32 -21 47q-22 16 -51 16q-41 0 -55 -25q-17 -24 -17 -71v-15h-293q0 152 80 242q95 111 295 111q173 0 277 -99q84 -84 84 -196q0 -126 -86 -199q-37 -35 -104.5 -70t-102.5 -47v-8q13 2 50.5 9t70.5 11.5
t55 4.5z" />
    <glyph glyph-name="threesuperior" unicode="&#xb3;" horiz-adv-x="890" 
d="M674 993q50 -21 86 -57q49 -49 49 -127q0 -102 -72 -174q-98 -98 -291 -98q-223 0 -325 102q-80 80 -80 207h303q0 -57 27 -78q20 -20 61 -20q35 0 57 22q21 21 21 55q0 36 -18 52q-20 20 -72 20h-27v168q58 0 72 14q16 16 16 49q0 29 -14 48q-16 16 -45 16
q-31 0 -47 -16q-19 -19 -19 -58h-286q4 84 39.5 138.5t78.5 82.5q88 58 238 58q186 0 281 -90q67 -64 67 -156q0 -60 -29 -104q-28 -43 -71 -54z" />
    <glyph glyph-name="acute" unicode="&#xb4;" 
d="M274 1221l238 299l240 -150l-299 -262z" />
    <glyph glyph-name="mu" unicode="&#xb5;" horiz-adv-x="1335" 
d="M549 -471h-451v1427h465v-569q0 -50 23 -82q26 -35 80 -35q55 0 82 33q24 30 24 88v565h465v-956h-451v18q0 63 11 105h-13q-9 -54 -41 -100q-27 -35 -79 -35q-48 0 -78 37q-31 45 -41 98h-13q17 -111 17 -143v-451z" />
    <glyph glyph-name="paragraph" unicode="&#xb6;" horiz-adv-x="1409" 
d="M696 -195h-250v838h-26q-178 0 -270 92q-95 95 -95 254q0 163 95 258q67 67 168.5 93t240.5 26h701v-225h-144v-1336h-250v1336h-170v-1336z" />
    <glyph glyph-name="periodcentered" unicode="&#xb7;" horiz-adv-x="620" 
d="M621 696q0 -102 -80 -176q-92 -86 -230 -86q-142 0 -231 86q-80 74 -80 176t80 176q89 86 231 86q138 0 230 -86q80 -74 80 -176z" />
    <glyph glyph-name="cedilla" unicode="&#xb8;" 
d="M786 -248l-258 -264l-204 143l245 277z" />
    <glyph glyph-name="onesuperior" unicode="&#xb9;" horiz-adv-x="641" 
d="M498 547h-299v565l-127 -8v262h426v-819z" />
    <glyph glyph-name="ordmasculine" unicode="&#xba;" horiz-adv-x="731" 
d="M688 547h-645v188h645v-188zM365 1155q-31 0 -52 -18q-22 -22 -22 -60t22 -57t52 -19q29 0 51 19q22 22 22 57q0 38 -22 60q-21 18 -51 18zM698 1079q0 -117 -77 -194q-44 -44 -112 -69t-142 -25q-75 0 -143.5 25t-112.5 69q-78 78 -78 194q0 51 21 103t57 90
q44 44 112.5 69t143.5 25q73 0 141.5 -25t112.5 -69q36 -38 56.5 -89.5t20.5 -103.5z" />
    <glyph glyph-name="guillemotright" unicode="&#xbb;" horiz-adv-x="1120" 
d="M555 143l215 332l-231 330l188 131l326 -461l-310 -465zM102 143l215 332l-231 330l188 131l326 -461l-309 -465z" />
    <glyph glyph-name="onequarter" unicode="&#xbc;" horiz-adv-x="1884" 
d="M1700 166l6 -166h-299l8 166l-420 -10v217l340 446h371v-438l106 10v-233zM1341 381h89v104q0 57 6 88l-13 7q-5 -6 -21 -28.5t-24 -31.5l-73 -94q-14 -18 -41 -45l4 -8q31 8 73 8zM498 547h-299v565l-127 -8v262h426v-819zM332 0l792 1366h226l-795 -1366h-223z" />
    <glyph glyph-name="onehalf" unicode="&#xbd;" horiz-adv-x="1904" 
d="M498 547h-299v565l-127 -8v262h426v-819zM1833 254v-254h-821l336 301q51 43 118 119q60 65 60 117q0 34 -21 49q-22 16 -51 16q-35 0 -53 -24q-19 -27 -19 -72v-14h-292q0 152 79 241q95 111 295 111q173 0 277 -99q84 -78 84 -196q0 -125 -86 -199q-58 -52 -207 -117
v-8q13 2 50.5 9t70.5 11.5t55 4.5zM332 0l792 1366h226l-795 -1366h-223z" />
    <glyph glyph-name="threequarters" unicode="&#xbe;" horiz-adv-x="2080" 
d="M705 993q50 -21 86 -57q49 -49 49 -127q0 -102 -72 -174q-98 -98 -291 -98q-223 0 -325 102q-80 80 -80 207h303q0 -58 26 -78q20 -20 62 -20q35 0 57 22q21 21 21 55q0 35 -19 52q-20 20 -71 20h-27v168q58 0 72 14q16 16 16 49q0 29 -14 48q-16 16 -45 16
q-31 0 -47 -16q-19 -19 -19 -58h-287q4 84 40 138.5t79 82.5q88 58 238 58q185 0 280 -90q68 -65 68 -156q0 -60 -29 -104q-28 -43 -71 -54zM1896 166l7 -166h-299l8 166l-420 -10v217l340 446h371v-438l106 10v-233zM1538 381h88v104q0 57 6 88l-12 7q-5 -6 -21 -28.5
t-24 -31.5l-74 -94q-14 -18 -41 -45l4 -8q31 8 74 8zM551 0l792 1366h226l-795 -1366h-223z" />
    <glyph glyph-name="questiondown" unicode="&#xbf;" horiz-adv-x="1257" 
d="M713 -41h463q-23 -180 -146 -303q-152 -152 -416 -152q-255 0 -407 144q-125 119 -125 303q0 183 108 299q129 131 414 131q111 0 178 -16v-310q-46 19 -98 19q-72 0 -113 -39q-41 -41 -41 -103q0 -48 27 -75q23 -23 59 -23q41 0 70 29q27 29 27 96zM356 690
q0 39 17 80.5t47 71.5q78 78 207 78q126 0 204 -78q30 -30 47 -71.5t17 -80.5q0 -38 -17 -78.5t-47 -70.5q-78 -78 -204 -78q-129 0 -207 78q-30 30 -47 70.5t-17 78.5z" />
    <glyph glyph-name="Agrave" unicode="&#xc0;" horiz-adv-x="1509" 
d="M938 170h-377l-37 -170h-524l473 1366h549l487 -1366h-526zM852 494l-64 262q-14 55 -26 153h-19q-3 -87 -22 -153l-68 -262h199zM809 1452l-344 246l172 174l293 -289z" />
    <glyph glyph-name="Aacute" unicode="&#xc1;" horiz-adv-x="1509" 
d="M938 170h-377l-37 -170h-524l473 1366h549l487 -1366h-526zM788 756q-14 55 -26 153h-19q-3 -87 -22 -153l-68 -262h199zM1051 1698l-344 -246l-121 131l293 289z" />
    <glyph glyph-name="Acircumflex" unicode="&#xc2;" horiz-adv-x="1509" 
d="M938 170h-377l-37 -170h-524l473 1366h549l487 -1366h-526zM852 494l-64 262q-14 55 -26 153h-19q-3 -87 -22 -153l-68 -262h199zM752 1599l-185 -145l-159 139l344 267l348 -267l-162 -139z" />
    <glyph glyph-name="Atilde" unicode="&#xc3;" horiz-adv-x="1509" 
d="M938 170h-377l-37 -170h-524l473 1366h549l487 -1366h-526zM852 494l-64 262q-14 55 -26 153h-19q-3 -87 -22 -153l-68 -262h199zM913 1765l154 -94q-14 -37 -37.5 -77t-42.5 -58v2q-59 -59 -135 -59q-60 0 -111 32q-4 3 -19 10t-28 15q-48 18 -59 18q-41 0 -62 -81
l-153 94q29 92 72 135q50 53 131 53q53 0 108 -24l49 -25q7 -3 19.5 -9.5t18 -9t15.5 -4.5t21 -2q31 0 59 84z" />
    <glyph glyph-name="Adieresis" unicode="&#xc4;" horiz-adv-x="1509" 
d="M938 170h-377l-37 -170h-524l473 1366h549l487 -1366h-526zM852 494l-64 262q-14 55 -26 153h-19q-3 -87 -22 -153l-68 -262h199zM332 1661q0 78 53 131t131 53t132 -53t54 -131t-54 -132t-132 -54t-131 54t-53 132zM797 1661q0 78 53 131t131 53t132 -53t54 -131
t-54 -132t-132 -54t-131 54t-53 132z" />
    <glyph glyph-name="Aring" unicode="&#xc5;" horiz-adv-x="1509" 
d="M938 170h-377l-37 -170h-524l473 1366h549l487 -1366h-526zM852 494l-64 262q-14 55 -26 153h-19q-3 -87 -22 -153l-68 -262h199zM1018 1683q0 -99 -78 -157q-75 -56 -203 -56q-127 0 -202 56q-78 58 -78 157q0 96 78 156q73 55 202 55q130 0 203 -55q78 -60 78 -156z
M737 1755q-45 0 -71 -16q-31 -19 -31 -56q0 -38 31 -57q26 -16 71 -16q46 0 72 16q31 22 31 55q0 36 -31 58q-26 16 -72 16z" />
    <glyph glyph-name="AE" unicode="&#xc6;" horiz-adv-x="1939" 
d="M535 0h-521l475 1366h961l125 -375h-408l43 -127h410l125 -358h-404l45 -131h410l131 -375h-932l-45 170h-372zM866 494l-82 301q-16 64 -14 114h-14q-2 -57 -21 -137l-71 -278h202z" />
    <glyph glyph-name="Ccedilla" unicode="&#xc7;" horiz-adv-x="1210" 
d="M1137 535l-15 -510q-147 -56 -344 -56q-141 0 -273 50t-231 149q-97 96 -147.5 226t-50.5 278q0 306 205 518q207 207 516 207q174 0 325 -54l15 -520q-150 135 -289 135q-121 0 -199 -84q-71 -77 -71 -194q0 -124 79 -197q81 -77 203 -77q148 0 277 129zM981 -256
l-283 -293l-225 160l270 301z" />
    <glyph glyph-name="Egrave" unicode="&#xc8;" horiz-adv-x="1146" 
d="M1071 0h-934v1366h922v-375h-426v-127h387v-358h-387v-131h438v-375zM688 1452l-344 246l172 174l293 -289z" />
    <glyph glyph-name="Eacute" unicode="&#xc9;" horiz-adv-x="1146" 
d="M1071 0h-934v1366h922v-375h-426v-127h387v-358h-387v-131h438v-375zM899 1698l-344 -246l-121 131l293 289z" />
    <glyph glyph-name="Ecircumflex" unicode="&#xca;" horiz-adv-x="1146" 
d="M1071 0h-934v1366h922v-375h-426v-127h387v-358h-387v-131h438v-375zM594 1599l-184 -145l-160 139l344 267l348 -267l-162 -139z" />
    <glyph glyph-name="Edieresis" unicode="&#xcb;" horiz-adv-x="1146" 
d="M1071 0h-934v1366h922v-375h-426v-127h387v-358h-387v-131h438v-375zM180 1661q0 78 53.5 131t131.5 53t132 -53t54 -131t-54 -132t-132 -54t-131.5 54t-53.5 132zM645 1661q0 78 53 131t131 53t132.5 -53t54.5 -131t-54.5 -132t-132.5 -54t-131 54t-53 132z" />
    <glyph glyph-name="Igrave" unicode="&#xcc;" horiz-adv-x="770" 
d="M633 0h-496v1366h496v-1366zM449 1452l-345 246l172 174l293 -289z" />
    <glyph glyph-name="Iacute" unicode="&#xcd;" horiz-adv-x="770" 
d="M633 0h-496v1366h496v-1366zM666 1698l-344 -246l-121 131l293 289z" />
    <glyph glyph-name="Icircumflex" unicode="&#xce;" horiz-adv-x="770" 
d="M633 0h-496v1366h496v-1366zM625 1466l-238 144l-244 -148l-147 180l401 234l379 -236z" />
    <glyph glyph-name="Idieresis" unicode="&#xcf;" horiz-adv-x="770" 
d="M633 0h-496v1366h496v-1366zM-33 1661q0 78 53.5 131t131.5 53t132 -53t54 -131t-54 -132t-132 -54t-131.5 54t-53.5 132zM432 1661q0 78 53 131t131 53t132.5 -53t54.5 -131t-54.5 -132t-132.5 -54t-131 54t-53 132z" />
    <glyph glyph-name="Eth" unicode="&#xd0;" horiz-adv-x="1583" 
d="M844 0h-649v557h-154v270h154v539h526q389 0 604 -207q184 -197 184 -489q0 -301 -176 -477q-193 -193 -489 -193zM666 961v-134h192v-270h-192v-151h57q138 0 211 63q80 76 80 209q0 145 -80 217q-71 66 -195 66h-73z" />
    <glyph glyph-name="Ntilde" unicode="&#xd1;" horiz-adv-x="1640" 
d="M610 0h-473v1366h473l318 -516q88 -147 129 -242h14q-43 165 -43 324v434h475v-1366h-475l-340 539q-39 61 -94 178h-14q30 -139 30 -252v-465zM819 1511l-88 35q-5 2 -21 8.5t-27.5 9.5t-23.5 3q-30 0 -49 -19q-30 -30 -45 -65l-168 106q35 57 74.5 93.5t60.5 48.5
q67 45 148 45q48 0 111 -29l47 -25q6 -3 20.5 -10t21 -9.5t18 -5.5t22.5 -3q29 0 45 16q6 4 20 20.5t19 24.5l14 23l182 -90q-41 -69 -84 -115q-44 -44 -87.5 -65t-100.5 -21q-49 0 -109 24z" />
    <glyph glyph-name="Ograve" unicode="&#xd2;" horiz-adv-x="1667" 
d="M1591 684q0 -157 -52 -282t-138 -214q-95 -98 -239 -158.5t-328 -60.5t-328.5 60.5t-239.5 158.5q-86 89 -138 214t-52 282q0 155 52 280t138 214q93 98 239 158.5t329 60.5t328.5 -60.5t238.5 -158.5q86 -89 138 -214t52 -280zM834 956q-114 0 -179 -69
q-36 -38 -56.5 -93.5t-20.5 -111.5q0 -126 77 -203q69 -69 179 -69q109 0 178 69q78 78 78 203q0 130 -78 205q-69 69 -178 69zM938 1452l-344 246l172 174l293 -289z" />
    <glyph glyph-name="Oacute" unicode="&#xd3;" horiz-adv-x="1667" 
d="M1591 684q0 -157 -52 -282t-138 -214q-95 -98 -239 -158.5t-328 -60.5t-328.5 60.5t-239.5 158.5q-86 89 -138 214t-52 282q0 155 52 280t138 214q93 98 239 158.5t329 60.5t328.5 -60.5t238.5 -158.5q86 -89 138 -214t52 -280zM834 956q-114 0 -179 -69
q-36 -38 -56.5 -93.5t-20.5 -111.5q0 -126 77 -203q69 -69 179 -69q109 0 178 69q78 78 78 203q0 130 -78 205q-69 69 -178 69zM1202 1698l-344 -246l-121 131l293 289z" />
    <glyph glyph-name="Ocircumflex" unicode="&#xd4;" horiz-adv-x="1667" 
d="M1591 684q0 -157 -52 -282t-138 -214q-95 -98 -239 -158.5t-328 -60.5t-328.5 60.5t-239.5 158.5q-86 89 -138 214t-52 282q0 155 52 280t138 214q93 98 239 158.5t329 60.5t328.5 -60.5t238.5 -158.5q86 -89 138 -214t52 -280zM834 956q-114 0 -179 -69
q-36 -38 -56.5 -93.5t-20.5 -111.5q0 -126 77 -203q69 -69 179 -69q109 0 178 69q78 78 78 203q0 130 -78 205q-69 69 -178 69zM834 1599l-185 -145l-160 139l345 267l348 -267l-162 -139z" />
    <glyph glyph-name="Otilde" unicode="&#xd5;" horiz-adv-x="1667" 
d="M1591 684q0 -157 -52 -282t-138 -214q-95 -98 -239 -158.5t-328 -60.5t-328.5 60.5t-239.5 158.5q-86 89 -138 214t-52 282q0 155 52 280t138 214q93 98 239 158.5t329 60.5t328.5 -60.5t238.5 -158.5q86 -89 138 -214t52 -280zM834 956q-114 0 -179 -69
q-36 -38 -56.5 -93.5t-20.5 -111.5q0 -126 77 -203q69 -69 179 -69q109 0 178 69q78 78 78 203q0 130 -78 205q-69 69 -178 69zM1032 1765l154 -94q-14 -37 -37.5 -77t-42.5 -58v2q-59 -59 -135 -59q-60 0 -111 32q-4 3 -19 10t-28 15q-48 18 -59 18q-41 0 -62 -81l-153 94
q29 93 71 135q50 53 131 53q54 0 109 -24l49 -25q7 -3 19.5 -9.5t18 -9t15.5 -4.5t21 -2q31 0 59 84z" />
    <glyph glyph-name="Odieresis" unicode="&#xd6;" horiz-adv-x="1667" 
d="M1591 684q0 -157 -52 -282t-138 -214q-95 -98 -239 -158.5t-328 -60.5t-328.5 60.5t-239.5 158.5q-86 89 -138 214t-52 282q0 155 52 280t138 214q93 98 239 158.5t329 60.5t328.5 -60.5t238.5 -158.5q86 -89 138 -214t52 -280zM834 956q-114 0 -179 -69
q-36 -38 -56.5 -93.5t-20.5 -111.5q0 -126 77 -203q69 -69 179 -69q109 0 178 69q78 78 78 203q0 130 -78 205q-69 69 -178 69zM422 1661q0 78 53 131t131 53t132.5 -53t54.5 -131t-54.5 -132t-132.5 -54t-131 54t-53 132zM887 1661q0 78 53 131t131 53t132 -53t54 -131
t-54 -132t-132 -54t-131 54t-53 132z" />
    <glyph glyph-name="multiply" unicode="&#xd7;" 
d="M244 254l-174 174l262 260l-264 264l188 189l264 -264l260 262l174 -174l-262 -260l264 -265l-188 -188l-264 264z" />
    <glyph glyph-name="Oslash" unicode="&#xd8;" horiz-adv-x="1742" 
d="M1686 1292l-193 -186q135 -179 135 -422q0 -159 -53.5 -285.5t-136.5 -210.5q-95 -99 -238.5 -159t-329.5 -60q-226 0 -407 99l-195 -193l-211 195l193 184q-68 91 -102.5 191.5t-34.5 234.5q0 292 190 498q208 219 567 219q221 0 416 -103l195 193zM870 956
q-113 0 -178 -69q-36 -38 -57 -93.5t-21 -111.5q0 -125 78 -203q69 -69 178 -69q110 0 179 69q77 77 77 203q0 131 -77 205q-69 69 -179 69z" />
    <glyph glyph-name="Ugrave" unicode="&#xd9;" horiz-adv-x="1538" 
d="M137 494v872h492v-793q0 -94 43 -139q32 -37 98 -37q67 0 100 33q37 37 37 143v793h494v-838q0 -240 -144 -389q-170 -170 -487 -170q-344 0 -508 181q-125 136 -125 344zM840 1452l-344 246l172 174l293 -289z" />
    <glyph glyph-name="Uacute" unicode="&#xda;" horiz-adv-x="1538" 
d="M137 494v872h492v-793q0 -94 43 -139q32 -37 98 -37q67 0 100 33q37 37 37 143v793h494v-838q0 -240 -144 -389q-170 -170 -487 -170q-344 0 -508 181q-125 136 -125 344zM1098 1698l-344 -246l-121 131l293 289z" />
    <glyph glyph-name="Ucircumflex" unicode="&#xdb;" horiz-adv-x="1538" 
d="M137 494v872h492v-793q0 -94 43 -139q32 -37 98 -37q67 0 100 33q37 37 37 143v793h494v-838q0 -240 -144 -389q-170 -170 -487 -170q-344 0 -508 181q-125 136 -125 344zM1020 1466l-238 144l-243 -148l-148 180l402 234l378 -236z" />
    <glyph glyph-name="Udieresis" unicode="&#xdc;" horiz-adv-x="1538" 
d="M137 494v872h492v-793q0 -94 43 -139q32 -37 98 -37q67 0 100 33q37 37 37 143v793h494v-838q0 -240 -144 -389q-170 -170 -487 -170q-344 0 -508 181q-125 136 -125 344zM360 1661q0 78 53.5 131t131.5 53t132 -53t54 -131t-54 -132t-132 -54t-131.5 54t-53.5 132z
M825 1661q0 78 53.5 131t131.5 53t132 -53t54 -131t-54 -132t-132 -54t-131.5 54t-53.5 132z" />
    <glyph glyph-name="Yacute" unicode="&#xdd;" horiz-adv-x="1402" 
d="M461 588l-475 778h561l117 -250q17 -37 36 -108h15q7 43 37 108l106 250h559l-467 -778v-588h-489v588zM1008 1698l-344 -246l-121 131l293 289z" />
    <glyph glyph-name="Thorn" unicode="&#xde;" horiz-adv-x="1366" 
d="M621 0h-484v1366h484v-154h172q129 0 222.5 -25t176.5 -104q139 -133 139 -358q0 -229 -135 -350q-125 -117 -365 -117h-210v-258zM621 838v-236h84q73 0 110 37q33 29 33 84t-37 84q-40 31 -100 31h-90z" />
    <glyph glyph-name="germandbls" unicode="&#xdf;" horiz-adv-x="1316" 
d="M563 0h-465v977q0 51 2 88.5t12.5 92.5t30 97t56 88t88.5 80q142 93 362 93q113 0 206 -25t173 -92q127 -110 127 -277q0 -101 -45 -176q-42 -65 -104 -98q100 -39 159 -113q44 -55 69.5 -132.5t25.5 -160.5q0 -190 -119 -309q-44 -44 -98 -72.5t-115.5 -40.5t-110 -16
t-112.5 -4h-33v266q38 0 69 31q47 47 47 160q0 133 -38 176q-29 33 -78 33v264q50 -3 84 31q24 27 24 65q0 41 -28 66q-33 26 -78 26q-54 0 -78 -31q-33 -35 -33 -129v-958z" />
    <glyph glyph-name="agrave" unicode="&#xe0;" horiz-adv-x="1308" 
d="M756 842l10 6q-16 45 -16 82v26h460v-956h-458l2 33q3 41 18 88h-14q-116 -148 -287 -148q-160 0 -270 113q-144 148 -144 387q0 245 150 395q115 115 282 115q162 0 267 -141zM520 479q0 -59 41 -100q33 -33 80 -33q44 0 80 31q45 45 45 106q0 60 -41 101q-35 30 -80 30
q-52 0 -84 -32q-41 -41 -41 -103zM803 1047l-344 245l172 174l293 -288z" />
    <glyph glyph-name="aacute" unicode="&#xe1;" horiz-adv-x="1308" 
d="M756 842l10 6q-16 45 -16 82v26h460v-956h-458l2 33q3 41 18 88h-14q-116 -148 -287 -148q-160 0 -270 113q-144 148 -144 387q0 245 150 395q115 115 282 115q162 0 267 -141zM520 479q0 -59 41 -100q33 -33 80 -33q44 0 80 31q45 45 45 106q0 60 -41 101q-35 30 -80 30
q-52 0 -84 -32q-41 -41 -41 -103zM1018 1292l-344 -245l-121 131l293 288z" />
    <glyph glyph-name="acircumflex" unicode="&#xe2;" horiz-adv-x="1308" 
d="M756 842l10 6q-16 45 -16 82v26h460v-956h-458l2 33q3 41 18 88h-14q-116 -148 -287 -148q-160 0 -270 113q-144 148 -144 387q0 245 150 395q115 115 282 115q162 0 267 -141zM520 479q0 -59 41 -100q33 -33 80 -33q44 0 80 31q45 45 45 106q0 60 -41 101q-35 30 -80 30
q-52 0 -84 -32q-41 -41 -41 -103zM725 1194l-184 -145l-160 139l344 266l348 -266l-162 -139z" />
    <glyph glyph-name="atilde" unicode="&#xe3;" horiz-adv-x="1308" 
d="M756 842l10 6q-16 45 -16 82v26h460v-956h-458l2 33q3 41 18 88h-14q-116 -148 -287 -148q-160 0 -270 113q-144 148 -144 387q0 245 150 395q115 115 282 115q162 0 267 -141zM520 479q0 -59 41 -100q33 -33 80 -33q44 0 80 31q45 45 45 106q0 60 -41 101q-35 30 -80 30
q-52 0 -84 -32q-41 -41 -41 -103zM897 1362l154 -94q-14 -37 -37.5 -77t-42.5 -58v2q-60 -60 -135 -60q-58 0 -111 33q-4 3 -19 10t-28 15q-48 18 -60 18q-40 0 -61 -82l-154 94q29 92 72 135q51 54 131 54q52 0 109 -25l49 -24q7 -3 19.5 -9.5t18 -9t15.5 -4.5t21 -2
q31 0 59 84z" />
    <glyph glyph-name="adieresis" unicode="&#xe4;" horiz-adv-x="1308" 
d="M756 842l10 6q-16 45 -16 82v26h460v-956h-458l2 33q3 41 18 88h-14q-116 -148 -287 -148q-160 0 -270 113q-144 148 -144 387q0 245 150 395q115 115 282 115q162 0 267 -141zM520 479q0 -59 41 -100q33 -33 80 -33q44 0 80 31q45 45 45 106q0 60 -41 101q-35 30 -80 30
q-52 0 -84 -32q-41 -41 -41 -103zM268 1274q0 78 53.5 132t131.5 54t132 -54t54 -132t-54 -132.5t-132 -54.5t-131.5 54.5t-53.5 132.5zM713 1274q0 78 53 132t131 54t132 -54t54 -132t-54 -132.5t-132 -54.5t-131 54.5t-53 132.5z" />
    <glyph glyph-name="aring" unicode="&#xe5;" horiz-adv-x="1308" 
d="M756 842l10 6q-16 45 -16 82v26h460v-956h-458l2 33q3 41 18 88h-14q-116 -148 -287 -148q-160 0 -270 113q-144 148 -144 387q0 245 150 395q115 115 282 115q162 0 267 -141zM520 479q0 -59 41 -100q33 -33 80 -33q44 0 80 31q45 45 45 106q0 60 -41 101q-35 30 -80 30
q-52 0 -84 -32q-41 -41 -41 -103zM944 1321q0 -100 -78 -158q-73 -55 -202 -55q-130 0 -203 55q-78 58 -78 158q0 96 78 156q73 55 203 55q129 0 202 -55q78 -60 78 -156zM664 1393q-44 0 -72 -17q-31 -19 -31 -55q0 -38 31 -57q28 -17 72 -17q43 0 71 17q31 22 31 55
q0 35 -31 57q-28 17 -71 17z" />
    <glyph glyph-name="ae" unicode="&#xe6;" horiz-adv-x="2056" 
d="M1520 322h456q-28 -91 -81.5 -154.5t-135.5 -112.5q-145 -82 -327 -82q-159 0 -269 45q-104 38 -180 119q-88 -71 -188 -112q-127 -52 -285 -52q-240 0 -369 129q-84 87 -84 211q0 125 82 207q110 117 350 117q148 0 283 -45q1 37 -11 71t-32 54q-53 53 -188 53
q-188 0 -445 -92v231q252 74 469 74q164 0 252 -41q98 -40 166 -127q75 71 166 113q118 55 266 55q287 0 443 -166q83 -87 112 -184.5t29 -208.5v-16h-680v-13q0 -88 35 -123q26 -26 78 -26q41 0 61 20q21 21 27 56zM1323 606h221q-4 60 -41 94q-33 29 -71 29q-46 0 -70 -24
q-18 -17 -28.5 -45t-10.5 -54zM662 412q-93 0 -138 -31q-39 -26 -39 -68q0 -52 50 -75q45 -21 124 -21q93 0 154 31q61 30 61 74q0 48 -69 69q-59 21 -143 21z" />
    <glyph glyph-name="ccedilla" unicode="&#xe7;" horiz-adv-x="909" 
d="M852 418l-18 -395q-102 -50 -236 -50q-261 0 -403 142q-138 134 -138 350q0 233 148 381q137 137 370 137q148 0 271 -49v-389q-84 76 -174 76q-66 0 -103 -37q-39 -42 -39 -101q0 -61 39 -100q41 -41 99 -41q105 0 184 76zM791 -248l-259 -264l-204 143l245 277z" />
    <glyph glyph-name="egrave" unicode="&#xe8;" horiz-adv-x="1255" 
d="M1198 401h-678q-4 -94 35 -139q19 -26 70 -26q39 0 69 26q23 23 31 55h455q-26 -82 -97 -163q-80 -89 -180.5 -135t-257.5 -46q-294 0 -452 158q-136 136 -136 334q0 103 37.5 197t106.5 163q162 158 426 158q252 0 411 -152q76 -72 118 -173t42 -203v-54zM524 600h219
q-4 62 -41 96q-27 27 -73 27q-40 0 -68 -25q-37 -37 -37 -98zM741 1047l-344 245l172 174l293 -288z" />
    <glyph glyph-name="eacute" unicode="&#xe9;" horiz-adv-x="1255" 
d="M1198 401h-678q-4 -94 35 -139q19 -26 70 -26q39 0 69 26q23 23 31 55h455q-26 -82 -97 -163q-80 -89 -180.5 -135t-257.5 -46q-294 0 -452 158q-136 136 -136 334q0 103 37.5 197t106.5 163q162 158 426 158q252 0 411 -152q76 -72 118 -173t42 -203v-54zM524 600h219
q-4 62 -41 96q-27 27 -73 27q-40 0 -68 -25q-37 -37 -37 -98zM987 1292l-344 -245l-121 131l293 288z" />
    <glyph glyph-name="ecircumflex" unicode="&#xea;" horiz-adv-x="1255" 
d="M1198 401h-678q-4 -94 35 -139q19 -26 70 -26q39 0 69 26q23 23 31 55h455q-26 -82 -97 -163q-80 -89 -180.5 -135t-257.5 -46q-294 0 -452 158q-136 136 -136 334q0 103 37.5 197t106.5 163q162 158 426 158q252 0 411 -152q76 -72 118 -173t42 -203v-54zM524 600h219
q-4 62 -41 96q-27 27 -73 27q-40 0 -68 -25q-37 -37 -37 -98zM631 1194l-185 -145l-159 139l344 266l348 -266l-162 -139z" />
    <glyph glyph-name="edieresis" unicode="&#xeb;" horiz-adv-x="1255" 
d="M1198 401h-678q-4 -94 35 -139q19 -26 70 -26q39 0 69 26q23 23 31 55h455q-26 -82 -97 -163q-80 -89 -180.5 -135t-257.5 -46q-294 0 -452 158q-136 136 -136 334q0 103 37.5 197t106.5 163q162 158 426 158q252 0 411 -152q76 -72 118 -173t42 -203v-54zM524 600h219
q-4 62 -41 96q-27 27 -73 27q-40 0 -68 -25q-37 -37 -37 -98zM190 1274q0 78 53.5 132t131.5 54t132 -54t54 -132t-54 -132.5t-132 -54.5t-131.5 54.5t-53.5 132.5zM635 1274q0 78 53 132t131 54t132.5 -54t54.5 -132t-54.5 -132.5t-132.5 -54.5t-131 54.5t-53 132.5z" />
    <glyph glyph-name="igrave" unicode="&#xec;" horiz-adv-x="661" 
d="M563 0h-465v956h465v-956zM416 1047l-344 245l172 174l293 -288z" />
    <glyph glyph-name="iacute" unicode="&#xed;" horiz-adv-x="661" 
d="M563 0h-465v956h465v-956zM602 1292l-344 -245l-121 131l293 288z" />
    <glyph glyph-name="icircumflex" unicode="&#xee;" horiz-adv-x="661" 
d="M563 0h-465v956h465v-956zM543 1057l-211 147l-203 -147l-152 162l363 264l346 -260z" />
    <glyph glyph-name="idieresis" unicode="&#xef;" horiz-adv-x="661" 
d="M563 0h-465v956h465v-956zM-78 1274q0 78 53 132t131 54t132.5 -54t54.5 -132t-54.5 -132.5t-132.5 -54.5t-131 54.5t-53 132.5zM367 1274q0 78 53 132t131 54t132 -54t54 -132t-54 -132.5t-132 -54.5t-131 54.5t-53 132.5z" />
    <glyph glyph-name="eth" unicode="&#xf0;" horiz-adv-x="1302" 
d="M246 1298l33 228q283 -25 507 -137l293 129l74 -201l-186 -78q143 -115 217 -293q61 -142 61 -344q0 -167 -47.5 -283.5t-116.5 -185.5q-89 -93 -198.5 -126.5t-235.5 -33.5q-163 0 -275 42.5t-175 105.5q-66 62 -103 153t-37 193q0 179 127 313q148 148 398 148
q169 0 299 -82q-44 179 -199 264l-385 -170l-74 203l242 104q-116 42 -219 51zM639 614q-58 0 -90 -32q-41 -41 -41 -103q0 -63 41 -104q33 -33 90 -33t90 33q41 41 41 104q0 62 -41 103q-32 32 -90 32z" />
    <glyph glyph-name="ntilde" unicode="&#xf1;" horiz-adv-x="1288" 
d="M563 0h-465v956h457v-49q0 -42 -18 -98l10 -2q70 84 129 125q74 51 174 51q139 0 233 -86q107 -107 107 -283v-614h-465v520q0 54 -20 74q-18 20 -54 20q-37 0 -59 -22q-29 -29 -29 -94v-498zM664 1137l-89 34q-6 2 -21 8.5t-26.5 9.5t-23.5 3q-31 0 -49 -18
q-29 -29 -45 -66l-168 106q64 97 131 142q64 45 147 45q55 0 115 -29l47 -24q7 -3 20.5 -10t21 -10t18.5 -6t22 -3q29 0 45 16q6 4 20 20.5t19 24.5l14 23l182 -90q-42 -72 -83 -115q-44 -44 -88 -65t-101 -21q-49 0 -108 25z" />
    <glyph glyph-name="ograve" unicode="&#xf2;" horiz-adv-x="1282" 
d="M1225 479q0 -100 -37.5 -190t-100.5 -154q-66 -69 -177.5 -115.5t-268.5 -46.5t-268.5 46.5t-177.5 115.5q-63 64 -100.5 154t-37.5 190q0 91 35.5 181.5t102.5 160.5q66 69 177.5 115.5t268.5 46.5t268.5 -46.5t177.5 -115.5q67 -70 102.5 -160.5t35.5 -181.5zM641 614
q-58 0 -90 -32q-41 -41 -41 -103q0 -63 41 -104q33 -33 90 -33t90 33q41 41 41 104q0 62 -41 103q-32 32 -90 32zM748 1047l-345 245l172 174l293 -288z" />
    <glyph glyph-name="oacute" unicode="&#xf3;" horiz-adv-x="1282" 
d="M1225 479q0 -100 -37.5 -190t-100.5 -154q-66 -69 -177.5 -115.5t-268.5 -46.5t-268.5 46.5t-177.5 115.5q-63 64 -100.5 154t-37.5 190q0 91 35.5 181.5t102.5 160.5q66 69 177.5 115.5t268.5 46.5t268.5 -46.5t177.5 -115.5q67 -70 102.5 -160.5t35.5 -181.5zM641 614
q-58 0 -90 -32q-41 -41 -41 -103q0 -63 41 -104q33 -33 90 -33t90 33q41 41 41 104q0 62 -41 103q-32 32 -90 32zM1004 1292l-345 -245l-120 131l292 288z" />
    <glyph glyph-name="ocircumflex" unicode="&#xf4;" horiz-adv-x="1282" 
d="M1225 479q0 -100 -37.5 -190t-100.5 -154q-66 -69 -177.5 -115.5t-268.5 -46.5t-268.5 46.5t-177.5 115.5q-63 64 -100.5 154t-37.5 190q0 91 35.5 181.5t102.5 160.5q66 69 177.5 115.5t268.5 46.5t268.5 -46.5t177.5 -115.5q67 -70 102.5 -160.5t35.5 -181.5zM641 614
q-58 0 -90 -32q-41 -41 -41 -103q0 -63 41 -104q33 -33 90 -33t90 33q41 41 41 104q0 62 -41 103q-32 32 -90 32zM641 1194l-184 -145l-160 139l344 266l348 -266l-162 -139z" />
    <glyph glyph-name="otilde" unicode="&#xf5;" horiz-adv-x="1282" 
d="M1225 479q0 -100 -37.5 -190t-100.5 -154q-66 -69 -177.5 -115.5t-268.5 -46.5t-268.5 46.5t-177.5 115.5q-63 64 -100.5 154t-37.5 190q0 91 35.5 181.5t102.5 160.5q66 69 177.5 115.5t268.5 46.5t268.5 -46.5t177.5 -115.5q67 -70 102.5 -160.5t35.5 -181.5zM641 614
q-58 0 -90 -32q-41 -41 -41 -103q0 -63 41 -104q33 -33 90 -33t90 33q41 41 41 104q0 62 -41 103q-32 32 -90 32zM823 1362l154 -94q-14 -37 -37.5 -77t-42.5 -58v2q-60 -60 -135 -60q-58 0 -111 33q-4 3 -19 10t-28 15q-48 18 -59 18q-41 0 -62 -82l-153 94q29 93 71 135
q51 54 131 54q52 0 109 -25l49 -24q7 -3 19.5 -9.5t18 -9t15.5 -4.5t21 -2q31 0 59 84z" />
    <glyph glyph-name="odieresis" unicode="&#xf6;" horiz-adv-x="1282" 
d="M1225 479q0 -100 -37.5 -190t-100.5 -154q-66 -69 -177.5 -115.5t-268.5 -46.5t-268.5 46.5t-177.5 115.5q-63 64 -100.5 154t-37.5 190q0 91 35.5 181.5t102.5 160.5q66 69 177.5 115.5t268.5 46.5t268.5 -46.5t177.5 -115.5q67 -70 102.5 -160.5t35.5 -181.5zM641 614
q-58 0 -90 -32q-41 -41 -41 -103q0 -63 41 -104q33 -33 90 -33t90 33q41 41 41 104q0 62 -41 103q-32 32 -90 32zM207 1274q0 78 53 132t131 54t132.5 -54t54.5 -132t-54.5 -132.5t-132.5 -54.5t-131 54.5t-53 132.5zM651 1274q0 78 53.5 132t131.5 54t132 -54t54 -132
t-54 -132.5t-132 -54.5t-131.5 54.5t-53.5 132.5z" />
    <glyph glyph-name="divide" unicode="&#xf7;" 
d="M68 573v246h888v-246h-888zM360 1044q0 63 44.5 107.5t107.5 44.5t107.5 -44.5t44.5 -107.5t-44.5 -107t-107.5 -44t-107.5 44t-44.5 107zM360 348q0 63 44.5 107.5t107.5 44.5t107.5 -44.5t44.5 -107.5t-44.5 -107t-107.5 -44t-107.5 44t-44.5 107z" />
    <glyph glyph-name="oslash" unicode="&#xf8;" horiz-adv-x="1341" 
d="M1309 950l-162 -166q106 -128 106 -305q0 -207 -137 -344q-155 -162 -457 -162q-155 0 -272 52l-186 -187l-168 162l164 166q-111 142 -111 313q0 91 35 181.5t102 160.5q159 162 447 162q164 0 291 -55l180 186zM670 614q-58 0 -90 -32q-41 -41 -41 -103q0 -63 41 -104
q33 -33 90 -33t90 33q41 41 41 104q0 62 -41 103q-32 32 -90 32z" />
    <glyph glyph-name="ugrave" unicode="&#xf9;" horiz-adv-x="1286" 
d="M98 391v565h465v-518q0 -53 23 -76q18 -20 55 -20t57 20q25 25 25 76v518h465v-550q0 -155 -111 -273q-70 -75 -181.5 -117.5t-254.5 -42.5q-141 0 -250.5 42t-179.5 112q-113 113 -113 264zM709 1047l-344 245l172 174l292 -288z" />
    <glyph glyph-name="uacute" unicode="&#xfa;" horiz-adv-x="1286" 
d="M98 391v565h465v-518q0 -53 23 -76q18 -20 55 -20t57 20q25 25 25 76v518h465v-550q0 -155 -111 -273q-70 -75 -181.5 -117.5t-254.5 -42.5q-141 0 -250.5 42t-179.5 112q-113 113 -113 264zM926 1292l-344 -245l-121 131l293 288z" />
    <glyph glyph-name="ucircumflex" unicode="&#xfb;" horiz-adv-x="1286" 
d="M98 391v565h465v-518q0 -53 23 -76q18 -20 55 -20t57 20q25 25 25 76v518h465v-550q0 -155 -111 -273q-70 -75 -181.5 -117.5t-254.5 -42.5q-141 0 -250.5 42t-179.5 112q-113 113 -113 264zM854 1057l-211 147l-203 -147l-151 162l362 264l346 -260z" />
    <glyph glyph-name="udieresis" unicode="&#xfc;" horiz-adv-x="1286" 
d="M98 391v565h465v-518q0 -53 23 -76q18 -20 55 -20t57 20q25 25 25 76v518h465v-550q0 -155 -111 -273q-70 -75 -181.5 -117.5t-254.5 -42.5q-141 0 -250.5 42t-179.5 112q-113 113 -113 264zM246 1274q0 78 53 132t131 54t132 -54t54 -132t-54 -132.5t-132 -54.5
t-131 54.5t-53 132.5zM690 1274q0 78 53 132t131 54t132.5 -54t54.5 -132t-54.5 -132.5t-132.5 -54.5t-131 54.5t-53 132.5z" />
    <glyph glyph-name="yacute" unicode="&#xfd;" horiz-adv-x="1230" 
d="M391 96l-411 860h501l115 -393q17 -58 20 -125h13q3 64 20 131l111 387h491l-649 -1425h-493zM911 1292l-344 -245l-121 131l293 288z" />
    <glyph glyph-name="thorn" unicode="&#xfe;" horiz-adv-x="1304" 
d="M565 -469h-467v1962h445v-590q0 -47 -13 -84l-2 -6l15 -4q39 67 98 113q85 61 195 61q163 0 272 -109q69 -69 104 -173t35 -218q0 -232 -149 -395q-109 -115 -254 -115q-103 0 -189 56q-67 48 -98 102h-14q22 -90 22 -186v-414zM543 473q0 -74 41 -115q28 -30 80 -30
q46 0 81 30q48 48 48 115q0 68 -45 113q-35 35 -86 35q-43 0 -76 -29q-43 -43 -43 -119z" />
    <glyph glyph-name="ydieresis" unicode="&#xff;" horiz-adv-x="1230" 
d="M391 96l-411 860h501l115 -393q17 -58 20 -125h13q3 64 20 131l111 387h491l-649 -1425h-493zM238 1274q0 78 53 132t131 54t132 -54t54 -132t-54 -132.5t-132 -54.5t-131 54.5t-53 132.5zM682 1274q0 78 53 132t131 54t132.5 -54t54.5 -132t-54.5 -132.5t-132.5 -54.5
t-131 54.5t-53 132.5z" />
    <glyph glyph-name="Abreve" unicode="&#x102;" horiz-adv-x="1509" 
d="M938 170h-377l-37 -170h-524l473 1366h549l487 -1366h-526zM852 494l-64 262q-14 55 -26 153h-19q-3 -87 -22 -153l-68 -262h199zM854 1757h221q0 -127 -86 -213q-83 -90 -244 -90q-158 0 -241 90q-86 86 -86 213h221q6 -52 31 -76t80 -24q98 0 104 100z" />
    <glyph glyph-name="abreve" unicode="&#x103;" horiz-adv-x="1308" 
d="M756 842l10 6q-16 45 -16 82v26h460v-956h-458l2 33q3 41 18 88h-14q-116 -148 -287 -148q-160 0 -270 113q-144 148 -144 387q0 245 150 395q115 115 282 115q162 0 267 -141zM520 479q0 -59 41 -100q33 -33 80 -33q44 0 80 31q45 45 45 106q0 60 -41 101q-35 30 -80 30
q-52 0 -84 -32q-41 -41 -41 -103zM848 1352h221q0 -127 -86 -213q-83 -90 -244 -90q-158 0 -241 90q-86 86 -86 213h221q6 -52 30.5 -76.5t79.5 -24.5q99 0 105 101z" />
    <glyph glyph-name="Dcroat" unicode="&#x110;" horiz-adv-x="1583" 
d="M844 0h-649v532h-97v295h97v539h526q389 0 604 -207q184 -197 184 -489q0 -301 -176 -477q-193 -193 -489 -193zM666 961v-134h174v-295h-174v-126h57q138 0 211 63q80 76 80 209q0 145 -80 217q-71 66 -195 66h-73z" />
    <glyph glyph-name="dcroat" unicode="&#x111;" horiz-adv-x="1325" 
d="M741 969v133h-215v246h215v145h465v-145h137v-246h-137v-1102h-450v43q0 55 14 109l-14 2q-43 -80 -107 -125q-82 -56 -198 -56q-148 0 -252 107q-69 69 -105.5 175t-36.5 220q0 125 39.5 227.5t108.5 171.5q109 109 258 109q101 0 180 -53q47 -32 102 -101h15
q-19 93 -19 140zM760 485q0 74 -47 121q-31 31 -78 31q-51 0 -80 -29q-20 -18 -32.5 -51t-12.5 -63q0 -72 47 -119q33 -33 80 -33q46 0 78 29q45 45 45 114z" />
    <glyph glyph-name="Itilde" unicode="&#x128;" horiz-adv-x="770" 
d="M553 1765l154 -94q-14 -37 -37.5 -77t-42.5 -58v2q-59 -59 -135 -59q-60 0 -111 32q-4 3 -19 10t-28 15q-48 18 -60 18q-40 0 -61 -81l-154 94q29 92 72 135q50 53 131 53q54 0 109 -24l49 -25q7 -3 19.5 -9.5t18 -9t15.5 -4.5t21 -2q31 0 59 84zM633 0h-496v1366h496
v-1366z" />
    <glyph glyph-name="itilde" unicode="&#x129;" horiz-adv-x="661" 
d="M563 0h-465v956h465v-956zM498 1362l153 -94q-14 -37 -37.5 -77t-42.5 -58v2q-60 -60 -135 -60q-57 0 -110 33q-4 3 -19 10t-28 15q-48 18 -60 18q-40 0 -61 -82l-154 94q29 92 72 135q51 54 131 54q51 0 108 -25l50 -24q8 -4 19.5 -10t17.5 -8.5t15.5 -4.5t20.5 -2
q32 0 60 84z" />
    <glyph glyph-name="OE" unicode="&#x152;" horiz-adv-x="2127" 
d="M1122 0v172q-35 -41 -81 -81.5t-85 -63.5q-101 -58 -245 -58q-244 0 -418 174q-105 105 -161 244.5t-56 294.5q0 152 55.5 301t161.5 252q170 162 434 162q138 0 240 -60q90 -56 155 -161v190h916v-375h-422v-127h385v-358h-385v-131h438v-375h-932zM592 674
q0 -109 61 -180q73 -80 185 -80q107 0 170 63q79 75 79 215q0 133 -73 199q-64 61 -170 61q-111 0 -182 -78q-70 -73 -70 -200z" />
    <glyph glyph-name="oe" unicode="&#x153;" horiz-adv-x="1910" 
d="M1380 322h453q-65 -174 -205 -263q-139 -86 -338 -86q-120 0 -199.5 34.5t-140.5 96.5q-85 -77 -176.5 -104t-195.5 -27q-241 0 -392 160q-129 140 -129 336q0 108 41.5 202t110.5 160q77 73 181.5 112.5t215.5 39.5q200 0 352 -135q141 137 355 137q99 0 200 -35.5
t175 -105.5q71 -65 118 -169.5t47 -242.5v-22h-677v-9q0 -99 32 -131q28 -28 84 -28q44 0 68 24q20 20 20 56zM1184 608h217q0 27 -9.5 57t-27.5 46q-24 24 -70 24q-47 0 -75 -28q-35 -35 -35 -99zM641 614q-58 0 -90 -32q-41 -41 -41 -103q0 -63 41 -104q33 -33 90 -33
t90 33q41 41 41 104q0 62 -41 103q-32 32 -90 32z" />
    <glyph glyph-name="Scaron" unicode="&#x160;" horiz-adv-x="1265" 
d="M1145 1278l-133 -348q-147 102 -279 102q-66 0 -94 -24q-25 -19 -25 -50q0 -19 3.5 -29.5t22 -22t54.5 -19.5l158 -35q149 -33 233 -117q105 -100 105 -270q0 -194 -123 -322q-69 -73 -188.5 -123.5t-292.5 -50.5q-96 0 -190 18.5t-146.5 37.5t-128.5 51l-45 18l149 385
l54 -41q48 -38 121.5 -69t154.5 -31q77 0 107 24q26 20 26 62q0 31 -16 47q-18 18 -94 33l-121 22q-72 13 -129 38t-109 79q-98 98 -98 252q0 193 133 326q173 176 475 176q218 0 416 -119zM731 1729l246 143l143 -174l-397 -236l-383 234l147 180z" />
    <glyph glyph-name="scaron" unicode="&#x161;" horiz-adv-x="997" 
d="M930 901l-113 -268q-45 34 -96 55q-71 29 -119 29q-30 0 -51 -15q-19 -16 -19 -36q0 -16 15 -31q8 -6 55 -17l94 -20q127 -28 189 -90q67 -71 67 -178q0 -139 -96 -232q-125 -125 -362 -125q-190 0 -379 78l-68 29l119 291l65 -41q107 -66 191 -66q41 0 63 17
q19 13 19 36t-19 39q-18 12 -65 21l-68 10q-108 18 -170 80q-73 73 -73 182q0 155 135 246q126 88 325 88q183 0 361 -82zM573 1335l211 148l144 -166l-363 -260l-346 264l152 162z" />
    <glyph glyph-name="Utilde" unicode="&#x168;" horiz-adv-x="1538" 
d="M137 494v872h492v-793q0 -94 43 -139q32 -37 98 -37q67 0 100 33q37 37 37 143v793h494v-838q0 -240 -144 -389q-170 -170 -487 -170q-344 0 -508 181q-125 136 -125 344zM950 1765l154 -94q-14 -37 -37.5 -77t-42.5 -58v2q-59 -59 -135 -59q-60 0 -111 32q-4 3 -19 10
t-28 15q-48 18 -59 18q-41 0 -62 -81l-153 94q29 93 71 135q50 53 131 53q54 0 109 -24l49 -25q7 -3 19.5 -9.5t18 -9t15.5 -4.5t21 -2q31 0 59 84z" />
    <glyph glyph-name="utilde" unicode="&#x169;" horiz-adv-x="1286" 
d="M98 391v565h465v-518q0 -53 23 -76q18 -20 55 -20t57 20q25 25 25 76v518h465v-550q0 -155 -111 -273q-70 -75 -181.5 -117.5t-254.5 -42.5q-141 0 -250.5 42t-179.5 112q-113 113 -113 264zM805 1362l153 -94q-37 -96 -79 -135v2q-60 -60 -136 -60q-57 0 -110 33
q-4 3 -19 10t-28 15q-48 18 -60 18q-40 0 -61 -82l-154 94q29 92 72 135q51 54 131 54q52 0 109 -25l49 -24q8 -4 19.5 -10t17.5 -8.5t15.5 -4.5t20.5 -2q32 0 60 84z" />
    <glyph glyph-name="Ydieresis" unicode="&#x178;" horiz-adv-x="1402" 
d="M461 588l-475 778h561l117 -250q17 -37 36 -108h15q7 43 37 108l106 250h559l-467 -778v-588h-489v588zM299 1661q0 78 53 131t131 53t132.5 -53t54.5 -131t-54.5 -132t-132.5 -54t-131 54t-53 132zM764 1661q0 78 53 131t131 53t132.5 -53t54.5 -131t-54.5 -132
t-132.5 -54t-131 54t-53 132z" />
    <glyph glyph-name="Zcaron" unicode="&#x17d;" horiz-adv-x="1443" 
d="M145 952v414h1272l-518 -844q-34 -52 -76 -100l4 -8l95 8h434v-422h-1329l505 817q6 9 18.5 28.5t19 30t18 26.5t24.5 31.5t29 31.5l-4 8q-60 -21 -98 -21h-394zM772 1729l246 143l143 -174l-397 -236l-383 234l147 180z" />
    <glyph glyph-name="zcaron" unicode="&#x17e;" horiz-adv-x="1124" 
d="M1057 362v-362h-1014v63l297 451q17 26 84 88v8q-33 -14 -84 -14h-250v360h989v-49l-309 -461q-24 -39 -76 -84v-12q36 12 74 12h289zM594 1335l211 148l143 -166l-362 -260l-346 264l151 162z" />
    <glyph glyph-name="florin" unicode="&#x192;" horiz-adv-x="1447" 
d="M971 657l-99 -598q-11 -81 -43.5 -172.5t-95.5 -154.5q-127 -127 -414 -127q-75 0 -131 12l56 346h24q97 0 133 29q19 14 31.5 36t17 37.5t9.5 43.5l96 548h-123l45 254h123l45 271q20 134 113 227q107 107 286 107q131 0 230 -46l-57 -342q-40 25 -82 25q-44 0 -66 -25
q-16 -16 -29 -65l-24 -152h141l-45 -254h-141z" />
    <glyph glyph-name="Ohorn" unicode="&#x1a0;" horiz-adv-x="1667" 
d="M1591 684q0 -157 -52 -282t-138 -214q-95 -98 -239 -158.5t-328 -60.5t-328.5 60.5t-239.5 158.5q-86 89 -138 214t-52 282q0 155 52 280t138 214q93 98 239 158.5t329 60.5q131 0 253 -37q66 -6 133 -5t85 5q38 5 45 14q18 16 18 82v55h277v-53q0 -146 -47 -219
t-166 -96q159 -193 159 -459zM834 956q-114 0 -179 -69q-36 -38 -56.5 -93.5t-20.5 -111.5q0 -126 77 -203q69 -69 179 -69q109 0 178 69q78 78 78 203q0 130 -78 205q-69 69 -178 69z" />
    <glyph glyph-name="ohorn" unicode="&#x1a1;" horiz-adv-x="1282" 
d="M1225 479q0 -100 -37.5 -190t-100.5 -154q-66 -69 -177.5 -115.5t-268.5 -46.5t-268.5 46.5t-177.5 115.5q-63 64 -100.5 154t-37.5 190q0 91 35.5 181.5t102.5 160.5q66 69 177.5 115.5t268.5 46.5q117 0 225 -31q108 -10 138 0q37 5 45 15q18 16 18 82v55h276v-53
q0 -140 -43 -213t-149 -99q74 -121 74 -260zM641 614q-58 0 -90 -32q-41 -41 -41 -103q0 -63 41 -104q33 -33 90 -33t90 33q41 41 41 104q0 62 -41 103q-32 32 -90 32z" />
    <glyph glyph-name="Uhorn" unicode="&#x1af;" horiz-adv-x="1562" 
d="M137 494v872h492v-793q0 -94 43 -139q32 -37 98 -37q67 0 100 33q37 37 37 143v793h439q8 2 14 8q18 16 18 82v55h277v-53q0 -156 -57 -230t-197 -91v-609q0 -240 -144 -389q-170 -170 -487 -170q-344 0 -508 181q-125 136 -125 344z" />
    <glyph glyph-name="uhorn" unicode="&#x1b0;" horiz-adv-x="1355" 
d="M98 391v565h465v-518q0 -53 23 -76q18 -20 55 -20t57 20q25 25 25 76v518h389q15 3 23 11q18 16 18 82v55h277v-53q0 -155 -54 -228.5t-188 -91.5v-325q0 -155 -111 -273q-70 -75 -181.5 -117.5t-254.5 -42.5q-141 0 -250.5 42t-179.5 112q-113 113 -113 264z" />
    <glyph glyph-name="afii57929" unicode="&#x2bc;" 
d="M745 1366l-186 -391h-280l112 391h354z" />
    <glyph glyph-name="circumflex" unicode="&#x2c6;" 
d="M723 1057l-211 147l-203 -147l-151 162l362 264l346 -260z" />
    <glyph glyph-name="caron" unicode="&#x2c7;" 
d="M512 1335l211 148l143 -166l-362 -260l-346 264l151 162z" />
    <glyph glyph-name="uni02C9" unicode="&#x2c9;" 
d="M860 1114h-696v205h696v-205z" />
    <glyph glyph-name="breve" unicode="&#x2d8;" 
d="M670 1423h217q-9 -125 -99 -215q-100 -100 -276 -100t-276 100q-90 90 -99 215h217q8 -52 49 -84q42 -30 109 -30q66 0 109 30q41 32 49 84z" />
    <glyph glyph-name="dotaccent" unicode="&#x2d9;" 
d="M322 1282q0 82 54 136.5t136 54.5t136 -54.5t54 -136.5t-54 -136t-136 -54t-136 54t-54 136z" />
    <glyph glyph-name="ring" unicode="&#x2da;" 
d="M793 1321q0 -100 -78 -158q-73 -55 -203 -55t-203 55q-78 58 -78 158q0 96 78 156q73 55 203 55t203 -55q78 -60 78 -156zM512 1393q-44 0 -72 -17q-30 -18 -30 -55q0 -39 30 -57q28 -17 72 -17t72 17q30 21 30 55q0 36 -30 57q-28 17 -72 17z" />
    <glyph glyph-name="ogonek" unicode="&#x2db;" 
d="M528 0h168q-30 -21 -67 -63q-31 -40 -31 -74q0 -33 20 -49q21 -17 58 -17q61 0 110 47l-45 -178q-72 -43 -174 -43q-92 0 -145 47q-49 45 -49 119t61 135q35 35 94 76z" />
    <glyph glyph-name="tilde" unicode="&#x2dc;" 
d="M532 1137l-88 34q-6 2 -21 8.5t-26.5 9.5t-23.5 3q-31 0 -49 -18q-29 -29 -45 -66l-168 106q64 97 131 142q64 45 147 45q55 0 115 -29l47 -24q7 -3 20.5 -10t21 -10t18.5 -6t22 -3q29 0 45 16q6 4 20 20.5t19 24.5l14 23l182 -90q-41 -69 -84 -115q-44 -44 -87.5 -65
t-100.5 -21q-50 0 -109 25z" />
    <glyph glyph-name="hungarumlaut" unicode="&#x2dd;" 
d="M49 1221l205 299l229 -150l-272 -262zM467 1221l205 299l227 -150l-270 -262z" />
    <glyph glyph-name="acutecomb" unicode="&#x301;" horiz-adv-x="4" 
d="M-739 1221l237 299l240 -150l-299 -262z" />
    <glyph glyph-name="uni1EA0" unicode="&#x1ea0;" horiz-adv-x="1509" 
d="M582 -307q0 66 48 108.5t120 42.5q75 0 124.5 -42.5t49.5 -108.5q0 -63 -49.5 -106.5t-124.5 -43.5q-72 0 -120 43.5t-48 106.5zM938 170h-377l-37 -170h-524l473 1366h549l487 -1366h-526zM852 494l-64 262q-14 55 -26 153h-19q-3 -87 -22 -153l-68 -262h199z" />
    <glyph glyph-name="uni1EA1" unicode="&#x1ea1;" horiz-adv-x="1308" 
d="M481 -307q0 66 48 108.5t120 42.5q75 0 124.5 -42.5t49.5 -108.5q0 -63 -49.5 -106.5t-124.5 -43.5q-72 0 -120 43.5t-48 106.5zM756 842l10 6q-16 45 -16 82v26h460v-956h-458l2 33q3 41 18 88h-14q-116 -148 -287 -148q-160 0 -270 113q-144 148 -144 387
q0 245 150 395q115 115 282 115q162 0 267 -141zM520 479q0 -59 41 -100q33 -33 80 -33q44 0 80 31q45 45 45 106q0 60 -41 101q-35 30 -80 30q-52 0 -84 -32q-41 -41 -41 -103z" />
    <glyph glyph-name="uni1EA2" unicode="&#x1ea2;" horiz-adv-x="1509" 
d="M842 1454h-168l-2 199q68 -14 108 8q25 14 25 39q0 15 -7 22.5t-15.5 9t-22.5 1.5q-15 0 -27.5 -11.5t-13.5 -33.5h-184q2 84 49 143q21 25 67.5 46t106.5 21q120 0 177.5 -51t55.5 -151q-1 -70 -45 -117.5t-104 -58.5v-66zM938 170h-377l-37 -170h-524l473 1366h549
l487 -1366h-526zM852 494l-64 262q-14 55 -26 153h-19q-3 -87 -22 -153l-68 -262h199z" />
    <glyph glyph-name="uni1EA3" unicode="&#x1ea3;" horiz-adv-x="1308" 
d="M811 1049h-168l-2 198q37 -6 65.5 -3.5t43.5 11.5q24 14 24 39q0 15 -7 22.5t-15.5 9t-22.5 1.5q-15 0 -27.5 -11.5t-13.5 -33.5h-184q2 84 49 143q21 25 68 46.5t106 21.5q120 0 178 -51.5t56 -151.5q-1 -70 -45.5 -117.5t-104.5 -58.5v-65zM756 842l10 6q-16 45 -16 82
v26h460v-956h-458l2 33q3 41 18 88h-14q-116 -148 -287 -148q-160 0 -270 113q-144 148 -144 387q0 245 150 395q115 115 282 115q162 0 267 -141zM520 479q0 -59 41 -100q33 -33 80 -33q44 0 80 31q45 45 45 106q0 60 -41 101q-35 30 -80 30q-52 0 -84 -32
q-41 -41 -41 -103z" />
    <glyph glyph-name="uni1EA4" unicode="&#x1ea4;" horiz-adv-x="1509" 
d="M1335 2019l-344 -245l-121 131l293 288zM938 170h-377l-37 -170h-524l473 1366h549l487 -1366h-526zM788 756q-14 55 -26 153h-19q-3 -87 -22 -153l-68 -262h199zM752 1599l-185 -145l-159 139l344 267l348 -267l-162 -139z" />
    <glyph glyph-name="uni1EA5" unicode="&#x1ea5;" horiz-adv-x="1308" 
d="M1309 1614l-344 -246l-121 131l293 289zM756 842l10 6q-16 45 -16 82v26h460v-956h-458l2 33q3 41 18 88h-14q-116 -148 -287 -148q-160 0 -270 113q-144 148 -144 387q0 245 150 395q115 115 282 115q162 0 267 -141zM520 479q0 -59 41 -100q33 -33 80 -33q44 0 80 31
q45 45 45 106q0 60 -41 101q-35 30 -80 30q-52 0 -84 -32q-41 -41 -41 -103zM725 1194l-184 -145l-160 139l344 266l348 -266l-162 -139z" />
    <glyph glyph-name="uni1EA6" unicode="&#x1ea6;" horiz-adv-x="1509" 
d="M1036 1774l-344 245l172 174l293 -288zM938 170h-377l-37 -170h-524l473 1366h549l487 -1366h-526zM852 494l-64 262q-14 55 -26 153h-19q-3 -87 -22 -153l-68 -262h199zM752 1599l-185 -145l-159 139l344 267l348 -267l-162 -139z" />
    <glyph glyph-name="uni1EA7" unicode="&#x1ea7;" horiz-adv-x="1308" 
d="M1010 1368l-344 246l172 174l292 -289zM756 842l10 6q-16 45 -16 82v26h460v-956h-458l2 33q3 41 18 88h-14q-116 -148 -287 -148q-160 0 -270 113q-144 148 -144 387q0 245 150 395q115 115 282 115q162 0 267 -141zM520 479q0 -59 41 -100q33 -33 80 -33q44 0 80 31
q45 45 45 106q0 60 -41 101q-35 30 -80 30q-52 0 -84 -32q-41 -41 -41 -103zM725 1194l-184 -145l-160 139l344 266l348 -266l-162 -139z" />
    <glyph glyph-name="uni1EA8" unicode="&#x1ea8;" horiz-adv-x="1509" 
d="M1135 1774h-168l-2 198q68 -14 108 8q25 14 25 39q0 15 -7 22.5t-15.5 9t-22.5 1.5q-15 0 -27.5 -11.5t-13.5 -33.5h-185q2 82 50 143q21 25 68 46.5t106 21.5q120 0 177.5 -51.5t55.5 -151.5q-1 -70 -45 -117.5t-104 -58.5v-65zM938 170h-377l-37 -170h-524l473 1366
h549l487 -1366h-526zM852 494l-64 262q-14 55 -26 153h-19q-3 -87 -22 -153l-68 -262h199zM752 1599l-185 -145l-159 139l344 267l348 -267l-162 -139z" />
    <glyph glyph-name="uni1EA9" unicode="&#x1ea9;" horiz-adv-x="1308" 
d="M1108 1368h-168l-2 199q37 -6 65.5 -3.5t43.5 11.5q24 14 24 39q0 15 -7 22.5t-15.5 9t-22.5 1.5q-15 0 -27.5 -11.5t-13.5 -33.5h-184q2 84 49 143q21 25 67.5 46t106.5 21q120 0 177.5 -51t55.5 -151q-1 -70 -45 -117.5t-104 -58.5v-66zM756 842l10 6q-16 45 -16 82v26
h460v-956h-458l2 33q3 41 18 88h-14q-116 -148 -287 -148q-160 0 -270 113q-144 148 -144 387q0 245 150 395q115 115 282 115q162 0 267 -141zM520 479q0 -59 41 -100q33 -33 80 -33q44 0 80 31q45 45 45 106q0 60 -41 101q-35 30 -80 30q-52 0 -84 -32q-41 -41 -41 -103z
M725 1194l-184 -145l-160 139l344 266l348 -266l-162 -139z" />
    <glyph glyph-name="uni1EAA" unicode="&#x1eaa;" horiz-adv-x="1509" 
d="M924 2187l153 -94q-14 -37 -37.5 -77t-42.5 -58v2q-59 -59 -135 -59q-59 0 -110 32q-4 3 -19 10t-28 15q-48 18 -60 18q-40 0 -61 -82l-154 95q29 92 72 135q50 53 131 53q51 0 108 -25l50 -24q8 -4 19.5 -10t17.5 -8.5t15.5 -4.5t20.5 -2q32 0 60 84zM938 170h-377
l-37 -170h-524l473 1366h549l487 -1366h-526zM852 494l-64 262q-14 55 -26 153h-19q-3 -87 -22 -153l-68 -262h199zM752 1599l-185 -145l-159 139l344 267l348 -267l-162 -139z" />
    <glyph glyph-name="uni1EAB" unicode="&#x1eab;" horiz-adv-x="1308" 
d="M897 1782l154 -94q-37 -96 -80 -136v2q-59 -59 -135 -59q-58 0 -111 33q-4 2 -18.5 9t-28.5 15q-51 19 -60 19q-40 0 -61 -82l-154 94q29 92 72 135q51 54 131 54q52 0 109 -25l49 -25q7 -3 16.5 -7.5t14.5 -7t12 -5t14.5 -3.5t16.5 -1q31 0 59 84zM756 842l10 6
q-16 45 -16 82v26h460v-956h-458l2 33q3 41 18 88h-14q-116 -148 -287 -148q-160 0 -270 113q-144 148 -144 387q0 245 150 395q115 115 282 115q162 0 267 -141zM520 479q0 -59 41 -100q33 -33 80 -33q44 0 80 31q45 45 45 106q0 60 -41 101q-35 30 -80 30q-52 0 -84 -32
q-41 -41 -41 -103zM725 1194l-184 -145l-160 139l344 266l348 -266l-162 -139z" />
    <glyph glyph-name="uni1EAC" unicode="&#x1eac;" horiz-adv-x="1509" 
d="M582 -307q0 66 48 108.5t120 42.5q75 0 124.5 -42.5t49.5 -108.5q0 -63 -49.5 -106.5t-124.5 -43.5q-72 0 -120 43.5t-48 106.5zM938 170h-377l-37 -170h-524l473 1366h549l487 -1366h-526zM852 494l-64 262q-14 55 -26 153h-19q-3 -87 -22 -153l-68 -262h199zM752 1599
l-185 -145l-159 139l344 267l348 -267l-162 -139z" />
    <glyph glyph-name="uni1EAD" unicode="&#x1ead;" horiz-adv-x="1308" 
d="M481 -307q0 66 48 108.5t120 42.5q75 0 124.5 -42.5t49.5 -108.5q0 -63 -49.5 -106.5t-124.5 -43.5q-72 0 -120 43.5t-48 106.5zM756 842l10 6q-16 45 -16 82v26h460v-956h-458l2 33q3 41 18 88h-14q-116 -148 -287 -148q-160 0 -270 113q-144 148 -144 387
q0 245 150 395q115 115 282 115q162 0 267 -141zM520 479q0 -59 41 -100q33 -33 80 -33q44 0 80 31q45 45 45 106q0 60 -41 101q-35 30 -80 30q-52 0 -84 -32q-41 -41 -41 -103zM725 1194l-184 -145l-160 139l344 266l348 -266l-162 -139z" />
    <glyph glyph-name="uni1EAE" unicode="&#x1eae;" horiz-adv-x="1509" 
d="M1077 2044l-344 -246l-121 131l293 289zM938 170h-377l-37 -170h-524l473 1366h549l487 -1366h-526zM788 756q-14 55 -26 153h-19q-3 -87 -22 -153l-68 -262h199zM854 1757h221q0 -127 -86 -213q-83 -90 -244 -90q-158 0 -241 90q-86 86 -86 213h221q6 -52 31 -76t80 -24
q98 0 104 100z" />
    <glyph glyph-name="uni1EAF" unicode="&#x1eaf;" horiz-adv-x="1308" 
d="M1071 1638l-344 -245l-121 131l293 288zM756 842l10 6q-16 45 -16 82v26h460v-956h-458l2 33q3 41 18 88h-14q-116 -148 -287 -148q-160 0 -270 113q-144 148 -144 387q0 245 150 395q115 115 282 115q162 0 267 -141zM520 479q0 -59 41 -100q33 -33 80 -33q44 0 80 31
q45 45 45 106q0 60 -41 101q-35 30 -80 30q-52 0 -84 -32q-41 -41 -41 -103zM848 1352h221q0 -127 -86 -213q-83 -90 -244 -90q-158 0 -241 90q-86 86 -86 213h221q6 -52 30.5 -76.5t79.5 -24.5q99 0 105 101z" />
    <glyph glyph-name="uni1EB0" unicode="&#x1eb0;" horiz-adv-x="1509" 
d="M776 1798l-344 246l172 174l293 -289zM938 170h-377l-37 -170h-524l473 1366h549l487 -1366h-526zM852 494l-64 262q-14 55 -26 153h-19q-3 -87 -22 -153l-68 -262h199zM854 1757h221q0 -127 -86 -213q-83 -90 -244 -90q-158 0 -241 90q-86 86 -86 213h221q6 -52 31 -76
t80 -24q98 0 104 100z" />
    <glyph glyph-name="uni1EB1" unicode="&#x1eb1;" horiz-adv-x="1308" 
d="M770 1393l-344 245l172 174l293 -288zM756 842l10 6q-16 45 -16 82v26h460v-956h-458l2 33q3 41 18 88h-14q-116 -148 -287 -148q-160 0 -270 113q-144 148 -144 387q0 245 150 395q115 115 282 115q162 0 267 -141zM520 479q0 -59 41 -100q33 -33 80 -33q44 0 80 31
q45 45 45 106q0 60 -41 101q-35 30 -80 30q-52 0 -84 -32q-41 -41 -41 -103zM848 1352h221q0 -127 -86 -213q-83 -90 -244 -90q-158 0 -241 90q-86 86 -86 213h221q6 -52 30.5 -76.5t79.5 -24.5q99 0 105 101z" />
    <glyph glyph-name="uni1EB2" unicode="&#x1eb2;" horiz-adv-x="1509" 
d="M829 1798h-167l-3 199q37 -6 65.5 -3.5t43.5 11.5q25 14 25 39q0 15 -7 22.5t-15.5 9t-22.5 1.5q-15 0 -27.5 -11.5t-13.5 -33.5h-185q2 84 49 143q21 25 68 46.5t106 21.5q120 0 178 -51.5t56 -151.5q-1 -70 -45.5 -117.5t-104.5 -58.5v-66zM938 170h-377l-37 -170h-524
l473 1366h549l487 -1366h-526zM852 494l-64 262q-14 55 -26 153h-19q-3 -87 -22 -153l-68 -262h199zM854 1757h221q0 -127 -86 -213q-83 -90 -244 -90q-158 0 -241 90q-86 86 -86 213h221q6 -52 31 -76t80 -24q98 0 104 100z" />
    <glyph glyph-name="uni1EB3" unicode="&#x1eb3;" horiz-adv-x="1308" 
d="M823 1393h-168l-2 198q37 -6 65.5 -3.5t43.5 11.5q24 14 24 39q0 15 -7 22.5t-15.5 9t-22.5 1.5q-15 0 -27.5 -11.5t-13.5 -33.5h-184q2 84 49 143q21 25 68 46.5t106 21.5q120 0 178 -51.5t56 -151.5q-1 -70 -45.5 -117.5t-104.5 -58.5v-65zM756 842l10 6q-16 45 -16 82
v26h460v-956h-458l2 33q3 41 18 88h-14q-116 -148 -287 -148q-160 0 -270 113q-144 148 -144 387q0 245 150 395q115 115 282 115q162 0 267 -141zM520 479q0 -59 41 -100q33 -33 80 -33q44 0 80 31q45 45 45 106q0 60 -41 101q-35 30 -80 30q-52 0 -84 -32
q-41 -41 -41 -103zM848 1352h221q0 -127 -86 -213q-83 -90 -244 -90q-158 0 -241 90q-86 86 -86 213h221q6 -52 30.5 -76.5t79.5 -24.5q99 0 105 101z" />
    <glyph glyph-name="uni1EB4" unicode="&#x1eb4;" horiz-adv-x="1509" 
d="M922 2093l153 -94q-14 -37 -37.5 -77t-42.5 -58v2q-60 -60 -135 -60q-57 0 -110 33q-4 3 -19 10t-29 15q-48 18 -59 18q-40 0 -61 -82l-154 94q12 39 33 78.5t39 57.5q50 53 131 53q51 0 108 -25l49 -24q7 -3 19.5 -9.5t18 -9t15.5 -4.5t21 -2q32 0 60 84zM938 170h-377
l-37 -170h-524l473 1366h549l487 -1366h-526zM852 494l-64 262q-14 55 -26 153h-19q-3 -87 -22 -153l-68 -262h199zM854 1757h221q0 -127 -86 -213q-83 -90 -244 -90q-158 0 -241 90q-86 86 -86 213h221q6 -52 31 -76t80 -24q98 0 104 100z" />
    <glyph glyph-name="uni1EB5" unicode="&#x1eb5;" horiz-adv-x="1308" 
d="M915 1688l154 -95q-14 -37 -37.5 -77t-42.5 -58v2q-59 -59 -135 -59q-58 0 -111 33q-4 2 -18.5 9t-28.5 15q-51 19 -59 19q-41 0 -62 -82l-153 94q29 92 72 135q50 53 131 53q53 0 108 -24l49 -25q7 -3 16.5 -7.5t14.5 -7t12 -5t14.5 -3.5t16.5 -1q31 0 59 84zM756 842
l10 6q-16 45 -16 82v26h460v-956h-458l2 33q3 41 18 88h-14q-116 -148 -287 -148q-160 0 -270 113q-144 148 -144 387q0 245 150 395q115 115 282 115q162 0 267 -141zM520 479q0 -59 41 -100q33 -33 80 -33q44 0 80 31q45 45 45 106q0 60 -41 101q-35 30 -80 30
q-52 0 -84 -32q-41 -41 -41 -103zM848 1352h221q0 -127 -86 -213q-83 -90 -244 -90q-158 0 -241 90q-86 86 -86 213h221q6 -52 30.5 -76.5t79.5 -24.5q99 0 105 101z" />
    <glyph glyph-name="uni1EB6" unicode="&#x1eb6;" horiz-adv-x="1509" 
d="M582 -307q0 66 48 108.5t120 42.5q75 0 124.5 -42.5t49.5 -108.5q0 -63 -49.5 -106.5t-124.5 -43.5q-72 0 -120 43.5t-48 106.5zM938 170h-377l-37 -170h-524l473 1366h549l487 -1366h-526zM852 494l-64 262q-14 55 -26 153h-19q-3 -87 -22 -153l-68 -262h199zM854 1757
h221q0 -127 -86 -213q-83 -90 -244 -90q-158 0 -241 90q-86 86 -86 213h221q6 -52 31 -76t80 -24q98 0 104 100z" />
    <glyph glyph-name="uni1EB7" unicode="&#x1eb7;" horiz-adv-x="1308" 
d="M481 -307q0 66 48 108.5t120 42.5q75 0 124.5 -42.5t49.5 -108.5q0 -63 -49.5 -106.5t-124.5 -43.5q-72 0 -120 43.5t-48 106.5zM756 842l10 6q-16 45 -16 82v26h460v-956h-458l2 33q3 41 18 88h-14q-116 -148 -287 -148q-160 0 -270 113q-144 148 -144 387
q0 245 150 395q115 115 282 115q162 0 267 -141zM520 479q0 -59 41 -100q33 -33 80 -33q44 0 80 31q45 45 45 106q0 60 -41 101q-35 30 -80 30q-52 0 -84 -32q-41 -41 -41 -103zM848 1352h221q0 -127 -86 -213q-83 -90 -244 -90q-158 0 -241 90q-86 86 -86 213h221
q6 -52 30.5 -76.5t79.5 -24.5q99 0 105 101z" />
    <glyph glyph-name="uni1EB8" unicode="&#x1eb8;" horiz-adv-x="1146" 
d="M410 -307q0 66 48 108.5t120 42.5q75 0 124.5 -42.5t49.5 -108.5q0 -63 -49.5 -106.5t-124.5 -43.5q-72 0 -120 43.5t-48 106.5zM1071 0h-934v1366h922v-375h-426v-127h387v-358h-387v-131h438v-375z" />
    <glyph glyph-name="uni1EB9" unicode="&#x1eb9;" horiz-adv-x="1255" 
d="M451 -307q0 66 47.5 108.5t119.5 42.5q75 0 125 -42.5t50 -108.5q0 -63 -50 -106.5t-125 -43.5q-72 0 -119.5 43.5t-47.5 106.5zM1198 401h-678q-4 -94 35 -139q19 -26 70 -26q39 0 69 26q23 23 31 55h455q-26 -82 -97 -163q-80 -89 -180.5 -135t-257.5 -46
q-294 0 -452 158q-136 136 -136 334q0 103 37.5 197t106.5 163q162 158 426 158q252 0 411 -152q76 -72 118 -173t42 -203v-54zM524 600h219q-4 62 -41 96q-27 27 -73 27q-40 0 -68 -25q-37 -37 -37 -98z" />
    <glyph glyph-name="uni1EBA" unicode="&#x1eba;" horiz-adv-x="1146" 
d="M713 1454h-168l-2 199q68 -14 108 8q25 14 25 39q0 15 -7 22.5t-15.5 9t-22.5 1.5q-15 0 -27.5 -11.5t-13.5 -33.5h-184q2 84 49 143q21 25 67.5 46t106.5 21q120 0 177.5 -51t55.5 -151q-1 -70 -45 -117.5t-104 -58.5v-66zM1071 0h-934v1366h922v-375h-426v-127h387
v-358h-387v-131h438v-375z" />
    <glyph glyph-name="uni1EBB" unicode="&#x1ebb;" horiz-adv-x="1255" 
d="M748 1049h-168l-2 198q68 -14 108 8q25 14 25 39q0 15 -7 22.5t-15.5 9t-22.5 1.5q-15 0 -27.5 -11.5t-13.5 -33.5h-185q2 84 49 143q21 25 68 46.5t107 21.5q120 0 177.5 -51.5t55.5 -151.5q-1 -70 -45 -117.5t-104 -58.5v-65zM1198 401h-678q-4 -94 35 -139
q19 -26 70 -26q39 0 69 26q23 23 31 55h455q-26 -82 -97 -163q-80 -89 -180.5 -135t-257.5 -46q-294 0 -452 158q-136 136 -136 334q0 103 37.5 197t106.5 163q162 158 426 158q252 0 411 -152q76 -72 118 -173t42 -203v-54zM524 600h219q-4 62 -41 96q-27 27 -73 27
q-40 0 -68 -25q-37 -37 -37 -98z" />
    <glyph glyph-name="uni1EBC" unicode="&#x1ebc;" horiz-adv-x="1146" 
d="M766 1765l154 -94q-14 -37 -37.5 -77t-42.5 -58v2q-59 -59 -135 -59q-60 0 -111 32q-4 3 -19 10t-28 15q-48 18 -60 18q-40 0 -61 -81l-154 94q29 92 72 135q50 53 131 53q54 0 109 -24l49 -25q7 -3 19.5 -9.5t18 -9t15.5 -4.5t21 -2q31 0 59 84zM1071 0h-934v1366h922
v-375h-426v-127h387v-358h-387v-131h438v-375z" />
    <glyph glyph-name="uni1EBD" unicode="&#x1ebd;" horiz-adv-x="1255" 
d="M809 1362l154 -94q-14 -37 -37.5 -77t-42.5 -58v2q-60 -60 -135 -60q-58 0 -111 33q-4 3 -19 10t-28 15q-48 18 -60 18q-40 0 -61 -82l-154 94q29 92 72 135q51 54 131 54q51 0 109 -25l49 -24q7 -3 19.5 -9.5t18 -9t15.5 -4.5t21 -2q31 0 59 84zM1198 401h-678
q-4 -94 35 -139q19 -26 70 -26q39 0 69 26q23 23 31 55h455q-26 -82 -97 -163q-80 -89 -180.5 -135t-257.5 -46q-294 0 -452 158q-136 136 -136 334q0 103 37.5 197t106.5 163q162 158 426 158q252 0 411 -152q76 -72 118 -173t42 -203v-54zM524 600h219q-4 62 -41 96
q-27 27 -73 27q-40 0 -68 -25q-37 -37 -37 -98z" />
    <glyph glyph-name="uni1EBE" unicode="&#x1ebe;" horiz-adv-x="1146" 
d="M1178 2019l-344 -245l-121 131l293 288zM1071 0h-934v1366h922v-375h-426v-127h387v-358h-387v-131h438v-375zM594 1599l-184 -145l-160 139l344 267l348 -267l-162 -139z" />
    <glyph glyph-name="uni1EBF" unicode="&#x1ebf;" horiz-adv-x="1255" 
d="M1214 1614l-344 -246l-120 131l292 289zM1198 401h-678q-4 -94 35 -139q19 -26 70 -26q39 0 69 26q23 23 31 55h455q-26 -82 -97 -163q-80 -89 -180.5 -135t-257.5 -46q-294 0 -452 158q-136 136 -136 334q0 103 37.5 197t106.5 163q162 158 426 158q252 0 411 -152
q76 -72 118 -173t42 -203v-54zM524 600h219q-4 62 -41 96q-27 27 -73 27q-40 0 -68 -25q-37 -37 -37 -98zM631 1194l-185 -145l-159 139l344 266l348 -266l-162 -139z" />
    <glyph glyph-name="uni1EC0" unicode="&#x1ec0;" horiz-adv-x="1146" 
d="M879 1774l-344 245l172 174l292 -288zM1071 0h-934v1366h922v-375h-426v-127h387v-358h-387v-131h438v-375zM594 1599l-184 -145l-160 139l344 267l348 -267l-162 -139z" />
    <glyph glyph-name="uni1EC1" unicode="&#x1ec1;" horiz-adv-x="1255" 
d="M915 1368l-344 246l172 174l293 -289zM1198 401h-678q-4 -94 35 -139q19 -26 70 -26q39 0 69 26q23 23 31 55h455q-26 -82 -97 -163q-80 -89 -180.5 -135t-257.5 -46q-294 0 -452 158q-136 136 -136 334q0 103 37.5 197t106.5 163q162 158 426 158q252 0 411 -152
q76 -72 118 -173t42 -203v-54zM524 600h219q-4 62 -41 96q-27 27 -73 27q-40 0 -68 -25q-37 -37 -37 -98zM631 1194l-185 -145l-159 139l344 266l348 -266l-162 -139z" />
    <glyph glyph-name="uni1EC2" unicode="&#x1ec2;" horiz-adv-x="1146" 
d="M977 1774h-168l-2 198q68 -14 108 8q25 14 25 39q0 15 -7 22.5t-15.5 9t-22.5 1.5q-15 0 -27.5 -11.5t-13.5 -33.5h-184q2 84 49 143q21 25 68 46.5t106 21.5q120 0 177.5 -51.5t55.5 -151.5q-1 -70 -45 -117.5t-104 -58.5v-65zM1071 0h-934v1366h922v-375h-426v-127h387
v-358h-387v-131h438v-375zM594 1599l-184 -145l-160 139l344 267l348 -267l-162 -139z" />
    <glyph glyph-name="uni1EC3" unicode="&#x1ec3;" horiz-adv-x="1255" 
d="M1014 1368h-168l-2 199q68 -14 108 8q25 14 25 39q0 15 -7 22.5t-15.5 9t-22.5 1.5q-15 0 -27.5 -11.5t-13.5 -33.5h-184q2 84 49 143q21 25 67.5 46t106.5 21q120 0 177.5 -51t55.5 -151q-1 -70 -45 -117.5t-104 -58.5v-66zM1198 401h-678q-4 -94 35 -139q19 -26 70 -26
q39 0 69 26q23 23 31 55h455q-26 -82 -97 -163q-80 -89 -180.5 -135t-257.5 -46q-294 0 -452 158q-136 136 -136 334q0 103 37.5 197t106.5 163q162 158 426 158q252 0 411 -152q76 -72 118 -173t42 -203v-54zM524 600h219q-4 62 -41 96q-27 27 -73 27q-40 0 -68 -25
q-37 -37 -37 -98zM631 1194l-185 -145l-159 139l344 266l348 -266l-162 -139z" />
    <glyph glyph-name="uni1EC4" unicode="&#x1ec4;" horiz-adv-x="1146" 
d="M766 2187l154 -94q-14 -37 -37.5 -77t-42.5 -58v2q-59 -59 -135 -59q-60 0 -111 32q-4 3 -19 10t-28 15q-48 18 -60 18q-40 0 -61 -82l-154 95q29 92 72 135q50 53 131 53q51 0 109 -25l49 -24q7 -3 19.5 -9.5t18 -9t15.5 -4.5t21 -2q31 0 59 84zM1071 0h-934v1366h922
v-375h-426v-127h387v-358h-387v-131h438v-375zM594 1599l-184 -145l-160 139l344 267l348 -267l-162 -139z" />
    <glyph glyph-name="uni1EC5" unicode="&#x1ec5;" horiz-adv-x="1255" 
d="M803 1782l153 -94q-37 -97 -79 -136v2q-59 -59 -136 -59q-57 0 -110 33q-4 2 -18.5 9t-28.5 15q-51 19 -60 19q-40 0 -61 -82l-154 94q29 92 72 135q51 54 131 54q52 0 109 -25l49 -25q7 -3 19.5 -9t17.5 -8.5t15 -4.5t21 -2q32 0 60 84zM1198 401h-678q-4 -94 35 -139
q19 -26 70 -26q39 0 69 26q23 23 31 55h455q-26 -82 -97 -163q-80 -89 -180.5 -135t-257.5 -46q-294 0 -452 158q-136 136 -136 334q0 103 37.5 197t106.5 163q162 158 426 158q252 0 411 -152q76 -72 118 -173t42 -203v-54zM524 600h219q-4 62 -41 96q-27 27 -73 27
q-40 0 -68 -25q-37 -37 -37 -98zM631 1194l-185 -145l-159 139l344 266l348 -266l-162 -139z" />
    <glyph glyph-name="uni1EC6" unicode="&#x1ec6;" horiz-adv-x="1146" 
d="M410 -307q0 66 48 108.5t120 42.5q75 0 124.5 -42.5t49.5 -108.5q0 -63 -49.5 -106.5t-124.5 -43.5q-72 0 -120 43.5t-48 106.5zM1071 0h-934v1366h922v-375h-426v-127h387v-358h-387v-131h438v-375zM594 1599l-184 -145l-160 139l344 267l348 -267l-162 -139z" />
    <glyph glyph-name="uni1EC7" unicode="&#x1ec7;" horiz-adv-x="1255" 
d="M451 -307q0 66 47.5 108.5t119.5 42.5q75 0 125 -42.5t50 -108.5q0 -63 -50 -106.5t-125 -43.5q-72 0 -119.5 43.5t-47.5 106.5zM1198 401h-678q-4 -94 35 -139q19 -26 70 -26q39 0 69 26q23 23 31 55h455q-26 -82 -97 -163q-80 -89 -180.5 -135t-257.5 -46
q-294 0 -452 158q-136 136 -136 334q0 103 37.5 197t106.5 163q162 158 426 158q252 0 411 -152q76 -72 118 -173t42 -203v-54zM524 600h219q-4 62 -41 96q-27 27 -73 27q-40 0 -68 -25q-37 -37 -37 -98zM631 1194l-185 -145l-159 139l344 266l348 -266l-162 -139z" />
    <glyph glyph-name="uni1EC8" unicode="&#x1ec8;" horiz-adv-x="770" 
d="M469 1454h-168l-2 199q37 -6 65.5 -3.5t43.5 11.5q24 14 24 39q0 15 -7 22.5t-15.5 9t-22.5 1.5q-15 0 -27.5 -11.5t-13.5 -33.5h-184q2 84 49 143q21 25 67.5 46t106.5 21q120 0 177.5 -51t55.5 -151q-1 -70 -45 -117.5t-104 -58.5v-66zM633 0h-496v1366h496v-1366z" />
    <glyph glyph-name="uni1EC9" unicode="&#x1ec9;" horiz-adv-x="661" 
d="M563 0h-465v956h465v-956zM420 1049h-168l-2 198q68 -14 108 8q25 14 25 39q0 15 -7 22.5t-15.5 9t-22.5 1.5q-15 0 -27.5 -11.5t-13.5 -33.5h-184q2 84 49 143q21 25 68 46.5t106 21.5q120 0 177.5 -51.5t55.5 -151.5q-1 -70 -45 -117.5t-104 -58.5v-65z" />
    <glyph glyph-name="uni1ECA" unicode="&#x1eca;" horiz-adv-x="770" 
d="M207 -307q0 66 48 108.5t120 42.5q75 0 124.5 -42.5t49.5 -108.5q0 -63 -49.5 -106.5t-124.5 -43.5q-72 0 -120 43.5t-48 106.5zM633 0h-496v1366h496v-1366z" />
    <glyph glyph-name="uni1ECB" unicode="&#x1ecb;" horiz-adv-x="661" 
d="M160 -307q0 66 48 108.5t120 42.5q75 0 124.5 -42.5t49.5 -108.5q0 -63 -49.5 -106.5t-124.5 -43.5q-72 0 -120 43.5t-48 106.5zM563 0h-465v956h465v-956zM139 1192q0 67 54.5 112.5t132.5 45.5q85 0 139.5 -45t54.5 -113q0 -67 -54.5 -111.5t-139.5 -44.5
q-78 0 -132.5 45t-54.5 111z" />
    <glyph glyph-name="uni1ECC" unicode="&#x1ecc;" horiz-adv-x="1667" 
d="M666 -307q0 66 48 108.5t120 42.5q75 0 124.5 -42.5t49.5 -108.5q0 -63 -49.5 -106.5t-124.5 -43.5q-72 0 -120 43.5t-48 106.5zM1591 684q0 -157 -52 -282t-138 -214q-95 -98 -239 -158.5t-328 -60.5t-328.5 60.5t-239.5 158.5q-86 89 -138 214t-52 282q0 155 52 280
t138 214q93 98 239 158.5t329 60.5t328.5 -60.5t238.5 -158.5q86 -89 138 -214t52 -280zM834 956q-114 0 -179 -69q-36 -38 -56.5 -93.5t-20.5 -111.5q0 -126 77 -203q69 -69 179 -69q109 0 178 69q78 78 78 203q0 130 -78 205q-69 69 -178 69z" />
    <glyph glyph-name="uni1ECD" unicode="&#x1ecd;" horiz-adv-x="1282" 
d="M473 -307q0 66 48 108.5t120 42.5q75 0 124.5 -42.5t49.5 -108.5q0 -63 -49.5 -106.5t-124.5 -43.5q-72 0 -120 43.5t-48 106.5zM1225 479q0 -100 -37.5 -190t-100.5 -154q-66 -69 -177.5 -115.5t-268.5 -46.5t-268.5 46.5t-177.5 115.5q-63 64 -100.5 154t-37.5 190
q0 91 35.5 181.5t102.5 160.5q66 69 177.5 115.5t268.5 46.5t268.5 -46.5t177.5 -115.5q67 -70 102.5 -160.5t35.5 -181.5zM641 614q-58 0 -90 -32q-41 -41 -41 -103q0 -63 41 -104q33 -33 90 -33t90 33q41 41 41 104q0 62 -41 103q-32 32 -90 32z" />
    <glyph glyph-name="uni1ECE" unicode="&#x1ece;" horiz-adv-x="1667" 
d="M1591 684q0 -157 -52 -282t-138 -214q-95 -98 -239 -158.5t-328 -60.5t-328.5 60.5t-239.5 158.5q-86 89 -138 214t-52 282q0 155 52 280t138 214q93 98 239 158.5t329 60.5t328.5 -60.5t238.5 -158.5q86 -89 138 -214t52 -280zM834 956q-114 0 -179 -69
q-36 -38 -56.5 -93.5t-20.5 -111.5q0 -126 77 -203q69 -69 179 -69q109 0 178 69q78 78 78 203q0 130 -78 205q-69 69 -178 69zM958 1454h-167l-3 199q37 -6 65.5 -3.5t43.5 11.5q25 14 25 39q0 15 -7 22.5t-15.5 9t-22.5 1.5q-15 0 -27.5 -11.5t-13.5 -33.5h-185
q2 84 49 143q21 25 67.5 46t106.5 21q120 0 178 -51t56 -151q-1 -70 -45.5 -117.5t-104.5 -58.5v-66z" />
    <glyph glyph-name="uni1ECF" unicode="&#x1ecf;" horiz-adv-x="1282" 
d="M762 1049h-168l-2 198q68 -14 108 8q25 14 25 39q0 15 -7 22.5t-15.5 9t-22.5 1.5q-15 0 -27.5 -11.5t-13.5 -33.5h-184q2 84 49 143q21 25 68 46.5t106 21.5q120 0 177.5 -51.5t55.5 -151.5q-1 -70 -45 -117.5t-104 -58.5v-65zM1225 479q0 -100 -37.5 -190t-100.5 -154
q-66 -69 -177.5 -115.5t-268.5 -46.5t-268.5 46.5t-177.5 115.5q-63 64 -100.5 154t-37.5 190q0 91 35.5 181.5t102.5 160.5q66 69 177.5 115.5t268.5 46.5t268.5 -46.5t177.5 -115.5q67 -70 102.5 -160.5t35.5 -181.5zM641 614q-58 0 -90 -32q-41 -41 -41 -103
q0 -63 41 -104q33 -33 90 -33t90 33q41 41 41 104q0 62 -41 103q-32 32 -90 32z" />
    <glyph glyph-name="uni1ED0" unicode="&#x1ed0;" horiz-adv-x="1667" 
d="M1417 2019l-344 -245l-121 131l293 288zM1591 684q0 -157 -52 -282t-138 -214q-95 -98 -239 -158.5t-328 -60.5t-328.5 60.5t-239.5 158.5q-86 89 -138 214t-52 282q0 155 52 280t138 214q93 98 239 158.5t329 60.5t328.5 -60.5t238.5 -158.5q86 -89 138 -214t52 -280z
M834 956q-114 0 -179 -69q-36 -38 -56.5 -93.5t-20.5 -111.5q0 -126 77 -203q69 -69 179 -69q109 0 178 69q78 78 78 203q0 130 -78 205q-69 69 -178 69zM834 1599l-185 -145l-160 139l345 267l348 -267l-162 -139z" />
    <glyph glyph-name="uni1ED1" unicode="&#x1ed1;" horiz-adv-x="1282" 
d="M1225 1614l-344 -246l-121 131l293 289zM1225 479q0 -100 -37.5 -190t-100.5 -154q-66 -69 -177.5 -115.5t-268.5 -46.5t-268.5 46.5t-177.5 115.5q-63 64 -100.5 154t-37.5 190q0 91 35.5 181.5t102.5 160.5q66 69 177.5 115.5t268.5 46.5t268.5 -46.5t177.5 -115.5
q67 -70 102.5 -160.5t35.5 -181.5zM641 614q-58 0 -90 -32q-41 -41 -41 -103q0 -63 41 -104q33 -33 90 -33t90 33q41 41 41 104q0 62 -41 103q-32 32 -90 32zM641 1194l-184 -145l-160 139l344 266l348 -266l-162 -139z" />
    <glyph glyph-name="uni1ED2" unicode="&#x1ed2;" horiz-adv-x="1667" 
d="M1118 1774l-344 245l172 174l293 -288zM1591 684q0 -157 -52 -282t-138 -214q-95 -98 -239 -158.5t-328 -60.5t-328.5 60.5t-239.5 158.5q-86 89 -138 214t-52 282q0 155 52 280t138 214q93 98 239 158.5t329 60.5t328.5 -60.5t238.5 -158.5q86 -89 138 -214t52 -280z
M834 956q-114 0 -179 -69q-36 -38 -56.5 -93.5t-20.5 -111.5q0 -126 77 -203q69 -69 179 -69q109 0 178 69q78 78 78 203q0 130 -78 205q-69 69 -178 69zM834 1599l-185 -145l-160 139l345 267l348 -267l-162 -139z" />
    <glyph glyph-name="uni1ED3" unicode="&#x1ed3;" horiz-adv-x="1282" 
d="M926 1368l-344 246l172 174l293 -289zM1225 479q0 -100 -37.5 -190t-100.5 -154q-66 -69 -177.5 -115.5t-268.5 -46.5t-268.5 46.5t-177.5 115.5q-63 64 -100.5 154t-37.5 190q0 91 35.5 181.5t102.5 160.5q66 69 177.5 115.5t268.5 46.5t268.5 -46.5t177.5 -115.5
q67 -70 102.5 -160.5t35.5 -181.5zM641 614q-58 0 -90 -32q-41 -41 -41 -103q0 -63 41 -104q33 -33 90 -33t90 33q41 41 41 104q0 62 -41 103q-32 32 -90 32zM641 1194l-184 -145l-160 139l344 266l348 -266l-162 -139z" />
    <glyph glyph-name="uni1ED4" unicode="&#x1ed4;" horiz-adv-x="1667" 
d="M1217 1774h-168l-2 198q68 -14 108 8q25 14 25 39q0 15 -7 22.5t-15.5 9t-22.5 1.5q-15 0 -27.5 -11.5t-13.5 -33.5h-185q2 84 49 143q21 25 68 46.5t107 21.5q120 0 177.5 -51.5t55.5 -151.5q-1 -70 -45 -117.5t-104 -58.5v-65zM1591 684q0 -157 -52 -282t-138 -214
q-95 -98 -239 -158.5t-328 -60.5t-328.5 60.5t-239.5 158.5q-86 89 -138 214t-52 282q0 155 52 280t138 214q93 98 239 158.5t329 60.5t328.5 -60.5t238.5 -158.5q86 -89 138 -214t52 -280zM834 956q-114 0 -179 -69q-36 -38 -56.5 -93.5t-20.5 -111.5q0 -126 77 -203
q69 -69 179 -69q109 0 178 69q78 78 78 203q0 130 -78 205q-69 69 -178 69zM834 1599l-185 -145l-160 139l345 267l348 -267l-162 -139z" />
    <glyph glyph-name="uni1ED5" unicode="&#x1ed5;" horiz-adv-x="1282" 
d="M1024 1368h-168l-2 199q37 -6 65.5 -3.5t43.5 11.5q24 14 24 39q0 15 -7 22.5t-15.5 9t-22.5 1.5q-15 0 -27.5 -11.5t-13.5 -33.5h-184q2 84 49 143q21 25 67.5 46t106.5 21q120 0 178 -51t56 -151q-1 -70 -45.5 -117.5t-104.5 -58.5v-66zM1225 479q0 -100 -37.5 -190
t-100.5 -154q-66 -69 -177.5 -115.5t-268.5 -46.5t-268.5 46.5t-177.5 115.5q-63 64 -100.5 154t-37.5 190q0 91 35.5 181.5t102.5 160.5q66 69 177.5 115.5t268.5 46.5t268.5 -46.5t177.5 -115.5q67 -70 102.5 -160.5t35.5 -181.5zM641 614q-58 0 -90 -32q-41 -41 -41 -103
q0 -63 41 -104q33 -33 90 -33t90 33q41 41 41 104q0 62 -41 103q-32 32 -90 32zM641 1194l-184 -145l-160 139l344 266l348 -266l-162 -139z" />
    <glyph glyph-name="uni1ED6" unicode="&#x1ed6;" horiz-adv-x="1667" 
d="M1006 2187l153 -94q-14 -37 -37.5 -77t-42.5 -58v2q-59 -59 -135 -59q-59 0 -110 32q-4 3 -19 10t-29 15q-48 18 -59 18q-40 0 -61 -82l-154 95q29 92 72 135q50 53 131 53q51 0 108 -25l49 -24q7 -3 19.5 -9.5t18 -9t15.5 -4.5t21 -2q32 0 60 84zM1591 684
q0 -157 -52 -282t-138 -214q-95 -98 -239 -158.5t-328 -60.5t-328.5 60.5t-239.5 158.5q-86 89 -138 214t-52 282q0 155 52 280t138 214q93 98 239 158.5t329 60.5t328.5 -60.5t238.5 -158.5q86 -89 138 -214t52 -280zM834 956q-114 0 -179 -69q-36 -38 -56.5 -93.5
t-20.5 -111.5q0 -126 77 -203q69 -69 179 -69q109 0 178 69q78 78 78 203q0 130 -78 205q-69 69 -178 69zM834 1599l-185 -145l-160 139l345 267l348 -267l-162 -139z" />
    <glyph glyph-name="uni1ED7" unicode="&#x1ed7;" horiz-adv-x="1282" 
d="M813 1782l154 -94q-37 -96 -80 -136v2q-59 -59 -135 -59q-58 0 -111 33q-4 2 -18.5 9t-28.5 15q-51 19 -59 19q-41 0 -62 -82l-154 94q29 92 72 135q51 54 131 54q52 0 109 -25l49 -25q7 -3 16.5 -7.5t14.5 -7t12 -5t14.5 -3.5t16.5 -1q31 0 59 84zM1225 479
q0 -100 -37.5 -190t-100.5 -154q-66 -69 -177.5 -115.5t-268.5 -46.5t-268.5 46.5t-177.5 115.5q-63 64 -100.5 154t-37.5 190q0 91 35.5 181.5t102.5 160.5q66 69 177.5 115.5t268.5 46.5t268.5 -46.5t177.5 -115.5q67 -70 102.5 -160.5t35.5 -181.5zM641 614
q-58 0 -90 -32q-41 -41 -41 -103q0 -63 41 -104q33 -33 90 -33t90 33q41 41 41 104q0 62 -41 103q-32 32 -90 32zM641 1194l-184 -145l-160 139l344 266l348 -266l-162 -139z" />
    <glyph glyph-name="uni1ED8" unicode="&#x1ed8;" horiz-adv-x="1667" 
d="M1591 684q0 -157 -52 -282t-138 -214q-95 -98 -239 -158.5t-328 -60.5t-328.5 60.5t-239.5 158.5q-86 89 -138 214t-52 282q0 155 52 280t138 214q93 98 239 158.5t329 60.5t328.5 -60.5t238.5 -158.5q86 -89 138 -214t52 -280zM834 956q-114 0 -179 -69
q-36 -38 -56.5 -93.5t-20.5 -111.5q0 -126 77 -203q69 -69 179 -69q109 0 178 69q78 78 78 203q0 130 -78 205q-69 69 -178 69zM834 1599l-185 -145l-160 139l345 267l348 -267l-162 -139zM666 -307q0 66 48 108.5t120 42.5q75 0 124.5 -42.5t49.5 -108.5
q0 -63 -49.5 -106.5t-124.5 -43.5q-72 0 -120 43.5t-48 106.5z" />
    <glyph glyph-name="uni1ED9" unicode="&#x1ed9;" horiz-adv-x="1282" 
d="M1225 479q0 -100 -37.5 -190t-100.5 -154q-66 -69 -177.5 -115.5t-268.5 -46.5t-268.5 46.5t-177.5 115.5q-63 64 -100.5 154t-37.5 190q0 91 35.5 181.5t102.5 160.5q66 69 177.5 115.5t268.5 46.5t268.5 -46.5t177.5 -115.5q67 -70 102.5 -160.5t35.5 -181.5zM641 614
q-58 0 -90 -32q-41 -41 -41 -103q0 -63 41 -104q33 -33 90 -33t90 33q41 41 41 104q0 62 -41 103q-32 32 -90 32zM641 1194l-184 -145l-160 139l344 266l348 -266l-162 -139zM473 -307q0 66 48 108.5t120 42.5q75 0 124.5 -42.5t49.5 -108.5q0 -63 -49.5 -106.5
t-124.5 -43.5q-72 0 -120 43.5t-48 106.5z" />
    <glyph glyph-name="uni1EDA" unicode="&#x1eda;" horiz-adv-x="1667" 
d="M1202 1698l-344 -246l-121 131l293 289zM1591 684q0 -157 -52 -282t-138 -214q-95 -98 -239 -158.5t-328 -60.5t-328.5 60.5t-239.5 158.5q-86 89 -138 214t-52 282q0 155 52 280t138 214q93 98 239 158.5t329 60.5q131 0 253 -37q66 -6 133 -5t85 5q38 5 45 14
q18 16 18 82v55h277v-53q0 -146 -47 -219t-166 -96q159 -193 159 -459zM834 956q-114 0 -179 -69q-36 -38 -56.5 -93.5t-20.5 -111.5q0 -126 77 -203q69 -69 179 -69q109 0 178 69q78 78 78 203q0 130 -78 205q-69 69 -178 69z" />
    <glyph glyph-name="uni1EDB" unicode="&#x1edb;" horiz-adv-x="1282" 
d="M1004 1292l-345 -245l-120 131l292 288zM1225 479q0 -100 -37.5 -190t-100.5 -154q-66 -69 -177.5 -115.5t-268.5 -46.5t-268.5 46.5t-177.5 115.5q-63 64 -100.5 154t-37.5 190q0 91 35.5 181.5t102.5 160.5q66 69 177.5 115.5t268.5 46.5q117 0 225 -31q108 -10 138 0
q37 5 45 15q18 16 18 82v55h276v-53q0 -140 -43 -213t-149 -99q74 -121 74 -260zM641 614q-58 0 -90 -32q-41 -41 -41 -103q0 -63 41 -104q33 -33 90 -33t90 33q41 41 41 104q0 62 -41 103q-32 32 -90 32z" />
    <glyph glyph-name="uni1EDC" unicode="&#x1edc;" horiz-adv-x="1667" 
d="M938 1452l-344 246l172 174l293 -289zM1591 684q0 -157 -52 -282t-138 -214q-95 -98 -239 -158.5t-328 -60.5t-328.5 60.5t-239.5 158.5q-86 89 -138 214t-52 282q0 155 52 280t138 214q93 98 239 158.5t329 60.5q131 0 253 -37q66 -6 133 -5t85 5q38 5 45 14
q18 16 18 82v55h277v-53q0 -146 -47 -219t-166 -96q159 -193 159 -459zM834 956q-114 0 -179 -69q-36 -38 -56.5 -93.5t-20.5 -111.5q0 -126 77 -203q69 -69 179 -69q109 0 178 69q78 78 78 203q0 130 -78 205q-69 69 -178 69z" />
    <glyph glyph-name="uni1EDD" unicode="&#x1edd;" horiz-adv-x="1282" 
d="M748 1047l-345 245l172 174l293 -288zM1225 479q0 -100 -37.5 -190t-100.5 -154q-66 -69 -177.5 -115.5t-268.5 -46.5t-268.5 46.5t-177.5 115.5q-63 64 -100.5 154t-37.5 190q0 91 35.5 181.5t102.5 160.5q66 69 177.5 115.5t268.5 46.5q117 0 225 -31q108 -10 138 0
q37 5 45 15q18 16 18 82v55h276v-53q0 -140 -43 -213t-149 -99q74 -121 74 -260zM641 614q-58 0 -90 -32q-41 -41 -41 -103q0 -63 41 -104q33 -33 90 -33t90 33q41 41 41 104q0 62 -41 103q-32 32 -90 32z" />
    <glyph glyph-name="uni1EDE" unicode="&#x1ede;" horiz-adv-x="1667" 
d="M958 1454h-167l-3 199q37 -6 65.5 -3.5t43.5 11.5q25 14 25 39q0 15 -7 22.5t-15.5 9t-22.5 1.5q-15 0 -27.5 -11.5t-13.5 -33.5h-185q2 84 49 143q21 25 67.5 46t106.5 21q120 0 178 -51t56 -151q-1 -70 -45.5 -117.5t-104.5 -58.5v-66zM1591 684q0 -157 -52 -282
t-138 -214q-95 -98 -239 -158.5t-328 -60.5t-328.5 60.5t-239.5 158.5q-86 89 -138 214t-52 282q0 155 52 280t138 214q93 98 239 158.5t329 60.5q131 0 253 -37q66 -6 133 -5t85 5q38 5 45 14q18 16 18 82v55h277v-53q0 -146 -47 -219t-166 -96q159 -193 159 -459zM834 956
q-114 0 -179 -69q-36 -38 -56.5 -93.5t-20.5 -111.5q0 -126 77 -203q69 -69 179 -69q109 0 178 69q78 78 78 203q0 130 -78 205q-69 69 -178 69z" />
    <glyph glyph-name="uni1EDF" unicode="&#x1edf;" horiz-adv-x="1282" 
d="M762 1049h-168l-2 198q68 -14 108 8q25 14 25 39q0 15 -7 22.5t-15.5 9t-22.5 1.5q-15 0 -27.5 -11.5t-13.5 -33.5h-184q2 84 49 143q21 25 68 46.5t106 21.5q120 0 177.5 -51.5t55.5 -151.5q-1 -70 -45 -117.5t-104 -58.5v-65zM1225 479q0 -100 -37.5 -190t-100.5 -154
q-66 -69 -177.5 -115.5t-268.5 -46.5t-268.5 46.5t-177.5 115.5q-63 64 -100.5 154t-37.5 190q0 91 35.5 181.5t102.5 160.5q66 69 177.5 115.5t268.5 46.5q117 0 225 -31q108 -10 138 0q37 5 45 15q18 16 18 82v55h276v-53q0 -140 -43 -213t-149 -99q74 -121 74 -260z
M641 614q-58 0 -90 -32q-41 -41 -41 -103q0 -63 41 -104q33 -33 90 -33t90 33q41 41 41 104q0 62 -41 103q-32 32 -90 32z" />
    <glyph glyph-name="uni1EE0" unicode="&#x1ee0;" horiz-adv-x="1667" 
d="M1032 1765l154 -94q-14 -37 -37.5 -77t-42.5 -58v2q-59 -59 -135 -59q-60 0 -111 32q-4 3 -19 10t-28 15q-48 18 -59 18q-41 0 -62 -81l-153 94q29 93 71 135q50 53 131 53q54 0 109 -24l49 -25q7 -3 19.5 -9.5t18 -9t15.5 -4.5t21 -2q31 0 59 84zM1591 684
q0 -157 -52 -282t-138 -214q-95 -98 -239 -158.5t-328 -60.5t-328.5 60.5t-239.5 158.5q-86 89 -138 214t-52 282q0 155 52 280t138 214q93 98 239 158.5t329 60.5q131 0 253 -37q66 -6 133 -5t85 5q38 5 45 14q18 16 18 82v55h277v-53q0 -146 -47 -219t-166 -96
q159 -193 159 -459zM834 956q-114 0 -179 -69q-36 -38 -56.5 -93.5t-20.5 -111.5q0 -126 77 -203q69 -69 179 -69q109 0 178 69q78 78 78 203q0 130 -78 205q-69 69 -178 69z" />
    <glyph glyph-name="uni1EE1" unicode="&#x1ee1;" horiz-adv-x="1282" 
d="M823 1362l154 -94q-14 -37 -37.5 -77t-42.5 -58v2q-60 -60 -135 -60q-58 0 -111 33q-4 3 -19 10t-28 15q-48 18 -59 18q-41 0 -62 -82l-153 94q29 93 71 135q51 54 131 54q52 0 109 -25l49 -24q7 -3 19.5 -9.5t18 -9t15.5 -4.5t21 -2q31 0 59 84zM1225 479
q0 -100 -37.5 -190t-100.5 -154q-66 -69 -177.5 -115.5t-268.5 -46.5t-268.5 46.5t-177.5 115.5q-63 64 -100.5 154t-37.5 190q0 91 35.5 181.5t102.5 160.5q66 69 177.5 115.5t268.5 46.5q117 0 225 -31q108 -10 138 0q37 5 45 15q18 16 18 82v55h276v-53q0 -140 -43 -213
t-149 -99q74 -121 74 -260zM641 614q-58 0 -90 -32q-41 -41 -41 -103q0 -63 41 -104q33 -33 90 -33t90 33q41 41 41 104q0 62 -41 103q-32 32 -90 32z" />
    <glyph glyph-name="uni1EE2" unicode="&#x1ee2;" horiz-adv-x="1667" 
d="M666 -307q0 66 48 108.5t120 42.5q75 0 124.5 -42.5t49.5 -108.5q0 -63 -49.5 -106.5t-124.5 -43.5q-72 0 -120 43.5t-48 106.5zM1591 684q0 -157 -52 -282t-138 -214q-95 -98 -239 -158.5t-328 -60.5t-328.5 60.5t-239.5 158.5q-86 89 -138 214t-52 282q0 155 52 280
t138 214q93 98 239 158.5t329 60.5q131 0 253 -37q66 -6 133 -5t85 5q38 5 45 14q18 16 18 82v55h277v-53q0 -146 -47 -219t-166 -96q159 -193 159 -459zM834 956q-114 0 -179 -69q-36 -38 -56.5 -93.5t-20.5 -111.5q0 -126 77 -203q69 -69 179 -69q109 0 178 69
q78 78 78 203q0 130 -78 205q-69 69 -178 69z" />
    <glyph glyph-name="uni1EE3" unicode="&#x1ee3;" horiz-adv-x="1282" 
d="M473 -307q0 66 48 108.5t120 42.5q75 0 124.5 -42.5t49.5 -108.5q0 -63 -49.5 -106.5t-124.5 -43.5q-72 0 -120 43.5t-48 106.5zM1225 479q0 -100 -37.5 -190t-100.5 -154q-66 -69 -177.5 -115.5t-268.5 -46.5t-268.5 46.5t-177.5 115.5q-63 64 -100.5 154t-37.5 190
q0 91 35.5 181.5t102.5 160.5q66 69 177.5 115.5t268.5 46.5q117 0 225 -31q108 -10 138 0q37 5 45 15q18 16 18 82v55h276v-53q0 -140 -43 -213t-149 -99q74 -121 74 -260zM641 614q-58 0 -90 -32q-41 -41 -41 -103q0 -63 41 -104q33 -33 90 -33t90 33q41 41 41 104
q0 62 -41 103q-32 32 -90 32z" />
    <glyph glyph-name="uni1EE4" unicode="&#x1ee4;" horiz-adv-x="1538" 
d="M137 494v872h492v-793q0 -94 43 -139q32 -37 98 -37q67 0 100 33q37 37 37 143v793h494v-838q0 -240 -144 -389q-170 -170 -487 -170q-344 0 -508 181q-125 136 -125 344zM602 -307q0 66 48 108.5t120 42.5q75 0 124.5 -42.5t49.5 -108.5q0 -63 -49.5 -106.5
t-124.5 -43.5q-72 0 -120 43.5t-48 106.5z" />
    <glyph glyph-name="uni1EE5" unicode="&#x1ee5;" horiz-adv-x="1286" 
d="M98 391v565h465v-518q0 -53 23 -76q18 -20 55 -20t57 20q25 25 25 76v518h465v-550q0 -155 -111 -273q-70 -75 -181.5 -117.5t-254.5 -42.5q-141 0 -250.5 42t-179.5 112q-113 113 -113 264zM473 -307q0 66 48 108.5t120 42.5q75 0 124.5 -42.5t49.5 -108.5
q0 -63 -49.5 -106.5t-124.5 -43.5q-72 0 -120 43.5t-48 106.5z" />
    <glyph glyph-name="uni1EE6" unicode="&#x1ee6;" horiz-adv-x="1538" 
d="M860 1454h-168l-2 199q37 -6 65.5 -3.5t43.5 11.5q24 14 24 39q0 15 -7 22.5t-15.5 9t-22.5 1.5q-15 0 -27.5 -11.5t-13.5 -33.5h-184q2 84 49 143q21 25 67.5 46t106.5 21q120 0 178 -51t56 -151q-1 -70 -45.5 -117.5t-104.5 -58.5v-66zM137 494v872h492v-793
q0 -94 43 -139q32 -37 98 -37q67 0 100 33q37 37 37 143v793h494v-838q0 -240 -144 -389q-170 -170 -487 -170q-344 0 -508 181q-125 136 -125 344z" />
    <glyph glyph-name="uni1EE7" unicode="&#x1ee7;" horiz-adv-x="1286" 
d="M731 1049h-168l-2 198q37 -6 65.5 -3.5t43.5 11.5q24 14 24 39q0 15 -7 22.5t-15.5 9t-22.5 1.5q-15 0 -27.5 -11.5t-13.5 -33.5h-184q2 84 49 143q21 25 68 46.5t106 21.5q120 0 178 -51.5t56 -151.5q-1 -70 -45.5 -117.5t-104.5 -58.5v-65zM98 391v565h465v-518
q0 -53 23 -76q18 -20 55 -20t57 20q25 25 25 76v518h465v-550q0 -155 -111 -273q-70 -75 -181.5 -117.5t-254.5 -42.5q-141 0 -250.5 42t-179.5 112q-113 113 -113 264z" />
    <glyph glyph-name="uni1EE8" unicode="&#x1ee8;" horiz-adv-x="1562" 
d="M1098 1698l-344 -246l-121 131l293 289zM137 494v872h492v-793q0 -94 43 -139q32 -37 98 -37q67 0 100 33q37 37 37 143v793h439q8 2 14 8q18 16 18 82v55h277v-53q0 -156 -57 -230t-197 -91v-609q0 -240 -144 -389q-170 -170 -487 -170q-344 0 -508 181
q-125 136 -125 344z" />
    <glyph glyph-name="uni1EE9" unicode="&#x1ee9;" horiz-adv-x="1355" 
d="M926 1292l-344 -245l-121 131l293 288zM98 391v565h465v-518q0 -53 23 -76q18 -20 55 -20t57 20q25 25 25 76v518h389q15 3 23 11q18 16 18 82v55h277v-53q0 -155 -54 -228.5t-188 -91.5v-325q0 -155 -111 -273q-70 -75 -181.5 -117.5t-254.5 -42.5q-141 0 -250.5 42
t-179.5 112q-113 113 -113 264z" />
    <glyph glyph-name="uni1EEA" unicode="&#x1eea;" horiz-adv-x="1562" 
d="M840 1452l-344 246l172 174l293 -289zM137 494v872h492v-793q0 -94 43 -139q32 -37 98 -37q67 0 100 33q37 37 37 143v793h439q8 2 14 8q18 16 18 82v55h277v-53q0 -156 -57 -230t-197 -91v-609q0 -240 -144 -389q-170 -170 -487 -170q-344 0 -508 181q-125 136 -125 344
z" />
    <glyph glyph-name="uni1EEB" unicode="&#x1eeb;" horiz-adv-x="1355" 
d="M709 1047l-344 245l172 174l292 -288zM98 391v565h465v-518q0 -53 23 -76q18 -20 55 -20t57 20q25 25 25 76v518h389q15 3 23 11q18 16 18 82v55h277v-53q0 -155 -54 -228.5t-188 -91.5v-325q0 -155 -111 -273q-70 -75 -181.5 -117.5t-254.5 -42.5q-141 0 -250.5 42
t-179.5 112q-113 113 -113 264z" />
    <glyph glyph-name="uni1EEC" unicode="&#x1eec;" horiz-adv-x="1562" 
d="M860 1454h-168l-2 199q37 -6 65.5 -3.5t43.5 11.5q24 14 24 39q0 15 -7 22.5t-15.5 9t-22.5 1.5q-15 0 -27.5 -11.5t-13.5 -33.5h-184q2 84 49 143q21 25 67.5 46t106.5 21q120 0 178 -51t56 -151q-1 -70 -45.5 -117.5t-104.5 -58.5v-66zM137 494v872h492v-793
q0 -94 43 -139q32 -37 98 -37q67 0 100 33q37 37 37 143v793h439q8 2 14 8q18 16 18 82v55h277v-53q0 -156 -57 -230t-197 -91v-609q0 -240 -144 -389q-170 -170 -487 -170q-344 0 -508 181q-125 136 -125 344z" />
    <glyph glyph-name="uni1EED" unicode="&#x1eed;" horiz-adv-x="1355" 
d="M731 1049h-168l-2 198q37 -6 65.5 -3.5t43.5 11.5q24 14 24 39q0 15 -7 22.5t-15.5 9t-22.5 1.5q-15 0 -27.5 -11.5t-13.5 -33.5h-184q2 84 49 143q21 25 68 46.5t106 21.5q120 0 178 -51.5t56 -151.5q-1 -70 -45.5 -117.5t-104.5 -58.5v-65zM98 391v565h465v-518
q0 -53 23 -76q18 -20 55 -20t57 20q25 25 25 76v518h389q15 3 23 11q18 16 18 82v55h277v-53q0 -155 -54 -228.5t-188 -91.5v-325q0 -155 -111 -273q-70 -75 -181.5 -117.5t-254.5 -42.5q-141 0 -250.5 42t-179.5 112q-113 113 -113 264z" />
    <glyph glyph-name="uni1EEE" unicode="&#x1eee;" horiz-adv-x="1562" 
d="M950 1765l154 -94q-14 -37 -37.5 -77t-42.5 -58v2q-59 -59 -135 -59q-60 0 -111 32q-4 3 -19 10t-28 15q-48 18 -59 18q-41 0 -62 -81l-153 94q29 93 71 135q50 53 131 53q54 0 109 -24l49 -25q7 -3 19.5 -9.5t18 -9t15.5 -4.5t21 -2q31 0 59 84zM137 494v872h492v-793
q0 -94 43 -139q32 -37 98 -37q67 0 100 33q37 37 37 143v793h439q8 2 14 8q18 16 18 82v55h277v-53q0 -156 -57 -230t-197 -91v-609q0 -240 -144 -389q-170 -170 -487 -170q-344 0 -508 181q-125 136 -125 344z" />
    <glyph glyph-name="uni1EEF" unicode="&#x1eef;" horiz-adv-x="1355" 
d="M805 1362l153 -94q-37 -96 -79 -135v2q-60 -60 -136 -60q-57 0 -110 33q-4 3 -19 10t-28 15q-48 18 -60 18q-40 0 -61 -82l-154 94q29 92 72 135q51 54 131 54q52 0 109 -25l49 -24q8 -4 19.5 -10t17.5 -8.5t15.5 -4.5t20.5 -2q32 0 60 84zM98 391v565h465v-518
q0 -53 23 -76q18 -20 55 -20t57 20q25 25 25 76v518h389q15 3 23 11q18 16 18 82v55h277v-53q0 -155 -54 -228.5t-188 -91.5v-325q0 -155 -111 -273q-70 -75 -181.5 -117.5t-254.5 -42.5q-141 0 -250.5 42t-179.5 112q-113 113 -113 264z" />
    <glyph glyph-name="uni1EF0" unicode="&#x1ef0;" horiz-adv-x="1562" 
d="M602 -307q0 66 48 108.5t120 42.5q75 0 124.5 -42.5t49.5 -108.5q0 -63 -49.5 -106.5t-124.5 -43.5q-72 0 -120 43.5t-48 106.5zM137 494v872h492v-793q0 -94 43 -139q32 -37 98 -37q67 0 100 33q37 37 37 143v793h439q8 2 14 8q18 16 18 82v55h277v-53q0 -156 -57 -230
t-197 -91v-609q0 -240 -144 -389q-170 -170 -487 -170q-344 0 -508 181q-125 136 -125 344z" />
    <glyph glyph-name="uni1EF1" unicode="&#x1ef1;" horiz-adv-x="1355" 
d="M473 -307q0 66 48 108.5t120 42.5q75 0 124.5 -42.5t49.5 -108.5q0 -63 -49.5 -106.5t-124.5 -43.5q-72 0 -120 43.5t-48 106.5zM98 391v565h465v-518q0 -53 23 -76q18 -20 55 -20t57 20q25 25 25 76v518h389q15 3 23 11q18 16 18 82v55h277v-53q0 -155 -54 -228.5
t-188 -91.5v-325q0 -155 -111 -273q-70 -75 -181.5 -117.5t-254.5 -42.5q-141 0 -250.5 42t-179.5 112q-113 113 -113 264z" />
    <glyph glyph-name="Ygrave" unicode="&#x1ef2;" horiz-adv-x="1402" 
d="M752 1452l-344 246l172 174l292 -289zM461 588l-475 778h561l117 -250q17 -37 36 -108h15q7 43 37 108l106 250h559l-467 -778v-588h-489v588z" />
    <glyph glyph-name="ygrave" unicode="&#x1ef3;" horiz-adv-x="1230" 
d="M678 1047l-344 245l172 174l293 -288zM391 96l-411 860h501l115 -393q17 -58 20 -125h13q3 64 20 131l111 387h491l-649 -1425h-493z" />
    <glyph glyph-name="uni1EF4" unicode="&#x1ef4;" horiz-adv-x="1402" 
d="M532 -307q0 66 48 108.5t120 42.5q75 0 124.5 -42.5t49.5 -108.5q0 -63 -49.5 -106.5t-124.5 -43.5q-72 0 -120 43.5t-48 106.5zM461 588l-475 778h561l117 -250q17 -37 36 -108h15q7 43 37 108l106 250h559l-467 -778v-588h-489v588z" />
    <glyph glyph-name="uni1EF5" unicode="&#x1ef5;" horiz-adv-x="1230" 
d="M868 -307q0 66 48 108.5t120 42.5q75 0 124.5 -42.5t49.5 -108.5q0 -63 -49.5 -106.5t-124.5 -43.5q-72 0 -120 43.5t-48 106.5zM391 96l-411 860h501l115 -393q17 -58 20 -125h13q3 64 20 131l111 387h491l-649 -1425h-493z" />
    <glyph glyph-name="uni1EF6" unicode="&#x1ef6;" horiz-adv-x="1402" 
d="M797 1454h-168l-2 199q68 -14 108 8q25 14 25 39q0 15 -7 22.5t-15.5 9t-22.5 1.5q-15 0 -27.5 -11.5t-13.5 -33.5h-185q2 82 50 143q21 25 67.5 46t106.5 21q120 0 177.5 -51t55.5 -151q-1 -70 -45 -117.5t-104 -58.5v-66zM461 588l-475 778h561l117 -250
q17 -37 36 -108h15q7 43 37 108l106 250h559l-467 -778v-588h-489v588z" />
    <glyph glyph-name="uni1EF7" unicode="&#x1ef7;" horiz-adv-x="1230" 
d="M713 1049h-168l-2 198q68 -14 108 8q25 14 25 39q0 15 -7 22.5t-15.5 9t-22.5 1.5q-15 0 -27.5 -11.5t-13.5 -33.5h-184q2 84 49 143q21 25 68 46.5t106 21.5q120 0 177.5 -51.5t55.5 -151.5q-1 -70 -45 -117.5t-104 -58.5v-65zM391 96l-411 860h501l115 -393
q17 -58 20 -125h13q3 64 20 131l111 387h491l-649 -1425h-493z" />
    <glyph glyph-name="uni1EF8" unicode="&#x1ef8;" horiz-adv-x="1402" 
d="M864 1765l154 -94q-14 -37 -37.5 -77t-42.5 -58v2q-59 -59 -135 -59q-60 0 -111 32q-4 3 -19 10t-28 15q-48 18 -59 18q-41 0 -62 -81l-153 94q29 93 71 135q50 53 131 53q54 0 109 -24l49 -25q7 -3 19.5 -9.5t18 -9t15.5 -4.5t21 -2q31 0 59 84zM461 588l-475 778h561
l117 -250q17 -37 36 -108h15q7 43 37 108l106 250h559l-467 -778v-588h-489v588z" />
    <glyph glyph-name="uni1EF9" unicode="&#x1ef9;" horiz-adv-x="1230" 
d="M795 1362l153 -94q-14 -37 -37.5 -77t-42.5 -58v2q-60 -60 -135 -60q-57 0 -110 33q-4 3 -19 10t-29 15q-48 18 -59 18q-40 0 -61 -82l-154 94q29 92 72 135q51 54 131 54q50 0 108 -25l50 -24q8 -4 19.5 -10t17.5 -8.5t15.5 -4.5t20.5 -2q32 0 60 84zM391 96l-411 860
h501l115 -393q17 -58 20 -125h13q3 64 20 131l111 387h491l-649 -1425h-493z" />
    <glyph glyph-name="uni1EFA" unicode="&#x1efa;" horiz-adv-x="0" 
d="M1153 1104h277v-53q0 -176 -73 -249t-263 -77q-5 0 -15.5 -2t-34 -2t-67.5 4l-2 219q29 -6 51 -6.5t30.5 1.5t19.5 7t14 6q37 5 45 15q18 16 18 82v55z" />
    <glyph glyph-name="endash" unicode="&#x2013;" horiz-adv-x="1175" 
d="M143 389v307h889v-307h-889z" />
    <glyph glyph-name="emdash" unicode="&#x2014;" horiz-adv-x="1910" 
d="M1767 389h-1624v307h1624v-307z" />
    <glyph glyph-name="quoteleft" unicode="&#x2018;" horiz-adv-x="892" 
d="M96 690l322 676h364l-219 -676h-467z" />
    <glyph glyph-name="quoteright" unicode="&#x2019;" horiz-adv-x="892" 
d="M797 1366l-324 -676h-364l219 676h469z" />
    <glyph glyph-name="quotesinglbase" unicode="&#x201a;" horiz-adv-x="872" 
d="M776 348l-303 -676h-364l219 676h448z" />
    <glyph glyph-name="quotedblleft" unicode="&#x201c;" horiz-adv-x="1437" 
d="M662 690l303 676h364l-219 -676h-448zM96 690l301 676h365l-219 -676h-447z" />
    <glyph glyph-name="quotedblright" unicode="&#x201d;" horiz-adv-x="1437" 
d="M776 1366l-303 -676h-364l219 676h448zM1343 1366l-303 -676h-364l219 676h448z" />
    <glyph glyph-name="quotedblbase" unicode="&#x201e;" horiz-adv-x="1437" 
d="M776 348l-303 -676h-364l219 676h448zM1343 348l-303 -676h-364l219 676h448z" />
    <glyph glyph-name="dagger" unicode="&#x2020;" horiz-adv-x="1447" 
d="M930 -395h-412v1147h-350v358h350v383h412v-383h350v-358h-350v-1147z" />
    <glyph glyph-name="daggerdbl" unicode="&#x2021;" horiz-adv-x="1447" 
d="M518 432v361h-336v358h336v342h412v-342h336v-358h-336v-361h336v-356h-336v-471h-412v471h-336v356h336z" />
    <glyph glyph-name="bullet" unicode="&#x2022;" horiz-adv-x="2048" 
d="M1305 696q0 -120 -82 -202q-40 -40 -93.5 -62t-105.5 -22t-105.5 22t-93.5 62q-82 82 -82 202q0 121 82 203q40 40 93.5 62t105.5 22t105.5 -22t93.5 -62q82 -82 82 -203z" />
    <glyph glyph-name="ellipsis" unicode="&#x2026;" horiz-adv-x="2256" 
d="M1612 201q0 88 63 151q78 78 207 78q127 0 205 -78q63 -63 63 -151q0 -38 -16.5 -79t-46.5 -71q-78 -78 -205 -78q-129 0 -207 78q-30 30 -46.5 71t-16.5 79zM860 201q0 87 64 151q78 78 206 78q127 0 205 -78q64 -64 64 -151q0 -38 -17 -79t-47 -71q-78 -78 -205 -78
q-128 0 -206 78q-30 30 -47 71t-17 79zM106 201q0 87 64 151q78 78 207 78q127 0 205 -78q63 -63 63 -151q0 -38 -16.5 -79t-46.5 -71q-78 -78 -205 -78q-129 0 -207 78q-30 30 -47 71t-17 79z" />
    <glyph glyph-name="perthousand" unicode="&#x2030;" horiz-adv-x="3102" 
d="M913 1010q0 -154 -104 -258q-119 -119 -330 -119q-208 0 -327 119q-105 105 -105 258t105 258q118 118 327 118q212 0 330 -118q104 -104 104 -258zM401 1012q0 -47 27 -74q20 -20 55 -20q36 0 56 20q28 28 28 80q0 50 -24 74q-19 22 -58 22q-33 0 -55 -22
q-29 -29 -29 -80zM541 0l792 1366h226l-795 -1366h-223zM2056 354q0 -154 -104 -258q-119 -119 -330 -119q-209 0 -328 119q-104 104 -104 258t104 258q119 119 328 119q211 0 330 -119q104 -104 104 -258zM1544 356q0 -46 27 -73q21 -21 55 -21t55 21q29 29 29 79t-24 74
q-20 23 -58 23q-32 0 -55 -23q-29 -29 -29 -80zM3054 354q0 -153 -105 -258q-119 -119 -330 -119q-208 0 -327 119q-105 105 -105 258t105 258q119 119 327 119q211 0 330 -119q105 -105 105 -258zM2542 356q0 -47 26 -73q21 -21 55 -21q35 0 56 21q28 28 28 79q0 50 -24 74
q-20 23 -57 23q-33 0 -56 -23q-28 -28 -28 -80z" />
    <glyph glyph-name="guilsinglleft" unicode="&#x2039;" horiz-adv-x="667" 
d="M565 143l-188 -133l-309 465l325 461l189 -131l-232 -330z" />
    <glyph glyph-name="guilsinglright" unicode="&#x203a;" horiz-adv-x="667" 
d="M102 143l215 332l-231 330l188 131l326 -461l-309 -465z" />
    <glyph glyph-name="Euro" unicode="&#x20ac;" horiz-adv-x="1447" 
d="M1311 479l-15 -413q-86 -53 -180.5 -75t-220.5 -22q-132 0 -241.5 24.5t-211.5 96.5q-181 129 -249 354h-191l74 185h82v88h-156l74 184h117q58 227 247 363q112 82 223 107.5t246 25.5q113 0 219.5 -21t233.5 -82l-129 -325q-137 80 -281 80q-99 0 -174 -45
q-63 -41 -88 -103h522l-73 -184h-492v-88h481l-73 -185h-373q39 -69 106 -100q66 -31 175 -31t188 39q96 50 160 127z" />
    <glyph glyph-name="trademark" unicode="&#x2122;" horiz-adv-x="1695" 
d="M442 588h-295v514l-153 -8v272h600v-272l-152 8v-514zM911 588h-293l123 778h308l94 -348l92 348h305l125 -778h-291l-35 350l-106 -350h-186l-103 342z" />
    <glyph glyph-name="fi" unicode="&#xfb01;" horiz-adv-x="1427" 
d="M1329 0h-459v956h459v-956zM602 0h-459v600l-127 -14v370l127 -12v43q0 235 136 371q158 158 466 158q246 0 412 -109q28 -20 53 -46t54.5 -68t47 -103t17.5 -131v-21h-459q-3 43 -32 80q-34 37 -103 37q-62 0 -100 -35q-39 -39 -39 -108v-72l158 16v-370l-152 14v-600z
" />
    <glyph glyph-name="fl" unicode="&#xfb02;" horiz-adv-x="1427" 
d="M600 0h-457v600l-127 -14v370l127 -12v51q0 227 136 363q16 16 35 31.5t62 40t92 42t125 31t161 13.5q255 0 403 -113q172 -135 172 -389v-1014h-459v995q0 85 -34 121q-31 39 -99 39q-67 0 -104 -37q-39 -39 -39 -108v-70l158 16v-370l-152 14v-600z" />
    <glyph glyph-name="CR" horiz-adv-x="477" 
 />
    <glyph glyph-name="nbspace" horiz-adv-x="477" 
 />
    <glyph glyph-name="hyphenminus" horiz-adv-x="849" 
d="M748 358h-646v369h646v-369z" />
    <glyph glyph-name="dotlessi1" horiz-adv-x="661" 
d="M563 0h-465v956h465v-956z" />
    </font>
</defs>
</svg>
